<svg width="67" height="74" viewBox="0 0 67 74" fill="none" xmlns="http://www.w3.org/2000/svg">
<path d="M20.91 73.5C15.55 73.5 10.19 71.46 6.12 67.38C-2.04 59.22 -2.04 45.95 6.12 37.79L39.6 4.31006C42.38 1.53006 46.0801 0 50.0101 0C53.9401 0 57.64 1.53006 60.42 4.31006C63.2 7.09006 64.7301 10.79 64.7301 14.72C64.7301 18.65 63.2 22.35 60.42 25.13L27.5201 58.03C24.2001 61.36 18.7901 61.36 15.4601 58.03C13.8501 56.42 12.9601 54.28 12.9601 52C12.9601 49.72 13.8501 47.58 15.4601 45.97L45.1901 16.24C46.1701 15.26 47.7501 15.26 48.7301 16.24C49.7101 17.22 49.7101 18.8 48.7301 19.78L19.0001 49.51C18.3301 50.18 17.9701 51.06 17.9701 52C17.9701 52.94 18.3401 53.83 19.0001 54.49C20.3801 55.86 22.6101 55.87 23.9901 54.49L56.89 21.59C60.68 17.8 60.68 11.63 56.89 7.83997C55.05 5.99997 52.6101 4.98999 50.0101 4.98999C47.4101 4.98999 44.97 5.99997 43.13 7.83997L9.65003 41.3201C6.64003 44.3301 4.99012 48.3301 4.99012 52.5801C4.99012 56.8301 6.65003 60.83 9.65003 63.84C15.86 70.05 25.96 70.05 32.17 63.84L62.2802 33.73C63.2602 32.75 64.84 32.75 65.82 33.73C66.8 34.71 66.8 36.29 65.82 37.27L35.7101 67.38C31.6301 71.46 26.27 73.5 20.92 73.5H20.91Z" fill="#FFF8EA"/>
</svg>
