<svg width="75" height="70" viewBox="0 0 75 70" fill="none" xmlns="http://www.w3.org/2000/svg">
<path d="M67.6827 64.0605C69.0626 64.0606 70.1827 65.1806 70.1827 66.5605C70.1825 67.9403 69.0625 69.0604 67.6827 69.0605H6.61235C5.23259 69.0603 4.11251 67.9403 4.11235 66.5605C4.11235 65.1806 5.23249 64.0607 6.61235 64.0605H67.6827ZM33.043 1.11032C35.573 -0.369583 38.713 -0.369651 41.253 1.11032L72.4727 19.3701C73.9227 20.2201 74.6021 21.88 74.1622 23.5C73.7222 25.1199 72.303 26.2098 70.6231 26.2099V26.2197H62.1026V53.3701H63.503C64.8828 53.3702 66.0029 54.4902 66.003 55.8701C66.003 57.25 64.8829 58.37 63.503 58.3701H10.793C9.41301 58.3701 8.29301 57.2501 8.29301 55.8701C8.29312 54.4902 9.41308 53.3701 10.793 53.3701H12.1924V26.2197H3.6729C1.9929 26.2197 0.572858 25.1297 0.132858 23.5097C-0.306905 21.8899 0.37254 20.2298 1.82231 19.3798L33.043 1.11032ZM47.1329 26.2197V53.3701H57.1026V26.2197H47.1329ZM17.1924 53.3701H27.1622V26.2197H17.1924V53.3701ZM32.1622 53.3701H42.1329V26.2197H32.1622V53.3701ZM38.7325 5.43063C37.7625 4.86064 36.553 4.86067 35.5831 5.43063L8.59282 21.2197H65.7227L38.7325 5.43063Z" fill="#FFF8EA"/>
</svg>
