<svg width="20" height="18" viewBox="0 0 20 18" fill="none" xmlns="http://www.w3.org/2000/svg">
<path d="M12.0952 12.9606H7.90484C7.61426 12.9606 7.37842 13.1993 7.37842 13.4933C7.37842 13.7873 7.61426 14.0259 7.90484 14.0259H12.0952C12.3858 14.0259 12.6216 13.7873 12.6216 13.4933C12.6216 13.1993 12.3858 12.9606 12.0952 12.9606Z" fill="#112719"/>
<path d="M5.66022 8.30939L4.86637 10.1737C4.75056 10.4443 4.8748 10.7575 5.14222 10.8747C5.2096 10.9045 5.2812 10.9173 5.35069 10.9173C5.55494 10.9173 5.74866 10.7958 5.835 10.5955L6.49198 9.05298H13.6893L14.1652 10.2653C14.2726 10.538 14.5779 10.6722 14.8495 10.5636C15.119 10.4549 15.2517 10.146 15.1443 9.87114L14.5358 8.32217C14.4557 8.11976 14.262 7.98553 14.0472 7.98553H6.14243C5.93186 7.98553 5.74235 8.11124 5.65812 8.30726L5.66022 8.30939Z" fill="#112719"/>
<path d="M9.99996 5.46718C11.4887 5.46718 12.7016 4.23994 12.7016 2.73359C12.7016 1.22724 11.4887 0 9.99996 0C8.51123 0 7.29834 1.22724 7.29834 2.73359C7.29834 4.23994 8.51123 5.46718 9.99996 5.46718ZM9.99996 1.06531C10.9096 1.06531 11.6487 1.81316 11.6487 2.73359C11.6487 3.65402 10.9096 4.40186 9.99996 4.40186C9.09029 4.40186 8.35119 3.65402 8.35119 2.73359C8.35119 1.81316 9.09029 1.06531 9.99996 1.06531Z" fill="#112719"/>
<path d="M17.2983 2.73364C15.8096 2.73364 14.5967 3.96088 14.5967 5.46723C14.5967 6.97358 15.8096 8.20082 17.2983 8.20082C18.787 8.20082 19.9999 6.97358 19.9999 5.46723C19.9999 3.96088 18.787 2.73364 17.2983 2.73364ZM17.2983 7.13551C16.3886 7.13551 15.6495 6.38766 15.6495 5.46723C15.6495 4.5468 16.3886 3.79895 17.2983 3.79895C18.208 3.79895 18.9471 4.5468 18.9471 5.46723C18.9471 6.38766 18.208 7.13551 17.2983 7.13551Z" fill="#112719"/>
<path d="M2.70162 8.20082C4.19035 8.20082 5.40324 6.97358 5.40324 5.46723C5.40324 3.96088 4.19035 2.73364 2.70162 2.73364C1.21289 2.73364 0 3.96088 0 5.46723C0 6.97358 1.21289 8.20082 2.70162 8.20082ZM2.70162 3.79895C3.61128 3.79895 4.35038 4.5468 4.35038 5.46723C4.35038 6.38766 3.61128 7.13551 2.70162 7.13551C1.79195 7.13551 1.05285 6.38766 1.05285 5.46723C1.05285 4.5468 1.79195 3.79895 2.70162 3.79895Z" fill="#112719"/>
<path d="M3.83443 11.7696C2.3457 11.7696 1.13281 12.9968 1.13281 14.5032C1.13281 16.0095 2.3457 17.2368 3.83443 17.2368C5.32316 17.2368 6.53605 16.0095 6.53605 14.5032C6.53605 12.9968 5.32316 11.7696 3.83443 11.7696ZM3.83443 16.1715C2.92477 16.1715 2.18566 15.4236 2.18566 14.5032C2.18566 13.5828 2.92477 12.8349 3.83443 12.8349C4.74409 12.8349 5.4832 13.5828 5.4832 14.5032C5.4832 15.4236 4.74409 16.1715 3.83443 16.1715Z" fill="#112719"/>
<path d="M16.1655 11.7696C14.6768 11.7696 13.4639 12.9968 13.4639 14.5032C13.4639 16.0095 14.6768 17.2368 16.1655 17.2368C17.6542 17.2368 18.8671 16.0095 18.8671 14.5032C18.8671 12.9968 17.6542 11.7696 16.1655 11.7696ZM16.1655 16.1715C15.2558 16.1715 14.5167 15.4236 14.5167 14.5032C14.5167 13.5828 15.2558 12.8349 16.1655 12.8349C17.0751 12.8349 17.8143 13.5828 17.8143 14.5032C17.8143 15.4236 17.0751 16.1715 16.1655 16.1715Z" fill="#112719"/>
</svg>
