<svg width="81" height="73" viewBox="0 0 81 73" fill="none" xmlns="http://www.w3.org/2000/svg">
<path d="M33.2002 60.56H9.93994C7.21994 60.56 5.01025 58.35 5.01025 55.63V25.35H71.7202C73.1002 25.35 74.2202 24.23 74.2202 22.85V17.58C74.2202 12.1 69.76 7.64996 64.29 7.64996H51.4102V2.5C51.4102 1.12 50.2902 0 48.9102 0C47.5302 0 46.4102 1.12 46.4102 2.5V7.64996H27.8101V2.5C27.8101 1.12 26.6901 0 25.3101 0C23.9301 0 22.8101 1.12 22.8101 2.5V7.64996H9.93018C4.45018 7.64996 0 12.11 0 17.58V55.63C0 61.11 4.46018 65.56 9.93018 65.56H33.1899C34.5699 65.56 35.6899 64.44 35.6899 63.06C35.6899 61.68 34.5699 60.56 33.1899 60.56H33.2002ZM5 17.58C5 14.86 7.21018 12.65 9.93018 12.65H64.2803C67.0003 12.65 69.21 14.86 69.21 17.58V20.35H5V17.58Z" fill="#FFF8EA"/>
<path d="M59.5703 30.28C47.9603 30.28 38.52 39.72 38.52 51.33C38.52 62.94 47.9603 72.3801 59.5703 72.3801C71.1803 72.3801 80.6201 62.94 80.6201 51.33C80.6201 39.72 71.1803 30.28 59.5703 30.28ZM59.5703 67.3701C50.7203 67.3701 43.52 60.1701 43.52 51.3201C43.52 42.4701 50.7203 35.27 59.5703 35.27C68.4203 35.27 75.6201 42.4701 75.6201 51.3201C75.6201 60.1701 68.4203 67.3701 59.5703 67.3701Z" fill="#FFF8EA"/>
<path d="M63.6603 45.65L57.6203 51.6901L55.4904 49.5601C54.5104 48.5801 52.9303 48.5801 51.9503 49.5601C50.9703 50.5401 50.9703 52.1201 51.9503 53.1001L55.8502 57.0001C56.3202 57.4701 56.9503 57.7301 57.6203 57.7301C58.2903 57.7301 58.9203 57.4701 59.3903 57.0001L67.2003 49.2C68.1803 48.22 68.1803 46.64 67.2003 45.66C66.2203 44.68 64.6403 44.68 63.6603 45.66V45.65Z" fill="#FFF8EA"/>
</svg>
