<svg width="30" height="29" viewBox="0 0 30 29" fill="none" xmlns="http://www.w3.org/2000/svg">
<path d="M11.0801 21.7612H1.03591C0.464088 21.7612 0 21.3055 0 20.7439V10.8806C0 4.88283 4.97237 0 11.0801 0C17.1878 0 22.1602 4.88283 22.1602 10.8806C22.1602 16.8783 17.1878 21.7612 11.0801 21.7612ZM2.07182 19.7267H11.0801C16.0483 19.7267 20.0884 15.7594 20.0884 10.8806C20.0884 6.00182 16.0483 2.03452 11.0801 2.03452C6.11187 2.03452 2.07182 6.00182 2.07182 10.8806V19.7267Z" fill="#FFF8EA"/>
<path d="M28.9599 29H18.9116C16.1395 29 13.4792 27.9868 11.4323 26.1435C11.0096 25.7651 10.9807 25.1222 11.366 24.7071C11.7514 24.2921 12.4061 24.2636 12.8287 24.642C14.4945 26.1394 16.6574 26.9655 18.9116 26.9655H27.924V18.1235C27.924 15.7105 26.9502 13.4563 25.1809 11.7717C24.7707 11.3811 24.7582 10.7382 25.1602 10.3313C25.558 9.92842 26.2127 9.92028 26.627 10.3109C28.8025 12.382 30 15.1571 30 18.1235V27.9827C30 28.5442 29.5359 29 28.9641 29H28.9599Z" fill="#FFF8EA"/>
</svg>
