<?xml version="1.0" encoding="UTF-8"?>
<svg id="Layer_2" data-name="Layer 2" xmlns="http://www.w3.org/2000/svg" viewBox="0 0 31.3 35.03">
  <g id="Layer_1-2" data-name="Layer 1">
    <g>
      <path d="M18.99,7.44h11.06c.69,0,1.25-.56,1.25-1.25s-.56-1.25-1.25-1.25h-11.06c-.69,0-1.25.56-1.25,1.25s.56,1.25,1.25,1.25Z"/>
      <path d="M12.92.37l-7.49,7.49-3.3-3.3c-.49-.49-1.28-.49-1.76,0-.49.49-.49,1.28,0,1.76l4.18,4.18c.24.24.56.37.88.37s.64-.12.88-.37L14.68,2.13c.49-.49.49-1.28,0-1.76-.49-.49-1.28-.49-1.76,0Z"/>
      <path d="M30.05,17.03h-11.06c-.69,0-1.25.56-1.25,1.25s.56,1.25,1.25,1.25h11.06c.69,0,1.25-.56,1.25-1.25s-.56-1.25-1.25-1.25Z"/>
      <path d="M12.92,12.45l-7.49,7.49-3.3-3.3c-.49-.49-1.28-.49-1.76,0-.49.49-.49,1.28,0,1.76l4.18,4.18c.24.24.56.37.88.37s.64-.12.88-.37l8.37-8.37c.49-.49.49-1.28,0-1.76-.49-.49-1.28-.49-1.76,0Z"/>
      <path d="M30.05,29.11h-11.06c-.69,0-1.25.56-1.25,1.25s.56,1.25,1.25,1.25h11.06c.69,0,1.25-.56,1.25-1.25s-.56-1.25-1.25-1.25Z"/>
      <path d="M12.92,24.53l-7.49,7.49-3.3-3.3c-.49-.49-1.28-.49-1.76,0-.49.49-.49,1.28,0,1.76l4.18,4.18c.24.24.56.37.88.37s.64-.12.88-.37l8.37-8.37c.49-.49.49-1.28,0-1.76-.49-.49-1.28-.49-1.76,0Z"/>
    </g>
  </g>
</svg>
