<svg width="30" height="26" viewBox="0 0 30 26" fill="none" xmlns="http://www.w3.org/2000/svg">
<path d="M17.001 0C17.5604 0.000100297 18.0116 0.43841 18.0117 0.982422C18.0117 1.52655 17.5605 1.96572 17.001 1.96582H16.0107V2.93652C22.4558 3.42996 27.5725 8.42153 28.0596 14.6934H28.3369C28.8964 14.6934 29.3476 15.1316 29.3477 15.6758C29.3477 16.22 28.8965 16.6582 28.3369 16.6582H20.7773V19.043H25.9863C28.2004 19.043 30 20.7891 30 22.9463V25.0176C29.9998 25.5616 29.5487 26 28.9893 26H1.01074C0.451274 26 0.000175775 25.5616 0 25.0176V22.9463C0 20.793 1.79553 19.043 4.01367 19.043H9.21875V16.6582H1.65918C1.0996 16.6582 0.648438 16.22 0.648438 15.6758C0.648512 15.1316 1.09965 14.6934 1.65918 14.6934H1.93652C2.41961 8.42148 7.5362 3.4299 13.9854 2.93652V1.96582H12.9951C12.4356 1.96579 11.9844 1.5266 11.9844 0.982422C11.9845 0.438367 12.4357 3.04815e-05 12.9951 0H17.001ZM4.00977 21.0078C2.90671 21.0117 2.0166 21.8814 2.0166 22.9541V24.042H27.9746V22.9463C27.9746 21.8775 27.0813 21.0079 25.9824 21.0078H4.00977ZM11.2402 16.6582V19.043H18.7598V16.6582H11.2402ZM14.9961 4.8623C9.25539 4.86622 4.4683 9.13005 3.95703 14.6934H26.0342C25.5269 9.13401 20.7367 4.86628 14.9961 4.8623Z" fill="#FFF8EA"/>
</svg>
