<svg width="69" height="71" viewBox="0 0 69 71" fill="none" xmlns="http://www.w3.org/2000/svg">
<path d="M48.4899 57.71H27.53C26.08 57.71 24.7199 57.06 23.8099 55.93C22.8899 54.78 22.5399 53.3 22.8599 51.86C24.4099 44.82 30.7799 39.7 38.0099 39.7C45.2399 39.7 51.6 44.81 53.16 51.86C53.48 53.3 53.13 54.79 52.21 55.93C51.3 57.06 49.9499 57.71 48.4899 57.71ZM27.7999 52.71H48.22C47.08 48.06 42.8299 44.7 38.0099 44.7C33.1899 44.7 28.9299 48.05 27.7999 52.71Z" fill="#FFF8EA"/>
<path d="M38.0101 34.6299C33.0801 34.6299 29.0701 30.6199 29.0701 25.6899C29.0701 20.7599 33.0801 16.75 38.0101 16.75C42.9401 16.75 46.9501 20.7599 46.9501 25.6899C46.9501 30.6199 42.9401 34.6299 38.0101 34.6299ZM38.0101 21.7599C35.8401 21.7599 34.0701 23.53 34.0701 25.7C34.0701 27.87 35.8401 29.64 38.0101 29.64C40.1801 29.64 41.9501 27.87 41.9501 25.7C41.9501 23.53 40.1801 21.7599 38.0101 21.7599Z" fill="#FFF8EA"/>
<path d="M60.25 70.45H15.77C11.35 70.45 7.75 66.85 7.75 62.43V8.01996C7.75 3.59996 11.35 0 15.77 0H60.25C64.67 0 68.27 3.59996 68.27 8.01996V62.43C68.27 66.85 64.67 70.45 60.25 70.45ZM15.77 4.98999C14.1 4.98999 12.75 6.34995 12.75 8.00995V62.42C12.75 64.09 14.11 65.4399 15.77 65.4399H60.25C61.92 65.4399 63.27 64.08 63.27 62.42V8.00995C63.27 6.33995 61.91 4.98999 60.25 4.98999H15.77Z" fill="#FFF8EA"/>
<path d="M10.24 17.72H2.5C1.12 17.72 0 16.6 0 15.22C0 13.84 1.12 12.72 2.5 12.72H10.24C11.62 12.72 12.74 13.84 12.74 15.22C12.74 16.6 11.62 17.72 10.24 17.72Z" fill="#FFF8EA"/>
<path d="M10.24 57.71H2.5C1.12 57.71 0 56.59 0 55.21C0 53.83 1.12 52.71 2.5 52.71H10.24C11.62 52.71 12.74 53.83 12.74 55.21C12.74 56.59 11.62 57.71 10.24 57.71Z" fill="#FFF8EA"/>
<path d="M10.24 44.3799H2.5C1.12 44.3799 0 43.2599 0 41.8799C0 40.4999 1.12 39.3799 2.5 39.3799H10.24C11.62 39.3799 12.74 40.4999 12.74 41.8799C12.74 43.2599 11.62 44.3799 10.24 44.3799Z" fill="#FFF8EA"/>
<path d="M10.24 31.05H2.5C1.12 31.05 0 29.93 0 28.55C0 27.17 1.12 26.05 2.5 26.05H10.24C11.62 26.05 12.74 27.17 12.74 28.55C12.74 29.93 11.62 31.05 10.24 31.05Z" fill="#FFF8EA"/>
</svg>
