<svg width="22" height="30" viewBox="0 0 22 30" fill="none" xmlns="http://www.w3.org/2000/svg">
<path d="M6.75293 0.0131558C7.51302 0.111728 8.11648 0.723646 8.20898 1.49948V28.4985C8.1527 29.3807 7.4091 30.0502 6.54492 29.9975C5.68139 30.0493 4.93895 29.3761 4.88672 28.4985V1.49948C4.99531 0.563504 5.83593 -0.101789 6.75293 0.0131558ZM14.3623 4.92722C14.5111 3.99124 15.376 3.35052 16.293 3.50241C17.0088 3.62151 17.5718 4.19654 17.6885 4.92722V25.0708C17.6161 25.9369 16.8761 26.5856 16.0234 26.52C15.1749 26.5857 14.4349 25.9416 14.3623 25.0757V4.92722ZM9.47949 9.38523C9.70872 8.44932 10.6378 7.875 11.5547 8.10886C12.17 8.26485 12.6528 8.75717 12.8057 9.38523V20.6128C12.6971 21.442 11.9571 22.0332 11.1406 21.9428C10.3242 22.0331 9.58808 21.442 9.47949 20.6128V9.38523ZM1.66504 10.4194C2.58606 10.4194 3.33008 11.1795 3.33008 12.1196V17.8911C3.33008 18.8271 2.58594 19.5903 1.66895 19.5903L1.66113 19.5864C0.744134 19.5864 0 18.8271 0 17.8911V12.1196C0 11.1836 0.744036 10.4194 1.66504 10.4194ZM20.335 11.0971C21.2558 11.0972 21.9998 11.8565 22 12.7964V17.2094C22 18.1454 21.2559 18.9096 20.3389 18.9096L20.3311 18.9048C19.4141 18.9048 18.6699 18.1454 18.6699 17.2094V12.7964C18.6701 11.8605 19.414 11.0971 20.335 11.0971Z" fill="#FFF8EA"/>
</svg>
