<svg width="30" height="25" viewBox="0 0 30 25" fill="none" xmlns="http://www.w3.org/2000/svg">
<path d="M15.3276 25C15.0654 25 14.8112 24.8945 14.6245 24.7039C14.4299 24.5052 14.3227 24.2295 14.3346 23.9456L14.4816 20.3244C14.4935 20.0689 14.5968 19.8296 14.7715 19.6472L24.1969 10.0243C25.5235 8.67394 27.6763 8.66988 29.0029 10.0243C29.6464 10.6812 29.9999 11.5491 29.9999 12.4777C29.9999 13.4063 29.6464 14.2741 29.0029 14.931L19.5775 24.5539C19.4027 24.7323 19.1644 24.8378 18.9182 24.85L15.3713 25C15.3713 25 15.3434 25 15.3315 25H15.3276ZM16.4516 20.7988L16.3643 22.9238L18.4455 22.8345L27.5969 13.4915C27.863 13.2198 28.0099 12.8589 28.0099 12.4736C28.0099 12.0884 27.863 11.7275 27.5969 11.4558C27.0448 10.8962 26.1511 10.8921 25.599 11.4558L16.4477 20.7988H16.4516Z" fill="#FFF8EA"/>
<path d="M9.1354 25H3.94408C1.76747 25 0 23.1914 0 20.9732V4.02673C0 1.80451 1.77145 0 3.94408 0H23.6964C25.873 0 27.6405 1.80857 27.6405 4.02673V6.16381C27.6405 6.72342 27.1956 7.17759 26.6475 7.17759C26.0994 7.17759 25.6545 6.72342 25.6545 6.16381V4.02673C25.6545 2.92373 24.7768 2.02757 23.6964 2.02757H3.94408C2.86372 2.02757 1.98596 2.92373 1.98596 4.02673V20.9732C1.98596 22.0762 2.86372 22.9724 3.94408 22.9724H9.1354C9.68353 22.9724 10.1284 23.4266 10.1284 23.9862C10.1284 24.5458 9.68353 25 9.1354 25Z" fill="#FFF8EA"/>
<path d="M22.1672 7.17357H16.2888C15.7407 7.17357 15.2958 6.71939 15.2958 6.15978C15.2958 5.60017 15.7407 5.146 16.2888 5.146H22.1672C22.7153 5.146 23.1601 5.60017 23.1601 6.15978C23.1601 6.71939 22.7153 7.17357 22.1672 7.17357Z" fill="#FFF8EA"/>
<path d="M6.14056 14.3472C6.57747 14.3472 6.97068 14.6229 7.11764 15.0406C7.35992 15.7259 7.93185 16.1963 9.07179 16.1963C10.2117 16.1963 10.9664 15.6529 10.9664 14.5702C10.9664 13.5523 10.4143 13.017 8.6746 12.3926C6.07299 11.4883 4.98865 10.657 4.98865 8.82405C4.98865 6.99113 6.57345 5.7624 8.96454 5.7624C10.9267 5.7624 12.0428 6.35039 12.579 7.27902C12.9762 7.96839 12.4241 8.83618 11.6416 8.83618C11.2047 8.83618 10.8313 8.54828 10.6606 8.13871C10.4342 7.59532 9.92183 7.20199 8.93283 7.20199C7.75714 7.20199 7.23681 7.79401 7.23681 8.68614C7.23681 9.57827 7.82862 10.069 9.71528 10.73C12.2811 11.614 13.2423 12.6318 13.2423 14.3633C13.2423 16.3342 11.8839 17.6359 8.98044 17.6278C6.87533 17.6278 5.68775 16.9627 5.13565 15.9084C4.76627 15.2028 5.29051 14.3431 6.07695 14.3431H6.13658L6.14056 14.3472ZM8.20196 6.06247V5.40554C8.20196 4.91487 8.59119 4.51343 9.07576 4.51343C9.55636 4.51343 9.94956 4.91081 9.94956 5.40554V6.06247H8.20594H8.20196ZM8.20196 18.0414V17.2831H9.94559V18.0414C9.94559 18.5321 9.55636 18.9335 9.07179 18.9335C8.59119 18.9335 8.19798 18.5361 8.19798 18.0414H8.20196Z" fill="#FFF8EA"/>
</svg>
