<svg width="73" height="67" viewBox="0 0 73 67" fill="none" xmlns="http://www.w3.org/2000/svg">
<path d="M64.0701 5.55005H40.7402C36.5602 5.55005 32.8202 4.51995 29.9202 2.56995C27.4102 0.889946 24.4802 0 21.4502 0H15.2402C6.84023 0 0 6.82999 0 15.24V58.1899C0 62.6099 3.60003 66.21 8.03003 66.21H64.6101C69.0301 66.21 72.6401 62.6099 72.6401 58.1899V14.11C72.6401 9.38999 68.8001 5.55005 64.0801 5.55005H64.0701ZM5 15.24C5 9.59999 9.59023 5 15.2402 5H21.4502C23.4902 5 25.4501 5.59997 27.1301 6.71997C30.8601 9.21997 35.5702 10.54 40.7402 10.54H64.0701C66.0301 10.54 67.6301 12.14 67.6301 14.1V17.66H5V15.23V15.24ZM67.6301 58.1899C67.6301 59.8599 66.2701 61.21 64.6001 61.21H8.02002C6.35002 61.21 4.99023 59.8499 4.99023 58.1899V22.67H67.6201V58.1899H67.6301Z" fill="#FFF8EA"/>
</svg>
