<svg width="57" height="71" viewBox="0 0 57 71" fill="none" xmlns="http://www.w3.org/2000/svg">
<path d="M38.4102 25.29H13.8999C12.5199 25.29 11.3999 26.41 11.3999 27.79C11.3999 29.17 12.5199 30.29 13.8999 30.29H38.4102C39.7902 30.29 40.9102 29.17 40.9102 27.79C40.9102 26.41 39.7902 25.29 38.4102 25.29Z" fill="#FFF8EA"/>
<path d="M38.4102 13.3901H13.8999C12.5199 13.3901 11.3999 14.5101 11.3999 15.8901C11.3999 17.2701 12.5199 18.3901 13.8999 18.3901H38.4102C39.7902 18.3901 40.9102 17.2701 40.9102 15.8901C40.9102 14.5101 39.7902 13.3901 38.4102 13.3901Z" fill="#FFF8EA"/>
<path d="M37.3198 65.47H15.2397C9.59975 65.47 5 60.88 5 55.23V15.24C5 9.59999 9.58975 5 15.2397 5H37.0801C42.7201 5 47.3198 9.58999 47.3198 15.24V31.13C47.3198 32.51 48.4398 33.63 49.8198 33.63C51.1998 33.63 52.3198 32.51 52.3198 31.13V15.24C52.3198 6.83999 45.4901 0 37.0801 0H15.2397C6.83975 0 0 6.82999 0 15.24V55.23C0 63.63 6.82975 70.47 15.2397 70.47H37.3198C38.6998 70.47 39.8198 69.35 39.8198 67.97C39.8198 66.59 38.6998 65.47 37.3198 65.47Z" fill="#FFF8EA"/>
<path d="M54.0498 38.5601H19.1299C18.0299 38.5601 17.1299 39.4601 17.1299 40.5601V60.0301C17.1299 61.1301 18.0299 62.0301 19.1299 62.0301H54.0498C55.1498 62.0301 56.0498 61.1301 56.0498 60.0301V40.5601C56.0498 39.4601 55.1498 38.5601 54.0498 38.5601ZM52.0498 58.0201H21.1299V42.5501H52.0498V58.0201Z" fill="#FFF8EA"/>
<path d="M31.2998 52.6101H27.9102V47.0901H25.8901V54.2101H31.2998V52.6101Z" fill="#FFF8EA"/>
<path d="M35.5698 54.3499C37.8498 54.3499 39.52 52.7899 39.52 50.6499C39.52 48.5099 37.8398 46.95 35.5698 46.95C33.2998 46.95 31.6201 48.5099 31.6201 50.6499C31.6201 52.7899 33.2998 54.3499 35.5698 54.3499ZM35.5698 48.6199C36.6498 48.6199 37.4897 49.4199 37.4897 50.6499C37.4897 51.8799 36.6498 52.6799 35.5698 52.6799C34.4898 52.6799 33.6499 51.8799 33.6499 50.6499C33.6499 49.4199 34.4898 48.6199 35.5698 48.6199Z" fill="#FFF8EA"/>
<path d="M44.1401 54.3499C45.1801 54.3499 46.2999 54.04 47.1299 53.45V50.4999H45.3501V52.45C44.9901 52.61 44.6398 52.6799 44.2598 52.6799C43.0598 52.6799 42.25 51.8499 42.25 50.6499C42.25 49.4499 43.0598 48.6199 44.2798 48.6199C44.9598 48.6199 45.5198 48.8699 46.0098 49.4099L47.29 48.2499C46.59 47.4099 45.5102 46.95 44.1802 46.95C41.8702 46.95 40.2197 48.4799 40.2197 50.6499C40.2197 52.8199 41.8801 54.3499 44.1401 54.3499Z" fill="#FFF8EA"/>
</svg>
