<svg width="77" height="59" viewBox="0 0 77 59" fill="none" xmlns="http://www.w3.org/2000/svg">
<path d="M55.1299 2.5C55.1299 1.12 54.0099 0 52.6299 0C51.2499 0 50.1299 1.12 50.1299 2.5V9.75H15.5503C11.4003 9.75 7.50031 11.3699 4.57031 14.2999C1.63031 17.2199 0 21.1199 0 25.2999C0 27.7299 0.569883 30.14 1.62988 32.2L12.0703 53.77C13.1103 55.95 14.9502 57.59 17.2402 58.39C18.2202 58.73 19.2302 58.9 20.2402 58.9C21.5902 58.9 22.9399 58.59 24.1899 57.99C26.3699 56.95 28.0101 55.1099 28.8101 52.8199C29.6101 50.5199 29.4699 48.05 28.3999 45.86L25.9702 40.85H50.1299V48.1C50.1299 49.48 51.2499 50.6 52.6299 50.6C54.0099 50.6 55.1299 49.48 55.1299 48.1V38.41C55.1299 38.41 55.1299 38.37 55.1299 38.34V12.24C55.1299 12.24 55.1299 12.1999 55.1299 12.1699V2.47998V2.5ZM24.0903 51.1699C23.7303 52.1899 23 53.01 22.02 53.48C21.03 53.96 19.9201 54.02 18.8901 53.66C17.8701 53.3 17.0501 52.57 16.5801 51.59L11.3799 40.84H20.4199L23.9102 48.03C24.3902 49.02 24.4503 50.13 24.0903 51.16V51.1699ZM21.98 35.85H8.9502L6.1001 29.97C5.3801 28.56 4.99023 26.9499 4.99023 25.2999C4.99023 22.4699 6.09008 19.83 8.08008 17.85C10.0701 15.85 12.7203 14.76 15.5303 14.76H50.1104V35.86H21.96L21.98 35.85Z" fill="#FFF8EA"/>
<path d="M74.1699 22.7999H63.7603C62.3803 22.7999 61.2603 23.9199 61.2603 25.2999C61.2603 26.6799 62.3803 27.7999 63.7603 27.7999H74.1699C75.5499 27.7999 76.6699 26.6799 76.6699 25.2999C76.6699 23.9199 75.5499 22.7999 74.1699 22.7999Z" fill="#FFF8EA"/>
<path d="M63.7605 17.61C64.2405 17.61 64.7204 17.48 65.1404 17.19L72.5002 12.3C73.6502 11.54 73.9604 9.98 73.2004 8.83C72.4404 7.68 70.8802 7.37005 69.7302 8.13005L62.3703 13.0201C61.2203 13.7801 60.9101 15.34 61.6701 16.49C62.1501 17.21 62.9502 17.61 63.7502 17.61H63.7605Z" fill="#FFF8EA"/>
<path d="M72.5002 38.3L65.1404 33.4101C63.9904 32.6501 62.4401 32.96 61.6701 34.11C60.9101 35.26 61.2203 36.81 62.3703 37.58L69.7302 42.47C70.1502 42.75 70.6406 42.8901 71.1106 42.8901C71.9206 42.8901 72.7102 42.5001 73.1902 41.7701C73.9502 40.6201 73.6404 39.07 72.4904 38.3H72.5002Z" fill="#FFF8EA"/>
</svg>
