<svg width="30" height="29" viewBox="0 0 30 29" fill="none" xmlns="http://www.w3.org/2000/svg">
<path d="M1.07776 9.65151L12.6418 15.3068C13.3793 15.6668 14.1897 15.8489 15 15.8489C15.8104 15.8489 16.6207 15.6668 17.3582 15.3068L28.9222 9.65151C29.5867 9.32384 30 8.66446 30 7.92417C30 7.18389 29.5867 6.52046 28.9222 6.19684L17.3582 0.541561C15.8833 -0.182542 14.1167 -0.178496 12.6418 0.541561L1.07776 6.19684C0.413256 6.5245 0 7.18389 0 7.92417C0 8.66446 0.413256 9.32789 1.07776 9.65151ZM13.5292 2.35383C14.4489 1.90481 15.5429 1.90481 16.4627 2.35383L27.8445 7.92417L16.4627 13.4945C15.5429 13.9435 14.4489 13.9435 13.5292 13.4945L2.14741 7.92417L13.5292 2.35383Z" fill="#FFF8EA"/>
<path d="M28.432 20.784L16.4709 26.6376C15.5309 27.0906 14.4571 27.0947 13.5292 26.6376L1.56403 20.78C1.06159 20.5333 0.453873 20.7436 0.206708 21.2412C-0.0404561 21.7428 0.166146 22.3496 0.668579 22.5963L12.6338 28.4539C13.3793 28.818 14.1816 29 14.9879 29C15.7943 29 16.6005 28.818 17.3542 28.4539L29.3194 22.5963C29.8218 22.3496 30.0285 21.7428 29.7813 21.2412C29.5342 20.7395 28.9304 20.5333 28.4239 20.78L28.432 20.784Z" fill="#FFF8EA"/>
<path d="M28.432 14.2106L16.4709 20.0641C15.5309 20.5171 14.4571 20.5212 13.5292 20.0641L1.56403 14.2065C1.06159 13.9598 0.453873 14.1661 0.206708 14.6677C-0.0404561 15.1693 0.166146 15.7761 0.668579 16.0229L12.6338 21.8804C13.3793 22.2445 14.1816 22.4265 14.9879 22.4265C15.7943 22.4265 16.6005 22.2445 17.3542 21.8804L29.3194 16.0229C29.8218 15.7761 30.0285 15.1693 29.7813 14.6677C29.5342 14.1661 28.9304 13.9598 28.4239 14.2065L28.432 14.2106Z" fill="#FFF8EA"/>
</svg>
