<svg width="30" height="26" viewBox="0 0 30 26" fill="none" xmlns="http://www.w3.org/2000/svg">
<path d="M17.6572 0C18.2073 0.00364579 18.6581 0.459334 18.6582 1.02441C18.6582 1.58591 18.2109 2.0459 17.6572 2.0459H3.60059C2.7185 2.04604 2.00414 2.77451 2.00391 3.6748V22.3252C2.00406 23.2219 2.71845 23.951 3.60059 23.9512H26.3994C27.2815 23.9509 27.9959 23.2219 27.9961 22.3252V12.0176C27.9961 11.4524 28.4424 10.9961 28.9961 10.9961H29C29.5499 10.9963 30 11.4526 30 12.0176V22.3252C29.9999 24.3558 28.3889 25.9998 26.3994 26H3.60059C1.61105 25.9999 0.000148656 24.3558 0 22.3252V3.6748C0.000231834 1.64423 1.6111 0.000138468 3.60059 0H17.6572ZM19.958 2.47559C21.5977 0.0436542 24.8595 -0.571986 27.2422 1.10156C29.6246 2.77512 30.2283 6.10335 28.5889 8.53516C26.9492 10.9671 23.6874 11.5837 21.3047 9.91016L15.8291 16.498C15.472 16.9318 14.8431 16.9834 14.418 16.6191C13.9929 16.2545 13.9426 15.6089 14.2998 15.1787L19.8975 8.44043C18.7295 6.62472 18.7506 4.26575 19.958 2.47559ZM24.2588 2.22363C22.4801 2.22387 21.0372 3.69717 21.0371 5.5127C21.0371 7.3283 22.48 8.80152 24.2588 8.80176C26.0378 8.80176 27.4814 7.32844 27.4814 5.5127C27.4814 3.69703 26.0377 2.22363 24.2588 2.22363Z" fill="#FFF8EA"/>
</svg>
