<?xml version="1.0" encoding="UTF-8"?>
<svg id="Layer_2" data-name="Layer 2" xmlns="http://www.w3.org/2000/svg" viewBox="0 0 77.42 65.9">
  <g id="Layer_1-2" data-name="Layer 1">
    <path d="M74.42,29.95h-18.73c-1.33,0-2.51.88-2.88,2.16l-5.81,19.9L33.01,2.19c-.36-1.29-1.54-2.19-2.89-2.19h0c-1.35,0-2.53.9-2.88,2.2l-7.46,27.03H3c-1.66,0-3,1.34-3,3s1.34,3,3,3h19.06c1.35,0,2.53-.9,2.89-2.2l5.2-18.84,13.9,49.52c.36,1.29,1.53,2.18,2.87,2.19h.02c1.33,0,2.51-.88,2.88-2.16l8.12-27.79h16.48c1.66,0,3-1.34,3-3s-1.34-3-3-3Z"/>
  </g>
</svg>