<svg width="25" height="22" viewBox="0 0 25 22" fill="none" xmlns="http://www.w3.org/2000/svg">
<path d="M22.3369 0C23.8043 0 24.9999 1.19452 25 2.66113V15.7949C25 17.2616 23.8044 18.4561 22.3369 18.4561H13.3301V20.3408H18.8184C19.2764 20.3409 19.6484 20.713 19.6484 21.1709C19.6482 21.6286 19.2763 21.9999 18.8184 22H6.17871C5.72069 22 5.34884 21.6286 5.34863 21.1709C5.34863 20.713 5.72056 20.3408 6.17871 20.3408H11.6699V18.4561H2.66309C1.19564 18.4561 2.7923e-05 17.2616 0 15.7949V2.66113C6.43438e-05 1.19452 1.19566 0 2.66309 0H22.3369ZM2.66309 1.65625C2.10864 1.65625 1.66016 2.10737 1.66016 2.6582V15.792C1.6604 16.3459 2.1121 16.7939 2.66309 16.7939H22.3369C22.8912 16.7939 23.3396 16.3426 23.3398 15.792V2.6582C23.3398 2.10405 22.888 1.65625 22.3369 1.65625H2.66309ZM9.01074 6.62695C9.33611 6.30176 9.86116 6.30176 10.1865 6.62695L13.9609 10.3994L15.5684 8.79297C15.7243 8.63734 15.9331 8.55085 16.1553 8.55078H19.9043C20.3623 8.55099 20.7344 8.92307 20.7344 9.38086C20.7343 9.83858 20.3622 10.2098 19.9043 10.21H16.501L14.5518 12.1611C14.3958 12.317 14.1871 12.4032 13.9648 12.4033L13.9609 12.4004C13.7418 12.4004 13.5291 12.3141 13.373 12.1582L9.59863 8.38477L8.12793 9.85547C7.97189 10.0114 7.76246 10.0977 7.54004 10.0977H5.09668C4.63851 10.0977 4.2666 9.7255 4.2666 9.26758C4.26674 8.80978 4.6386 8.43848 5.09668 8.43848H7.19824L9.01074 6.62695Z" fill="#FFF8EA"/>
</svg>
