<svg width="67" height="63" viewBox="0 0 67 63" fill="none" xmlns="http://www.w3.org/2000/svg">
<path d="M46.32 62.1997H16.51C15.13 62.1997 14.01 61.0797 14.01 59.6997V35.2697C14.01 34.8897 14.1 34.5197 14.26 34.1797L27.79 6.21976C29.05 3.57976 31.28 1.58979 34.06 0.619785C36.85 -0.350215 39.85 -0.180215 42.52 1.11979C45.15 2.37979 47.15 4.6098 48.11 7.3798C49.08 10.1698 48.91 13.1698 47.61 15.8398L43.95 23.3897H53.11C57.52 23.3897 61.51 25.4597 64.05 29.0697C66.59 32.6797 67.2 37.1297 65.71 41.2797L62.24 50.9898C59.84 57.6998 53.44 62.1997 46.32 62.1997ZM19.01 57.1997H46.32C51.34 57.1997 55.84 54.0297 57.53 49.2997L61 39.5898C61.93 36.9898 61.55 34.1997 59.96 31.9397C58.37 29.6797 55.87 28.3798 53.11 28.3798H39.96C39.1 28.3798 38.3 27.9398 37.84 27.2098C37.38 26.4798 37.33 25.5697 37.71 24.7897L43.12 13.6497C43.83 12.1897 43.93 10.5497 43.39 9.0297C42.86 7.5197 41.78 6.30979 40.34 5.61979C38.87 4.90979 37.23 4.80976 35.7 5.33976C34.19 5.86976 32.98 6.94968 32.29 8.38968L19.01 35.8398V57.1997Z" fill="#FFF8EA"/>
<path d="M16.51 62.1997H4.58002C2.06002 62.1997 0 60.1498 0 57.6198V27.9697C0 25.4397 2.05002 23.3896 4.58002 23.3896H16.51C17.89 23.3896 19.01 24.5096 19.01 25.8896V59.6997C19.01 61.0797 17.89 62.1997 16.51 62.1997ZM5 57.1997H14.01V28.3896H5V57.1997Z" fill="#FFF8EA"/>
</svg>
