<svg width="12" height="17" viewBox="0 0 12 17" fill="none" xmlns="http://www.w3.org/2000/svg">
<g clip-path="url(#clip0_5_45)">
<path d="M6.00019 9.92822C3.15651 9.92822 0.649013 12.0712 0.0365938 15.0234C-0.0640486 15.5113 0.0451591 16.0128 0.33638 16.4004C0.623318 16.7811 1.05158 17 1.51197 17H10.4884C10.9467 17 11.3749 16.7811 11.664 16.4004C11.9552 16.0128 12.0666 15.5113 11.9638 15.0234C11.3514 12.0712 8.84387 9.92822 6.00019 9.92822ZM10.8289 15.6868C10.7796 15.7507 10.6704 15.8601 10.4884 15.8601H1.51197C1.32996 15.8601 1.22075 15.7507 1.1715 15.6868C1.0837 15.5706 1.05158 15.4178 1.08156 15.2696C1.58692 12.8349 3.6533 11.0681 6.00019 11.0681C8.34709 11.0681 10.4135 12.8349 10.9188 15.2696C10.9488 15.4178 10.9188 15.5706 10.8289 15.6868Z" fill="#235237"/>
<path d="M6.00021 8.38259C8.17152 8.38259 9.93812 6.50181 9.93812 4.19016C9.93812 1.8785 8.17152 0 6.00021 0C3.82891 0 2.06445 1.88078 2.06445 4.19244C2.06445 6.50409 3.83105 8.38487 6.00235 8.38487L6.00021 8.38259ZM6.00021 1.13987C7.58051 1.13987 8.86745 2.50771 8.86745 4.19244C8.86745 5.87716 7.58266 7.245 6.00021 7.245C4.41777 7.245 3.13298 5.87716 3.13298 4.19244C3.13298 2.50771 4.41777 1.13987 6.00021 1.13987Z" fill="#235237"/>
</g>
<defs>
<clipPath id="clip0_5_45">
<rect width="12" height="17" fill="white"/>
</clipPath>
</defs>
</svg>
