<svg width="82" height="65" viewBox="0 0 82 65" fill="none" xmlns="http://www.w3.org/2000/svg">
<path d="M79.48 7.70996H59.84L55.72 3.59009C53.4 1.27009 50.33 0 47.05 0C43.77 0 40.7 1.28009 38.38 3.59009L35.33 6.64014L33.01 4.16016C29.7 0.630156 24.34 -0.0599804 20.25 2.52002L15.4 5.57007C14.18 6.34007 12.77 6.75 11.33 6.75H2.51999C1.13999 6.75 0.019989 7.87 0.019989 9.25C0.019989 10.63 1.13999 11.75 2.51999 11.75H11.33C13.72 11.75 16.05 11.0801 18.07 9.81006L22.92 6.76001C24.99 5.46001 27.7 5.81009 29.37 7.59009L31.8 10.1899L26.27 15.72C22.06 19.94 22.06 26.79 26.27 31.01C28.31 33.05 31.03 34.1799 33.92 34.1799C36.81 34.1799 39.52 33.06 41.56 31.01L44.06 28.51L52.62 37.0701L59.55 44L47.63 55.9202C45.63 57.9202 42.97 59.03 40.13 59.03C37.29 59.03 34.64 57.9302 32.63 55.9202L16.01 39.3C15.54 38.83 14.91 38.5701 14.24 38.5701H2.5C1.12 38.5701 0 39.6901 0 41.0701C0 42.4501 1.12 43.5701 2.5 43.5701H13.2L29.09 59.46C32.04 62.41 35.96 64.03 40.12 64.03C44.28 64.03 48.21 62.41 51.15 59.46L60.2 50.4102C62.72 47.8902 66.06 46.51 69.62 46.51H79.46C80.84 46.51 81.96 45.39 81.96 44.01V10.23C81.96 8.84998 80.84 7.72998 79.46 7.72998L79.48 7.70996ZM69.64 41.48H64.12L55.53 32.8901L49.1 26.46L47.59 24.95L51.94 20.6001C52.92 19.6201 52.92 18.0401 51.94 17.0601C50.96 16.0801 49.38 16.0801 48.4 17.0601L40.42 25.04L38 27.46C36.9 28.56 35.44 29.1602 33.89 29.1602C32.34 29.1602 30.88 28.56 29.78 27.46C27.51 25.19 27.51 21.51 29.78 19.24L41.9 7.12012C43.27 5.75012 45.09 4.98999 47.03 4.98999C48.97 4.98999 50.79 5.74012 52.16 7.12012L57.01 11.97C57.48 12.44 58.11 12.7 58.78 12.7H76.95V41.48H69.61H69.64Z" fill="#FFF8EA"/>
</svg>
