<svg width="66" height="65" viewBox="0 0 66 65" fill="none" xmlns="http://www.w3.org/2000/svg">
<path d="M53.71 40.14C46.97 40.14 41.48 45.63 41.48 52.37C41.48 59.11 46.97 64.6 53.71 64.6C60.45 64.6 65.9399 59.11 65.9399 52.37C65.9399 45.63 60.45 40.14 53.71 40.14ZM53.71 60.6C49.17 60.6 45.48 56.91 45.48 52.37C45.48 47.83 49.17 44.14 53.71 44.14C58.25 44.14 61.9399 47.83 61.9399 52.37C61.9399 56.91 58.25 60.6 53.71 60.6Z" fill="#FFF8EA"/>
<path d="M57.3499 50.37H55.71V48.73C55.71 47.63 54.81 46.73 53.71 46.73C52.61 46.73 51.71 47.63 51.71 48.73V50.37H50.0701C48.9701 50.37 48.0701 51.27 48.0701 52.37C48.0701 53.47 48.9701 54.37 50.0701 54.37H51.71V56.01C51.71 57.11 52.61 58.01 53.71 58.01C54.81 58.01 55.71 57.11 55.71 56.01V54.37H57.3499C58.4499 54.37 59.3499 53.47 59.3499 52.37C59.3499 51.27 58.4499 50.37 57.3499 50.37Z" fill="#FFF8EA"/>
<path d="M34.8 17.72C34.8 16.34 33.68 15.22 32.3 15.22C30.92 15.22 29.8 16.34 29.8 17.72V36.48C29.8 37.86 30.92 38.98 32.3 38.98C33.68 38.98 34.8 37.86 34.8 36.48V17.72Z" fill="#FFF8EA"/>
<path d="M34.3799 45.5C34.2899 45.36 34.1801 45.24 34.0701 45.12C33.1401 44.19 31.47 44.19 30.53 45.12C30.42 45.24 30.31 45.36 30.22 45.5C30.13 45.64 30.06 45.78 29.99 45.93C29.93 46.08 29.8799 46.24 29.8499 46.4C29.8199 46.56 29.8 46.73 29.8 46.89C29.8 47.55 30.07 48.19 30.53 48.66C31 49.12 31.64 49.39 32.3 49.39C32.96 49.39 33.6001 49.12 34.0701 48.66C34.5301 48.19 34.8 47.55 34.8 46.89C34.8 46.73 34.78 46.56 34.75 46.4C34.72 46.24 34.6699 46.08 34.6099 45.93C34.5499 45.78 34.4699 45.64 34.3799 45.5Z" fill="#FFF8EA"/>
<path d="M40.26 59.46C37.67 60.22 34.99 60.6 32.3 60.6C16.7 60.6 4 47.91 4 32.3C4 16.69 16.69 4 32.3 4C47.91 4 60.5898 16.69 60.5898 32.3C60.5898 34.37 60.3599 36.45 59.8999 38.49C59.6599 39.57 60.3399 40.64 61.4199 40.88C62.4999 41.12 63.5701 40.44 63.8101 39.36C64.3301 37.03 64.5898 34.66 64.5898 32.3C64.5898 14.49 50.1 0 32.3 0C14.5 0 0 14.49 0 32.3C0 50.11 14.49 64.6 32.3 64.6C35.37 64.6 38.4199 64.16 41.3799 63.3C42.4399 62.99 43.05 61.88 42.74 60.82C42.43 59.76 41.31 59.15 40.26 59.46Z" fill="#FFF8EA"/>
</svg>
