<svg width="85" height="70" viewBox="0 0 85 70" fill="none" xmlns="http://www.w3.org/2000/svg">
<path d="M35.1895 8.65918C39.8594 7.68921 44.6691 9.13008 48.0391 12.5C51.5191 15.99 52.8998 21.05 51.7598 25.79L67.5498 41.5791C72.2897 40.4393 77.3599 41.8199 80.8398 45.2998L80.8496 45.29C84.2195 48.66 85.6594 53.4697 84.6895 58.1396C84.4294 59.3996 83.4995 60.4093 82.2695 60.7793C81.0495 61.1493 79.7291 60.8092 78.8291 59.9092L75.9395 57.0195C75.0295 56.1097 73.5496 56.1097 72.6396 57.0195C72.1996 57.4595 71.96 58.0499 71.96 58.6699C71.96 59.2898 72.1997 59.8794 72.6396 60.3193L75.5293 63.21C76.4293 64.1099 76.7593 65.4295 76.3994 66.6494C76.0294 67.8793 75.0196 68.8092 73.7598 69.0693C72.7998 69.2693 71.8291 69.3691 70.8691 69.3691C67.1693 69.369 63.5891 67.9192 60.9092 65.2393C57.4295 61.7593 56.0495 56.689 57.1895 51.9492L41.3994 36.1592C36.6694 37.2992 31.4794 35.8095 28.1094 32.4395C24.7396 29.0695 23.2997 24.2597 24.2695 19.5898C24.5295 18.3298 25.4595 17.3192 26.6895 16.9492C27.8993 16.5893 29.2192 16.9196 30.1191 17.8193L33.0098 20.71C33.9197 21.6196 35.3997 21.6197 36.3096 20.71C36.7496 20.27 36.9892 19.6796 36.9893 19.0596C36.9893 18.4396 36.7496 17.8492 36.3096 17.4092L33.4199 14.5195C32.5199 13.6195 32.1898 12.2991 32.5498 11.0791C32.9199 9.84934 33.9296 8.91915 35.1895 8.65918ZM60.75 0C66.93 0 71.96 5.02996 71.96 11.21V34C71.9598 35.3799 70.8399 36.5 69.46 36.5C68.08 36.5 66.9601 35.3799 66.96 34V11.21C66.96 7.78996 64.18 5 60.75 5H11.21C7.78996 5 5 7.77996 5 11.21V45.5498C5 48.9698 7.77996 51.7598 11.21 51.7598H18.8096C21.8096 51.7598 24.6202 52.92 26.7402 55.04L31.5801 59.8799C32.75 61.0497 34.3099 61.7001 35.9697 61.7002C37.6297 61.7002 39.1904 61.0499 40.3604 59.8799L45.2002 55.04C47.3202 52.9301 50.1299 51.7598 53.1299 51.7598C54.5099 51.7598 55.6299 52.8798 55.6299 54.2598C55.6299 55.6398 54.5099 56.7598 53.1299 56.7598C51.4699 56.7598 49.9102 57.4101 48.7402 58.5801L43.9004 63.4199C41.7804 65.5399 38.9697 66.71 35.9697 66.71C32.9699 66.7099 30.16 65.5398 28.04 63.4199L23.2002 58.5801C22.0302 57.4101 20.4696 56.7598 18.8096 56.7598H11.21C5.02996 56.7598 0 51.7298 0 45.5498V11.21C0 5.02996 5.02996 0 11.21 0H60.75ZM39.8398 13.8691C41.2298 15.2491 41.9893 17.0998 41.9893 19.0498C41.9892 20.9997 41.2197 22.8495 39.8398 24.2295C36.9798 27.0895 32.3297 27.0895 29.4697 24.2295L29.0693 23.8291C29.3593 25.7191 30.2396 27.4896 31.6396 28.8896C34.1396 31.3895 37.9093 32.2094 41.2393 30.9795C41.5292 30.8695 41.8194 30.8194 42.1094 30.8193C42.7594 30.8193 43.3999 31.0698 43.8799 31.5498L61.7793 49.46C62.4693 50.15 62.6994 51.1699 62.3594 52.0898C61.1296 55.4197 61.9495 59.1895 64.4492 61.6895C65.8392 63.0895 67.6198 63.9698 69.5098 64.2598L69.1094 63.8594C67.7195 62.4794 66.96 60.6296 66.96 58.6797C66.96 56.7298 67.7295 54.88 69.1094 53.5C71.9694 50.64 76.6195 50.64 79.4795 53.5L79.4697 53.5098L79.8691 53.9092C79.5791 52.0195 78.6996 50.2495 77.2998 48.8496C74.7998 46.3496 71.0292 45.5298 67.6992 46.7598C66.7893 47.0896 65.7593 46.8696 65.0693 46.1797L47.1699 28.2695C46.4799 27.5795 46.2498 26.5596 46.5898 25.6396C47.8197 22.3098 46.9997 18.54 44.5 16.04C43.11 14.64 41.3295 13.7597 39.4395 13.4697L39.8398 13.8691Z" fill="#FFF8EA"/>
</svg>
