<svg preserveAspectRatio="none" width="100%" height="100%" overflow="visible" style="display: block;" viewBox="0 0 53 51" fill="none" xmlns="http://www.w3.org/2000/svg">
<path id="cephai logo" d="M2.25079 33.3508C1.45237 30.8784 1.01133 28.2387 1.01133 25.5C1.01133 11.4187 12.425 0 26.5 0C40.575 0 51.9887 11.4187 51.9887 25.5C51.9887 28.2387 51.5476 30.8784 50.7492 33.3508L26.5 6.84666L2.25079 33.3508ZM53 45.2869C50.8252 44.024 48.4528 42.9133 45.9283 41.9776C41.2518 47.493 34.2941 51 26.5 51C18.7059 51 11.7482 47.493 7.07174 41.9776C4.5472 42.9133 2.18235 44.024 0 45.2869L26.5 16.3179L53 45.2869ZM34.5222 33.1074C31.108 31.4033 28.3402 28.6343 26.6369 25.2185C24.9336 28.6343 22.1657 31.4033 18.7515 33.1074C22.1657 34.8115 24.9336 37.5806 26.6369 40.9963C28.3402 37.5806 31.108 34.8115 34.5222 33.1074Z" fill="url(#paint0_linear_0_141)"/>
<defs>
<linearGradient id="paint0_linear_0_141" x1="26.5" y1="-0.167363" x2="26.5" y2="51.0152" gradientUnits="userSpaceOnUse">
<stop stop-color="#9AC93C"/>
<stop offset="0.42" stop-color="#72BF42"/>
<stop offset="0.66" stop-color="#5AB947"/>
<stop offset="1" stop-color="#319245"/>
</linearGradient>
</defs>
</svg>
