<svg width="486" height="555" viewBox="0 0 486 555" fill="none" xmlns="http://www.w3.org/2000/svg">
<path d="M130.91 165.19C130.91 168.677 133.363 170.089 136.384 168.345L198.989 132.196C202.016 130.45 204.46 126.208 204.46 122.724L204.466 19.9338C204.46 16.4553 202.011 15.0404 198.992 16.784L136.387 52.9386C133.36 54.6793 130.913 58.9153 130.922 62.3996L130.913 165.19H130.91Z" fill="white"/>
<path d="M155.752 104.834L204.46 76.7111V122.724C204.46 126.208 202.016 130.447 198.989 132.196L146.628 162.429V120.609C146.634 114.807 150.713 107.741 155.752 104.834Z" fill="#C7EFC0"/>
<path d="M131.988 169.637C130.616 168.846 129.861 167.265 129.861 165.187L129.87 62.3997C129.861 58.5181 132.494 53.962 135.861 52.0269L198.466 15.8723C200.264 14.8318 202.014 14.6975 203.386 15.4864C204.758 16.2781 205.518 17.8559 205.518 19.9339L205.512 122.724C205.512 126.606 202.88 131.168 199.515 133.108L136.91 169.254C135.881 169.849 134.869 170.146 133.937 170.146C133.234 170.146 132.577 169.978 131.988 169.637ZM199.518 17.6958L136.91 53.8505C134.226 55.394 131.965 59.307 131.974 62.3968L131.965 165.187C131.965 166.462 132.357 167.419 133.04 167.814C133.726 168.211 134.752 168.071 135.861 167.431L198.466 131.282C201.147 129.736 203.411 125.814 203.411 122.721L203.417 19.931C203.417 18.6591 203.023 17.7016 202.339 17.31C202.082 17.1613 201.779 17.0899 201.442 17.0899C200.876 17.0899 200.216 17.2928 199.524 17.693L199.518 17.6958Z" fill="#007A00"/>
<path d="M141.563 139.431C141.572 138.596 142.155 137.582 142.878 137.161L192.492 108.518C193.215 108.098 193.81 108.435 193.81 109.267C193.81 110.108 193.221 111.125 192.492 111.542L142.878 140.185C142.155 140.608 141.566 140.268 141.563 139.431ZM150.69 146.274C150.69 145.442 151.273 144.419 151.999 144.004L192.492 120.623C193.221 120.212 193.81 120.549 193.804 121.381C193.807 122.224 193.221 123.239 192.492 123.656L152.002 147.037C151.273 147.451 150.69 147.114 150.69 146.277V146.274ZM159.808 134.955C159.802 135.789 160.396 136.127 161.117 135.715L192.492 117.593C193.215 117.182 193.81 116.159 193.81 115.324C193.81 114.495 193.221 114.152 192.492 114.567L161.117 132.688C160.394 133.103 159.805 134.123 159.808 134.955ZM141.569 118.242C141.572 117.405 142.158 116.387 142.881 115.964L192.495 87.324C193.224 86.9096 193.813 87.2469 193.813 88.0843C193.813 88.919 193.224 89.9308 192.501 90.3538L142.884 118.994C142.16 119.414 141.572 119.077 141.572 118.242H141.569ZM150.684 125.085C150.69 124.25 151.273 123.23 152.002 122.816L192.492 99.4346C193.224 99.0145 193.81 99.3546 193.81 100.192C193.81 101.027 193.221 102.047 192.498 102.462L151.999 125.842C151.273 126.263 150.69 125.925 150.684 125.085ZM159.808 113.766C159.808 114.601 160.391 114.941 161.117 114.518L192.492 96.4077C193.221 95.979 193.801 94.9728 193.81 94.1268C193.807 93.3036 193.218 92.9577 192.492 93.375L161.117 111.497C160.402 111.908 159.808 112.926 159.808 113.766ZM167.682 70.1571L151.033 79.7638C151.033 90.3681 158.484 94.6699 167.682 89.3591C176.883 84.0455 184.338 71.1403 184.338 60.5332C184.338 49.9346 176.883 45.6443 167.685 50.9435L167.679 70.1599L167.682 70.1571Z" fill="#55A649"/>
<path d="M164.041 48.8455V68.0476L147.391 77.6629C147.389 67.0558 154.849 54.1534 164.041 48.8427V48.8455Z" fill="#C7EFC0"/>
<path d="M119.7 356.559H119.734C119.763 355.238 120.632 353.926 122.35 352.935L199.007 308.677C202.076 306.905 206.893 306.644 210.48 308.051L290.689 339.612C292.907 340.484 294.337 341.882 294.588 343.428C294.611 343.585 294.574 343.737 294.571 343.888L294.622 343.882V352.22H294.577C294.631 353.638 293.725 355.013 291.981 356.024L189.771 415.034C187.873 416.129 185.221 416.686 182.546 416.54C179.867 416.398 177.443 415.574 175.931 414.288L121.269 367.981C120.186 367.069 119.711 366.014 119.734 364.974H119.7V356.553V356.559Z" fill="#55A649"/>
<g opacity="0.3" style="mix-blend-mode:overlay">
<path d="M122.35 352.937L199.007 308.679C202.076 306.907 206.893 306.647 210.48 308.053L260.048 327.556L155.049 388.183L121.269 359.56C118.826 357.491 119.28 354.707 122.35 352.935V352.937Z" fill="black"/>
</g>
<g opacity="0.3" style="mix-blend-mode:overlay">
<path d="M119.734 356.556C119.709 357.597 120.192 358.654 121.269 359.563L175.928 405.873C177.441 407.157 179.864 407.98 182.543 408.123C185.215 408.271 187.87 407.717 189.771 406.616L291.978 347.607C293.693 346.615 294.585 345.277 294.574 343.894L294.625 343.888V352.226H294.579C294.634 353.644 293.728 355.018 291.984 356.03L189.774 415.04C187.876 416.135 185.224 416.692 182.548 416.546C179.87 416.403 177.446 415.58 175.934 414.294L121.272 367.987C120.189 367.075 119.714 366.02 119.737 364.98H119.703V356.559H119.737L119.734 356.556Z" fill="black"/>
</g>
<g opacity="0.1" style="mix-blend-mode:overlay">
<path d="M119.734 356.556C119.709 357.597 120.192 358.654 121.269 359.563L155.049 388.186V396.61L121.269 367.989C120.186 367.078 119.711 366.023 119.734 364.982H119.7V356.562H119.734V356.556Z" fill="black"/>
</g>
<path d="M182.486 417.598C179.567 417.441 176.929 416.529 175.248 415.097L120.589 368.793C119.128 367.561 118.731 366.24 118.685 365.263C118.662 365.174 118.648 365.082 118.648 364.988V356.565C118.648 356.459 118.665 356.359 118.697 356.262C118.84 354.61 119.94 353.115 121.824 352.031L198.481 307.773C201.851 305.83 206.941 305.544 210.866 307.082L291.075 338.643C293.656 339.658 295.317 341.344 295.631 343.288C295.651 343.425 295.651 343.548 295.646 343.654C295.666 343.734 295.674 343.814 295.674 343.897V352.234C295.674 352.34 295.657 352.44 295.629 352.534C295.554 354.238 294.434 355.833 292.507 356.951L190.294 415.96C188.425 417.038 185.953 417.629 183.397 417.629C183.094 417.629 182.788 417.621 182.486 417.604V417.598ZM293.571 344.214C293.536 344.108 293.519 343.994 293.522 343.88C293.522 343.794 293.531 343.708 293.539 343.625L293.553 343.602C293.365 342.445 292.153 341.321 290.309 340.598L210.1 309.037C206.79 307.739 202.348 307.974 199.538 309.594L122.881 353.852C121.555 354.615 120.815 355.584 120.792 356.582C120.792 356.665 120.78 356.745 120.76 356.822V364.722C120.783 364.814 120.795 364.911 120.792 365.008C120.775 365.777 121.175 366.529 121.955 367.186L176.617 413.493C177.938 414.617 180.176 415.366 182.608 415.497C185.047 415.634 187.53 415.123 189.248 414.131L291.458 355.121C292.833 354.324 293.571 353.309 293.531 352.266C293.528 352.157 293.542 352.049 293.576 351.946V344.214H293.571Z" fill="#007A00"/>
<path d="M349.562 12.8625L358.648 18.1103C358.663 18.1189 358.668 18.1275 358.68 18.1275H358.686C360.323 19.0907 361.335 21.123 361.335 24.0127V240.18C361.335 245.988 357.251 253.054 352.217 255.961L49.9117 430.492C47.4193 431.932 45.1698 432.075 43.5149 431.161H43.512L43.4663 431.138L43.4577 431.132L34.3711 425.884L34.3626 425.879C32.7048 424.932 31.6729 422.894 31.6729 419.979L31.6672 203.808C31.6729 198.003 35.7517 190.94 40.7909 188.031L343.096 13.4999C345.572 12.0679 347.804 11.9192 349.445 12.8139L349.456 12.8024L349.536 12.851C349.536 12.851 349.553 12.8596 349.565 12.8653L349.562 12.8625Z" fill="#55A649"/>
<g opacity="0.3" style="mix-blend-mode:overlay">
<path d="M40.7937 188.034L343.096 13.4999C345.572 12.0679 347.804 11.9192 349.445 12.8139L349.456 12.8024L349.536 12.851C349.536 12.851 349.553 12.8596 349.565 12.8653L358.637 18.1046C356.991 17.1728 354.727 17.3157 352.226 18.762L49.9117 193.296C44.8725 196.208 40.7937 203.274 40.7937 209.076L40.788 425.241C40.7852 428.128 41.797 430.16 43.432 431.118L34.3711 425.881L34.3626 425.876C32.7048 424.93 31.6729 422.892 31.6729 419.976L31.6672 203.806C31.6729 198 35.7517 190.938 40.7909 188.028L40.7937 188.034Z" fill="black"/>
</g>
<path d="M43.0175 432.09C42.9889 432.075 42.9603 432.061 42.9318 432.044L33.8424 426.793C31.7644 425.61 30.6211 423.189 30.6211 419.979L30.6153 203.808C30.6211 197.674 34.9485 190.189 40.2621 187.122L342.57 12.588C345.206 11.0645 347.755 10.7872 349.779 11.7991C349.859 11.8248 349.936 11.862 350.011 11.9077L350.036 11.922C350.053 11.9306 350.073 11.942 350.091 11.9506L359.157 17.187C359.157 17.187 359.163 17.1898 359.166 17.1927C359.183 17.2013 359.2 17.2127 359.217 17.2213C361.261 18.4161 362.387 20.8256 362.39 24.0126V240.18C362.39 246.311 358.065 253.8 352.746 256.873L50.4377 431.404C48.8399 432.327 47.2764 432.793 45.8387 432.793C44.824 432.793 43.8721 432.561 43.0175 432.09ZM358.105 19.0134L349.082 13.8028C349.036 13.7856 348.987 13.7627 348.942 13.7399C347.564 12.991 345.672 13.2282 343.622 14.4144L41.3197 188.945C36.5835 191.678 32.7276 198.346 32.7248 203.811V419.982C32.7276 422.403 33.4965 424.172 34.8999 424.975L43.9636 430.209C43.9836 430.22 44.0065 430.229 44.0265 430.24C45.4156 431.009 47.3193 430.775 49.3858 429.58L351.694 255.049C356.43 252.311 360.286 245.642 360.286 240.18V24.0126C360.286 21.6431 359.549 19.8909 358.185 19.0563C358.157 19.042 358.131 19.0277 358.105 19.0106V19.0134Z" fill="#007A00"/>
<path d="M49.9117 409.463L352.223 234.927C354.235 233.763 355.867 230.937 355.87 228.61V27.1682C355.87 24.8529 354.229 23.9097 352.226 25.0702L49.9117 199.607C47.8995 200.764 46.2674 203.605 46.2588 205.915V407.357C46.2588 409.675 47.8995 410.621 49.9117 409.46V409.463Z" fill="white"/>
<path d="M46.9734 241.852C49.9946 240.109 52.4442 241.515 52.4442 245.002V325.572C52.4442 329.056 49.9946 333.295 46.9734 335.039L46.2588 335.45V242.267L46.9734 241.852Z" fill="#C7EFC0"/>
<path d="M312.787 150.884V63.0542C312.787 59.5699 315.236 55.331 318.255 53.5818L355.867 31.873V132.319L318.261 154.037C315.236 155.78 312.781 154.374 312.787 150.887V150.884Z" fill="#C7EFC0"/>
<path d="M95.1957 277.13C95.1957 249.141 114.872 215.09 139.134 201.079C144.533 197.972 149.669 196.18 154.448 195.459C164.287 171.487 181.802 149.115 201.845 137.542C217.251 128.652 231.179 127.826 241.255 133.66C247.886 137.493 252.845 144.21 255.469 153.408C256.115 152.745 256.781 152.127 257.444 151.499C256.778 152.13 256.107 152.756 255.458 153.419C255.323 152.939 255.152 152.496 254.998 152.036C255.706 154.243 256.318 156.535 256.741 159.036C261.343 153.754 266.514 149.255 271.996 146.082C281.528 140.588 290.158 140.06 296.409 143.644C295.883 143.344 295.317 143.112 294.754 142.869C301.957 146.011 306.527 154.045 306.527 165.97C306.527 187.959 291.069 214.721 272.007 225.717L139.139 302.431C126.989 309.451 115.993 310.114 108.035 305.515L103.971 303.172L108.064 305.53C100.112 300.956 95.1928 291.118 95.1928 277.127L95.1957 277.13Z" fill="#C7EFC0"/>
<path d="M171.721 271.499C171.275 271.29 170.895 270.973 170.643 270.435C169.983 268.986 170.346 266.668 171.578 264.567L202.316 211.349C203.966 208.482 206.672 206.933 208.33 207.89L239.074 225.592C240.283 226.292 240.658 228.178 239.994 230.405C239.331 232.623 237.779 234.704 236.07 235.69L225.511 241.79V286.022C225.511 288.737 223.613 292.013 221.267 293.376L189.374 311.787C188.199 312.47 187.139 312.535 186.37 312.095C185.595 311.644 185.126 310.692 185.126 309.346V265.11L174.568 271.21C173.487 271.833 172.478 271.907 171.704 271.533L171.721 271.504V271.499Z" fill="#C7EFC0"/>
<path d="M46.8019 410.627C45.7872 410.041 45.2069 408.849 45.2069 407.36V205.912C45.2155 203.211 47.0505 200.041 49.3858 198.695L351.697 24.1585C352.986 23.4125 354.309 23.3181 355.324 23.9041C356.339 24.4901 356.919 25.6791 356.919 27.1683V228.613C356.913 231.314 355.081 234.49 352.746 235.839L50.4376 410.375C49.7088 410.798 48.9685 411.01 48.2796 411.01C47.748 411.01 47.2478 410.884 46.8047 410.627H46.8019ZM351.694 234.015C353.383 233.037 354.813 230.562 354.815 228.61V27.1683C354.815 26.4508 354.618 25.9278 354.272 25.7306C353.926 25.5305 353.372 25.6219 352.749 25.9849L50.4348 200.519C48.7484 201.49 47.3164 203.966 47.3107 205.915V407.357C47.3107 408.074 47.5079 408.6 47.8566 408.803C48.2024 409.003 48.7627 408.912 49.3858 408.552L351.694 234.015Z" fill="#007A00"/>
<path d="M99.3718 280.994C99.3632 253.003 119.04 218.952 143.31 204.943C148.7 201.833 153.84 200.041 158.613 199.321C168.451 175.351 185.97 152.976 206.021 141.403C221.087 132.708 234.712 131.768 244.742 137.176L244.771 137.139L245.537 137.579C245.557 137.587 245.562 137.587 245.577 137.599L249.618 139.94C256.278 143.767 261.26 150.498 263.893 159.728C267.717 155.82 271.833 152.459 276.175 149.949C285.813 144.384 294.528 143.916 300.791 147.654L300.802 147.637L304.838 149.967C304.312 149.666 303.743 149.435 303.183 149.192C310.386 152.333 314.956 160.368 314.956 172.293C314.956 194.282 299.501 221.044 280.437 232.04L147.568 308.751C135.421 315.771 124.422 316.434 116.464 311.835L112.403 309.491L112.42 309.48C104.368 304.935 99.3689 295.077 99.3775 280.994H99.3718Z" fill="#55A649"/>
<g opacity="0.3" style="mix-blend-mode:overlay">
<path d="M210.271 143.861C190.229 155.435 172.713 177.806 162.875 201.779C158.096 202.499 152.959 204.291 147.56 207.398C123.299 221.41 103.622 255.461 103.622 283.449C103.622 297.441 108.541 307.279 116.49 311.852L112.397 309.494L112.414 309.483C104.362 304.938 99.3632 295.08 99.3718 280.997C99.3632 253.006 119.04 218.955 143.31 204.946C148.7 201.836 153.84 200.044 158.613 199.324C168.451 175.354 185.97 152.979 206.021 141.406C221.087 132.711 234.712 131.771 244.742 137.179L244.771 137.141L245.537 137.582C245.557 137.59 245.562 137.59 245.577 137.602L249.784 140.037C239.697 134.14 225.726 134.946 210.268 143.861H210.271ZM304.835 149.967L300.799 147.637L300.788 147.654C294.525 143.916 285.81 144.384 276.172 149.949C271.827 152.459 267.706 155.829 263.878 159.739C263.744 159.262 263.573 158.819 263.421 158.356C264.127 160.562 264.742 162.858 265.165 165.356C269.767 160.074 274.937 155.575 280.419 152.402C289.952 146.908 298.581 146.379 304.832 149.967H304.835Z" fill="black"/>
</g>
<path d="M115.933 312.75L111.868 310.406C111.814 310.375 111.762 310.337 111.714 310.297C103.062 305.31 98.3085 294.914 98.317 280.997C98.3085 252.717 118.254 218.191 142.781 204.034C147.857 201.107 152.931 199.207 157.861 198.378C168.268 173.33 186.041 151.722 205.492 140.497C220.198 132.008 234.201 130.456 244.968 136.11C245.079 136.13 245.188 136.17 245.294 136.23L246.014 136.641C246.043 136.655 246.074 136.673 246.103 136.69L250.141 139.028C256.707 142.801 261.606 149.252 264.387 157.75C268.074 154.157 271.856 151.233 275.646 149.041C285.236 143.504 294.279 142.658 301.142 146.645C301.205 146.665 301.268 146.694 301.325 146.728L305.361 149.058C305.461 149.118 305.55 149.189 305.624 149.269C312.252 153.248 316.005 161.488 316.005 172.293C316.005 194.593 300.285 221.804 280.96 232.952L148.092 309.663C140.994 313.764 134.126 315.837 127.918 315.837C123.55 315.837 119.506 314.811 115.936 312.75H115.933ZM302.76 150.158C302.537 150.058 302.363 149.892 302.254 149.692L300.456 148.655C300.385 148.632 300.316 148.6 300.253 148.56C294.054 144.859 285.69 145.676 276.704 150.861C272.651 153.205 268.595 156.435 264.65 160.465C264.387 160.734 264.001 160.842 263.638 160.748C263.275 160.657 262.987 160.377 262.884 160.016C260.371 151.219 255.607 144.59 249.092 140.849L245.088 138.531C245.062 138.519 245.039 138.508 245.014 138.493L244.511 138.205C244.419 138.185 244.331 138.15 244.245 138.105C234.109 132.64 220.721 134.137 206.55 142.318C187.347 153.402 169.792 174.862 159.588 199.724C159.448 200.067 159.136 200.31 158.77 200.364C153.911 201.096 148.886 202.945 143.836 205.858C119.889 219.678 100.415 253.386 100.424 280.997C100.415 294.219 104.857 304.009 112.932 308.565C112.992 308.6 113.046 308.64 113.097 308.682L116.987 310.926C124.956 315.531 135.629 314.436 147.04 307.842L279.911 231.128C298.653 220.315 313.902 193.922 313.902 172.293C313.902 161.311 309.84 153.245 302.763 150.158H302.76Z" fill="#007A00"/>
<g opacity="0.2" style="mix-blend-mode:overlay">
<path d="M178.538 271.21C176.823 272.202 175.268 271.893 174.619 270.441C173.956 268.995 174.319 266.674 175.537 264.573L206.281 211.357C207.939 208.49 210.643 206.935 212.292 207.884L243.036 225.597C244.253 226.298 244.616 228.193 243.965 230.402C243.302 232.626 241.75 234.704 240.032 235.696L229.485 241.781L229.476 261.457L189.097 284.781L189.088 265.105L178.538 271.207V271.21Z" fill="black"/>
</g>
<path d="M196.797 276.841L227.541 223.634C229.199 220.764 231.903 219.212 233.555 220.169L264.307 237.871C264.307 237.871 264.319 237.879 264.327 237.891L268.555 240.326C269.764 241.026 270.138 242.913 269.475 245.139C268.815 247.355 267.26 249.438 265.551 250.424L254.992 256.524V300.759C254.992 303.474 253.094 306.753 250.745 308.114L218.852 326.524C217.677 327.207 216.616 327.273 215.848 326.833L211.509 324.332L211.526 324.289C210.817 323.828 210.357 322.928 210.357 321.625L210.348 282.306L204.049 285.945C202.768 286.685 201.565 286.696 200.77 286.042L196.868 283.792L196.877 283.755C196.474 283.532 196.114 283.229 195.882 282.718C195.222 281.268 195.582 278.95 196.8 276.841H196.797Z" fill="white"/>
<path d="M214.604 279.845V324.077C214.604 325.429 215.073 326.375 215.851 326.83L211.506 324.329L211.523 324.286C210.814 323.826 210.354 322.925 210.354 321.622L210.345 282.297L214.601 279.842L214.604 279.845ZM264.324 237.894L264.304 237.874L233.552 220.172C231.903 219.215 229.199 220.767 227.538 223.636L196.794 276.844C195.577 278.953 195.214 281.274 195.877 282.72C196.108 283.232 196.468 283.535 196.871 283.758L196.863 283.795L201.176 286.279L201.196 286.242C200.753 286.033 200.37 285.716 200.118 285.176C199.461 283.729 199.821 281.408 201.05 279.308L231.788 226.089C233.438 223.222 236.144 221.673 237.802 222.63L268.546 240.332L264.319 237.896L264.324 237.894Z" fill="#C7EFC0"/>
<path d="M215.382 327.773C215.362 327.761 215.341 327.753 215.321 327.741L210.983 325.24C210.865 325.172 210.765 325.083 210.688 324.977C209.794 324.26 209.305 323.082 209.305 321.622L209.296 284.127L204.574 286.853C202.965 287.782 201.33 287.805 200.175 286.913L196.339 284.704C196.257 284.658 196.185 284.598 196.119 284.53C195.571 284.175 195.176 283.721 194.919 283.155C194.104 281.374 194.476 278.753 195.882 276.315L226.626 223.108C227.849 220.99 229.627 219.449 231.382 218.98C232.374 218.714 233.306 218.812 234.075 219.257L264.827 236.959C264.862 236.979 264.893 236.999 264.924 237.022C264.924 237.022 264.927 237.025 264.93 237.028L269.078 239.417C270.733 240.375 271.284 242.741 270.481 245.442C269.746 247.901 268.017 250.216 266.073 251.339L256.041 257.136V300.762C256.041 303.846 253.946 307.476 251.267 309.028L219.377 327.436C218.537 327.924 217.711 328.17 216.939 328.17C216.382 328.17 215.853 328.039 215.376 327.779L215.382 327.773ZM233.023 221.081C232.743 220.918 232.374 220.895 231.928 221.015C230.736 221.333 229.373 222.567 228.45 224.162L197.706 277.37C196.682 279.145 196.322 281.165 196.834 282.286C196.94 282.52 197.097 282.68 197.38 282.835C197.463 282.88 197.537 282.938 197.603 283.006L201.29 285.133C201.342 285.161 201.387 285.196 201.433 285.233C201.885 285.602 202.662 285.53 203.517 285.036L209.816 281.397C210.142 281.208 210.545 281.208 210.868 281.397C211.194 281.586 211.394 281.931 211.394 282.309L211.403 321.628C211.403 322.488 211.649 323.12 212.092 323.408C212.16 323.454 212.223 323.505 212.277 323.566L216.319 325.895C216.336 325.904 216.35 325.912 216.365 325.921C216.822 326.181 217.534 326.072 218.32 325.615L250.21 307.207C252.228 306.038 253.931 303.089 253.931 300.765V256.53C253.931 256.152 254.132 255.807 254.457 255.618L265.016 249.518C266.494 248.664 267.877 246.783 268.457 244.845C268.958 243.164 268.777 241.684 268.02 241.246L263.793 238.811C263.755 238.791 263.721 238.768 263.69 238.743L233.017 221.087L233.023 221.081Z" fill="#007A00"/>
<path d="M226.972 340.833C226.663 340.218 226.915 339.469 227.529 339.16C230.571 337.64 234.101 335.859 237.513 333.978C238.117 333.647 238.874 333.867 239.206 334.47C239.537 335.073 239.317 335.83 238.714 336.162C235.261 338.063 231.705 339.858 228.644 341.39C228.464 341.478 228.275 341.521 228.087 341.521C227.629 341.521 227.189 341.27 226.972 340.833ZM249.81 327.73C249.393 327.184 249.495 326.401 250.041 325.984C253.206 323.563 255.852 321.116 258.139 318.498C258.591 317.98 259.377 317.926 259.897 318.378C260.414 318.829 260.469 319.618 260.017 320.136C257.622 322.88 254.855 325.441 251.556 327.962C251.331 328.133 251.065 328.219 250.802 328.219C250.427 328.219 250.056 328.05 249.813 327.73H249.81ZM248.175 322.088C246.792 321.788 245.422 321.393 244.11 320.913C241.781 320.061 239.537 318.875 237.442 317.392C236.882 316.994 236.747 316.217 237.148 315.654C237.545 315.093 238.322 314.959 238.885 315.359C240.801 316.717 242.847 317.797 244.968 318.575C246.174 319.015 247.432 319.378 248.704 319.655C249.375 319.801 249.804 320.464 249.658 321.136C249.533 321.719 249.015 322.119 248.441 322.119C248.352 322.119 248.264 322.111 248.175 322.091V322.088ZM262.161 320.876C262.001 320.207 262.412 319.535 263.081 319.375C266.602 318.532 270.004 317.166 273.191 315.316C273.785 314.971 274.548 315.174 274.894 315.768C275.24 316.363 275.037 317.126 274.443 317.472C271.047 319.444 267.417 320.902 263.661 321.799C263.564 321.822 263.467 321.833 263.37 321.833C262.807 321.833 262.295 321.45 262.161 320.879V320.876ZM284.358 307.556C283.824 307.122 283.741 306.339 284.175 305.804C286.422 303.034 288.397 299.91 290.043 296.517C290.343 295.9 291.089 295.64 291.707 295.943C292.324 296.243 292.584 296.989 292.281 297.606C290.549 301.168 288.471 304.455 286.107 307.373C285.862 307.676 285.502 307.833 285.139 307.833C284.864 307.833 284.587 307.742 284.355 307.556H284.358ZM266.248 307.602C265.591 307.402 265.219 306.707 265.419 306.047C266.308 303.129 266.757 300.05 266.757 296.9C266.757 296.372 266.742 295.837 266.717 295.308C266.682 294.622 267.211 294.036 267.9 294.002C268.589 293.971 269.172 294.497 269.206 295.185C269.235 295.754 269.249 296.329 269.249 296.898C269.249 300.293 268.763 303.615 267.803 306.767C267.64 307.305 267.146 307.65 266.611 307.65C266.491 307.65 266.368 307.633 266.248 307.596V307.602ZM227.475 305.472C225.797 301.868 224.946 298.144 224.946 294.405C224.946 294.268 224.946 294.128 224.948 293.991C224.96 293.31 225.514 292.767 226.195 292.767C226.203 292.767 226.209 292.767 226.217 292.767C226.906 292.779 227.452 293.348 227.441 294.033C227.441 294.156 227.438 294.279 227.438 294.405C227.438 297.781 228.21 301.151 229.733 304.423C230.025 305.047 229.753 305.787 229.13 306.078C228.961 306.158 228.781 306.196 228.604 306.196C228.135 306.196 227.687 305.93 227.475 305.475V305.472ZM295.663 284.032C294.988 283.898 294.551 283.241 294.688 282.566C295.408 278.982 295.829 275.28 295.934 271.562C295.954 270.873 296.529 270.33 297.215 270.352C297.904 270.372 298.444 270.947 298.424 271.633C298.312 275.492 297.875 279.333 297.129 283.055C297.009 283.646 296.492 284.055 295.909 284.055C295.829 284.055 295.746 284.047 295.663 284.029V284.032ZM262.572 281.686C260.52 278.533 257.879 276.229 254.718 274.831C254.089 274.554 253.803 273.817 254.083 273.188C254.36 272.559 255.098 272.273 255.727 272.553C259.334 274.148 262.341 276.764 264.662 280.325C265.036 280.902 264.873 281.674 264.299 282.049C264.09 282.186 263.853 282.252 263.621 282.252C263.215 282.252 262.815 282.052 262.575 281.686H262.572ZM230.714 281.2C230.191 280.754 230.13 279.968 230.576 279.445C233.192 276.386 236.487 273.991 240.106 272.519C240.743 272.259 241.469 272.568 241.729 273.205C241.99 273.842 241.681 274.568 241.043 274.829C237.791 276.149 234.827 278.307 232.469 281.065C232.223 281.354 231.874 281.503 231.522 281.503C231.237 281.503 230.948 281.406 230.714 281.203V281.2ZM294.894 256.793C294.334 253.291 293.533 249.624 292.519 245.891C292.339 245.228 292.73 244.542 293.393 244.362C294.056 244.182 294.742 244.573 294.922 245.237C295.96 249.052 296.78 252.808 297.355 256.398C297.463 257.079 297 257.716 296.323 257.825C296.257 257.836 296.189 257.842 296.126 257.842C295.526 257.842 294.997 257.404 294.897 256.793H294.894ZM287.817 231.72C286.571 228.478 285.164 225.083 283.515 221.338C283.238 220.709 283.524 219.975 284.152 219.698C284.781 219.42 285.516 219.706 285.793 220.335C287.457 224.117 288.877 227.547 290.138 230.825C290.383 231.468 290.063 232.188 289.423 232.434C289.277 232.491 289.126 232.517 288.977 232.517C288.477 232.517 288.005 232.214 287.814 231.717L287.817 231.72ZM277.23 207.693C275.986 205.077 274.706 202.422 273.468 199.852L272.342 197.514C272.045 196.894 272.305 196.151 272.925 195.851C273.545 195.554 274.288 195.814 274.589 196.434L275.715 198.772C276.952 201.344 278.233 204.003 279.482 206.624C279.776 207.244 279.513 207.987 278.893 208.284C278.722 208.367 278.539 208.404 278.359 208.404C277.893 208.404 277.447 208.142 277.232 207.693H277.23ZM265.896 183.875C265.419 182.834 264.959 181.822 264.516 180.836C263.095 180.682 261.672 180.496 260.251 180.287C259.571 180.187 259.102 179.553 259.202 178.873C259.302 178.192 259.937 177.723 260.617 177.824C261.523 177.958 262.429 178.081 263.338 178.192C262.629 176.577 261.958 175.022 261.32 173.505C261.054 172.87 261.352 172.141 261.986 171.873C262.621 171.607 263.35 171.904 263.618 172.539C264.424 174.454 265.279 176.429 266.205 178.507C268.057 178.684 269.904 178.812 271.73 178.89C272.416 178.918 272.951 179.498 272.922 180.187C272.894 180.873 272.31 181.408 271.624 181.379C270.218 181.319 268.8 181.231 267.377 181.113C267.634 181.679 267.897 182.254 268.163 182.84C268.449 183.466 268.174 184.203 267.551 184.492C267.383 184.569 267.206 184.606 267.034 184.606C266.562 184.606 266.111 184.338 265.902 183.88L265.896 183.875ZM285.476 179.773C285.399 179.09 285.89 178.472 286.576 178.398C290.298 177.981 293.988 177.335 297.541 176.474C298.21 176.311 298.881 176.723 299.044 177.392C299.207 178.061 298.795 178.732 298.127 178.895C294.471 179.779 290.678 180.445 286.853 180.873C286.808 180.879 286.759 180.882 286.713 180.882C286.087 180.882 285.547 180.41 285.476 179.776V179.773ZM245.385 177.063C241.764 176.031 238.125 174.808 234.572 173.433C233.932 173.184 233.612 172.464 233.861 171.821C234.109 171.181 234.83 170.861 235.473 171.109C238.954 172.458 242.521 173.656 246.068 174.668C246.729 174.857 247.115 175.545 246.926 176.209C246.769 176.757 246.271 177.112 245.728 177.112C245.617 177.112 245.5 177.097 245.385 177.063ZM310.94 173.365C310.657 172.736 310.94 172.001 311.566 171.718C314.899 170.22 318.18 168.434 321.313 166.41C321.891 166.036 322.662 166.202 323.037 166.779C323.411 167.356 323.245 168.128 322.668 168.503C319.43 170.595 316.04 172.441 312.59 173.991C312.424 174.065 312.25 174.099 312.081 174.099C311.606 174.099 311.152 173.825 310.943 173.365H310.94ZM220.752 167.096C217.577 165.407 214.356 163.546 210.903 161.405C210.317 161.042 210.137 160.276 210.5 159.69C210.863 159.104 211.632 158.924 212.215 159.287C215.619 161.4 218.794 163.232 221.921 164.895C222.527 165.218 222.759 165.973 222.436 166.579C222.213 166.999 221.781 167.239 221.335 167.239C221.138 167.239 220.938 167.193 220.752 167.093V167.096ZM255.892 159.365C254.62 155.652 253.5 151.987 252.568 148.48C252.391 147.814 252.788 147.134 253.451 146.957C254.117 146.779 254.798 147.177 254.975 147.84C255.892 151.293 256.993 154.897 258.248 158.556C258.471 159.207 258.125 159.916 257.473 160.139C257.339 160.185 257.204 160.208 257.07 160.208C256.553 160.208 256.07 159.882 255.892 159.365ZM332.872 158.973C332.395 158.479 332.409 157.69 332.906 157.212C335.579 154.64 338.077 151.862 340.335 148.955C340.758 148.412 341.539 148.312 342.082 148.735C342.625 149.158 342.725 149.938 342.302 150.481C339.969 153.482 337.391 156.352 334.633 159.007C334.39 159.239 334.081 159.356 333.77 159.356C333.444 159.356 333.118 159.227 332.872 158.973ZM198.286 153.068C195.545 151.17 192.778 149.218 190.1 147.325L189.028 146.571C188.465 146.174 188.334 145.396 188.728 144.836C189.125 144.273 189.903 144.138 190.463 144.536L191.535 145.293C194.207 147.18 196.968 149.132 199.701 151.021C200.267 151.413 200.407 152.187 200.015 152.753C199.772 153.102 199.384 153.291 198.989 153.291C198.743 153.291 198.498 153.219 198.28 153.068H198.286ZM348.761 138.102C348.144 137.799 347.89 137.05 348.196 136.432C349.85 133.08 351.222 129.613 352.271 126.134C352.472 125.477 353.166 125.102 353.824 125.302C354.481 125.502 354.855 126.197 354.655 126.854C353.566 130.464 352.143 134.057 350.428 137.536C350.211 137.976 349.77 138.23 349.31 138.23C349.124 138.23 348.939 138.19 348.761 138.102ZM176.675 138.013C173.256 135.726 170.16 133.748 167.202 131.968C166.613 131.613 166.425 130.847 166.779 130.259C167.133 129.67 167.9 129.481 168.488 129.835C171.478 131.639 174.608 133.637 178.058 135.944C178.63 136.327 178.784 137.098 178.401 137.67C178.161 138.03 177.766 138.225 177.363 138.225C177.126 138.225 176.886 138.156 176.672 138.013H176.675ZM249.513 133.597C249.404 132.822 249.301 132.039 249.207 131.267C248.847 128.301 248.649 125.245 248.618 122.181C248.609 121.492 249.161 120.929 249.85 120.923C249.856 120.923 249.858 120.923 249.864 120.923C250.547 120.923 251.102 121.472 251.11 122.155C251.142 125.128 251.333 128.092 251.682 130.967C251.774 131.722 251.874 132.488 251.982 133.245C252.079 133.926 251.605 134.557 250.925 134.655C250.865 134.663 250.807 134.666 250.747 134.666C250.136 134.666 249.604 134.217 249.515 133.594L249.513 133.597ZM154.065 124.908C150.635 123.324 147.148 121.929 143.704 120.76C143.052 120.54 142.704 119.831 142.924 119.18C143.144 118.528 143.853 118.179 144.504 118.399C148.031 119.597 151.599 121.023 155.109 122.644C155.735 122.933 156.006 123.673 155.717 124.296C155.506 124.751 155.057 125.019 154.586 125.019C154.411 125.019 154.234 124.982 154.065 124.905V124.908ZM91.7029 121.223C91.3885 120.612 91.6286 119.86 92.2403 119.546C95.6302 117.802 99.2631 116.43 103.045 115.461C103.711 115.29 104.391 115.693 104.56 116.359C104.731 117.025 104.328 117.705 103.662 117.873C100.063 118.794 96.602 120.103 93.3807 121.758C93.1978 121.852 93.0034 121.895 92.8119 121.895C92.3603 121.895 91.923 121.649 91.7029 121.218V121.223ZM129.315 117.125C125.548 116.513 121.832 116.19 118.265 116.164C117.576 116.159 117.025 115.598 117.027 114.909C117.033 114.221 117.591 113.675 118.282 113.672C121.978 113.698 125.825 114.032 129.715 114.664C130.396 114.775 130.856 115.415 130.744 116.093C130.644 116.704 130.116 117.139 129.515 117.139C129.45 117.139 129.381 117.133 129.312 117.122L129.315 117.125ZM356.004 112.943C355.318 112.909 354.79 112.323 354.824 111.637C354.873 110.668 354.898 109.69 354.898 108.727C354.898 106.935 354.812 105.128 354.644 103.356C354.558 102.45 354.444 101.53 354.304 100.624C354.198 99.9434 354.667 99.3088 355.344 99.2031C356.024 99.0973 356.659 99.5661 356.765 100.243C356.91 101.198 357.033 102.164 357.122 103.116C357.299 104.968 357.388 106.855 357.388 108.724C357.388 109.73 357.362 110.751 357.311 111.762C357.276 112.428 356.728 112.946 356.067 112.946C356.047 112.946 356.024 112.946 356.004 112.946V112.943ZM250.81 108.395C250.13 108.284 249.673 107.644 249.781 106.963C250.402 103.173 251.273 99.4203 252.368 95.8045C252.568 95.1471 253.263 94.7727 253.92 94.9728C254.578 95.1728 254.952 95.8674 254.752 96.5248C253.689 100.038 252.843 103.685 252.239 107.366C252.139 107.978 251.611 108.41 251.01 108.41C250.945 108.41 250.876 108.404 250.807 108.392L250.81 108.395ZM349.993 86.6151C348.45 83.3195 346.555 80.1267 344.357 77.1227C343.951 76.5682 344.071 75.7878 344.625 75.382C345.18 74.9761 345.96 75.0961 346.366 75.6506C348.659 78.7833 350.637 82.1161 352.249 85.5575C352.54 86.1806 352.271 86.9209 351.648 87.2125C351.477 87.2925 351.297 87.3297 351.12 87.3297C350.651 87.3297 350.202 87.0638 349.991 86.6122L349.993 86.6151ZM258.673 83.3452C258.065 83.0222 257.833 82.2705 258.156 81.6617C259.997 78.1917 262.083 74.9361 264.364 71.9863C264.785 71.4432 265.568 71.3432 266.111 71.7634C266.654 72.1835 266.757 72.9667 266.334 73.5098C264.141 76.3481 262.129 79.4836 260.357 82.8278C260.134 83.2509 259.702 83.491 259.257 83.491C259.059 83.491 258.859 83.4452 258.673 83.3452ZM334.261 66.4183C331.386 64.0459 328.307 61.9708 325.115 60.2501C324.509 59.9243 324.283 59.1697 324.609 58.5637C324.935 57.9578 325.689 57.7319 326.295 58.0578C329.634 59.8557 332.846 62.0223 335.848 64.4975C336.379 64.9349 336.454 65.7209 336.016 66.2497C335.77 66.5469 335.413 66.7013 335.056 66.7013C334.776 66.7013 334.496 66.607 334.264 66.4155L334.261 66.4183ZM275.017 62.9312C274.609 62.3795 274.723 61.5992 275.277 61.1876C278.422 58.8581 281.797 56.9259 285.31 55.4453C285.945 55.1795 286.673 55.4767 286.942 56.1084C287.208 56.743 286.911 57.4718 286.279 57.7405C282.949 59.1439 279.748 60.9761 276.761 63.1884C276.538 63.3542 276.278 63.4343 276.021 63.4343C275.64 63.4343 275.263 63.2599 275.017 62.9312ZM311.366 55.2224C308.497 54.645 305.601 54.3534 302.757 54.3534C301.988 54.3534 301.214 54.3734 300.45 54.4163C299.762 54.4563 299.176 53.9275 299.138 53.2416C299.101 52.5556 299.627 51.9667 300.313 51.9296C301.122 51.8839 301.942 51.861 302.757 51.861C305.767 51.861 308.828 52.1697 311.858 52.7814C312.532 52.9157 312.97 53.5731 312.833 54.2477C312.713 54.8393 312.192 55.2481 311.612 55.2481C311.532 55.2481 311.449 55.2395 311.366 55.2224Z" fill="#05DE00"/>
<path d="M0 50.2032L20.7284 117.522L24.0498 128.309L33.5193 120.32L58.2694 99.4375L0 50.2032Z" fill="#55A649"/>
<path d="M0 50.2032L72.0149 91.7944L104.774 80.9385L0 50.2032Z" fill="#55A649"/>
<path d="M0 50.2032L58.2665 99.4403L69.4653 121.829L72.0149 91.7944L0 50.2032Z" fill="#007A00"/>
<path d="M387.926 251.07C387.926 258.702 393.288 267.989 399.896 271.816L471.708 313.267C478.32 317.077 483.685 314.004 483.685 306.364V224.674C483.685 217.042 478.32 207.756 471.708 203.926L399.908 162.489C393.288 158.659 387.917 161.748 387.917 169.38L387.923 251.07H387.926Z" fill="white"/>
<path d="M470.554 315.265L398.744 273.814C391.384 269.552 385.619 259.562 385.619 251.073L385.613 169.383C385.613 164.838 387.268 161.38 390.275 159.645C393.285 157.907 397.115 158.21 401.065 160.491L472.869 201.933C480.229 206.198 486 216.188 486 224.677V306.367C486 310.912 484.345 314.368 481.347 316.103C480.057 316.851 478.611 317.217 477.073 317.217C475.03 317.217 472.812 316.566 470.556 315.265H470.554ZM392.579 163.641C391.084 164.501 390.227 166.593 390.227 169.38L390.232 251.07C390.232 257.836 395.189 266.422 401.054 269.821L472.86 311.272C475.29 312.667 477.539 312.976 479.04 312.107C480.526 311.243 481.384 309.151 481.384 306.364V224.674C481.384 217.908 476.422 209.322 470.554 205.924L398.75 164.484C397.238 163.604 395.783 163.155 394.54 163.155C393.8 163.155 393.136 163.312 392.579 163.638V163.641Z" fill="#007A00"/>
<path d="M460.824 248.964C460.824 262.432 456.133 267.88 449.096 264.536C445.206 262.687 442.459 259.125 441.259 254.266C439.255 257.527 435.997 258.311 431.475 256.164C424.095 252.657 418.258 242.21 418.258 230.845C418.258 219.481 424.038 214.627 431.475 218.163C435.251 219.958 438.226 223.102 440.287 227.315V222.876L448.067 226.575V250.956C448.067 254.569 449.268 256.344 450.814 257.076C453.447 258.328 455.047 255.101 455.047 246.371C455.047 231.097 446.467 216.482 433.764 210.448C421.005 204.386 412.481 211.772 412.481 227.498C412.481 243.224 420.833 258.857 433.536 264.893C437.14 266.605 441.202 267.557 444.806 266.937L446.635 274.729C443.145 275.403 438.055 274.263 433.533 272.113C416.997 264.256 406.07 244.316 406.07 224.448C406.07 204.58 417.112 195.382 433.761 203.294C449.839 210.934 460.824 230.073 460.824 248.961V248.964ZM440.398 241.364C440.398 234.818 437.366 229.69 433.247 227.732C429.071 225.749 426.153 228.198 426.153 234.595C426.153 240.992 429.071 246.366 433.247 248.349C437.366 250.307 440.398 247.986 440.398 241.364Z" fill="#55A649"/>
<path d="M401.411 308.719C401.063 306.97 400.268 305.278 399.076 303.68C394.84 303.883 390.495 303.051 387.263 301.188C384.03 299.321 382.592 296.812 382.935 294.374C381.566 294.028 380.154 293.725 378.671 293.499C377.181 293.267 375.689 293.125 374.209 293.025C372.388 295.237 368.967 296.995 364.548 297.681C360.126 298.367 355.644 297.829 352.151 296.44C349.733 297.478 347.584 298.715 345.76 300.125V308.859C345.974 309.042 346.16 309.225 346.349 309.414C344.803 310.935 342.519 312.132 339.835 312.87V321.605C340.189 323.354 340.978 325.052 342.167 326.638C346.4 326.441 350.745 327.267 353.986 329.133C357.216 331 358.651 333.507 358.305 335.948C359.683 336.288 361.095 336.594 362.578 336.825C364.068 337.054 365.551 337.194 367.037 337.297C368.858 335.082 372.277 333.329 376.698 332.641C381.123 331.949 385.602 332.486 389.095 333.881C391.51 332.846 393.668 331.609 395.495 330.191V321.456C395.28 321.276 395.092 321.087 394.903 320.902C396.449 319.378 398.73 318.186 401.414 317.452V308.717L401.411 308.719ZM357.702 315.176C361.026 311.886 367.838 310.143 374.506 311.175C378.462 311.784 381.62 313.256 383.541 315.148C380.214 318.438 373.403 320.181 366.737 319.149C362.778 318.535 359.623 317.063 357.702 315.176Z" fill="white"/>
<path d="M378.579 318.106C380.591 317.374 382.309 316.371 383.544 315.148C381.623 313.256 378.465 311.784 374.509 311.175C367.837 310.143 361.026 311.887 357.705 315.176C358.425 315.885 359.317 316.534 360.363 317.103C356.476 314.988 354.675 311.749 356.156 308.559C358.302 303.943 366.52 301.202 374.512 302.434C382.503 303.669 387.245 308.411 385.099 313.024C384.075 315.219 381.672 316.986 378.585 318.103L378.579 318.106ZM376.695 323.903C372.274 324.589 368.855 326.347 367.034 328.565C365.548 328.462 364.064 328.322 362.575 328.09C361.092 327.859 359.68 327.55 358.302 327.21C358.648 324.766 357.213 322.268 353.983 320.399C350.742 318.526 346.397 317.7 342.164 317.898C340.975 316.308 340.186 314.616 339.832 312.867V321.602C340.186 323.351 340.975 325.049 342.164 326.635C346.397 326.438 350.742 327.264 353.983 329.131C357.213 330.997 358.648 333.504 358.302 335.945C359.68 336.285 361.092 336.591 362.575 336.822C364.064 337.051 365.548 337.191 367.034 337.294C368.855 335.079 372.274 333.327 376.695 332.638C381.12 331.946 385.599 332.483 389.092 333.878C391.507 332.844 393.665 331.606 395.491 330.188V321.453C393.665 322.865 391.507 324.106 389.092 325.143C385.599 323.748 381.12 323.211 376.695 323.897V323.903ZM401.411 308.72C397.572 309.768 394.523 311.744 393.333 314.299C392.144 316.857 393.076 319.441 395.494 321.459C395.28 321.279 395.091 321.09 394.903 320.904C396.449 319.381 398.73 318.189 401.414 317.454V308.72H401.411ZM347.912 307.285C349.098 304.729 348.169 302.143 345.76 300.125V308.86C345.974 309.042 346.16 309.225 346.349 309.414C347.012 308.76 347.555 308.054 347.912 307.285Z" fill="#C7EFC0"/>
<path d="M366.963 338.352C365.202 338.229 363.759 338.077 362.416 337.869C361.049 337.657 359.663 337.371 358.051 336.974C357.525 336.842 357.185 336.339 357.262 335.805C357.556 333.715 356.173 331.617 353.46 330.048C350.522 328.353 346.426 327.493 342.216 327.69C341.873 327.702 341.533 327.547 341.324 327.27C340.035 325.549 339.189 323.714 338.803 321.813C338.789 321.745 338.783 321.673 338.783 321.605V312.87C338.783 312.395 339.1 311.978 339.558 311.852C341.673 311.272 343.474 310.415 344.831 309.348C344.751 309.2 344.708 309.031 344.708 308.857V300.122C344.708 299.796 344.86 299.49 345.117 299.29C347.004 297.829 349.23 296.546 351.737 295.471C351.994 295.363 352.283 295.357 352.54 295.46C356.01 296.838 360.329 297.269 364.385 296.638C368.381 296.017 371.662 294.457 373.394 292.353C373.611 292.093 373.94 291.947 374.277 291.973C375.97 292.084 377.459 292.241 378.828 292.456C380.206 292.664 381.632 292.959 383.193 293.35C383.713 293.482 384.053 293.985 383.979 294.519C383.684 296.609 385.07 298.704 387.789 300.276C390.73 301.971 394.823 302.829 399.025 302.628C399.376 302.611 399.711 302.769 399.919 303.052C401.217 304.789 402.066 306.627 402.446 308.514C402.46 308.582 402.466 308.651 402.466 308.72V317.455C402.466 317.929 402.149 318.343 401.691 318.469C399.576 319.049 397.778 319.904 396.426 320.967C396.507 321.116 396.549 321.285 396.549 321.459V330.194C396.549 330.52 396.398 330.826 396.141 331.026C394.26 332.483 392.03 333.77 389.512 334.85C389.255 334.959 388.966 334.962 388.706 334.862C385.239 333.478 380.923 333.047 376.861 333.681C372.863 334.301 369.578 335.862 367.852 337.966C367.652 338.209 367.352 338.349 367.04 338.349C367.015 338.349 366.992 338.349 366.966 338.349L366.963 338.352ZM389.066 332.746C391.081 331.852 392.885 330.82 394.437 329.671V321.925C394.366 321.856 394.297 321.791 394.228 321.722L394.163 321.659C393.96 321.462 393.845 321.19 393.845 320.907C393.845 320.624 393.957 320.353 394.16 320.156C395.672 318.669 397.801 317.472 400.357 316.668V308.825C400.065 307.439 399.456 306.07 398.547 304.752C394.151 304.864 389.878 303.912 386.734 302.097C383.613 300.293 381.872 297.815 381.832 295.185C380.663 294.911 379.571 294.697 378.508 294.537C377.336 294.354 376.072 294.214 374.655 294.111C372.537 296.392 368.952 298.061 364.708 298.718C360.446 299.379 355.907 298.961 352.174 297.572C350.168 298.461 348.37 299.493 346.812 300.642V308.388C346.906 308.479 347.001 308.571 347.092 308.662C347.289 308.86 347.401 309.131 347.401 309.411C347.401 309.691 347.287 309.96 347.086 310.157C345.572 311.646 343.439 312.847 340.887 313.65V321.49C341.184 322.888 341.79 324.254 342.69 325.561C347.086 325.452 351.368 326.407 354.512 328.219C357.628 330.02 359.366 332.498 359.406 335.127C360.603 335.405 361.678 335.616 362.736 335.779C363.885 335.956 365.119 336.093 366.586 336.205C368.701 333.924 372.285 332.258 376.533 331.597C377.865 331.389 379.222 331.286 380.574 331.286C383.553 331.286 386.5 331.783 389.066 332.741V332.746ZM366.577 320.193C362.538 319.567 359.126 318.052 356.965 315.928C356.765 315.731 356.65 315.462 356.65 315.179C356.65 314.896 356.762 314.628 356.962 314.43C360.58 310.849 367.861 309.083 374.666 310.137C378.705 310.76 382.121 312.272 384.282 314.399C384.482 314.596 384.596 314.868 384.596 315.148C384.596 315.431 384.484 315.699 384.284 315.897C381.363 318.786 376.061 320.493 370.55 320.493C369.227 320.493 367.895 320.396 366.577 320.19V320.193ZM374.346 312.215C368.672 311.335 362.704 312.544 359.303 315.174C361.161 316.6 363.808 317.632 366.897 318.109C372.568 318.987 378.539 317.777 381.941 315.148C380.083 313.719 377.436 312.69 374.346 312.212V312.215Z" fill="#007A00"/>
<path d="M333.844 163.521C333.841 167.008 336.294 168.417 339.318 166.673L401.932 130.522C404.947 128.787 407.4 124.545 407.4 121.058V33.2221C407.4 29.7378 404.944 28.3287 401.929 30.0723L339.312 66.2183C336.294 67.9676 333.847 72.2065 333.847 75.6908V163.521H333.844Z" fill="white"/>
<path d="M334.91 167.965C333.541 167.174 332.786 165.593 332.789 163.518V75.6907C332.789 71.812 335.419 67.253 338.78 65.3065L401.397 29.1604C403.195 28.12 404.944 27.9828 406.319 28.7774C407.691 29.5691 408.448 31.1469 408.448 33.222V121.058C408.448 124.942 405.816 129.498 402.454 131.433L339.841 167.588C338.809 168.183 337.797 168.48 336.862 168.48C336.159 168.48 335.496 168.308 334.907 167.968L334.91 167.965ZM402.454 30.984L339.838 67.1301C337.159 68.6793 334.899 72.6009 334.899 75.6907V163.521C334.899 164.793 335.287 165.75 335.968 166.142C336.654 166.539 337.683 166.399 338.794 165.759L401.411 129.604C404.089 128.063 406.35 124.148 406.35 121.052V33.222C406.35 31.9501 405.959 30.9954 405.276 30.601C405.018 30.4523 404.715 30.3809 404.378 30.3809C403.812 30.3809 403.152 30.5838 402.46 30.984H402.454Z" fill="#007A00"/>
<path d="M393.277 51.3381C388.664 48.677 381.195 52.9902 376.584 60.9734C371.977 68.9566 371.977 77.5858 376.584 80.2469C381.192 82.9051 388.661 78.5948 393.271 70.6116C397.879 62.6283 397.882 54.002 393.274 51.3409L393.277 51.3381Z" fill="#C7EFC0"/>
<path d="M384.928 79.4295C381.135 81.6132 377.776 81.4846 375.615 79.5409C376.71 75.505 379.162 71.4462 382.212 68.6794C381.06 68.3764 380.303 67.256 380.3 65.4838C380.3 62.5398 382.378 58.9526 384.928 57.4777C387.486 56.0057 389.555 57.1947 389.555 60.1417C389.555 61.9109 388.798 63.9089 387.643 65.5496C390.704 64.7807 393.145 66.0155 394.246 68.7823C392.085 73.2298 388.721 77.2429 384.93 79.4295H384.928ZM346.326 84.1371C346.326 84.9717 346.907 85.3147 347.635 84.8945L362.964 76.0424C363.693 75.6279 364.282 74.6047 364.282 73.7672C364.282 72.9325 363.696 72.5924 362.97 73.0154L347.638 81.8619C346.912 82.2821 346.326 83.3025 346.326 84.1371ZM350.82 75.485C350.82 74.6532 351.408 73.6386 352.131 73.2184L362.97 66.9616C363.696 66.5414 364.285 66.8787 364.285 67.7104C364.285 68.5479 363.696 69.5655 362.97 69.9856L352.134 76.2453C351.408 76.6626 350.822 76.3254 350.82 75.485ZM346.323 90.191C346.323 91.0313 346.912 91.3657 347.638 90.9484L362.97 82.0963C363.699 81.6761 364.285 80.6614 364.285 79.8211C364.285 78.9864 363.696 78.652 362.973 79.0693L347.638 87.9158C346.912 88.3359 346.329 89.3535 346.326 90.191H346.323ZM346.323 102.302C346.323 103.139 346.912 103.482 347.638 103.062L362.97 94.2155C363.699 93.7924 364.282 92.772 364.285 91.9345C364.285 91.0999 363.699 90.7626 362.976 91.18L347.641 100.035C346.915 100.449 346.326 101.464 346.323 102.302ZM353.666 92.006C353.669 91.1742 354.255 90.1567 354.981 89.7308L362.97 85.1289C363.696 84.7002 364.285 85.0432 364.282 85.8778C364.282 86.7181 363.693 87.7386 362.97 88.153L354.981 92.7635C354.255 93.1865 353.669 92.8492 353.666 92.006ZM346.323 117.531C346.323 118.371 346.912 118.705 347.638 118.288L397.255 89.645C397.979 89.222 398.567 88.2073 398.567 87.367C398.567 86.5352 397.976 86.1951 397.25 86.6152L347.633 115.261C346.912 115.676 346.323 116.702 346.323 117.531ZM355.441 124.373C355.441 125.211 356.024 125.554 356.753 125.139L397.247 101.759C397.976 101.336 398.565 100.324 398.565 99.4776C398.565 98.6516 397.981 98.3143 397.253 98.7287L356.756 122.11C356.033 122.524 355.441 123.545 355.441 124.376V124.373ZM364.559 113.055C364.559 112.226 365.154 111.208 365.871 110.794L397.255 92.672C397.979 92.2518 398.565 92.5891 398.567 93.4294C398.565 94.2641 397.979 95.2816 397.255 95.6989L365.874 113.818C365.154 114.235 364.562 113.898 364.562 113.055H364.559ZM346.323 138.722C346.323 139.562 346.912 139.897 347.635 139.48L397.25 110.834C397.976 110.413 398.562 109.399 398.567 108.564C398.567 107.732 397.979 107.387 397.25 107.807L347.633 136.455C346.907 136.867 346.326 137.887 346.323 138.722ZM355.441 145.571C355.441 146.405 356.03 146.742 356.756 146.328L397.253 122.947C397.979 122.527 398.567 121.512 398.565 120.672C398.562 119.837 397.976 119.5 397.25 119.92L356.753 143.298C356.03 143.718 355.441 144.739 355.441 145.573V145.571ZM364.559 134.249C364.565 133.417 365.148 132.397 365.868 131.982L397.253 113.863C397.976 113.44 398.565 113.778 398.567 114.615C398.567 115.45 397.979 116.473 397.255 116.89L365.871 135.012C365.154 135.426 364.559 135.086 364.559 134.246V134.249Z" fill="#55A649"/>
<path d="M314.299 443.306C313.716 440.413 312.398 437.615 310.429 434.974C303.426 435.302 296.235 433.933 290.89 430.849C285.539 427.765 283.161 423.615 283.732 419.585C281.466 419.013 279.13 418.504 276.675 418.124C274.214 417.747 271.747 417.512 269.289 417.347C266.277 421.002 260.623 423.909 253.311 425.044C245.997 426.187 238.583 425.296 232.809 422.992C228.807 424.707 225.249 426.75 222.233 429.086V443.537C222.588 443.832 222.896 444.143 223.208 444.455C220.65 446.97 216.877 448.954 212.429 450.168V464.62C213.012 467.516 214.324 470.32 216.291 472.949C223.285 472.62 230.479 473.987 235.839 477.079C241.181 480.169 243.553 484.311 242.987 488.347C245.265 488.916 247.601 489.422 250.056 489.802C252.517 490.179 254.975 490.413 257.427 490.585C260.446 486.921 266.099 484.019 273.411 482.876C280.728 481.741 288.143 482.633 293.914 484.937C297.912 483.222 301.485 481.175 304.504 478.834V464.383C304.146 464.086 303.838 463.774 303.52 463.465C306.081 460.944 309.857 458.975 314.299 457.757V443.306ZM241.993 453.984C247.489 448.545 258.759 445.658 269.795 447.367C276.338 448.379 281.563 450.809 284.736 453.939C279.236 459.381 267.969 462.268 256.936 460.561C250.387 459.549 245.165 457.111 241.99 453.984H241.993Z" fill="white"/>
<path d="M276.527 458.835C279.856 457.626 282.698 455.959 284.738 453.941C281.563 450.812 276.341 448.382 269.798 447.37C258.762 445.664 247.492 448.551 241.995 453.987C243.184 455.159 244.659 456.231 246.389 457.171C239.96 453.684 236.979 448.319 239.431 443.043C242.99 435.414 256.578 430.872 269.801 432.916C283.015 434.954 290.858 442.794 287.305 450.428C285.619 454.064 281.643 456.983 276.532 458.835H276.527ZM273.411 468.424C266.102 469.565 260.446 472.469 257.427 476.13C254.975 475.962 252.517 475.727 250.056 475.35C247.598 474.967 245.262 474.461 242.987 473.895C243.556 469.851 241.181 465.715 235.839 462.625C230.479 459.532 223.285 458.166 216.291 458.495C214.324 455.868 213.012 453.064 212.429 450.166V464.617C213.012 467.513 214.324 470.317 216.291 472.946C223.285 472.618 230.479 473.984 235.839 477.076C241.181 480.166 243.553 484.308 242.987 488.344C245.265 488.913 247.601 489.419 250.056 489.799C252.517 490.176 254.975 490.41 257.427 490.582C260.446 486.918 266.099 484.016 273.411 482.873C280.728 481.738 288.143 482.63 293.914 484.934C297.912 483.219 301.485 481.172 304.504 478.831V464.38C301.485 466.721 297.912 468.767 293.914 470.482C288.143 468.179 280.731 467.287 273.411 468.422V468.424ZM314.299 443.306C307.948 445.041 302.9 448.308 300.931 452.538C298.964 456.765 300.499 461.044 304.501 464.383C304.143 464.085 303.835 463.774 303.517 463.465C306.079 460.944 309.854 458.975 314.296 457.757V443.306H314.299ZM225.792 440.93C227.758 436.709 226.223 432.43 222.233 429.086V443.537C222.588 443.832 222.896 444.143 223.208 444.455C224.308 443.374 225.203 442.202 225.792 440.93Z" fill="#C7EFC0"/>
<path d="M257.356 491.637C254.498 491.439 252.128 491.188 249.896 490.845C247.635 490.493 245.36 490.025 242.733 489.37C242.21 489.239 241.87 488.735 241.944 488.201C242.47 484.454 240.055 480.732 235.313 477.991C230.342 475.121 223.425 473.666 216.339 474.001C215.996 474.015 215.656 473.858 215.447 473.581C213.369 470.802 212.009 467.858 211.397 464.829C211.383 464.76 211.377 464.689 211.377 464.62V450.168C211.377 449.694 211.694 449.277 212.152 449.154C216.025 448.096 219.289 446.478 221.667 444.44C221.63 444.409 221.593 444.377 221.558 444.346C221.318 444.146 221.181 443.849 221.181 443.537V429.086C221.181 428.76 221.333 428.454 221.59 428.254C224.654 425.879 228.29 423.781 232.394 422.023C232.652 421.911 232.94 421.911 233.197 422.014C239.046 424.346 246.317 425.073 253.148 424.004C259.92 422.952 265.508 420.282 268.478 416.678C268.695 416.415 269.023 416.275 269.361 416.295C272.159 416.483 274.606 416.738 276.838 417.081C279.073 417.427 281.411 417.91 283.992 418.561C284.515 418.693 284.853 419.196 284.778 419.73C284.247 423.478 286.668 427.196 291.418 429.937C296.386 432.804 303.292 434.259 310.383 433.922C310.735 433.905 311.066 434.065 311.278 434.345C313.361 437.137 314.728 440.084 315.337 443.1C315.351 443.168 315.357 443.24 315.357 443.308V457.76C315.357 458.235 315.039 458.649 314.582 458.775C310.7 459.838 307.439 461.456 305.07 463.48C305.107 463.511 305.141 463.542 305.178 463.571C305.421 463.771 305.561 464.071 305.561 464.383V478.834C305.561 479.16 305.41 479.469 305.155 479.666C302.094 482.038 298.453 484.139 294.334 485.906C294.079 486.014 293.788 486.02 293.528 485.917C287.691 483.588 280.42 482.856 273.58 483.919C266.803 484.98 261.215 487.652 258.248 491.256C258.048 491.499 257.747 491.64 257.436 491.64C257.41 491.64 257.387 491.64 257.364 491.64L257.356 491.637ZM293.894 483.799C297.504 482.219 300.713 480.375 303.452 478.314V464.86C303.277 464.697 303.112 464.537 302.952 464.38L302.786 464.22C302.583 464.023 302.468 463.751 302.468 463.468C302.468 463.185 302.58 462.914 302.783 462.713C305.301 460.235 308.905 458.257 313.247 456.963V443.411C312.721 440.896 311.601 438.424 309.911 436.048C302.634 436.294 295.537 434.745 290.364 431.761C285.21 428.791 282.429 424.689 282.603 420.388C280.431 419.862 278.43 419.459 276.518 419.164C274.486 418.853 272.265 418.613 269.747 418.433C266.382 422.22 260.494 424.995 253.474 426.084C246.44 427.182 238.946 426.47 232.829 424.129C229.233 425.701 226.026 427.542 223.288 429.606V443.063C223.522 443.277 223.737 443.494 223.954 443.711C224.151 443.909 224.262 444.18 224.262 444.46C224.262 444.74 224.148 445.009 223.948 445.206C221.421 447.693 217.814 449.677 213.484 450.963V464.514C214.01 467.041 215.127 469.513 216.811 471.874C224.077 471.629 231.191 473.181 236.367 476.168C241.512 479.14 244.288 483.242 244.116 487.541C246.317 488.069 248.275 488.461 250.219 488.764C252.251 489.076 254.409 489.31 256.973 489.499C260.334 485.717 266.225 482.936 273.248 481.838C275.409 481.504 277.613 481.338 279.808 481.338C284.761 481.338 289.66 482.179 293.894 483.802V483.799ZM256.776 461.602C250.236 460.593 244.722 458.152 241.252 454.736C241.052 454.539 240.938 454.267 240.938 453.987C240.938 453.707 241.049 453.435 241.249 453.238C247.089 447.459 258.891 444.618 269.952 446.33C276.498 447.342 282.009 449.78 285.473 453.192C285.673 453.39 285.787 453.658 285.787 453.941C285.787 454.224 285.676 454.493 285.476 454.69C280.768 459.346 272.196 462.099 263.261 462.099C261.103 462.099 258.925 461.939 256.776 461.604V461.602ZM269.635 448.408C259.697 446.87 249.193 449.154 243.55 453.984C246.737 456.705 251.496 458.655 257.101 459.521C267.034 461.059 277.541 458.775 283.183 453.941C280.005 451.226 275.246 449.277 269.635 448.408Z" fill="#007A00"/>
<path d="M261.083 427.902C264.765 428.914 267.895 430.552 270.021 432.641C269.758 432.893 269.504 433.15 269.209 433.402V445.395C271.713 447.336 274.677 449.034 277.993 450.457C282.786 448.539 288.937 447.805 295.008 448.751C301.079 449.697 305.767 452.098 308.271 455.142C310.309 455.002 312.35 454.81 314.391 454.496C316.429 454.176 318.366 453.758 320.259 453.293C319.787 449.94 321.754 446.501 326.19 443.935C330.637 441.373 336.602 440.236 342.411 440.507C344.043 438.329 345.126 435.997 345.615 433.599V421.605C341.925 420.596 338.792 418.953 336.668 416.864C336.925 416.603 337.186 416.349 337.477 416.103V404.11C334.973 402.172 332.023 400.474 328.702 399.051C323.912 400.96 317.758 401.7 311.692 400.757C305.627 399.817 300.931 397.404 298.427 394.366C296.392 394.503 294.342 394.697 292.304 395.015C290.264 395.323 288.329 395.744 286.448 396.215C286.919 399.568 284.947 403.009 280.508 405.573C276.072 408.131 270.107 409.269 264.293 408.995C262.655 411.184 261.566 413.511 261.086 415.909V427.902H261.083ZM308.677 430.226C299.522 431.644 290.172 429.251 285.607 424.735C288.246 422.137 292.579 420.116 298.01 419.282C307.168 417.864 316.517 420.256 321.079 424.772C318.441 427.362 314.11 429.386 308.68 430.226H308.677Z" fill="#55A649"/>
<g opacity="0.3" style="mix-blend-mode:overlay">
<path d="M283.481 421.82C280.528 415.486 287.042 408.98 298.01 407.285C308.98 405.59 320.259 409.358 323.208 415.692C325.246 420.068 322.771 424.512 317.435 427.416C318.867 426.633 320.096 425.747 321.079 424.772C316.517 420.256 307.168 417.864 298.01 419.282C292.582 420.116 288.246 422.137 285.607 424.735C287.302 426.41 289.663 427.788 292.425 428.794C288.18 427.256 284.884 424.838 283.484 421.82H283.481ZM277.99 438.464C274.674 437.04 271.71 435.337 269.207 433.402V445.395C271.71 447.336 274.674 449.034 277.99 450.457C282.783 448.539 288.935 447.805 295.006 448.751C301.077 449.697 305.764 452.098 308.268 455.142C310.306 455.002 312.347 454.81 314.388 454.496C316.426 454.176 318.364 453.758 320.256 453.293C319.784 449.94 321.751 446.501 326.187 443.934C330.634 441.373 336.6 440.236 342.408 440.507C344.04 438.329 345.123 435.997 345.612 433.599V421.605C345.123 424.006 344.04 426.333 342.408 428.511C336.6 428.24 330.631 429.374 326.187 431.944C321.751 434.508 319.784 437.941 320.256 441.293C318.364 441.762 316.426 442.185 314.388 442.502C312.347 442.82 310.306 443.008 308.268 443.151C305.764 440.107 301.077 437.698 295.006 436.752C288.935 435.808 282.783 436.549 277.99 438.464ZM261.083 427.902C264.765 428.914 267.895 430.552 270.021 432.641C269.758 432.893 269.504 433.15 269.209 433.402C272.525 430.629 273.803 427.085 272.171 423.572C270.541 420.059 266.348 417.349 261.083 415.909V427.902ZM336.665 416.864C336.923 416.603 337.183 416.349 337.474 416.103V404.11C334.164 406.882 332.89 410.435 334.522 413.939C335.01 414.994 335.756 415.966 336.665 416.864Z" fill="black"/>
</g>
<path d="M307.456 455.811C305.027 452.855 300.431 450.66 294.845 449.791C289.192 448.911 283.195 449.511 278.384 451.435C278.124 451.537 277.833 451.535 277.578 451.423C274.146 449.948 271.113 448.199 268.566 446.224C268.309 446.027 268.16 445.718 268.16 445.392V433.399C268.16 433.119 268.272 432.85 268.469 432.653C266.534 431.052 263.91 429.769 260.806 428.917C260.349 428.791 260.031 428.374 260.031 427.899V415.906C260.031 415.837 260.037 415.769 260.051 415.7C260.557 413.165 261.701 410.695 263.447 408.363C263.656 408.083 263.993 407.928 264.339 407.943C270.173 408.22 275.881 407.022 279.979 404.661C283.855 402.426 285.833 399.399 285.402 396.364C285.327 395.832 285.665 395.326 286.188 395.195C288.329 394.654 290.278 394.257 292.141 393.974C293.999 393.685 296.032 393.468 298.355 393.314C298.69 393.297 299.021 393.434 299.239 393.694C301.674 396.655 306.27 398.848 311.852 399.714C317.492 400.591 323.488 399.991 328.31 398.067C328.571 397.964 328.859 397.967 329.114 398.079C332.524 399.539 335.556 401.288 338.12 403.272C338.377 403.472 338.529 403.778 338.529 404.104V416.097C338.529 416.377 338.417 416.646 338.22 416.841C340.158 418.45 342.785 419.733 345.892 420.582C346.349 420.708 346.666 421.122 346.666 421.597V433.59C346.666 433.662 346.661 433.73 346.646 433.799C346.126 436.351 344.986 438.818 343.254 441.13C343.045 441.41 342.713 441.565 342.362 441.551C336.517 441.276 330.814 442.474 326.718 444.835C322.848 447.073 320.876 450.097 321.302 453.135C321.376 453.67 321.036 454.173 320.513 454.304C318.386 454.83 316.437 455.23 314.553 455.528C312.701 455.811 310.729 456.019 308.345 456.182C308.319 456.182 308.297 456.182 308.274 456.182C307.959 456.182 307.662 456.042 307.462 455.799L307.456 455.811ZM325.661 443.02C329.965 440.539 335.853 439.241 341.887 439.433C343.228 437.535 344.125 435.537 344.56 433.49V422.397C340.993 421.319 338.02 419.673 335.928 417.612C335.728 417.415 335.613 417.146 335.613 416.866C335.613 416.586 335.722 416.317 335.922 416.117C336.085 415.954 336.248 415.792 336.422 415.631V404.63C334.187 402.958 331.586 401.466 328.676 400.188C323.589 402.117 317.366 402.703 311.526 401.797C305.698 400.894 300.799 398.593 297.97 395.452C295.923 395.6 294.117 395.798 292.459 396.055C290.912 396.289 289.303 396.607 287.565 397.024C287.645 400.608 285.31 404.012 281.031 406.485C276.73 408.966 270.841 410.266 264.81 410.069C263.458 411.987 262.558 413.982 262.138 416.017V427.113C265.705 428.197 268.675 429.84 270.761 431.892C270.964 432.092 271.079 432.367 271.076 432.65C271.076 432.936 270.956 433.207 270.75 433.404L270.553 433.593C270.458 433.684 270.361 433.779 270.264 433.87V444.875C272.485 446.538 275.089 448.033 278.016 449.319C283.098 447.387 289.323 446.798 295.171 447.71C301.002 448.619 305.901 450.92 308.725 454.056C310.815 453.904 312.578 453.71 314.228 453.458C315.791 453.212 317.406 452.892 319.138 452.481C319.061 448.899 321.39 445.495 325.664 443.023L325.661 443.02ZM284.867 425.484C284.667 425.287 284.556 425.015 284.556 424.735C284.556 424.452 284.67 424.183 284.87 423.986C287.777 421.122 292.387 419.081 297.85 418.244C307.079 416.815 316.937 419.19 321.819 424.026C322.019 424.224 322.131 424.495 322.131 424.778C322.131 425.058 322.016 425.33 321.816 425.527C318.907 428.388 314.296 430.426 308.84 431.269C307.045 431.546 305.227 431.681 303.426 431.681C295.969 431.681 288.806 429.38 284.867 425.487V425.484ZM298.17 420.322C293.645 421.017 289.792 422.571 287.177 424.738C291.861 428.622 300.413 430.443 308.517 429.186C313.036 428.488 316.889 426.933 319.507 424.769C314.825 420.885 306.273 419.067 298.167 420.322H298.17Z" fill="#007A00"/>
<path d="M373.552 360.489L350.491 373.803V387.929L371.336 399.968L394.4 386.651V372.523L373.552 360.489Z" fill="white"/>
<g opacity="0.5">
<path d="M371.336 399.968L394.4 386.651V372.523L371.339 385.839L371.336 399.968Z" fill="#C7EFC0"/>
</g>
<path d="M350.491 387.929L371.336 399.968L371.339 385.839L350.491 373.803V387.929Z" fill="#C7EFC0"/>
<path d="M370.81 400.88L349.962 388.841C349.636 388.652 349.436 388.306 349.436 387.929V373.8C349.436 373.423 349.639 373.077 349.965 372.888L373.026 359.574C373.351 359.386 373.752 359.386 374.077 359.574L394.926 371.608C395.252 371.797 395.452 372.142 395.452 372.52V386.648C395.452 387.026 395.252 387.372 394.926 387.56L371.862 400.877C371.699 400.971 371.516 401.017 371.336 401.017C371.156 401.017 370.973 400.971 370.81 400.877V400.88ZM393.348 373.131L373.554 361.704L351.545 374.409V387.32L371.339 398.75L393.348 386.04V373.129V373.131Z" fill="#007A00"/>
<path d="M259.374 3.78167C255.738 0.140195 249.836 0.143053 246.2 3.78167C242.564 7.42029 242.564 13.3141 246.2 16.9499C249.836 20.5885 255.738 20.5885 259.374 16.9499C263.009 13.3141 263.009 7.42029 259.374 3.78167Z" fill="white"/>
<path d="M249.267 13.8914C246.154 10.7844 245.725 6.03966 247.935 2.44678C247.323 2.82121 246.734 3.24996 246.202 3.7816C242.567 7.42022 242.567 13.314 246.202 16.9498C249.838 20.5884 255.741 20.5884 259.376 16.9498C259.902 16.4239 260.334 15.8351 260.714 15.2234C257.124 17.4271 252.374 17.0013 249.267 13.8914Z" fill="#C7EFC0"/>
<path d="M245.457 17.6958C241.418 13.6541 241.418 7.0829 245.457 3.04126C247.415 1.08047 250.019 3.05176e-05 252.791 3.05176e-05C255.561 3.05176e-05 258.165 1.08047 260.12 3.03841C264.159 7.08005 264.159 13.6541 260.12 17.6929C258.162 19.6537 255.561 20.7313 252.788 20.7313C250.016 20.7313 247.415 19.6509 245.457 17.6929V17.6958ZM246.946 4.52758C243.725 7.74889 243.725 12.9882 246.946 16.2066C248.504 17.7672 250.579 18.6276 252.788 18.6276C254.998 18.6276 257.07 17.7672 258.631 16.2066C261.849 12.9882 261.849 7.74889 258.631 4.53044C257.073 2.96981 255.001 2.10946 252.791 2.10946C250.584 2.10946 248.506 2.96981 246.949 4.53044L246.946 4.52758Z" fill="#007A00"/>
<path d="M161.637 447.262C158.001 443.617 152.099 443.623 148.463 447.262C144.827 450.897 144.827 456.791 148.463 460.427C152.099 464.068 158.001 464.068 161.637 460.427C165.273 456.791 165.273 450.897 161.637 447.262Z" fill="white"/>
<path d="M151.527 457.366C148.415 454.262 147.986 449.514 150.195 445.924C149.584 446.298 148.995 446.724 148.463 447.262C144.827 450.897 144.827 456.791 148.463 460.427C152.099 464.068 158.001 464.068 161.637 460.427C162.163 459.901 162.595 459.312 162.975 458.701C159.385 460.904 154.634 460.478 151.53 457.366H151.527Z" fill="#C7EFC0"/>
<path d="M147.72 461.17C145.762 459.212 144.684 456.611 144.684 453.844C144.684 451.077 145.762 448.473 147.72 446.518C149.678 444.558 152.282 443.477 155.054 443.477H155.057C157.827 443.477 160.428 444.558 162.383 446.518C164.341 448.473 165.419 451.077 165.419 453.844C165.419 456.611 164.341 459.215 162.383 461.17C160.425 463.131 157.824 464.208 155.054 464.208C152.285 464.208 149.681 463.131 147.723 461.17H147.72ZM149.209 448.005C147.648 449.565 146.791 451.638 146.791 453.841C146.791 456.045 147.648 458.12 149.209 459.681C150.77 461.241 152.845 462.102 155.051 462.102C157.258 462.102 159.333 461.241 160.891 459.678C162.452 458.117 163.309 456.045 163.309 453.841C163.309 451.638 162.449 449.562 160.891 448.002C159.333 446.441 157.261 445.581 155.054 445.581C152.848 445.581 150.77 446.441 149.212 448.005H149.209Z" fill="#007A00"/>
<path d="M128.972 521.189L156.506 505.291C158.701 504.027 162.254 504.03 164.444 505.296L192.012 521.214C192.295 521.371 192.538 521.549 192.747 521.734C192.741 521.729 192.735 521.726 192.732 521.72C192.927 521.889 193.087 522.069 193.221 522.255C193.264 522.309 193.287 522.372 193.324 522.426C193.338 522.449 193.353 522.472 193.361 522.495C193.361 522.492 193.353 522.481 193.353 522.478C193.39 522.546 193.424 522.621 193.461 522.692C193.453 522.675 193.456 522.655 193.444 522.638C193.473 522.698 193.501 522.758 193.524 522.818C193.553 522.892 193.567 522.961 193.584 523.035C193.616 523.155 193.638 523.275 193.644 523.398C193.647 523.427 193.659 523.455 193.659 523.481C193.659 523.487 193.661 523.495 193.661 523.501V534.188H193.659C193.661 535.02 193.118 535.854 192.021 536.486L164.481 552.384C162.294 553.65 158.739 553.65 156.546 552.384L128.975 536.469C127.886 535.837 127.34 535.011 127.334 534.188V523.487C127.329 522.661 127.872 521.823 128.972 521.189Z" fill="#55A649"/>
<g opacity="0.3" style="mix-blend-mode:overlay">
<path d="M158.776 525.462L157.615 504.862C159.773 504.107 162.574 504.219 164.438 505.296L183.043 516.035L166.708 525.467C164.521 526.734 160.968 526.728 158.776 525.462Z" fill="black"/>
</g>
<g opacity="0.3" style="mix-blend-mode:overlay">
<path d="M127.417 522.967C127.143 523.958 127.649 525.007 128.975 525.77L156.546 541.686C158.742 542.952 162.294 542.955 164.481 541.691L192.021 525.793C193.936 524.687 194.173 522.978 192.73 521.717C193.35 522.258 193.659 522.881 193.659 523.498V534.185H193.656C193.659 535.017 193.115 535.852 192.018 536.483L164.478 552.381C162.292 553.648 158.736 553.648 156.543 552.381L128.972 536.466C127.883 535.835 127.337 535.009 127.332 534.185V523.478C127.332 523.301 127.363 523.129 127.415 522.961L127.417 522.967Z" fill="black"/>
</g>
<path d="M155.949 553.416L128.375 537.498C126.943 536.666 126.148 535.494 126.14 534.188V523.492C126.134 522.195 126.949 520.98 128.375 520.157L155.909 504.259C158.467 502.784 162.475 502.787 165.033 504.265L192.587 520.171C192.901 520.348 193.199 520.554 193.47 520.789C193.482 520.797 193.49 520.806 193.502 520.814C193.747 521.023 193.967 521.266 194.17 521.54C194.23 521.62 194.279 521.703 194.353 521.835C194.365 521.849 194.373 521.869 194.388 521.892C194.393 521.903 194.399 521.915 194.405 521.926C194.41 521.935 194.416 521.946 194.422 521.958C194.456 522.006 194.485 522.058 194.513 522.112C194.516 522.118 194.519 522.123 194.522 522.129C194.562 522.212 194.602 522.298 194.642 522.403C194.679 522.512 194.705 522.612 194.733 522.721C194.782 522.909 194.813 523.081 194.831 523.252V523.267C194.845 523.344 194.854 523.421 194.854 523.498V534.185C194.854 534.228 194.851 534.271 194.848 534.311C194.799 535.56 193.993 536.721 192.615 537.512L165.079 553.41C163.801 554.148 162.157 554.519 160.517 554.519C158.876 554.519 157.233 554.151 155.952 553.41L155.949 553.416ZM192.467 523.604C192.467 523.584 192.461 523.564 192.461 523.55C192.458 523.518 192.453 523.484 192.453 523.45C192.453 523.45 192.45 523.418 192.43 523.344C192.427 523.335 192.418 523.298 192.413 523.272C192.398 523.244 192.381 523.215 192.37 523.184L192.307 523.052C192.307 523.052 192.29 523.024 192.284 523.009C192.281 522.998 192.275 522.989 192.27 522.978C192.267 522.969 192.261 522.961 192.258 522.955C192.17 522.835 192.084 522.738 191.995 522.655C191.981 522.644 191.967 522.632 191.955 522.621C191.792 522.478 191.621 522.355 191.412 522.241L163.847 506.326C162.017 505.271 158.93 505.268 157.104 506.32L129.57 522.218C129.57 522.218 129.57 522.218 129.567 522.218C128.912 522.595 128.527 523.067 128.527 523.484V534.18C128.527 534.586 128.921 535.057 129.573 535.434L157.138 551.352C158.97 552.41 162.057 552.41 163.881 551.352L191.424 535.454C192.078 535.077 192.467 534.606 192.464 534.194C192.464 534.157 192.467 534.123 192.467 534.085V523.601V523.604Z" fill="#007A00"/>
<path d="M155.092 429.3C158.076 427.579 162.912 427.579 165.893 429.309C167.385 430.163 168.134 431.295 168.134 432.424V522.646C168.134 523.778 167.388 524.904 165.899 525.768C162.923 527.488 158.081 527.488 155.097 525.759C153.605 524.899 152.862 523.773 152.862 522.646V432.418C152.859 431.289 153.605 430.158 155.092 429.297V429.3Z" fill="white"/>
<path d="M165.893 429.308C167.385 430.163 168.134 431.295 168.134 432.424V522.646C168.134 523.778 167.388 524.904 165.899 525.768C164.409 526.628 162.452 527.057 160.494 527.057V428.011C162.452 428.011 164.401 428.442 165.896 429.308H165.893Z" fill="#C7EFC0"/>
<path d="M154.503 526.794C152.673 525.742 151.667 524.27 151.667 522.649V432.427C151.659 430.803 152.665 429.328 154.494 428.271C157.861 426.33 163.129 426.333 166.482 428.277C168.314 429.326 169.323 430.801 169.323 432.427V522.649C169.323 524.27 168.317 525.742 166.49 526.802C164.813 527.771 162.66 528.257 160.505 528.257C158.35 528.257 156.186 527.768 154.503 526.794ZM155.686 430.332C154.643 430.935 154.045 431.695 154.048 432.421V522.649C154.048 523.37 154.646 524.13 155.692 524.733C158.296 526.242 162.697 526.245 165.296 524.741C166.342 524.136 166.939 523.375 166.939 522.649V432.427C166.939 431.701 166.342 430.941 165.293 430.34C163.989 429.586 162.234 429.206 160.479 429.206C158.724 429.206 156.987 429.58 155.683 430.332H155.686Z" fill="#007A00"/>
<path d="M101.087 412.087L103.085 413.239C103.316 413.371 103.462 413.656 103.454 414.068V424.404C103.462 425.224 102.882 426.213 102.176 426.622L93.2151 431.795C92.8664 432.001 92.5492 432.018 92.3176 431.89V431.895L90.3168 430.741L90.3311 430.718C90.0567 430.601 89.8709 430.318 89.8709 429.872C89.8767 429.057 90.4483 428.062 91.1486 427.659L98.8346 423.22V414.36C98.8403 413.545 99.4062 412.55 100.115 412.144C100.507 411.922 100.844 411.93 101.075 412.113L101.087 412.09V412.087Z" fill="#C4F1BE"/>
<path d="M77.8861 462.462C77.8489 462.368 77.8261 462.276 77.7918 462.173C77.7546 462.073 77.7232 461.982 77.6889 461.885C77.6546 461.782 77.6231 461.685 77.5917 461.587C77.5545 461.49 77.5259 461.387 77.4945 461.284C77.4573 461.181 77.4231 461.079 77.383 460.976C77.3516 460.881 77.3201 460.784 77.2887 460.693C74.9249 454.181 76.1454 447.073 81.4275 441.368L98.3458 423.097L147.168 451.289L147.969 453.67L131.048 471.94C121.698 482.033 103.205 483.902 89.7166 476.116C83.737 472.663 79.7583 467.898 77.9861 462.776C77.9547 462.668 77.9233 462.568 77.8832 462.459L77.8861 462.462Z" fill="#55A649"/>
<g opacity="0.3" style="mix-blend-mode:overlay">
<path d="M88.9248 473.738C102.413 481.524 120.912 479.655 130.256 469.562L147.171 451.292L147.972 453.673L131.05 471.943C121.701 482.036 103.208 483.905 89.7194 476.119C83.7399 472.666 79.7611 467.901 77.989 462.779C77.9575 462.671 77.9261 462.571 77.8861 462.462C77.8489 462.368 77.826 462.276 77.7917 462.173C77.7546 462.073 77.7231 461.982 77.6888 461.885C77.6545 461.782 77.6231 461.685 77.5917 461.587C77.5545 461.49 77.5259 461.387 77.4945 461.284C77.4573 461.181 77.423 461.079 77.383 460.976C77.3516 460.881 77.3201 460.784 77.2887 460.693L77.2944 460.687C79.1123 465.692 83.0539 470.348 88.922 473.735L88.9248 473.738Z" fill="black"/>
</g>
<path d="M89.1249 477.151C83.1454 473.698 78.7893 468.736 76.8457 463.114L76.7657 462.865C76.7342 462.782 76.7085 462.696 76.6799 462.596C76.6342 462.479 76.597 462.37 76.557 462.248L76.4798 462.01C76.4427 461.916 76.4141 461.822 76.3769 461.69L76.2826 461.427C76.2683 461.393 76.2569 461.359 76.2454 461.324C76.2226 461.247 76.194 461.167 76.1711 461.101C73.5529 453.887 75.1507 446.398 80.5586 440.562L97.474 422.291C97.8513 421.885 98.4573 421.791 98.9432 422.071L147.766 450.263C148.017 450.408 148.206 450.64 148.3 450.914L149.098 453.295C149.238 453.707 149.141 454.164 148.843 454.482L131.925 472.752C126.251 478.874 117.322 482.09 108.095 482.09C101.567 482.09 94.893 480.481 89.1249 477.151ZM146.185 452.098L98.5774 424.607L82.305 442.179C77.5288 447.341 76.1082 453.941 78.4177 460.304C78.452 460.395 78.4806 460.493 78.5121 460.587C78.5407 460.655 78.5664 460.727 78.5892 460.798L78.6664 461.036C78.6807 461.081 78.695 461.127 78.7322 461.241L78.8265 461.524C78.8494 461.604 78.8779 461.679 78.9294 461.819L78.9951 462.027C79.0037 462.045 79.0094 462.062 79.0123 462.079C79.0523 462.19 79.0837 462.299 79.1152 462.396C80.853 467.418 84.8318 471.929 90.3169 475.093C103.322 482.601 121.204 480.827 130.179 471.137L146.62 453.387L146.188 452.101L146.185 452.098Z" fill="#007A00"/>
<path d="M98.4116 423.286L98.4059 395.186C98.4116 387.437 101.127 381.992 105.526 379.448L165.896 344.591L165.902 344.6C170.301 342.105 176.358 342.493 183.037 346.358C196.517 354.127 207.404 373.006 207.399 388.521L207.413 416.618L147.14 451.417L98.4145 423.283L98.4116 423.286Z" fill="#55A649"/>
<g opacity="0.3" style="mix-blend-mode:overlay">
<path d="M206.516 380.583C207.076 383.275 207.407 385.951 207.399 388.523L207.413 416.62L147.14 451.42L115.479 433.141L206.518 380.583H206.516Z" fill="black"/>
</g>
<path d="M146.542 452.452L97.817 424.318C97.4483 424.103 97.2225 423.712 97.2225 423.286L97.2168 395.186C97.2225 387.246 99.9636 381.292 104.931 378.416L165.302 343.562C165.353 343.534 165.404 343.508 165.456 343.491C170.412 340.761 176.86 341.413 183.632 345.332C197.4 353.266 208.596 372.643 208.593 388.526L208.608 416.623C208.608 417.049 208.379 417.441 208.013 417.655L147.737 452.455C147.554 452.561 147.349 452.615 147.143 452.615C146.937 452.615 146.731 452.561 146.545 452.455L146.542 452.452ZM206.207 388.523C206.212 373.397 195.551 354.947 182.44 347.392C176.366 343.874 170.698 343.254 166.488 345.637C166.448 345.663 166.402 345.683 166.359 345.7L106.123 380.48C101.922 382.912 99.6034 388.135 99.6006 395.189V422.6L147.14 450.048L206.224 415.937L206.207 388.526V388.523Z" fill="#007A00"/>
<path d="M146.542 452.452L97.817 424.318C97.4483 424.104 97.2225 423.712 97.2225 423.286L97.2168 395.186C97.2168 387.243 99.9579 381.286 104.937 378.411C109.922 375.535 116.465 376.141 123.362 380.123C137.127 388.063 148.326 407.442 148.326 423.323L148.332 451.42C148.332 451.846 148.103 452.241 147.734 452.452C147.551 452.558 147.346 452.612 147.14 452.612C146.934 452.612 146.728 452.558 146.542 452.452ZM106.129 380.474C101.919 382.907 99.5977 388.129 99.5977 395.186V422.597L145.948 449.357L145.942 423.32C145.942 408.2 135.281 389.747 122.17 382.184C118.511 380.071 115.01 379.002 111.883 379.002C109.77 379.002 107.83 379.491 106.129 380.472V380.474Z" fill="#007A00"/>
<path d="M100.147 395.186C100.147 385.551 104.64 379.563 111.874 379.563C114.921 379.563 118.385 380.637 121.898 382.667C134.858 390.141 145.396 408.383 145.396 423.323L145.402 448.408L100.149 422.283V395.189L100.147 395.186Z" fill="white"/>
<path d="M110.802 416.063L100.147 422.211V395.186C100.147 385.551 104.64 379.563 111.874 379.563C114.921 379.563 118.385 380.637 121.898 382.667C131.702 388.323 140.117 400.14 143.633 412.03C143.061 411.899 142.501 411.75 141.926 411.633C131.076 409.543 119.148 411.241 110.805 416.06L110.802 416.063Z" fill="#C7EFC0"/>
<path d="M194.485 425.093L193.613 424.589L195.357 423.581L195.348 395.483C195.348 387.729 192.627 379.14 188.228 371.517C183.812 363.879 177.721 357.214 170.984 353.321C164.267 349.442 158.193 349.07 153.791 351.591L152.479 352.34L147.958 354.953C149.23 352.906 150.87 351.26 152.874 350.102L157.527 347.412L157.536 347.424C162.681 344.534 169.358 345.154 176.372 349.205C183.149 353.118 189.497 359.806 194.251 368.038C198.998 376.253 201.611 385.076 201.605 392.877L201.617 420.974V423.989L197.089 426.593L194.482 425.095L194.485 425.093Z" fill="white"/>
<path d="M196.5 427.619L193.893 426.121H193.89L193.021 425.618C192.65 425.404 192.424 425.012 192.424 424.587C192.424 424.161 192.65 423.769 193.019 423.555L194.168 422.889L194.159 395.478C194.159 388.183 191.687 379.883 187.199 372.105C182.694 364.314 176.723 358.005 170.389 354.344C164.284 350.817 158.596 350.205 154.383 352.617L148.558 355.976C148.083 356.247 147.486 356.167 147.109 355.773C146.726 355.381 146.663 354.781 146.951 354.318C148.346 352.069 150.141 350.299 152.282 349.062L156.933 346.372C156.99 346.341 157.047 346.312 157.11 346.292C162.618 343.282 169.663 343.942 176.972 348.164C183.926 352.177 190.432 359.02 195.288 367.432C200.136 375.821 202.808 384.853 202.8 392.865L202.808 423.978C202.808 424.404 202.58 424.798 202.211 425.01L197.686 427.613C197.503 427.719 197.3 427.771 197.092 427.771C196.883 427.771 196.683 427.719 196.497 427.613L196.5 427.619ZM200.416 392.871C200.422 385.271 197.869 376.661 193.224 368.63C188.574 360.575 182.377 354.041 175.78 350.234C169.163 346.412 162.892 345.783 158.122 348.459C158.076 348.484 158.027 348.507 157.982 348.527L156.961 349.116C161.274 348.181 166.331 349.253 171.581 352.289C178.273 356.156 184.552 362.773 189.26 370.922C193.956 379.057 196.54 387.777 196.54 395.483L196.549 423.58C196.549 423.989 196.34 424.369 195.994 424.587L197.092 425.215L200.43 423.297L200.419 392.874L200.416 392.871Z" fill="#007A00"/>
<path d="M153.863 448.542L152.994 448.039L154.734 447.033L154.723 418.936C154.723 411.178 152.013 402.592 147.603 394.957C143.201 387.323 137.096 380.66 130.362 376.77C123.653 372.891 117.571 372.514 113.169 375.041V375.032L111.86 375.79L107.338 378.405C108.607 376.358 110.251 374.706 112.26 373.549L116.905 370.865L116.913 370.873C122.064 367.981 128.744 368.598 135.758 372.651C142.532 376.564 148.883 383.253 153.64 391.479C158.376 399.702 160.991 408.52 160.991 416.326V444.42L160.994 447.433L156.478 450.043L153.863 448.542Z" fill="white"/>
<path d="M155.886 451.074L153.271 449.574C153.271 449.574 153.271 449.574 153.268 449.574L152.399 449.071C152.028 448.856 151.799 448.465 151.799 448.039C151.799 447.613 152.028 447.221 152.399 447.007L153.543 446.347L153.531 418.936C153.531 411.627 151.062 403.324 146.571 395.552C142.078 387.769 136.113 381.466 129.764 377.802C123.656 374.272 117.971 373.657 113.758 376.075C113.718 376.098 113.678 376.118 113.641 376.135L107.935 379.437C107.461 379.711 106.864 379.628 106.486 379.234C106.103 378.842 106.04 378.242 106.329 377.776C107.727 375.521 109.522 373.752 111.666 372.517L116.313 369.833C116.367 369.801 116.427 369.776 116.482 369.753C121.998 366.737 129.044 367.398 136.356 371.619C143.304 375.629 149.81 382.472 154.674 390.884C159.516 399.29 162.183 408.328 162.183 416.326L162.189 447.433C162.189 447.859 161.96 448.25 161.594 448.465L157.078 451.074C156.895 451.183 156.69 451.234 156.481 451.234C156.272 451.234 156.072 451.183 155.889 451.077L155.886 451.074ZM159.799 416.329C159.799 408.743 157.247 400.128 152.611 392.079C147.955 384.024 141.758 377.493 135.164 373.686C128.544 369.864 122.273 369.235 117.502 371.917C117.456 371.942 117.408 371.965 117.359 371.982L116.345 372.568C120.661 371.634 125.708 372.708 130.959 375.744C137.662 379.614 143.939 386.228 148.635 394.366C153.331 402.492 155.915 411.218 155.915 418.938L155.926 447.036C155.926 447.444 155.718 447.822 155.378 448.039L156.475 448.67L159.799 446.747V416.329Z" fill="#007A00"/>
<path d="M111.874 379.565C114.921 379.565 118.385 380.64 121.898 382.67C128.364 386.394 134.226 392.799 138.476 400.142L100.149 422.263V395.189C100.149 385.554 104.643 379.565 111.877 379.565H111.874Z" fill="#C7EFC0"/>
<path d="M167.591 417.427V380.454C167.594 380.374 167.617 380.297 167.631 380.217C167.617 380.163 167.591 380.12 167.591 380.054V373.314C167.591 372.734 168 372.031 168.503 371.737L178.713 365.843C178.984 365.686 179.224 365.688 179.39 365.814L179.396 365.8L182.183 367.415C182.349 367.506 182.451 367.706 182.451 368.001V371.851C182.446 372.334 182.166 372.926 181.757 373.274L174.177 379.794C174.177 379.837 174.191 379.866 174.197 379.906L174.202 418.999L176.146 420.119L176.14 420.125C176.758 420.479 177.144 421.245 177.144 422.337C177.144 424.521 175.62 427.162 173.728 428.251C172.773 428.8 171.913 428.851 171.293 428.482L165.665 425.233C165.033 424.884 164.644 424.118 164.644 423.017C164.644 421.022 165.922 418.656 167.591 417.421V417.427Z" fill="white"/>
<path d="M177.144 422.343C177.144 424.526 175.62 427.168 173.728 428.257C171.836 429.348 170.304 428.474 170.306 426.293C170.306 424.112 171.833 421.46 173.719 420.371C175.614 419.279 177.144 420.162 177.144 422.343Z" fill="#C7EFC0"/>
<path d="M182.448 368.001V371.851C182.443 372.334 182.163 372.926 181.754 373.274L174.174 379.794C174.174 379.837 174.188 379.866 174.194 379.906L174.199 419.116C173.653 419.013 173.007 419.144 172.304 419.547C171.607 419.953 170.961 420.565 170.415 421.297L170.421 382.084C170.421 382.004 170.449 381.929 170.458 381.852C170.449 381.792 170.415 381.749 170.423 381.683V374.944C170.421 374.366 170.821 373.666 171.332 373.366L181.537 367.475C182.045 367.183 182.445 367.415 182.445 367.998L182.448 368.001Z" fill="#C7EFC0"/>
<path d="M170.695 429.517L165.09 426.279C164.05 425.704 163.452 424.518 163.452 423.02C163.452 420.888 164.667 418.393 166.399 416.858V380.397C166.402 380.351 166.405 380.303 166.411 380.254C166.405 380.191 166.399 380.126 166.399 380.051V373.311C166.399 372.311 167.031 371.216 167.905 370.705L178.115 364.814C178.684 364.485 179.293 364.442 179.81 364.685C179.873 364.708 179.93 364.737 179.99 364.771L182.754 366.371C183.317 366.68 183.64 367.275 183.64 368.001V371.862C183.632 372.694 183.2 373.606 182.534 374.18L175.383 380.329L175.388 418.315L176.738 419.093C176.78 419.119 176.823 419.147 176.866 419.179C177.798 419.787 178.333 420.931 178.333 422.343C178.333 424.941 176.569 427.991 174.319 429.288C173.585 429.709 172.859 429.92 172.184 429.92C171.647 429.92 171.144 429.786 170.692 429.52L170.695 429.517ZM173.602 420.033C173.233 419.822 173.008 419.427 173.008 419.001L173.002 380.011C172.99 379.934 172.982 379.854 172.982 379.794C172.982 379.448 173.136 379.117 173.396 378.891L180.976 372.371C181.137 372.234 181.254 371.959 181.257 371.851V368.255L179.087 366.997L169.1 372.76C168.963 372.84 168.78 373.154 168.78 373.309V379.9C168.78 379.9 168.78 379.908 168.78 379.911C168.826 380.08 168.832 380.254 168.8 380.426L168.78 417.421C168.78 417.798 168.6 418.152 168.297 418.378C166.914 419.402 165.836 421.44 165.836 423.017C165.836 423.603 165.99 424.052 166.259 424.201L171.896 427.456C172.147 427.605 172.619 427.511 173.133 427.216C174.662 426.336 175.952 424.101 175.952 422.337C175.952 421.751 175.797 421.299 175.546 421.157C175.511 421.137 175.477 421.114 175.44 421.088L173.602 420.028V420.033ZM181.582 368.447L181.557 368.432C181.557 368.432 181.574 368.441 181.582 368.447Z" fill="#007A00"/>
</svg>
