<?xml version="1.0" encoding="UTF-8"?>
<svg xmlns="http://www.w3.org/2000/svg" viewBox="0 0 2602.2 2441.77">
  <defs>
    <style>
      .cls-1 {
        fill: #2d6a44;
      }

      .cls-2 {
        opacity: .2;
      }

      .cls-2, .cls-3, .cls-4 {
        fill: #010101;
        mix-blend-mode: overlay;
      }

      .cls-3 {
        opacity: .3;
      }

      .cls-4 {
        opacity: .1;
      }

      .cls-5 {
        isolation: isolate;
      }

      .cls-6 {
        fill: #2d613b;
      }

      .cls-7 {
        fill: #4a9b5e;
      }

      .cls-8 {
        fill: #fff;
      }

      .cls-9 {
        fill: #b8dab6;
      }

      .cls-10 {
        opacity: .5;
      }

      .cls-11 {
        fill: #6ebb7b;
      }
    </style>
  </defs>
  <g class="cls-5">
    <g id="Layer_2" data-name="Layer 2">
      <g id="_ëÎÓÈ_1" data-name="ëÎÓÈ 1">
        <g>
          <g>
            <polygon class="cls-8" points="507.86 1325.79 611.4 1385.57 611.41 1449 517.8 1503.06 414.25 1443.26 414.25 1379.83 507.86 1325.79"/>
            <g class="cls-10">
              <polygon class="cls-9" points="517.8 1503.06 414.25 1443.26 414.25 1379.83 517.79 1439.62 517.8 1503.06"/>
            </g>
            <polygon class="cls-9" points="611.41 1449 517.8 1503.06 517.79 1439.62 611.4 1385.57 611.41 1449"/>
            <path class="cls-1" d="M517.8,1507.78c-.82,0-1.63-.21-2.36-.63l-103.55-59.8c-1.46-.84-2.36-2.41-2.36-4.09v-63.43c0-1.69.9-3.25,2.36-4.09l93.61-54.04c1.46-.85,3.26-.85,4.73,0l103.54,59.78c1.46.84,2.36,2.4,2.36,4.09v63.43c0,1.69-.89,3.25-2.35,4.09l-93.61,54.06c-.73.42-1.55.63-2.36.63ZM418.98,1440.53l98.82,57.07,88.88-51.33v-57.97s-98.83-57.05-98.83-57.05l-88.88,51.31v57.97Z"/>
          </g>
          <g>
            <path class="cls-8" d="M1766.47,2015.13c16.33-16.36,42.83-16.34,59.15,0,16.32,16.32,16.32,42.79,0,59.11-16.33,16.34-42.82,16.34-59.15,0-16.33-16.33-16.33-42.79,0-59.11Z"/>
            <path class="cls-9" d="M1811.86,2060.5c13.98-13.94,15.9-35.25,5.98-51.37,2.75,1.68,5.39,3.6,7.77,6,16.32,16.32,16.32,42.79,0,59.11-16.33,16.34-42.82,16.34-59.15,0-2.36-2.36-4.3-5.01-6-7.76,16.12,9.9,37.46,7.98,51.39-5.98Z"/>
            <path class="cls-1" d="M1796.05,2091.23c-12.44,0-24.13-4.85-32.92-13.64-18.14-18.14-18.14-47.66,0-65.8h0c8.78-8.8,20.46-13.65,32.9-13.65h.01c12.44,0,24.13,4.85,32.93,13.65,18.14,18.14,18.14,47.66,0,65.8-8.78,8.8-20.48,13.64-32.92,13.64ZM1796.04,2007.59h0c-9.91,0-19.21,3.87-26.21,10.88t0,0c-14.45,14.45-14.45,37.97,0,52.43,7.01,7.01,16.32,10.87,26.24,10.87s19.23-3.86,26.23-10.87c14.45-14.46,14.46-37.98,0-52.43-7.01-7.02-16.33-10.88-26.24-10.88ZM1766.47,2015.13h.03-.03Z"/>
          </g>
          <g>
            <path class="cls-9" d="M351.49,874.66l250.13,144.45c19.67,11.34,19.67,29.73.05,41.05l-48.9,28.2-178.81,103.07L52.65,1005.92l178.81-103.04,48.9-28.24c19.63-11.32,51.47-11.3,71.14.02Z"/>
            <polygon class="cls-8" points="4.75 717.48 4.73 1033.49 326.04 1219.01 392.12 1180.86 392.15 864.85 70.82 679.33 4.75 717.48"/>
            <polygon class="cls-9" points="70.82 679.33 4.75 717.48 326.07 902.97 326.04 1219.01 392.12 1180.86 392.15 864.85 70.82 679.33"/>
            <path class="cls-1" d="M326.04,1223.74c-.82,0-1.63-.21-2.36-.63L2.36,1037.59c-1.46-.84-2.36-2.4-2.36-4.09l.03-316.01c0-1.69.9-3.25,2.36-4.09l66.07-38.15c1.46-.85,3.27-.85,4.73,0l321.32,185.52c1.46.84,2.36,2.4,2.36,4.09l-.03,316.01c0,1.69-.9,3.25-2.36,4.09l-66.08,38.15c-.73.42-1.55.63-2.36.63ZM9.45,1030.76l316.58,182.79,61.35-35.42.03-310.55-316.6-182.79-61.34,35.42-.03,310.55Z"/>
            <path class="cls-6" d="M137.6,887.58v129.38l-29.29-16.91v-101.7s-21.59-12.47-21.59-12.47v-27.66l50.88,29.36ZM243.55,982.17c0,10.88-5.11,18.08-13.43,18.8,11.65,12.82,19.19,29.57,19.2,43.93,0,23.25-17.76,27.77-45.28,11.89-27.38-15.83-44.97-40.55-44.97-63.45-.01-14.57,7.99-22.7,20.46-21.57-9.11-11.34-14.85-25.21-14.85-36.09-.03-20.86,15.5-25.18,39.22-11.5,24.32,14.03,39.67,36.56,39.67,57.99ZM186.42,1005.62c0,10.53,6.23,19.85,17.62,26.45,11.52,6.63,17.88,4.6,17.91-5.89.01-10.34-6.39-19.76-17.75-26.33-11.52-6.67-17.78-4.52-17.78,5.78ZM189.12,952.61c.02,8.82,5.29,16.86,14.87,22.4,9.8,5.65,15.06,3.69,15.07-5.15,0-9.22-5.29-17.25-15.03-22.86-9.62-5.58-14.88-3.62-14.91,5.61Z"/>
            <path class="cls-6" d="M4.75,661.02v56.47s321.32,185.48,321.32,185.48l66.08-38.12v-56.45c0-22.66-15.95-50.25-35.59-61.59l-250.17-144.43c-10.12-5.84-19.19-6.17-25.66-2.09l-.07-.09-65.48,37.82h0c-6.44,3.73-10.43,11.65-10.43,22.99Z"/>
            <path class="cls-3" d="M356.56,746.81l-250.17-144.43c-10.12-5.84-19.19-6.17-25.66-2.09l-.07-.09-65.48,37.82h0c6.43-3.7,15.31-3.18,25.13,2.51l250.18,144.41c19.64,11.36,35.58,38.91,35.58,61.59v56.44l66.08-38.12v-56.45c0-22.66-15.95-50.25-35.59-61.59Z"/>
            <path class="cls-1" d="M326.07,907.69c-.82,0-1.63-.21-2.36-.63L2.39,721.58c-1.46-.84-2.36-2.4-2.36-4.09v-56.47s0,0,0,0c0-12.69,4.55-22.31,12.79-27.08l65.49-37.83c.29-.17.59-.3.89-.4,8.21-4.61,18.65-3.71,29.56,2.58l250.17,144.43c21.28,12.29,37.95,41.14,37.95,65.68v56.45c0,1.69-.9,3.25-2.36,4.1l-66.08,38.12c-.73.42-1.55.63-2.36.63ZM9.48,714.75l316.59,182.75,61.35-35.39v-53.72c0-21.13-14.9-46.92-33.22-57.5l-250.17-144.43c-8.16-4.71-15.54-5.49-20.78-2.18-.35.22-.72.39-1.1.51l-64.6,37.31c-5.2,3.01-8.06,9.72-8.07,18.9v53.73Z"/>
            <path class="cls-2" d="M263.91,818.35c0-16.66-11.73-36.97-26.2-45.35-14.48-8.33-26.2-1.59-26.2,15.1s11.72,37.01,26.2,45.37c14.47,8.33,26.2,1.59,26.2-15.12Z"/>
            <path class="cls-2" d="M119.3,734.84c0-16.68-11.73-36.97-26.2-45.35-14.48-8.33-26.2-1.59-26.2,15.11s11.72,36.98,26.2,45.37c14.48,8.33,26.2,1.59,26.2-15.12Z"/>
            <g>
              <path class="cls-9" d="M256.01,813.77c0-6.74-2.82-14.29-7.12-20.61-6.88.65-12.64-1.25-16.52-6.09-4.2-5.28-6.43-13.5-6.43-23.77,0-34.18,25.03-77.48,54.66-94.58,7.46-4.3,14.58-6.56,20.62-6.56,18.32,0,20.28,21.04,20.28,30.1,0,9.82-2.26,20.39-5.91,30.87l24.16,13.96c5.74-14.9,9.26-30.26,9.26-44.83,0-34.48-19.23-57.62-47.79-57.62-11.03,0-22.58,3.45-34.37,10.25-38.37,22.16-68.42,74.18-68.41,118.41,0,16.58,4.3,30.73,12.45,40.94,8.59,10.75,21.13,16.66,35.31,16.66,2.86,0,5.75-.24,8.67-.68.7-1.84,1.14-3.93,1.14-6.45Z"/>
              <path class="cls-1" d="M246.2,825.63c-15.65,0-29.5-6.55-39-18.43-8.82-11.06-13.48-26.24-13.48-43.89-.02-45.76,31.06-99.57,70.77-122.5,12.53-7.22,24.88-10.88,36.73-10.88,31.42,0,52.52,25.05,52.52,62.34,0,14.37-3.22,30.03-9.58,46.53-.5,1.29-1.53,2.3-2.84,2.76-1.3.46-2.74.33-3.94-.36l-24.16-13.96c-1.97-1.14-2.85-3.51-2.1-5.65,3.75-10.75,5.65-20.61,5.65-29.31,0-9.48-2.02-25.38-15.55-25.38-5.23,0-11.54,2.05-18.26,5.92-28.35,16.36-52.29,57.8-52.29,90.49,0,9.18,1.87,16.38,5.4,20.82,2.72,3.39,6.89,4.85,12.37,4.33,1.7-.14,3.38.62,4.35,2.05,5.05,7.42,7.94,15.9,7.94,23.27,0,2.89-.47,5.55-1.44,8.12-.6,1.6-2.02,2.75-3.71,3.01-3.22.49-6.37.74-9.38.74ZM254.87,820.22h.03-.03ZM301.22,639.37c-10.17,0-20.94,3.24-32.01,9.62-37.05,21.4-66.06,71.61-66.04,114.31,0,15.49,3.95,28.63,11.42,38,7.67,9.59,18.9,14.88,31.61,14.88,1.59,0,3.24-.08,4.93-.25.1-.69.15-1.41.15-2.15,0-4.77-1.81-10.51-4.91-15.76h-.04c-7.37,0-13.43-2.73-17.65-7.99-4.89-6.15-7.47-15.38-7.47-26.72,0-35.65,26.11-80.84,57.02-98.68,8.15-4.7,16.1-7.19,22.98-7.19,15.66,0,25,13.02,25,34.83,0,8.73-1.66,18.37-4.94,28.71l15.96,9.22c4.67-13.48,7.04-26.22,7.04-37.93,0-31.64-17.31-52.89-43.07-52.89Z"/>
            </g>
            <g>
              <path class="cls-9" d="M111.38,730.26c0-6.74-2.83-14.29-7.11-20.61-6.87.64-12.65-1.26-16.51-6.11-4.22-5.27-6.44-13.49-6.44-23.75,0-34.18,25.03-77.48,54.66-94.59,7.44-4.3,14.57-6.55,20.62-6.55,18.3,0,20.29,21.03,20.29,30.1,0,9.82-2.26,20.39-5.93,30.88l24.17,13.96c5.74-14.9,9.25-30.27,9.25-44.84,0-34.48-19.2-57.62-47.78-57.62-11.02,0-22.59,3.45-34.37,10.25-38.37,22.16-68.41,74.18-68.41,118.41,0,16.58,4.3,30.73,12.44,40.94,8.6,10.75,21.14,16.66,35.33,16.66,2.86,0,5.74-.24,8.66-.68.68-1.85,1.13-3.93,1.13-6.44Z"/>
              <path class="cls-1" d="M101.59,742.12c-15.66,0-29.51-6.55-39.02-18.43-8.82-11.06-13.48-26.24-13.48-43.89,0-45.77,31.09-99.58,70.77-122.5,12.52-7.22,24.88-10.89,36.73-10.89,31.4,0,52.5,25.05,52.51,62.34,0,14.4-3.22,30.06-9.57,46.54-.5,1.29-1.53,2.3-2.84,2.76-1.31.46-2.74.33-3.94-.36l-24.18-13.96c-1.97-1.14-2.85-3.51-2.1-5.66,3.76-10.73,5.66-20.59,5.66-29.31,0-9.48-2.02-25.37-15.56-25.37-5.24,0-11.55,2.05-18.25,5.92-28.35,16.36-52.3,57.8-52.3,90.49,0,9.19,1.87,16.38,5.41,20.8,2.71,3.41,6.89,4.88,12.38,4.36,1.69-.15,3.38.63,4.35,2.05,5.04,7.42,7.93,15.9,7.93,23.26,0,2.85-.46,5.49-1.42,8.08-.6,1.62-2.02,2.78-3.72,3.04-3.22.49-6.37.74-9.37.74ZM110.25,736.71h.03-.03ZM156.59,555.86c-10.17,0-20.94,3.24-32,9.62-37.04,21.39-66.05,71.6-66.05,114.31,0,15.49,3.95,28.63,11.41,37.99,7.67,9.59,18.91,14.88,31.63,14.88,1.59,0,3.23-.08,4.91-.25.1-.69.15-1.4.15-2.15,0-4.76-1.81-10.5-4.91-15.76h-.02c-7.41,0-13.47-2.74-17.67-8.01-4.88-6.1-7.47-15.33-7.47-26.7,0-35.65,26.12-80.84,57.03-98.68,8.13-4.7,16.08-7.18,22.98-7.18,15.66,0,25.01,13.02,25.01,34.83,0,8.74-1.66,18.39-4.95,28.71l15.96,9.22c4.67-13.46,7.03-26.2,7.03-37.93,0-31.64-17.31-52.89-43.06-52.89Z"/>
            </g>
          </g>
          <g>
            <path class="cls-9" d="M2135.39,1808.57c-22.58,13.02-59.24,13.02-81.84-.04l-1357.36-783.71c-22.65-13.07-22.66-34.24-.07-47.25l449.9-260.06c22.57-13.04,59.19-13.03,81.84.04l1357.39,783.7c22.6,13.04,22.6,34.2.04,47.24l-449.9,260.07Z"/>
            <path class="cls-11" d="M1640.69,1550.72l-.15-.02c-.13-5.91-4.02-11.8-11.73-16.25l-344.21-198.72c-13.78-7.96-35.4-9.13-51.51-2.81l-360.16,141.72c-9.97,3.92-16.38,10.19-17.51,17.14-.1.7.07,1.39.08,2.07l-.22-.02v37.43h.2c-.24,6.37,3.82,12.54,11.66,17.08l458.93,264.97c8.54,4.91,20.44,7.43,32.45,6.76,12.02-.65,22.92-4.34,29.7-10.12l245.45-207.92c4.84-4.1,7-8.83,6.87-13.5l.15.02v-37.82Z"/>
            <path class="cls-3" d="M1628.82,1534.45l-344.21-198.72c-13.78-7.96-35.4-9.13-51.51-2.81l-222.58,87.57,471.47,272.22,151.69-128.51c10.95-9.29,8.92-21.79-4.86-29.75Z"/>
            <path class="cls-3" d="M1640.54,1550.7c.11,4.67-2.03,9.42-6.87,13.5l-245.43,207.94c-6.8,5.76-17.68,9.45-29.72,10.1-12,.66-23.91-1.83-32.45-6.76l-458.92-264.96c-7.7-4.45-11.71-10.45-11.65-16.68l-.22-.02v37.43h.2c-.24,6.37,3.82,12.54,11.66,17.08l458.93,264.97c8.54,4.91,20.44,7.43,32.45,6.76,12.02-.65,22.92-4.34,29.7-10.12l245.45-207.92c4.84-4.1,7-8.83,6.87-13.5l.15.02v-37.82l-.15-.02Z"/>
            <path class="cls-4" d="M1640.54,1550.7c.11,4.67-2.03,9.42-6.87,13.5l-151.69,128.51v37.82l151.69-128.51c4.84-4.1,7-8.83,6.87-13.5l.15.02v-37.82l-.15-.02Z"/>
            <path class="cls-7" d="M1354.69,1824.9c-11.46,0-22.57-2.66-30.96-7.5l-458.94-264.97c-8.65-5.01-13.69-12.17-14.02-19.83-.14-.42-.21-.88-.21-1.34v-37.43c0-.37.04-.73.12-1.08-.02-.47-.02-1.02.07-1.62,1.42-8.76,8.88-16.33,20.46-20.88l360.16-141.72c17.6-6.91,40.47-5.63,55.6,3.12l344.21,198.72c8.44,4.88,13.37,11.58,14.02,18.98.14.44.22.9.22,1.38v37.82c0,.42-.06.84-.16,1.23-.19,4.38-1.97,10.29-8.53,15.85l-245.45,207.92c-7.54,6.43-19.39,10.53-32.5,11.23-1.37.08-2.73.11-4.09.11ZM860.02,1530c.15.46.22.95.2,1.44-.18,4.68,3.13,9.23,9.31,12.81l458.92,264.96c7.73,4.44,18.88,6.75,29.82,6.13,10.92-.59,20.98-3.95,26.89-9l245.46-207.93c3.5-2.96,5.3-6.34,5.2-9.76,0-.45.04-.89.15-1.32v-35.45c-.09-.35-.14-.71-.15-1.09-.1-4.47-3.42-8.82-9.37-12.26l-344.2-198.72c-12.61-7.28-32.54-8.33-47.42-2.5l-360.16,141.71c-8.28,3.25-13.72,8.3-14.58,13.5l.06.09c.04.38.07.76.08,1.15,0,.51-.07,1.02-.22,1.49v34.73Z"/>
            <path class="cls-6" d="M608.59,7.46l-40.8,23.57c-.07.04-.09.08-.14.08l-.03.02h0c-7.36,4.3-11.89,13.43-11.9,26.41v970.61c0,26.08,18.34,57.8,40.94,70.86l1357.39,783.69c11.19,6.46,21.29,7.11,28.72,3.01l.02.02.2-.13.04-.02,40.79-23.56.04-.02c7.45-4.24,12.08-13.41,12.08-26.5l.02-970.65c-.02-26.06-18.34-57.78-40.96-70.82L637.63,10.33c-11.12-6.42-21.13-7.09-28.5-3.08l-.04-.06-.35.22s-.07.04-.13.05Z"/>
            <polygon class="cls-3" points="855.29 925.26 855.29 1248.32 1746.86 1763.05 1746.86 1295.97 855.29 925.26"/>
            <path class="cls-3" d="M1995,794.01L637.63,10.33c-11.12-6.42-21.13-7.09-28.5-3.08l-.04-.06-.35.22s-.07.04-.13.05l-40.74,23.53c7.39-4.18,17.56-3.54,28.79,2.95l1357.41,783.68c22.62,13.07,40.94,44.8,40.94,70.86l.02,970.63c.02,12.96-4.52,22.09-11.87,26.39l40.68-23.5.04-.02c7.45-4.24,12.08-13.41,12.08-26.5l.02-970.65c-.02-26.06-18.34-57.78-40.96-70.82Z"/>
            <path class="cls-1" d="M1972.34,1893.01c-6.45,0-13.48-2.09-20.65-6.23l-1357.39-783.69c-23.88-13.8-43.31-47.42-43.31-74.95V57.53c.01-14.3,5.07-25.13,14.24-30.49.07-.04.13-.08.2-.11.03-.01.05-.03.08-.04l40.72-23.52c.09-.05.18-.1.27-.15l.06-.04c.35-.22.71-.39,1.09-.51,9.08-4.53,20.53-3.27,32.34,3.55l1357.37,783.68c23.87,13.76,43.31,47.37,43.32,74.91l-.02,970.65c0,14.42-5.14,25.29-14.47,30.61l-40.81,23.57c-.11.06-.22.12-.33.18-.02,0-.03.02-.05.02-3.83,2.1-8.11,3.15-12.67,3.15ZM569.89,35.27c-6.13,3.76-9.43,11.61-9.44,22.26v970.6c0,24.52,17.31,54.47,38.58,66.77l1357.39,783.69c9.28,5.35,17.82,6.41,24.07,2.96.09-.05.18-.1.28-.14l40.69-23.5c6.31-3.6,9.75-11.56,9.75-22.43l.02-970.65c-.02-24.53-17.33-54.47-38.59-66.73L635.26,14.42c-9.2-5.32-17.68-6.39-23.88-3.02-.2.11-.41.21-.63.28-.02,0-.04.02-.05.02l-40.45,23.36c-.12.07-.24.14-.36.21Z"/>
            <path class="cls-8" d="M1954.06,1788.26L596.67,1004.55c-9.03-5.23-16.36-17.91-16.38-28.36V71.7c0-10.41,7.37-14.63,16.36-9.42l1357.41,783.68c9.03,5.23,16.36,17.95,16.4,28.33v904.52c0,10.41-7.37,14.66-16.4,9.45Z"/>
            <path class="cls-9" d="M790.75,577.58l.03-361.78c0-15.65-10.99-34.67-24.58-42.5l-185.05-106.83c-.51,1.52-.86,3.23-.86,5.24v412.69l185.91,107.33c13.57,7.85,24.56,1.5,24.55-14.15Z"/>
            <path class="cls-9" d="M961.93,543.53l281.09,162.3c13.58,7.83,24.58,1.5,24.58-14.16l-.02-242.04-330.22-190.64v242.01c.01,15.64,10.98,34.68,24.57,42.53Z"/>
            <path class="cls-9" d="M1409.54,813.94c0,15.66,10.99,34.68,24.54,42.51l479.79,277c13.56,7.83,24.56,1.5,24.56-14.14l-.02-277.04c0-1.83-.19-3.71-.46-5.6l-527.97-304.81c-.28,1.55-.46,3.22-.46,5.04l.02,277.04Z"/>
            <polygon class="cls-9" points="855.29 925.26 855.29 1153.88 1746.86 1668.63 1746.86 1295.97 855.29 925.26"/>
            <path class="cls-1" d="M1961.39,1795.2c-3.09,0-6.41-.96-9.69-2.84h0S594.3,1008.65,594.3,1008.65c-10.49-6.07-18.72-20.32-18.74-32.45V71.7c0-6.69,2.61-12.03,7.17-14.66,4.56-2.62,10.49-2.21,16.29,1.15l1357.4,783.68c10.48,6.07,18.72,20.3,18.76,32.41v904.53c0,6.69-2.61,12.04-7.17,14.67-1.99,1.15-4.24,1.72-6.63,1.72ZM1956.42,1784.17c2.81,1.62,5.31,2.03,6.86,1.13,1.55-.9,2.45-3.26,2.45-6.49v-904.52c-.03-8.74-6.46-19.85-14.04-24.24L594.29,66.37c-2.8-1.62-5.29-2.03-6.84-1.14-1.55.89-2.44,3.25-2.44,6.47v904.49c.02,8.76,6.44,19.88,14.02,24.27l1357.39,783.71Z"/>
          </g>
          <g>
            <g>
              <path class="cls-6" d="M1719.41,1326.29h0c-5.5,3.17-13.07,2.69-21.46-2.14l-876.88-505.72c-16.75-9.66-30.34-33.2-30.3-52.5,0-9.66,3.4-16.46,8.88-19.63l18.36-10.58v.02c5.51-3.25,13.15-2.85,21.65,2.05l876.86,505.68c16.75,9.68,30.34,33.17,30.34,52.48v.02c0,9.86-3.56,16.66-9.23,19.74l.04.07-18.25,10.51Z"/>
              <path class="cls-2" d="M1697.96,1324.14c16.75,9.7,30.37,1.85,30.37-17.47v-.04c0-19.31-13.61-42.81-30.35-52.48l-876.86-505.69c-8.37-4.84-15.97-5.3-21.46-2.18h0l18.36-10.58v.02c5.51-3.25,13.15-2.85,21.65,2.05l876.86,505.68c16.75,9.68,30.34,33.17,30.34,52.48v.02c0,9.86-3.56,16.66-9.23,19.74l.04.07-18.25,10.51c-5.5,3.17-13.07,2.69-21.46-2.14Z"/>
              <path class="cls-1" d="M1711.54,1333.05c-4.99,0-10.41-1.61-15.95-4.81l-876.87-505.72c-18.36-10.59-32.71-35.45-32.67-56.6,0-11.09,3.99-19.52,11.24-23.71l18.37-10.58c.11-.06.22-.12.33-.17,7.24-4.07,16.47-3.27,26.04,2.24l876.86,505.68c18.34,10.6,32.71,35.45,32.71,56.58,0,10.89-3.85,19.16-10.86,23.43-.21.19-.45.35-.71.5l-18.24,10.5c-3.09,1.78-6.54,2.67-10.24,2.67ZM820.05,740l-18.03,10.39c-4.2,2.43-6.51,7.95-6.51,15.54-.03,17.49,12.76,39.65,27.94,48.41l876.88,505.72c6.59,3.81,12.55,4.57,16.73,2.15h0s17.51-10.09,17.51-10.09c.24-.21.51-.39.8-.55,4.37-2.37,6.77-7.91,6.77-15.59,0-17.49-12.81-39.65-27.98-48.41l-876.85-505.68c-6.66-3.84-12.65-4.57-16.88-2.08-.12.07-.24.14-.37.2Z"/>
              <path class="cls-2" d="M1713.6,1316.15c-1.4.79-4.84.76-9.83-2.12l-876.82-505.7c-6.3-3.64-12.58-10.34-17.21-18.37-4.65-8.05-7.29-16.79-7.29-23.97.02-5.74,1.62-8.74,3.03-9.53,1.41-.81,4.81-.74,9.77,2.14l876.87,505.72c12.54,7.16,24.53,27.9,24.54,42.32-.04,5.74-1.66,8.72-3.07,9.51Z"/>
              <path class="cls-3" d="M1715.15,1297.24l-867.98-500.63c-6.28-3.6-12.56-10.3-17.19-18.36-2.79-4.78-4.75-9.79-5.95-14.61l868.09,500.66c9.97,5.73,19.53,20.03,23.03,32.93Z"/>
            </g>
            <g>
              <path class="cls-8" d="M512.82,1874.61c0-76.16,53.74-169.12,119.74-207.24l112.71,65.08v-743.43c-.02-72.69,48.92-160.51,110.75-201.55l833.81,480.99c-61.05,36.71-110.39,122.83-110.39,193.61v751.41c-.02,76.13-53.7,169.09-119.74,207.2-32.79,18.95-62.53,20.81-84.17,8.59h-.04l-.4-.22s0-.02-.04-.02l-826.69-476.88.02-.02c-21.92-12.39-35.55-39.21-35.55-77.52Z"/>
              <path class="cls-9" d="M1459.69,2420.68c-32.79,18.95-62.53,20.81-84.17,8.59h-.04l-.4-.22s0-.02-.04-.02l-826.69-476.88.02-.02c-21.92-12.39-35.55-39.21-35.55-77.52,0-76.16,53.74-169.12,119.74-207.24l112.71,65.08v-52.56l834.16,481.24v52.35c-.02,76.13-53.7,169.09-119.74,207.2Z"/>
              <path class="cls-1" d="M1406.32,2441.77c-11.9,0-22.95-2.72-32.79-8.19-.11-.05-.21-.1-.31-.15l-.34-.18c-.07-.04-.14-.08-.21-.11l-826.68-476.88c-.14-.08-.28-.17-.4-.26-24.18-13.94-37.49-42.81-37.49-81.38,0-77.65,54.78-172.45,122.1-211.33,1.46-.85,3.26-.85,4.73,0l105.62,60.98v-735.24c-.02-73.21,49.55-163.47,112.86-205.49,1.49-.99,3.42-1.05,4.98-.16l833.81,480.99c1.45.83,2.35,2.38,2.36,4.05s-.86,3.23-2.29,4.09c-59.61,35.85-108.1,120.88-108.1,189.56v751.41c-.02,77.66-54.8,172.45-122.11,211.3-19.54,11.29-38.52,16.99-55.74,16.99ZM1377.44,2424.95c.14.06.28.13.41.21,21.08,11.91,49.31,8.87,79.48-8.56,64.71-37.35,117.36-128.46,117.38-203.11v-751.41c0-69.04,46.97-153.91,106-193.41l-824.49-475.62c-59.77,41.11-106.24,126.54-106.22,195.97v743.43c0,1.69-.9,3.25-2.36,4.09-1.46.85-3.26.85-4.73,0l-110.32-63.7c-63.65,38.2-115.04,128.03-115.04,201.77,0,35.25,11.77,61.32,33.15,73.41.16.09.31.19.46.3l826.15,476.56s.02.01.04.02l.09.05Z"/>
              <path class="cls-8" d="M1339.95,2351.73c0,38.06,13.41,64.84,35.09,77.3l-826.69-476.88.02-.02c-21.92-12.39-35.55-39.21-35.55-77.52,0-76.16,53.74-169.12,119.74-207.24l827.13,477.15c-66,38.12-119.74,131.06-119.74,207.2Z"/>
              <path class="cls-9" d="M1375.04,2429.03l-826.69-476.88.02-.02c-21.92-12.39-35.55-39.21-35.55-77.52,0-5.6.37-11.32.93-17.06l827.15,477.14c-.57,5.74-.95,11.43-.95,17.04,0,38.06,13.41,64.84,35.09,77.3Z"/>
              <path class="cls-1" d="M1375.04,2433.76c-.8,0-1.61-.2-2.35-.63-.06-.03-.12-.07-.18-.1l-826.51-476.78c-.14-.08-.28-.17-.4-.26-24.18-13.94-37.49-42.81-37.49-81.38,0-77.65,54.78-172.45,122.1-211.33,1.46-.85,3.26-.85,4.73,0l827.13,477.15c1.46.84,2.36,2.4,2.36,4.09s-.9,3.25-2.36,4.09c-64.72,37.38-117.38,128.5-117.38,203.11,0,35,11.57,60.96,32.57,73.12l.15.09c2.26,1.3,3.04,4.19,1.73,6.45-.88,1.52-2.47,2.37-4.1,2.37ZM551.16,1948.32l797.01,459.76c-8.47-14.83-12.95-33.96-12.95-56.35,0-74.95,51.07-165.91,115.2-207.09l-817.84-471.79c-63.65,38.2-115.04,128.03-115.04,201.77,0,35.25,11.77,61.32,33.15,73.41.16.09.31.19.46.3Z"/>
              <path class="cls-9" d="M1504.92,1759.9c0,4.23-3.01,5.91-6.67,3.8l-678.87-391.5c-3.68-2.14-6.67-7.29-6.67-11.54h0c0-4.23,2.99-5.93,6.67-3.8l678.87,391.5c3.66,2.1,6.63,7.26,6.67,11.55h0ZM1458.68,1794.54c0,4.29-2.97,5.99-6.65,3.88l-632.65-364.83c-3.68-2.14-6.67-7.31-6.67-11.56h0c0-4.21,2.99-5.93,6.67-3.8l632.67,364.85c3.68,2.12,6.63,7.26,6.63,11.47h0ZM1412.48,1737.18c0-4.21-2.98-9.38-6.63-11.47l-586.46-338.19c-3.68-2.12-6.67-.4-6.67,3.8h0c0,4.27,2.99,9.42,6.67,11.52l586.46,338.21c3.66,2.08,6.63.37,6.63-3.88h0ZM1504.88,1545.01c0,4.25-2.95,6-6.63,3.86l-678.87-391.54c-3.68-2.1-6.67-7.29-6.67-11.52h0c0-4.23,2.99-5.93,6.67-3.82l678.87,391.56c3.67,2.13,6.63,7.24,6.63,11.47h0ZM1458.7,1579.75c-.02,4.21-2.98,5.98-6.65,3.84l-632.67-364.85c-3.68-2.11-6.67-7.28-6.67-11.53h0c0-4.24,2.99-5.93,6.67-3.8l632.67,364.84c3.66,2.1,6.63,7.24,6.65,11.51h0ZM1412.48,1522.37c0-4.22-2.98-9.4-6.63-11.49l-586.46-338.19c-3.68-2.12-6.67-.42-6.67,3.82h0c0,4.25,2.99,9.41,6.67,11.52l586.43,338.13c3.68,2.12,6.67.44,6.67-3.8h0ZM1504.88,1437.59c.04,4.3-2.95,6.02-6.63,3.88l-678.87-391.52c-3.68-2.14-6.67-7.29-6.67-11.54h0c0-4.23,2.99-5.93,6.67-3.8l678.87,391.52c3.67,2.14,6.63,7.26,6.63,11.47h0ZM1412.48,1414.97c0-4.24-2.99-9.4-6.67-11.54l-586.43-338.15c-3.68-2.12-6.67-.42-6.67,3.82h0c0,4.23,2.99,9.4,6.67,11.52l586.46,338.2c3.64,2.09,6.63.37,6.63-3.86h0ZM1504.88,1652.44c0,4.23-2.95,5.98-6.63,3.84l-678.87-391.5c-3.68-2.1-6.67-7.27-6.67-11.52h0c0-4.25,2.99-5.95,6.67-3.82l678.87,391.52c3.67,2.12,6.63,7.24,6.63,11.49h0ZM1458.68,1687.12c0,4.26-2.97,5.96-6.63,3.88l-632.67-364.85c-3.68-2.12-6.67-7.27-6.67-11.54h0c0-4.23,2.99-5.91,6.67-3.79l632.65,364.82c3.67,2.1,6.65,7.25,6.65,11.49h0ZM1412.48,1629.76c0-4.21-2.98-9.36-6.63-11.47l-586.46-338.17c-3.68-2.12-6.67-.42-6.67,3.82h0c0,4.25,2.99,9.4,6.67,11.52l586.46,338.17c3.66,2.1,6.63.39,6.63-3.88h0ZM1504.92,2006.34c0,4.25-3.01,5.91-6.67,3.82l-678.87-391.55c-3.68-2.11-6.67-7.27-6.67-11.52h0c0-4.23,2.99-5.93,6.67-3.81l678.87,391.54c3.66,2.09,6.63,7.24,6.67,11.52h0ZM1458.68,2040.98c0,4.25-2.95,6-6.63,3.88l-632.67-364.87c-3.68-2.12-6.67-7.27-6.67-11.52h0c0-4.25,2.99-5.95,6.67-3.82l632.67,364.87c3.68,2.14,6.65,7.26,6.63,11.47h0ZM1412.48,1983.62c0-4.23-2.99-9.4-6.63-11.47l-586.46-338.21c-3.68-2.12-6.67-.41-6.67,3.82h0c0,4.25,2.99,9.4,6.67,11.53l586.46,338.2c3.64,2.07,6.63.37,6.63-3.88h0ZM1412.48,2046.05c0-4.23-2.99-9.4-6.63-11.49l-586.46-338.19c-3.68-2.12-6.67-.42-6.67,3.82h0c0,4.23,2.99,9.4,6.67,11.52l586.46,338.19c3.64,2.08,6.63.39,6.63-3.86h0ZM1504.88,1898.86c.04,4.32-2.97,5.96-6.63,3.88l-678.87-391.54c-3.68-2.13-6.67-7.29-6.67-11.54h0c0-4.21,2.99-5.91,6.67-3.8l678.87,391.54c3.66,2.1,6.63,7.24,6.63,11.47h0ZM1412.48,1876.22c0-4.23-2.98-9.38-6.63-11.48l-586.46-338.19c-3.68-2.14-6.67-.42-6.67,3.81h0c0,4.26,2.99,9.4,6.67,11.54l586.46,338.18c3.66,2.09,6.63.41,6.63-3.86h0Z"/>
            </g>
          </g>
          <g>
            <g>
              <path class="cls-8" d="M1173.05,748.4c0,15.66-11.01,21.99-24.58,14.16l-281.09-162.3c-13.59-7.85-24.56-26.89-24.55-42.53l-.03-461.55c.02-15.63,11.02-21.97,24.58-14.15l281.09,162.35c13.59,7.81,24.58,26.83,24.54,42.47l.04,461.54Z"/>
              <path class="cls-1" d="M1159.46,770.66c-4.2,0-8.74-1.34-13.36-4.01l-281.09-162.31c-15.1-8.72-26.92-29.2-26.92-46.62l-.03-461.55c0-9.32,3.41-16.41,9.58-19.96,6.16-3.56,14.02-2.94,22.1,1.72l281.09,162.35c15.13,8.69,26.95,29.16,26.91,46.58l.04,461.53h0c0,9.32-3.39,16.42-9.55,19.98-2.65,1.53-5.61,2.29-8.76,2.29ZM856.4,83.42c-1.52,0-2.89.33-4.03.99-3.07,1.77-4.84,6.06-4.85,11.78l.03,461.54c0,13.89,10.16,31.48,22.19,38.43l281.09,162.3c4.97,2.86,9.59,3.49,12.66,1.72,3.07-1.77,4.83-6.07,4.83-11.79l-.04-461.54c.03-13.88-10.12-31.45-22.17-38.38l-281.1-162.35c-3.11-1.79-6.07-2.71-8.61-2.71Z"/>
            </g>
            <path class="cls-6" d="M1125.22,632.74c-.01,3.75-2.66,5.29-5.91,3.38l-222.75-128.6c-3.27-1.86-5.92-6.45-5.92-10.22h0c0-3.73,2.66-5.24,5.91-3.36l222.75,128.61c3.25,1.88,5.87,6.44,5.91,10.19h0ZM1084.24,663.47c0,3.77-2.6,5.28-5.87,3.41l-181.8-104.98c-3.27-1.86-5.92-6.43-5.89-10.21h0c-.03-3.73,2.62-5.25,5.89-3.4l181.82,104.98c3.25,1.86,5.86,6.46,5.86,10.2h0ZM1043.32,612.65c.02-3.73-2.62-8.31-5.87-10.18l-140.89-81.37c-3.27-1.86-5.9-.33-5.91,3.4h0c0,3.75,2.66,8.35,5.92,10.19l140.88,81.37c3.23,1.85,5.89.33,5.87-3.41h0ZM1125.2,537.6c0,3.75-2.65,5.26-5.9,3.38l-222.77-128.6c-3.25-1.9-5.88-6.44-5.88-10.19h0c0-3.77,2.64-5.29,5.91-3.42l222.75,128.61c3.25,1.9,5.87,6.46,5.9,10.23h0ZM1084.26,568.33c-.02,3.77-2.62,5.29-5.88,3.4l-181.85-104.99c-3.25-1.86-5.89-6.44-5.88-10.19h0c0-3.75,2.63-5.28,5.9-3.4l181.81,104.99c3.27,1.86,5.87,6.44,5.89,10.19h0ZM1043.32,517.51c0-3.77-2.66-8.35-5.87-10.19l-140.88-81.37c-3.26-1.86-5.89-.31-5.92,3.38h0c.04,3.8,2.64,8.33,5.92,10.25l140.88,81.31c3.25,1.9,5.87.37,5.87-3.38h0ZM1007.93,235.4c-41.29-23.78-74.75-4.53-74.77,43.07,0,47.63,33.48,105.58,74.79,129.44,41.29,23.84,74.74,4.54,74.74-43.09l-74.74-43.14-.02-86.28Z"/>
            <path class="cls-9" d="M1024.31,226.01v86.22l74.74,43.17c.02-47.63-33.46-105.56-74.74-129.4Z"/>
          </g>
          <g>
            <g>
              <path class="cls-8" d="M1819.34,856.5c13.53,7.81,24.54,26.85,24.53,42.49l.02,277.04c0,15.64-11.01,21.98-24.56,14.15l-479.79-277c-13.56-7.83-24.54-26.85-24.54-42.51l-.02-277.04c0-15.65,11-21.98,24.58-14.14l479.79,277.01Z"/>
              <path class="cls-1" d="M1830.31,1198.29c-4.2,0-8.73-1.34-13.35-4.01l-479.79-277.01c-15.09-8.71-26.9-29.18-26.9-46.6l-.02-277.04c0-9.32,3.39-16.41,9.55-19.96,6.17-3.56,14.03-2.94,22.13,1.73l479.79,277.01c15.1,8.72,26.91,29.18,26.89,46.59l.02,277.04c0,9.32-3.39,16.41-9.55,19.97-2.65,1.53-5.6,2.28-8.75,2.28ZM1328.54,580.87c-1.52,0-2.88.33-4.03.99-3.06,1.77-4.82,6.06-4.82,11.77l.02,277.04c0,13.88,10.16,31.48,22.17,38.42l479.79,277.01c4.96,2.87,9.57,3.5,12.65,1.72,3.07-1.77,4.83-6.06,4.83-11.78l-.02-277.04c.02-13.87-10.13-31.45-22.16-38.4h0l-479.79-277.01c-3.12-1.8-6.1-2.72-8.64-2.72Z"/>
            </g>
            <path class="cls-6" d="M1404.78,773.29l-36.05-20.81c-3.27-1.88-5.89-.35-5.93,3.38l.04,108.77h0c0,3.78,2.64,8.32,5.89,10.21l36.06,20.81c3.23,1.88,5.89.37,5.89-3.41h0l-.02-108.77c0-3.73-2.63-8.27-5.89-10.17ZM1469,763.17l-36.06-20.85c-3.23-1.87-5.89-.35-5.89,3.39v156.01h0c.02,3.75,2.64,8.31,5.91,10.17l36.04,20.81c3.25,1.9,5.91.39,5.89-3.38h0l.02-155.97c-.02-3.75-2.68-8.35-5.91-10.2ZM1533.25,894.69l-36.07-20.83c-3.27-1.86-5.89-.35-5.91,3.4v61.53h0c.02,3.77,2.64,8.33,5.91,10.19l36.07,20.83c3.23,1.88,5.87.37,5.87-3.39h0l.02-61.51c-.02-3.77-2.66-8.33-5.89-10.21ZM1597.48,783.32l-36.07-20.81c-3.25-1.88-5.89-.37-5.89,3.38v210.01h0c0,3.75,2.63,8.31,5.89,10.19l36.07,20.81c3.25,1.88,5.89.37,5.87-3.39h0l.02-210.01c0-3.73-2.64-8.31-5.89-10.18ZM1661.71,921.64l-36.09-20.83c-3.25-1.86-5.91-.35-5.87,3.38v108.77h0c0,3.78,2.62,8.33,5.89,10.21l36.07,20.83c3.23,1.88,5.89.35,5.87-3.39h0v-108.76c.02-3.77-2.64-8.34-5.87-10.21ZM1790.13,995.8l-36.05-20.83c-3.27-1.88-5.91-.35-5.91,3.4v108.75h0c.04,3.77,2.66,8.31,5.91,10.2l36.07,20.83c3.23,1.87,5.89.37,5.89-3.4h0l.02-108.75c-.02-3.75-2.68-8.31-5.93-10.19ZM1725.94,911.5l-36.09-20.83c-3.25-1.88-5.89-.35-5.87,3.41v155.95h0c0,3.81,2.62,8.35,5.89,10.21l36.05,20.81c3.27,1.88,5.91.35,5.89-3.4h0l-.02-155.99c.02-3.73-2.62-8.31-5.85-10.18Z"/>
          </g>
          <g>
            <g>
              <path class="cls-8" d="M696.2,634.31c0,15.65-10.98,21.99-24.55,14.15l-384.41-221.93c-13.54-7.82-24.56-26.86-24.55-42.5V22.25c0-15.65,10.98-21.97,24.56-14.14l384.4,221.92c13.59,7.83,24.58,26.86,24.58,42.5l-.03,361.78Z"/>
              <path class="cls-1" d="M682.64,656.57c-4.2,0-8.74-1.35-13.36-4.02l-384.4-221.93c-15.1-8.72-26.92-29.19-26.92-46.6V22.25c0-9.32,3.39-16.41,9.54-19.96,6.16-3.56,14.01-2.94,22.11,1.73l384.4,221.92c15.11,8.7,26.95,29.17,26.95,46.6l-.03,361.78c0,9.33-3.39,16.42-9.55,19.98-2.64,1.52-5.59,2.28-8.74,2.28ZM276.25,9.49c-1.51,0-2.87.33-4.02.99-3.06,1.76-4.81,6.06-4.82,11.78v361.78c0,13.87,10.16,31.46,22.19,38.41l384.41,221.93c4.97,2.87,9.57,3.5,12.64,1.74,3.06-1.77,4.82-6.06,4.82-11.79h0s.03-361.78.03-361.78c0-13.88-10.17-31.47-22.22-38.4L284.88,12.21c-3.12-1.8-6.09-2.72-8.64-2.72Z"/>
            </g>
            <path class="cls-9" d="M359.01,186.24l-42.56-24.55c-3.28-1.91-5.92-.36-5.9,3.36l-.02,49.09h0c.05,3.78,2.66,8.32,5.91,10.19l42.52,24.57c3.29,1.88,5.91.36,5.91-3.41h0l-.02-49.07c.02-3.75-2.62-8.34-5.84-10.19ZM429.71,227.07l-42.54-24.58c-3.28-1.86-5.91-.34-5.91,3.39v49.07h0c0,3.79,2.63,8.34,5.89,10.23l42.56,24.56c3.24,1.87,5.87.36,5.88-3.4h0v-49.1c0-3.75-2.63-8.31-5.88-10.17ZM500.41,267.9l-42.55-24.57c-3.25-1.88-5.89-.37-5.88,3.38v49.08h0c0,3.76,2.62,8.34,5.88,10.21l42.57,24.57c3.24,1.88,5.88.35,5.88-3.4h0v-49.09c0-3.74-2.64-8.31-5.9-10.18ZM358.98,104.69l-42.53-24.57c-3.27-1.88-5.9-.36-5.91,3.38l-.02,49.1h0c.02,3.77,2.64,8.31,5.91,10.18l42.54,24.56c3.24,1.9,5.89.38,5.9-3.39h0v-49.08c0-3.75-2.64-8.32-5.9-10.19ZM500.42,186.34l-42.54-24.57c-3.26-1.87-5.9-.36-5.91,3.38l-.02,49.11h0c.04,3.76,2.66,8.31,5.9,10.19l42.56,24.56c3.27,1.88,5.89.36,5.89-3.39h0v-49.09c0-3.75-2.64-8.32-5.88-10.19ZM429.7,308.62l-42.55-24.55c-3.26-1.89-5.89-.38-5.9,3.39l.02,49.07h0c.01,3.78,2.61,8.3,5.88,10.19l42.55,24.56c3.27,1.89,5.89.39,5.89-3.4h0v-49.06c0-3.75-2.64-8.33-5.89-10.2ZM500.42,349.46l-42.56-24.57c-3.26-1.9-5.92-.36-5.88,3.36v49.1h0c.01,3.76,2.64,8.33,5.91,10.2l42.55,24.57c3.24,1.86,5.88.37,5.88-3.41h0v-49.07c0-3.74-2.63-8.32-5.89-10.19ZM359,349.34l-42.56-24.56c-3.26-1.89-5.9-.35-5.9,3.4v49.07h0c.01,3.78,2.64,8.33,5.9,10.21l42.54,24.56c3.26,1.85,5.89.36,5.89-3.41h0v-49.09c0-3.75-2.63-8.3-5.88-10.19ZM429.71,390.17l-42.56-24.55c-3.25-1.87-5.91-.36-5.9,3.36v49.1h-.01c.04,3.78,2.64,8.34,5.89,10.2l42.57,24.58c3.25,1.86,5.86.37,5.87-3.41h0v-49.1c0-3.74-2.62-8.29-5.87-10.18ZM571.13,227.16l-42.56-24.56c-3.24-1.88-5.89-.38-5.88,3.38v49.09h0c.01,3.78,2.65,8.34,5.91,10.19l42.56,24.59c3.23,1.87,5.86.35,5.87-3.42h0v-49.08c0-3.76-2.63-8.3-5.89-10.19ZM571.13,390.28l-42.54-24.58c-3.26-1.87-5.91-.35-5.91,3.38v49.09h.01c0,3.78,2.63,8.32,5.87,10.21l42.56,24.56c3.24,1.86,5.91.37,5.89-3.39h0v-49.09c0-3.75-2.65-8.33-5.89-10.18ZM571.12,471.83l-42.55-24.57c-3.24-1.86-5.89-.38-5.88,3.39v49.08h0c.01,3.78,2.64,8.32,5.88,10.2l42.57,24.56c3.25,1.89,5.88.35,5.88-3.39h0v-49.09c0-3.76-2.63-8.31-5.89-10.19ZM641.86,349.55l-42.56-24.57c-3.28-1.87-5.91-.37-5.9,3.39v49.09h0c0,3.76,2.63,8.31,5.88,10.19l42.57,24.59c3.25,1.86,5.87.33,5.89-3.41h0l-.02-49.11c0-3.73-2.64-8.31-5.86-10.17ZM641.86,268l-42.56-24.59c-3.26-1.86-5.9-.35-5.9,3.39v49.08h0c0,3.79,2.65,8.34,5.91,10.24l42.55,24.54c3.25,1.88,5.87.37,5.87-3.41h0v-49.08c0-3.76-2.63-8.31-5.86-10.18ZM641.83,431.09l-42.55-24.56c-3.24-1.88-5.88-.37-5.88,3.39v49.07h0c.02,3.79,2.65,8.34,5.92,10.22l42.54,24.56c3.24,1.87,5.88.38,5.89-3.41h0v-49.07c-.02-3.75-2.64-8.32-5.91-10.2Z"/>
            <path class="cls-6" d="M429.71,145.53l-42.55-24.58c-3.27-1.87-5.9-.36-5.9,3.38v49.08h-.01c.03,3.78,2.66,8.33,5.93,10.19l42.54,24.59c3.23,1.86,5.87.36,5.88-3.4h0v-49.11c0-3.73-2.63-8.28-5.88-10.14ZM358.96,267.79l-42.52-24.57c-3.25-1.88-5.9-.36-5.89,3.38v49.08h0c.02,3.78,2.63,8.32,5.87,10.2l42.59,24.59c3.23,1.86,5.86.36,5.87-3.42h0v-49.06c0-3.76-2.63-8.31-5.92-10.2ZM500.42,431.01l-42.54-24.59c-3.27-1.85-5.93-.35-5.95,3.4l.05,49.09h0c0,3.77,2.63,8.31,5.88,10.19l42.56,24.56c3.22,1.88,5.89.37,5.89-3.38h0v-49.11c-.03-3.73-2.64-8.31-5.88-10.17ZM571.14,308.7l-42.57-24.55c-3.26-1.88-5.87-.36-5.88,3.38l-.02,49.09h0c.04,3.78,2.64,8.34,5.93,10.2l42.56,24.59c3.22,1.85,5.87.35,5.88-3.41h0l-.02-49.1c0-3.73-2.64-8.29-5.88-10.19ZM641.86,512.65l-42.55-24.56c-3.28-1.87-5.9-.36-5.91,3.38v49.09h0c0,3.79,2.65,8.34,5.92,10.19l42.56,24.59c3.22,1.86,5.86.37,5.89-3.4h0l-.02-49.08c0-3.75-2.63-8.31-5.87-10.2Z"/>
          </g>
        </g>
      </g>
    </g>
  </g>
</svg>