<svg width="463" height="530" viewBox="0 0 463 530" fill="none" xmlns="http://www.w3.org/2000/svg">
<path d="M142.897 348.89L167.147 362.89L167.151 377.747L145.226 390.406L120.973 376.403V361.545L142.897 348.89Z" fill="white"/>
<g opacity="0.5">
<path d="M145.226 390.406L120.973 376.403V361.545L145.223 375.549L145.226 390.406Z" fill="#B6F3B5"/>
</g>
<path d="M167.151 377.747L145.227 390.406L145.223 375.549L167.148 362.89L167.151 377.747Z" fill="#B6F3B5"/>
<path d="M145.227 391.515C145.035 391.515 144.844 391.467 144.672 391.365L120.419 377.361C120.078 377.164 119.865 376.798 119.865 376.402V361.545C119.865 361.15 120.075 360.784 120.419 360.586L142.343 347.931C142.684 347.733 143.108 347.733 143.449 347.931L167.699 361.931C168.04 362.128 168.253 362.495 168.253 362.89V377.747C168.253 378.142 168.046 378.508 167.702 378.706L145.778 391.365C145.606 391.464 145.415 391.515 145.223 391.515H145.227ZM122.082 375.762L145.227 389.128L166.042 377.11V363.53L142.898 350.171L122.082 362.186V375.765V375.762Z" fill="#007C00"/>
<path d="M212.563 401.086C216.39 397.256 222.593 397.259 226.417 401.086C230.244 404.912 230.244 411.11 226.417 414.933C222.593 418.76 216.393 418.76 212.563 414.933C208.74 411.11 208.74 404.912 212.563 401.086Z" fill="white"/>
<path d="M223.199 411.712C226.468 408.446 226.917 403.457 224.595 399.681C225.238 400.073 225.856 400.525 226.414 401.083C230.24 404.909 230.24 411.107 226.414 414.93C222.59 418.757 216.39 418.757 212.56 414.93C212.006 414.376 211.553 413.757 211.155 413.114C214.931 415.433 219.927 414.981 223.196 411.712H223.199Z" fill="#B6F3B5"/>
<path d="M219.49 418.909C216.578 418.909 213.841 417.775 211.78 415.714C207.532 411.466 207.532 404.552 211.78 400.302C213.838 398.24 216.575 397.106 219.487 397.106C222.399 397.106 225.136 398.24 227.194 400.302C229.256 402.36 230.39 405.097 230.39 408.009C230.39 410.922 229.256 413.655 227.194 415.714C225.136 417.772 222.399 418.909 219.487 418.909H219.49ZM219.49 399.321C217.171 399.321 214.988 400.226 213.347 401.866C209.964 405.253 209.964 410.762 213.347 414.146C214.988 415.787 217.171 416.692 219.49 416.692C221.81 416.692 223.992 415.787 225.633 414.146C227.277 412.505 228.179 410.326 228.179 408.006C228.179 405.687 227.274 403.507 225.633 401.863C223.992 400.222 221.81 399.317 219.49 399.317V399.321Z" fill="#007C00"/>
<path d="M72.4126 24.0352C76.2392 20.2054 82.4427 20.2118 86.2662 24.0352C90.0928 27.8619 90.0928 34.059 86.2662 37.8824C82.4427 41.709 76.2392 41.709 72.4126 37.8824C68.5892 34.059 68.5892 27.8619 72.4126 24.0352Z" fill="white"/>
<path d="M83.0448 34.6678C86.317 31.3987 86.7663 26.4124 84.4436 22.6367C85.0872 23.0286 85.7053 23.4811 86.2629 24.0386C90.0895 27.8653 90.0895 34.0624 86.2629 37.8858C82.4395 41.7124 76.2359 41.7124 72.4093 37.8858C71.8549 37.3314 71.4025 36.7133 71.0042 36.0697C74.7798 38.3892 79.7758 37.9368 83.0416 34.6678H83.0448Z" fill="#B6F3B5"/>
<path d="M79.3394 41.8619C76.4272 41.8619 73.6871 40.7277 71.6288 38.6662C67.3816 34.419 67.3816 27.505 71.6288 23.2514C73.6871 21.1931 76.424 20.0588 79.3362 20.0588C82.2484 20.0588 84.9853 21.1931 87.0436 23.2514C89.1019 25.3129 90.2362 28.0498 90.2362 30.9588C90.2362 33.8678 89.1019 36.6079 87.0436 38.663C84.9853 40.7213 82.2484 41.8588 79.3362 41.8588L79.3394 41.8619ZM73.1964 24.819C69.8127 28.2059 69.8127 33.718 73.1964 37.1018C74.8373 38.7427 77.0198 39.6475 79.3394 39.6475C81.6589 39.6475 83.8415 38.7427 85.4824 37.1018C87.1233 35.4609 88.0281 33.2815 88.0281 30.962C88.0281 28.6424 87.1233 26.4599 85.4824 24.819C83.8415 23.1781 81.6589 22.2732 79.3394 22.2732C77.0198 22.2732 74.8373 23.1781 73.1964 24.819Z" fill="#007C00"/>
<path d="M189.454 305.975C178.876 312.083 178.879 321.992 189.47 328.106L289.348 385.77C299.938 391.881 317.109 391.891 327.684 385.78L454.558 312.829C465.136 306.721 465.13 296.812 454.536 290.697L354.658 233.037C344.067 226.922 326.909 226.916 316.325 233.024L189.454 305.972V305.975Z" fill="#B6F3B5"/>
<path d="M186.475 4.14395C180.953 7.33014 177.429 12.1158 177.165 16.1463C176.897 17.4654 176.751 18.9151 176.751 20.4796V302.152C176.748 314.371 185.334 329.231 195.925 335.345L295.803 393.009C297.249 393.841 298.638 394.449 299.989 394.882C303.641 396.428 309.306 395.701 314.617 392.63C317.376 391.046 319.629 389.052 321.238 386.955C323.341 384.62 324.574 381.042 324.577 376.428V94.7497C324.574 82.537 315.984 67.6766 305.393 61.5591L205.516 3.89543C204.139 3.09888 202.795 2.49988 201.501 2.07611C197.875 0.295034 191.981 0.960947 186.475 4.14395Z" fill="#00AE02"/>
<g opacity="0.3" style="mix-blend-mode:overlay">
<path d="M324.571 94.7497C324.571 82.537 315.981 67.6766 305.39 61.5591L205.516 3.89543C204.139 3.09888 202.795 2.49988 201.501 2.07611C197.875 0.295034 191.981 0.960947 186.475 4.14395C180.953 7.33014 177.429 12.1158 177.165 16.1463C177.165 16.1527 177.165 16.1591 177.165 16.1655C178.987 7.18995 186.692 4.09935 195.928 9.43303L295.806 67.1031C306.397 73.2142 314.984 88.0746 314.984 100.287L314.99 381.966C314.984 392.528 308.563 397.635 299.977 394.879C299.98 394.879 299.989 394.882 299.993 394.886C303.644 396.431 309.309 395.704 314.62 392.633C317.38 391.049 319.632 389.055 321.241 386.958C323.344 384.623 324.577 381.045 324.58 376.431V94.7497H324.571Z" fill="black"/>
</g>
<path d="M304.316 396.788C302.599 396.788 300.999 396.504 299.604 395.924C298.154 395.456 296.688 394.8 295.251 393.974L195.371 336.307C184.487 330.021 175.639 314.702 175.645 302.152V20.4795C175.645 18.9119 175.785 17.4049 176.065 15.9966C176.4 11.4722 180.259 6.45392 185.92 3.18488C191.566 -0.0777751 197.837 -0.912557 201.918 1.04695C203.295 1.50258 204.69 2.13981 206.07 2.93636L305.944 60.6C316.825 66.8832 325.679 82.2024 325.679 94.7496V376.428C325.679 381.15 324.437 385.034 322.092 387.662C320.323 389.957 317.931 392.005 315.168 393.589C311.542 395.685 307.7 396.785 304.316 396.785V396.788ZM196.824 2.21628C193.822 2.21628 190.289 3.21675 187.026 5.10297C182.033 7.98647 178.516 12.4535 178.267 16.2196C178.267 16.2706 178.258 16.3184 178.248 16.3693C177.987 17.6502 177.856 19.0362 177.856 20.4827V302.155C177.853 313.998 186.204 328.457 196.479 334.389L296.357 392.053C297.673 392.811 299.011 393.407 300.327 393.828C300.359 393.837 300.391 393.85 300.422 393.863C303.88 395.325 309.232 394.465 314.063 391.671C316.589 390.221 318.765 388.357 320.362 386.28C320.378 386.257 320.397 386.235 320.416 386.213C322.41 383.995 323.465 380.611 323.471 376.425V94.7496C323.468 82.9066 315.111 68.4508 304.839 62.5181L204.961 4.85445C203.69 4.11844 202.409 3.53855 201.157 3.12753C201.109 3.1116 201.061 3.09248 201.013 3.07018C199.844 2.49667 198.41 2.21628 196.827 2.21628H196.824Z" fill="#007C00"/>
<path d="M176.553 22.8087V304.481C176.55 315.457 184.289 328.855 193.813 334.358L293.69 392.021C303.201 397.511 310.943 393.05 310.943 382.074V100.399C310.946 89.4223 303.204 76.0244 293.69 70.5314L193.809 12.8677C184.292 7.37156 176.553 11.8354 176.556 22.8118L176.553 22.8087Z" fill="#B6F3B5"/>
<path d="M293.687 76.0627L193.81 18.3927C186.94 14.4322 181.348 17.6503 181.352 25.5775V307.25C181.342 315.177 186.934 324.856 193.813 328.823L293.684 386.487C300.557 390.457 306.151 387.236 306.151 379.312V97.6364C306.145 89.706 300.563 80.0295 293.687 76.0627Z" fill="white"/>
<path d="M292.932 317.875C292.932 317.875 292.919 317.888 292.913 317.891C294.84 316.776 296.032 314.39 296.032 310.984L296.041 110.266C296.038 103.464 291.262 95.1893 285.349 91.7769L176.553 28.9644V254.324L285.349 317.136C288.312 318.854 290.995 319.01 292.932 317.875Z" fill="#B6F3B5"/>
<path d="M301.385 395.488C298.83 395.488 296.023 394.647 293.139 392.98L193.258 335.317C183.432 329.642 175.441 315.807 175.444 304.481V22.8085C175.444 17.0893 177.436 12.7912 181.052 10.7042C184.672 8.61406 189.4 9.04102 194.361 11.9086L294.245 69.5723C304.064 75.2437 312.055 89.0717 312.055 100.399V382.074C312.052 387.79 310.061 392.088 306.445 394.178C304.931 395.051 303.223 395.488 301.385 395.488ZM186.115 11.6155C184.662 11.6155 183.327 11.95 182.161 12.6223C179.258 14.2982 177.662 17.9146 177.662 22.8085V304.481C177.662 315.103 185.156 328.074 194.37 333.398L294.248 391.062C298.495 393.512 302.433 393.939 305.339 392.26C308.242 390.584 309.838 386.968 309.838 382.074V100.399C309.841 89.7759 302.35 76.8049 293.139 71.4904L193.255 13.8267C190.713 12.3578 188.281 11.6155 186.115 11.6155Z" fill="#007C00"/>
<path d="M248.115 63.0023C248.115 63.7415 247.589 64.0347 246.952 63.6682L230.894 54.3932C230.253 54.0268 229.734 53.122 229.731 52.3859C229.734 51.6467 230.256 51.3472 230.894 51.7137L246.949 60.9855C247.589 61.3519 248.112 62.2568 248.115 62.996V63.0023ZM253.111 64.5445C252.467 64.1717 251.948 64.4712 251.948 65.2167C251.948 65.9559 252.464 66.8544 253.104 67.2177C253.742 67.5904 254.267 67.2909 254.264 66.5518C254.267 65.8126 253.745 64.914 253.111 64.5445ZM257.348 66.9883C256.702 66.6218 256.186 66.9182 256.186 67.6574C256.186 68.3966 256.702 69.2951 257.345 69.6647C257.989 70.0406 258.502 69.7379 258.502 68.9987C258.502 68.2595 257.986 67.3642 257.348 66.9883Z" fill="#B6F3B5"/>
<path d="M319.667 162.233L321.544 163.319C322.012 163.587 322.665 163.552 323.372 163.138C324.797 162.316 325.947 160.321 325.95 158.68V130.084C325.95 129.265 325.657 128.689 325.192 128.418L323.306 127.331L323.267 127.309H323.258C322.802 127.067 322.171 127.115 321.477 127.513C320.059 128.335 318.902 130.33 318.902 131.977V160.563C318.902 161.36 319.179 161.927 319.619 162.201H319.616L319.654 162.227C319.654 162.227 319.657 162.228 319.664 162.23L319.667 162.233Z" fill="#B6F3B5"/>
<path d="M322.219 164.597C321.78 164.597 321.365 164.492 320.993 164.279L319.148 163.211C319.148 163.211 319.125 163.199 319.113 163.192C319.068 163.167 319.027 163.141 318.985 163.109C318.23 162.609 317.797 161.685 317.797 160.564V131.977C317.797 129.951 319.17 127.571 320.922 126.554C321.872 126.013 322.85 125.911 323.637 126.267C323.694 126.287 323.749 126.312 323.8 126.341C323.806 126.344 323.851 126.369 323.86 126.373L325.746 127.459C326.584 127.943 327.059 128.902 327.053 130.088V158.681C327.053 160.71 325.676 163.087 323.924 164.097C323.354 164.432 322.767 164.6 322.216 164.6L322.219 164.597ZM320.257 161.296L322.098 162.361C322.168 162.399 322.414 162.418 322.815 162.182C323.895 161.558 324.841 159.923 324.845 158.677V130.084C324.845 129.651 324.724 129.425 324.641 129.377L322.837 128.338C322.802 128.326 322.767 128.307 322.735 128.291C322.684 128.262 322.449 128.24 322.031 128.479C320.961 129.1 320.018 130.738 320.018 131.98V160.567C320.018 161.022 320.148 161.226 320.218 161.268C320.234 161.277 320.25 161.287 320.263 161.296H320.257Z" fill="#007C00"/>
<g opacity="0.1" style="mix-blend-mode:overlay">
<path d="M212.401 9.35336C210.445 8.21908 207.274 8.22545 205.324 9.35017C203.371 10.4781 203.374 12.3038 205.324 13.4317C207.284 14.5628 210.451 14.5628 212.404 13.4349C214.357 12.307 214.354 10.4813 212.401 9.35336ZM211.483 13.2628C210.037 14.0976 207.692 14.0976 206.245 13.2692C204.802 12.4312 204.799 11.0707 206.245 10.2359C207.685 9.40115 210.034 9.40434 211.48 10.2455C212.927 11.0771 212.93 12.428 211.48 13.2628H211.483Z" fill="black"/>
</g>
<g opacity="0.2" style="mix-blend-mode:overlay">
<path d="M206.245 10.236C207.685 9.40123 210.034 9.40441 211.48 10.2456C212.927 11.0772 212.93 12.4281 211.48 13.2629C210.034 14.0977 207.689 14.0977 206.242 13.2693C204.799 12.4313 204.795 11.0708 206.242 10.236H206.245Z" fill="black"/>
</g>
<path d="M266.767 103.008L144.503 32.4183C141.565 30.7233 138.908 30.5544 136.981 31.6536L136.971 31.6441L136.952 31.66V31.6696L133.39 33.7151C134.377 33.148 130.255 35.4898 130.264 40.6323V241.346C130.251 248.168 135.043 256.436 140.941 259.836L263.202 330.42C266.165 332.137 268.847 332.293 270.785 331.159C270.778 331.162 270.772 331.172 270.766 331.175L274.14 329.234L274.121 329.19C276.16 328.129 277.447 325.73 277.447 322.215L277.453 121.501C277.447 114.692 272.674 106.421 266.764 103.005L266.767 103.008Z" fill="#00AE02"/>
<g opacity="0.3" style="mix-blend-mode:overlay">
<path d="M140.941 34.4766L263.205 105.067C269.118 108.479 273.894 116.754 273.898 123.556L273.888 324.273C273.888 327.676 272.696 330.066 270.769 331.181L274.143 329.241L274.124 329.196C276.163 328.135 277.45 325.736 277.45 322.221L277.457 121.507C277.45 114.699 272.677 106.427 266.767 103.012L144.503 32.4183C141.565 30.7233 138.908 30.5544 136.981 31.6536L136.971 31.6441L136.952 31.66V31.6696L133.39 33.7151C135.324 32.5999 137.987 32.7752 140.938 34.4734L140.941 34.4766Z" fill="black"/>
</g>
<path d="M267.987 333C266.327 333 264.514 332.456 262.654 331.379L140.393 260.795C134.19 257.22 129.149 248.493 129.159 241.346V40.6355C129.155 36.8471 131.109 34.3778 132.463 33.1256C132.555 32.9791 132.683 32.8516 132.845 32.7592C132.845 32.7592 132.845 32.7592 132.851 32.7592L136.312 30.7679C136.382 30.7169 136.455 30.6755 136.531 30.6436C138.883 29.3532 141.907 29.6431 145.061 31.4625L267.325 102.049C273.624 105.688 278.562 114.233 278.569 121.504L278.562 322.218C278.562 325.886 277.275 328.638 274.93 330.015C274.863 330.085 274.787 330.149 274.697 330.196L271.323 332.137C271.291 332.156 271.256 332.172 271.224 332.188C270.249 332.73 269.157 333 267.987 333ZM134.221 34.5212C134.221 34.5212 134.199 34.5403 134.186 34.5499C133.135 35.4579 131.367 37.4525 131.373 40.6323V241.35C131.36 247.792 135.904 255.656 141.496 258.88L263.756 329.464C266.264 330.917 268.561 331.181 270.224 330.206C270.256 330.187 270.291 330.168 270.326 330.155L273.327 328.428C273.407 328.342 273.503 328.269 273.608 328.212C275.37 327.297 276.338 325.169 276.338 322.218L276.345 121.504C276.338 115.062 271.792 107.192 266.209 103.967L143.949 33.3774C141.464 31.9404 139.182 31.6727 137.532 32.6159C137.519 32.6222 137.506 32.6318 137.494 32.6382L134.221 34.518V34.5212Z" fill="#007C00"/>
<path d="M192.49 158.432C192.487 146.242 183.913 131.407 173.338 125.309C168.094 122.282 163.353 121.969 159.899 123.91L159.893 123.894L159.81 123.945C159.81 123.945 159.8 123.951 159.797 123.951L156.276 125.994C152.797 127.982 150.643 132.27 150.643 138.382C150.633 156.081 169.779 183.829 169.779 183.829C169.779 183.829 173.485 183.23 177.636 180.837V180.844L181.584 178.563L181.578 178.547C186.765 175.434 192.478 169.511 192.494 158.429L192.49 158.432Z" fill="#B6F3B5"/>
<g opacity="0.7" style="mix-blend-mode:overlay">
<path d="M169.782 127.36C180.354 133.462 188.925 148.297 188.925 160.49C188.922 171.849 182.919 177.798 177.636 180.84V180.85L181.584 178.569L181.578 178.553C186.765 175.44 192.478 169.517 192.494 158.435C192.49 146.245 183.916 131.41 173.341 125.311C168.097 122.285 163.356 121.972 159.902 123.913L159.896 123.897L159.813 123.948C159.813 123.948 159.803 123.954 159.8 123.954L156.254 126.012C159.708 124.018 164.497 124.308 169.786 127.36H169.782Z" fill="black"/>
</g>
<path d="M169.779 184.941C169.419 184.941 169.075 184.766 168.868 184.463C168.078 183.32 149.528 156.227 149.537 138.385C149.537 132.057 151.736 127.316 155.728 125.035L159.242 122.995C159.242 122.995 159.268 122.979 159.281 122.973L159.332 122.944C159.395 122.906 159.462 122.874 159.532 122.852C163.464 120.74 168.556 121.268 173.896 124.353C184.757 130.617 193.596 145.904 193.599 158.432C193.586 170.046 187.498 176.233 182.317 179.397C182.263 179.445 182.202 179.49 182.138 179.525L178.191 181.806C178.156 181.825 178.121 181.844 178.086 181.86C173.848 184.279 170.114 184.9 169.954 184.925C169.894 184.935 169.836 184.941 169.779 184.941ZM160.287 124.949L156.83 126.953C153.552 128.826 151.748 132.885 151.748 138.385C151.742 154.118 167.517 178.457 170.279 182.599C171.493 182.316 174.189 181.554 177.082 179.885C177.114 179.866 177.149 179.847 177.184 179.834L180.857 177.709C180.902 177.67 180.953 177.635 181.004 177.603C185.732 174.768 191.369 169.138 191.381 158.435C191.375 146.611 183.034 132.184 172.784 126.274C168.071 123.553 163.687 123.056 160.44 124.882C160.389 124.91 160.338 124.933 160.284 124.955L160.287 124.949Z" fill="#007C00"/>
<path d="M151.073 123.272L147.508 125.328L147.517 66.3766L151.08 64.3184L166.94 73.4914C168.804 81.562 171.22 89.6677 174.113 97.7447L151.076 123.269L151.073 123.272ZM253.079 207.522C251.693 206.496 250.333 205.425 248.959 204.342C248.959 204.342 245.811 206.728 245.394 206.397L216.403 244.395L249.527 296.139L253.089 294.075L253.079 207.522ZM183.448 87.4182L186.051 84.5188L181.951 82.1578L178.398 84.2129C178.866 85.9653 179.363 87.7241 179.892 89.467L183.448 87.4182ZM198.837 147.79C192.666 138.12 187.138 128.033 182.339 117.719C182.339 117.719 178.971 120.185 178.784 119.774L171.105 128.272C179.516 133.806 186.405 144.649 188.336 154.943C188.336 154.943 191.866 152.735 191.898 152.888L198.837 147.79ZM208.227 140.867L241.389 116.46L203.311 94.4852L199.752 96.5435L187.396 110.244C192.159 121.488 197.99 132.496 204.659 142.925C204.659 142.925 208.141 140.739 208.224 140.867H208.227ZM208.883 254.254L195.68 271.545L234.188 293.785L237.744 291.739L212.442 252.202L208.883 254.257V254.254ZM208.995 225.205L234.535 191.731C225.901 183.412 217.757 174.181 210.266 164.266C210.266 164.266 206.797 166.442 206.701 166.321L179.316 186.464L205.43 227.263L208.992 225.205H208.995ZM173.475 191.329L169.92 193.375L147.511 209.873V243.742L178.987 261.91L182.55 259.855L201.466 235.05L173.475 191.329ZM238.62 183.756C238.62 183.756 241.794 181.344 242.176 181.698L253.082 167.42L253.076 132.764L249.514 134.819L216.212 159.324C223.123 168.204 230.639 176.447 238.614 183.756H238.62ZM147.521 184.986L151.08 182.927L162.645 174.417L151.083 156.329L147.521 158.384V184.986Z" fill="white"/>
<path d="M245.394 206.397C245.811 206.725 248.959 204.342 248.959 204.342C250.333 205.428 251.693 206.496 253.079 207.522L253.089 294.075L249.527 296.139L249.514 209.577C248.131 208.548 246.77 207.48 245.394 206.397ZM206.704 166.318C214.198 176.23 222.342 185.473 230.973 193.786L205.433 227.263L208.995 225.205L234.535 191.731C225.901 183.412 217.757 174.181 210.266 164.266C210.266 164.266 206.797 166.442 206.701 166.321L206.704 166.318ZM238.62 183.756C238.62 183.756 241.794 181.344 242.176 181.698L253.082 167.42L253.076 132.764L249.514 134.819V169.475L238.614 183.756H238.62ZM208.883 254.254L234.188 293.785L237.744 291.739L212.442 252.202L208.883 254.257V254.254ZM173.475 191.329L169.92 193.375L197.901 237.105L178.987 261.907L182.55 259.852L201.466 235.047L173.475 191.326V191.329ZM147.521 158.384L159.086 176.469L147.521 184.986L151.08 182.927L162.645 174.417L151.083 156.329L147.521 158.384ZM179.892 89.4669L183.448 87.4182L186.051 84.5188L181.951 82.1578L178.398 84.2129L182.492 86.5739L179.892 89.4638V89.4669ZM163.378 75.5401C165.245 83.6139 167.657 91.7164 170.554 99.8029L147.508 125.328L151.073 123.272L174.109 97.7479C171.216 89.6677 168.801 81.562 166.937 73.4946L151.076 64.3215L147.514 66.3798L163.375 75.5433L163.378 75.5401ZM182.339 117.722C182.339 117.722 178.971 120.188 178.784 119.777C183.579 130.081 189.104 140.175 195.275 149.848L188.336 154.946C188.336 154.946 191.866 152.738 191.898 152.891L198.837 147.793C192.666 138.123 187.138 128.036 182.339 117.722ZM204.662 142.925C204.662 142.925 208.144 140.739 208.227 140.867L241.389 116.46L203.311 94.4852L199.752 96.5435L237.824 118.515L204.659 142.925H204.662Z" fill="#B6F3B5"/>
<path d="M249.526 297.245C249.16 297.245 248.803 297.063 248.593 296.735L215.469 244.991C215.218 244.599 215.24 244.093 215.52 243.723L244.511 205.725C244.693 205.489 244.957 205.336 245.254 205.298C245.333 205.288 245.41 205.285 245.49 205.295C245.999 205.078 247.315 204.199 248.29 203.459C248.692 203.153 249.249 203.16 249.644 203.472C251.014 204.552 252.356 205.61 253.735 206.633C254.016 206.84 254.182 207.171 254.182 207.522L254.191 294.075C254.191 294.47 253.981 294.833 253.64 295.034L250.078 297.098C249.902 297.2 249.711 297.248 249.523 297.248L249.526 297.245ZM217.754 244.45L249.887 294.648L251.98 293.437L251.97 208.076C250.948 207.308 249.947 206.528 248.937 205.734C247.475 206.795 246.563 207.286 245.964 207.471L217.751 244.45H217.754ZM246.076 205.524C246.076 205.524 246.076 205.524 246.079 205.524C246.079 205.524 246.079 205.524 246.076 205.524ZM234.188 294.89C233.997 294.89 233.806 294.842 233.634 294.744L195.125 272.504C194.848 272.345 194.657 272.074 194.593 271.762C194.53 271.449 194.606 271.124 194.8 270.873L208.004 253.581C208.093 253.463 208.205 253.368 208.329 253.295L211.888 251.239C212.401 250.946 213.054 251.102 213.376 251.603L238.678 291.14C238.84 291.395 238.891 291.707 238.821 292C238.751 292.294 238.56 292.545 238.298 292.698L234.743 294.744C234.571 294.842 234.383 294.89 234.191 294.89H234.188ZM197.324 271.217L234.188 292.507L236.186 291.357L212.079 253.686L209.629 255.101L197.324 271.214V271.217ZM178.987 263.016C178.796 263.016 178.605 262.968 178.433 262.869L146.957 244.701C146.613 244.504 146.402 244.137 146.402 243.742V209.873C146.402 209.519 146.571 209.191 146.851 208.981L169.26 192.483C169.295 192.457 169.327 192.435 169.365 192.416L172.921 190.37C173.434 190.074 174.087 190.233 174.406 190.734L202.396 234.455C202.648 234.846 202.626 235.353 202.345 235.723L183.429 260.527C183.34 260.645 183.228 260.741 183.101 260.814L179.539 262.869C179.367 262.968 179.175 263.016 178.984 263.016H178.987ZM148.62 243.105L178.987 260.632L181.804 259.007L200.115 234.996L173.112 192.817L170.525 194.305L148.617 210.434V243.105H148.62ZM205.436 228.369C205.07 228.369 204.713 228.187 204.502 227.859L178.388 187.06C178.073 186.569 178.194 185.916 178.666 185.572L206.051 165.429C206.182 165.333 206.328 165.27 206.478 165.238C206.924 165.021 208.437 164.11 209.686 163.329C210.174 163.023 210.811 163.141 211.158 163.6C218.636 173.503 226.761 182.698 235.31 190.934C235.714 191.323 235.762 191.957 235.421 192.403L209.881 225.877C209.792 225.995 209.683 226.091 209.556 226.164L205.994 228.222C205.818 228.321 205.63 228.369 205.439 228.369H205.436ZM180.81 186.738L205.796 225.775L208.249 224.358L233.06 191.842C224.92 183.928 217.168 175.156 209.999 165.741C208.619 166.601 207.768 167.114 207.188 167.338L180.81 186.741V186.738ZM147.521 186.091C147.329 186.091 147.138 186.044 146.966 185.942C146.622 185.744 146.412 185.378 146.412 184.983V158.381C146.412 157.986 146.622 157.62 146.966 157.422L150.528 155.364C151.041 155.067 151.694 155.227 152.016 155.727L163.579 173.815C163.894 174.306 163.773 174.959 163.302 175.303L151.736 183.813C151.704 183.839 151.669 183.858 151.634 183.88L148.075 185.938C147.903 186.037 147.712 186.088 147.521 186.088V186.091ZM148.626 159.025V183.068L150.468 182L161.148 174.14L150.716 157.817L148.626 159.025ZM238.62 184.865C238.353 184.865 238.082 184.766 237.871 184.575C229.982 177.345 222.402 169.08 215.342 160.006C215.157 159.77 215.077 159.471 215.119 159.174C215.16 158.878 215.32 158.611 215.559 158.435L248.861 133.93C248.892 133.905 248.927 133.882 248.963 133.863L252.525 131.808C252.869 131.611 253.289 131.611 253.63 131.808C253.974 132.006 254.185 132.372 254.185 132.767L254.191 167.424C254.191 167.666 254.111 167.901 253.965 168.096L243.059 182.373C242.871 182.622 242.587 182.778 242.278 182.803C242.211 182.81 242.144 182.81 242.077 182.803C241.564 183.026 240.261 183.906 239.292 184.642C239.095 184.791 238.856 184.868 238.623 184.868L238.62 184.865ZM217.792 159.541C224.375 167.908 231.397 175.564 238.697 182.319C240.108 181.29 241.003 180.796 241.612 180.614L251.977 167.044L251.97 134.679L250.122 135.746L217.789 159.541H217.792ZM188.336 156.052C188.186 156.052 188.033 156.02 187.893 155.96C187.558 155.813 187.316 155.51 187.249 155.15C185.337 144.961 178.605 134.532 170.499 129.199C170.229 129.02 170.05 128.734 170.009 128.415C169.967 128.096 170.069 127.771 170.286 127.532L177.965 119.035C178.194 118.783 178.529 118.646 178.863 118.672C179.395 118.417 180.679 117.566 181.689 116.827C181.957 116.632 182.298 116.566 182.62 116.648C182.941 116.731 183.209 116.954 183.349 117.254C188.125 127.526 193.653 137.601 199.777 147.194C200.09 147.685 199.968 148.338 199.5 148.682L192.561 153.78C192.433 153.876 192.287 153.94 192.137 153.971C191.681 154.198 190.174 155.106 188.932 155.883C188.753 155.995 188.549 156.052 188.345 156.052H188.336ZM172.774 128.08C180.463 133.612 186.816 143.39 189.094 153.172C190.324 152.417 190.999 152.034 191.423 151.865L197.349 147.513C191.633 138.477 186.443 129.027 181.903 119.395C180.514 120.354 179.752 120.739 179.284 120.876L172.774 128.08ZM179.695 119.15C179.73 119.197 179.758 119.248 179.784 119.302C179.758 119.245 179.727 119.194 179.695 119.15ZM204.665 144.031C204.299 144.031 203.942 143.849 203.731 143.521C196.98 132.965 191.143 121.915 186.383 110.674C186.214 110.279 186.293 109.82 186.58 109.502L198.936 95.8011C199.013 95.7151 199.105 95.6418 199.204 95.5845L202.763 93.5262C203.104 93.3287 203.527 93.3287 203.868 93.5262L241.947 115.501C242.272 115.689 242.479 116.027 242.498 116.4C242.52 116.773 242.351 117.133 242.048 117.353L208.887 141.759C208.759 141.854 208.613 141.918 208.463 141.95C208.014 142.17 206.5 143.081 205.254 143.865C205.073 143.98 204.869 144.034 204.668 144.034L204.665 144.031ZM207.313 141.488C207.402 141.619 207.51 141.721 207.625 141.794C207.504 141.714 207.395 141.609 207.313 141.488ZM188.696 110.461C193.22 121.036 198.704 131.439 205.009 141.408C205.267 141.249 205.554 141.074 205.844 140.902C206.634 140.424 207.233 140.067 207.705 139.879L239.369 116.575L203.314 95.7661L200.459 97.4165L188.693 110.464L188.696 110.461ZM147.508 126.433C147.317 126.433 147.125 126.382 146.953 126.283C146.613 126.086 146.399 125.719 146.399 125.324L146.409 66.3767C146.409 65.9816 146.619 65.6152 146.963 65.4176L150.525 63.3593C150.866 63.1618 151.29 63.1618 151.634 63.3593L167.495 72.5324C167.759 72.6853 167.95 72.9434 168.021 73.2429C169.837 81.1128 172.239 89.2312 175.154 97.3751C175.291 97.7575 175.209 98.1876 174.935 98.4903L151.898 124.015C151.822 124.101 151.73 124.174 151.628 124.232L148.062 126.287C147.89 126.385 147.702 126.433 147.511 126.433H147.508ZM148.623 67.0171L148.613 123.413L150.366 122.403L172.844 97.4994C170.057 89.6454 167.747 81.8169 165.969 74.2147L151.076 65.6024L148.62 67.0203L148.623 67.0171ZM179.892 90.5726C179.755 90.5726 179.615 90.5471 179.484 90.4961C179.169 90.3719 178.93 90.1106 178.831 89.7888C178.331 88.1352 177.824 86.3573 177.327 84.5029C177.197 84.0186 177.41 83.5088 177.844 83.2571L181.396 81.202C181.74 81.0045 182.161 81.0045 182.502 81.202L186.602 83.563C186.892 83.7287 187.09 84.0186 187.144 84.3468C187.198 84.675 187.096 85.0127 186.873 85.2612L184.27 88.1607C184.19 88.2467 184.101 88.3231 183.999 88.3805L180.443 90.4292C180.271 90.528 180.083 90.5758 179.892 90.5758V90.5726ZM179.688 84.7451C179.975 85.7965 180.265 86.8224 180.552 87.807L182.741 86.5453L184.312 84.796L181.951 83.4355L179.688 84.7451Z" fill="#007C00"/>
<g opacity="0.7" style="mix-blend-mode:overlay">
<path d="M180.686 155.733C180.689 148.784 175.807 140.328 169.786 136.862C163.76 133.382 158.87 136.192 158.879 143.142C158.882 150.078 163.754 158.537 169.779 162.017C175.801 165.493 180.689 162.673 180.689 155.733H180.686Z" fill="black"/>
</g>
<g opacity="0.2" style="mix-blend-mode:overlay">
<path d="M176.897 157.903C170.875 154.427 165.997 145.974 165.997 139.028C165.997 137.719 166.217 136.619 166.539 135.616C162.107 134.65 158.873 137.502 158.876 143.141C158.879 150.078 163.751 158.537 169.776 162.016C174.664 164.843 178.758 163.46 180.144 159.149C179.111 158.923 178.041 158.553 176.897 157.903Z" fill="black"/>
</g>
<path d="M34.0158 111.621C34.0158 115.151 36.501 119.449 39.5662 121.221L84.603 147.335C87.6681 149.1 90.1469 147.672 90.1469 144.132V116.642C90.1469 113.108 87.6681 108.807 84.5998 107.029L39.5693 80.9248C36.5074 79.1564 34.0126 80.5902 34.019 84.1301V111.621H34.0158Z" fill="white"/>
<path d="M87.0818 149.205C86.1292 149.205 85.0968 148.902 84.0486 148.297L39.0118 122.18C35.5898 120.201 32.9102 115.562 32.9102 111.621V84.1302C32.9102 82.0082 33.6813 80.3928 35.0864 79.5803C36.4947 78.7679 38.2821 78.9049 40.1206 79.9659L85.1542 106.074C88.573 108.052 91.2557 112.698 91.2557 116.645V144.136C91.2557 146.258 90.4815 147.87 89.0796 148.682C88.4774 149.03 87.8019 149.205 87.0818 149.205ZM37.0873 81.2786C36.7496 81.2786 36.4469 81.3518 36.192 81.4984C35.5101 81.8935 35.1182 82.8525 35.1214 84.1302V111.621C35.1214 114.74 37.4091 118.697 40.1206 120.265L85.1574 146.379C86.2662 147.016 87.2921 147.159 87.9708 146.764C88.6494 146.372 89.0382 145.413 89.0382 144.136V116.645C89.0382 113.523 86.7505 109.556 84.0422 107.988L39.0118 81.8839C38.3172 81.4825 37.6545 81.2786 37.0873 81.2786Z" fill="#007C00"/>
<path d="M79.3394 118.006C79.3394 118.853 78.7435 119.2 78.0075 118.777L46.1552 100.274C45.4224 99.8475 44.8265 98.8311 44.8265 97.974C44.8265 97.1233 45.4287 96.776 46.1584 97.203L78.0075 115.696C78.7372 116.119 79.3394 117.161 79.3394 118.006ZM70.0867 124.945C70.0898 125.802 69.4877 126.13 68.7548 125.716L46.1584 112.564C45.4224 112.13 44.8297 111.108 44.8265 110.254C44.8265 109.419 45.4224 109.065 46.1584 109.492L68.758 122.648C69.4908 123.068 70.0898 124.101 70.0867 124.945ZM60.8403 113.468C60.8371 112.618 60.2381 111.589 59.5149 111.171L46.1647 103.356C45.4224 102.913 44.8297 103.269 44.8297 104.114C44.8297 104.965 45.4255 105.99 46.1647 106.424L59.5117 114.24C60.2445 114.66 60.8467 114.326 60.8403 113.468Z" fill="#B6F3B5"/>
<path d="M120.476 328.272L66.7508 359.411C63.3161 361.399 57.7307 361.412 54.2928 359.42L3.69925 330.212C0.251791 328.215 0.251791 325 3.6865 323.015L57.4152 291.873C60.85 289.888 66.4354 289.885 69.8828 291.879L120.473 321.087C122.184 322.081 123.054 323.375 123.051 324.691C123.054 325.994 122.194 327.291 120.476 328.275V328.272Z" fill="#B6F3B5"/>
<path d="M1.10883 293.141V288.362C1.10883 287.065 1.96591 285.762 3.68964 284.768L57.4088 253.629C60.8499 251.641 66.4385 251.644 69.8764 253.632L120.47 282.843C122.187 283.834 123.051 285.137 123.051 286.45V291.064L123.019 291.073C123.105 292.437 122.264 293.801 120.467 294.839L66.7475 325.981C63.3192 327.957 57.7338 327.966 54.2863 325.972L3.69601 296.767C1.9691 295.773 1.10883 294.444 1.1152 293.148H1.11201L1.10883 293.141Z" fill="#00AE02"/>
<g opacity="0.3" style="mix-blend-mode:overlay">
<path d="M76.7267 293.606C66.2123 293.6 58.1608 292.58 55.9751 291.312H55.9528L55.9655 291.302C50.8676 288.365 48.016 267.157 64.5109 252.189C66.4704 252.297 68.3853 252.762 69.8828 253.632L120.476 282.843C122.194 283.834 123.057 285.137 123.057 286.45V286.606C108.391 291.847 90.4528 293.606 76.7204 293.6L76.7299 293.606H76.7267Z" fill="black"/>
</g>
<g opacity="0.3" style="mix-blend-mode:overlay">
<path d="M3.69288 284.768C0.258162 286.756 0.258162 289.98 3.69606 291.975L54.2896 321.179C57.7339 323.174 63.3192 323.161 66.7571 321.176L120.473 290.044C122.194 289.05 123.054 287.753 123.054 286.45V291.07L123.022 291.079C123.108 292.443 122.267 293.807 120.47 294.846L66.7508 325.987C63.3224 327.963 57.737 327.972 54.2896 325.978L3.69606 296.767C1.96915 295.773 1.10887 294.444 1.11525 293.147H1.11206V288.365C1.11206 287.068 1.96915 285.765 3.69288 284.771V284.768Z" fill="black"/>
</g>
<path d="M60.5313 328.588C58.0874 328.588 55.6404 328.036 53.7351 326.934L3.14158 297.726C1.18526 296.598 0.0477929 294.973 0.00637238 293.249C0.00318619 293.214 0 293.179 0 293.141V288.362C0 286.594 1.11517 284.975 3.13521 283.809L56.8544 252.67C60.6619 250.468 66.6232 250.472 70.4307 252.673L121.024 281.884C123.047 283.05 124.159 284.672 124.159 286.45V291.064C124.159 291.143 124.15 291.22 124.134 291.296C124.121 293.026 123 294.655 121.024 295.798L67.3051 326.94C65.4029 328.036 62.9655 328.584 60.5281 328.584L60.5313 328.588ZM2.21759 293.049C2.21759 293.084 2.22078 293.116 2.22078 293.151C2.22078 294.094 2.95678 295.062 4.24719 295.808L54.8407 325.016C57.9186 326.797 63.1184 326.8 66.1963 325.025L119.915 293.884C121.27 293.1 121.98 292.128 121.916 291.147C121.91 291.032 121.916 290.924 121.945 290.815V286.45C121.945 285.497 121.225 284.558 119.915 283.802L69.3219 254.591C66.2409 252.81 61.041 252.807 57.9632 254.585L4.24719 285.727C2.93767 286.482 2.21759 287.419 2.21759 288.362V293.046V293.049Z" fill="#007C00"/>
<path d="M68.5509 288.891C63.2937 291.924 58.3774 292.711 56.1821 291.443L56.1725 291.449V291.443C50.3768 288.104 25.5437 248.436 25.5501 219.342C25.5501 209.567 28.9784 202.72 34.5319 199.531L48.548 191.438V191.447C54.1143 188.153 61.8312 188.57 70.3606 193.499H70.3702L70.367 193.512C87.2857 203.274 101.002 227.008 100.996 246.524C100.996 264.58 91.4277 275.655 82.7836 280.664V280.67L68.5445 288.897L68.5509 288.891Z" fill="white"/>
<path d="M68.5508 288.891L68.5412 288.881C77.2045 283.898 86.8109 272.801 86.8109 254.709C86.8109 235.2 73.0975 211.46 56.1852 201.698V201.685C47.729 196.807 40.079 196.338 34.5382 199.528L48.5543 191.435V191.444C54.1205 188.15 61.8375 188.567 70.3669 193.496H70.3765L70.3733 193.509C87.292 203.272 101.009 227.005 101.002 246.521C101.002 264.577 91.434 275.652 82.7899 280.661V280.667L68.5508 288.894V288.891Z" fill="#B6F3B5"/>
<path d="M58.8681 293.125C57.6255 293.125 56.5486 292.905 55.717 292.449C55.6628 292.424 55.6118 292.395 55.5608 292.36C49.5135 288.687 24.4413 248.907 24.4477 219.339C24.4477 209.478 27.8346 202.102 33.9871 198.565L48.0032 190.475C48.0414 190.453 48.0829 190.434 48.1243 190.415C54.28 186.846 62.3666 187.595 70.9183 192.531C70.9629 192.556 71.0043 192.585 71.0457 192.613C88.1906 202.577 102.117 226.725 102.111 246.517C102.111 268.821 87.974 278.908 83.4528 281.553C83.4209 281.578 83.3858 281.6 83.3508 281.62L69.1085 289.846C65.4221 291.972 61.7102 293.122 58.8713 293.122L58.8681 293.125ZM56.6856 290.455C56.7015 290.464 56.7206 290.474 56.7365 290.484C58.3902 291.439 62.9018 290.869 67.9965 287.931L82.1337 279.765C82.1655 279.743 82.1974 279.721 82.2324 279.702C86.3745 277.302 99.8935 267.817 99.8935 246.521C99.8967 227.391 86.4064 204.039 69.819 194.468C69.7776 194.445 69.7394 194.417 69.7012 194.388C61.8536 189.889 54.5508 189.182 49.1247 192.397C49.0801 192.422 49.0323 192.448 48.9845 192.467L35.0896 200.486C29.6539 203.612 26.6589 210.306 26.6589 219.339C26.6494 247.582 51.0556 287.074 56.6824 290.455H56.6856Z" fill="#007C00"/>
<path d="M70.1345 255.706C67.4931 256.204 64.3165 255.56 60.9041 253.591C51.6705 248.251 44.1797 235.283 44.1797 224.635C44.1797 220.703 45.2057 217.651 46.9517 215.605C49.5995 215.111 52.7697 215.752 56.1853 217.724C65.4157 223.058 72.9128 236.029 72.9064 246.68C72.9096 250.628 71.8805 253.699 70.1217 255.732C70.1249 255.722 70.1313 255.716 70.1345 255.706Z" fill="#B6F3B5"/>
<path d="M44.1797 224.635C44.1797 235.283 51.6704 248.251 60.904 253.591C64.3196 255.56 67.493 256.203 70.1344 255.706C67.1457 259.205 62.0064 259.686 56.1757 256.321C46.9389 250.984 39.4482 238.017 39.4514 227.365C39.4482 220.646 42.4304 216.453 46.9517 215.605C45.2056 217.651 44.1797 220.703 44.1797 224.635Z" fill="#B6F3B5"/>
<g opacity="0.7" style="mix-blend-mode:overlay">
<path d="M44.1797 224.635C44.1797 235.283 51.6704 248.251 60.904 253.591C64.3196 255.56 67.493 256.203 70.1344 255.706C67.1457 259.205 62.0064 259.686 56.1757 256.321C46.9389 250.984 39.4482 238.017 39.4514 227.365C39.4482 220.646 42.4304 216.453 46.9517 215.605C45.2056 217.651 44.1797 220.703 44.1797 224.635Z" fill="black"/>
</g>
<path d="M405.379 321.361C405.379 320.09 404.535 318.819 402.853 317.844C401.167 316.872 398.959 316.381 396.754 316.381H396.751C394.546 316.381 392.338 316.869 390.656 317.844C388.97 318.815 388.126 320.09 388.126 321.361H388.12V325.028C388.12 330.247 390.149 339.159 390.149 346.156C390.149 353.153 388.12 362.817 388.12 367.934V370.948C388.12 372.222 388.964 373.497 390.649 374.469C392.332 375.44 394.543 375.925 396.748 375.925H396.751C398.962 375.925 401.167 375.44 402.853 374.469C404.538 373.497 405.382 372.222 405.382 370.948V367.934C405.382 362.817 403.35 353.156 403.35 346.156C403.35 339.156 405.382 330.247 405.382 325.028V321.364L405.373 321.361H405.379Z" fill="#00AE02"/>
<g opacity="0.3" style="mix-blend-mode:overlay">
<path d="M405.383 321.361C405.383 322.636 404.545 323.916 402.856 324.888C401.167 325.86 398.962 326.344 396.754 326.344V375.921C398.966 375.921 401.17 375.437 402.856 374.465C404.541 373.494 405.386 372.219 405.386 370.945V367.93C405.386 362.813 403.353 353.153 403.353 346.153C403.353 339.153 405.386 330.244 405.386 325.025V321.361L405.383 321.358V321.361Z" fill="black"/>
</g>
<g opacity="0.1" style="mix-blend-mode:overlay">
<path d="M390.646 317.834C394.011 315.894 399.478 315.894 402.853 317.844C406.22 319.787 406.227 322.948 402.856 324.888C399.488 326.835 394.024 326.835 390.649 324.885C387.275 322.938 387.275 319.781 390.646 317.834Z" fill="white"/>
</g>
<path d="M396.754 316.384C398.959 316.384 401.167 316.872 402.853 317.847C404.535 318.819 405.379 320.093 405.379 321.364H405.389V325.032C405.389 330.251 403.356 339.162 403.356 346.159C403.356 353.156 405.389 362.82 405.389 367.937V370.951C405.389 372.226 404.544 373.5 402.859 374.472C401.17 375.444 398.965 375.928 396.757 375.928H396.754C394.549 375.928 392.338 375.444 390.656 374.472C388.97 373.5 388.126 372.226 388.126 370.951V367.937C388.126 362.82 390.156 353.159 390.156 346.159C390.156 339.159 388.126 330.251 388.126 325.032V321.368L388.132 321.364C388.132 320.093 388.977 318.822 390.662 317.847C392.345 316.875 394.549 316.384 396.757 316.384H396.761H396.754ZM396.754 314.17H396.751C394.068 314.17 391.51 314.794 389.547 315.929C387.31 317.219 385.994 319.118 385.915 321.164C385.908 321.231 385.905 321.294 385.905 321.361V325.028C385.905 327.597 386.354 330.904 386.829 334.405C387.374 338.41 387.935 342.553 387.935 346.156C387.935 349.76 387.342 354.351 386.82 358.382C386.348 362.007 385.905 365.429 385.905 367.934V370.948C385.905 373.07 387.231 375.052 389.544 376.387C391.5 377.518 394.059 378.139 396.751 378.139C399.443 378.139 402.002 377.518 403.965 376.387C406.278 375.052 407.603 373.07 407.603 370.948V367.934C407.603 365.433 407.157 362.007 406.686 358.382C406.163 354.354 405.567 349.785 405.567 346.156C405.567 342.527 406.131 338.41 406.676 334.405C407.151 330.904 407.6 327.6 407.6 325.028V321.364C407.6 321.275 407.594 321.189 407.584 321.103C407.482 319.083 406.173 317.206 403.958 315.926C401.989 314.791 399.431 314.167 396.751 314.167L396.754 314.17Z" fill="#007C00"/>
<path d="M396.244 299.931C394.878 299.144 393.552 298.201 392.265 297.146V321.367C392.265 322.033 392.701 322.69 393.581 323.196C394.457 323.703 395.604 323.958 396.751 323.958H396.754C397.901 323.958 399.051 323.703 399.925 323.196C400.804 322.69 401.24 322.033 401.24 321.367V302.034C399.647 301.613 397.975 300.931 396.244 299.931Z" fill="#79C37C"/>
<g opacity="0.3" style="mix-blend-mode:overlay">
<path d="M396.751 300.202V323.955H396.754C397.901 323.955 399.052 323.7 399.925 323.193C400.804 322.687 401.241 322.03 401.241 321.364V302.031C399.804 301.655 398.303 301.049 396.751 300.202Z" fill="black"/>
</g>
<path d="M396.754 325.063C395.365 325.063 394.043 324.742 393.027 324.155C391.822 323.461 391.156 322.47 391.156 321.367V297.146C391.156 296.719 391.405 296.327 391.79 296.145C392.176 295.964 392.635 296.021 392.966 296.292C394.253 297.35 395.54 298.252 396.793 298.975C398.367 299.886 399.957 300.555 401.518 300.966C402.005 301.094 402.343 301.533 402.343 302.037V321.371C402.343 322.473 401.68 323.464 400.473 324.158C399.459 324.745 398.137 325.067 396.748 325.067L396.754 325.063ZM393.371 299.392V321.367C393.371 321.638 393.654 321.963 394.132 322.237C394.808 322.626 395.76 322.849 396.748 322.849C397.736 322.849 398.695 322.626 399.367 322.237C399.845 321.96 400.129 321.635 400.129 321.367V302.868C398.65 302.406 397.159 301.744 395.687 300.893C394.922 300.453 394.148 299.95 393.367 299.395L393.371 299.392Z" fill="#1FA43E"/>
<path d="M398.389 249.532C391.914 245.782 386.049 245.441 381.811 247.9L374.164 252.316C374.164 252.316 374.163 252.316 374.161 252.316L374.151 252.323C369.917 254.776 367.301 260.027 367.308 267.489C367.298 282.448 377.787 300.619 390.71 308.088C397.181 311.819 403.044 312.166 407.285 309.706L414.944 305.287C419.182 302.834 421.804 297.583 421.804 290.114C421.814 275.149 411.325 256.981 398.389 249.525V249.532Z" fill="white"/>
<path d="M374.155 252.326C378.392 249.87 384.249 250.217 390.72 253.961C403.652 261.416 414.145 279.587 414.135 294.549C414.135 302.012 411.516 307.256 407.285 309.709L414.944 305.293C419.182 302.84 421.804 297.589 421.804 290.121C421.814 275.155 411.325 256.987 398.389 249.532C391.914 245.782 386.049 245.441 381.811 247.9L374.151 252.326H374.155Z" fill="#B6F3B5"/>
<path d="M401.164 312.398C397.764 312.398 394.02 311.274 390.159 309.05C376.939 301.409 366.195 282.767 366.202 267.492C366.195 259.89 368.802 254.177 373.543 251.399C373.565 251.383 373.591 251.37 373.613 251.354L381.18 246.989C381.202 246.973 381.228 246.957 381.253 246.941C386.045 244.163 392.325 244.74 398.94 248.569C412.166 256.194 422.916 274.833 422.91 290.12C422.91 297.755 420.278 303.483 415.499 306.249L407.839 310.668C407.823 310.678 407.804 310.687 407.785 310.697C405.806 311.831 403.569 312.395 401.161 312.395L401.164 312.398ZM374.766 253.247C374.747 253.259 374.728 253.272 374.709 253.285C370.647 255.636 368.41 260.683 368.416 267.492C368.407 282.066 378.657 299.848 391.264 307.135C397.168 310.538 402.661 311.111 406.73 308.756C406.746 308.747 406.765 308.737 406.784 308.728L414.393 304.337C418.459 301.986 420.698 296.936 420.698 290.124C420.705 275.54 410.452 257.765 397.837 250.494C391.972 247.097 386.511 246.505 382.442 248.821C382.416 248.837 382.394 248.853 382.365 248.869L374.769 253.253L374.766 253.247Z" fill="#007C00"/>
<path d="M390.713 304.286C379.606 297.869 370.593 282.257 370.602 269.397C370.589 256.557 379.613 251.332 390.723 257.758C401.839 264.172 410.856 279.791 410.847 292.647C410.847 305.494 401.83 310.7 390.713 304.286Z" fill="#B6F3B5"/>
<g opacity="0.7" style="mix-blend-mode:overlay">
<path d="M398.386 299.857C387.279 293.44 378.265 277.822 378.274 264.969C378.271 260.82 379.218 257.478 380.865 255.056C374.741 255.512 370.593 260.696 370.602 269.397C370.593 282.257 379.606 297.869 390.713 304.286C398.239 308.629 404.796 307.629 408.25 302.556C405.332 302.77 401.97 301.925 398.386 299.857Z" fill="black"/>
</g>
<path d="M154.123 400.245L221.616 256.034C229.384 239.441 247.628 248.557 255.284 272.858L321.448 482.885C329.452 508.295 319.976 531.114 304.568 523.528L170.911 457.711C155.426 450.086 145.959 417.689 154.123 400.245Z" fill="#00AE02" stroke="#1E3723" stroke-width="10" stroke-miterlimit="10"/>
<path d="M150.302 404.591L217.795 260.381C225.563 243.787 243.807 252.903 251.464 277.204L317.628 487.231C325.632 512.641 316.156 535.46 300.748 527.874L167.09 462.057C151.605 454.432 142.139 422.035 150.302 404.591Z" fill="white"/>
<path d="M219.334 423.928C219.334 412.349 224.99 406.5 233.054 410.47C241.118 414.439 246.653 425.801 246.653 437.383C246.653 448.965 241.115 455.264 233.054 451.294C224.99 447.324 219.334 435.312 219.334 423.931V423.928ZM230.196 310.732L235.89 313.536C241.679 316.388 246.232 326.711 245.738 335.878L242.851 389.555C242.415 397.68 238.136 401.981 233.003 399.455C227.86 396.922 223.578 388.386 223.151 379.822L220.341 323.34C219.863 313.708 224.41 307.887 230.193 310.735L230.196 310.732Z" fill="#00AE02"/>
</svg>
