<?xml version="1.0" encoding="UTF-8"?>
<svg xmlns="http://www.w3.org/2000/svg" viewBox="0 0 3173.47 2825.47">
  <defs>
    <style>
      .cls-1 {
        fill: #479f4e;
      }

      .cls-2, .cls-3, .cls-4, .cls-5, .cls-6, .cls-7 {
        mix-blend-mode: overlay;
      }

      .cls-2, .cls-6 {
        opacity: .1;
      }

      .cls-2, .cls-8 {
        fill: #fff;
      }

      .cls-9 {
        fill: #a7d19f;
      }

      .cls-3, .cls-4, .cls-5, .cls-6, .cls-7 {
        fill: #010101;
      }

      .cls-3, .cls-10 {
        opacity: .5;
      }

      .cls-4 {
        opacity: .2;
      }

      .cls-5 {
        opacity: .3;
      }

      .cls-11 {
        isolation: isolate;
      }

      .cls-12 {
        fill: #b3d6a4;
      }

      .cls-13 {
        fill: #346a41;
      }
    </style>
  </defs>
  <g class="cls-11">
    <g id="Layer_2" data-name="Layer 2">
      <g id="_ëÎÓÈ_1" data-name="ëÎÓÈ 1">
        <g>
          <g>
            <path class="cls-8" d="M2262.95,1008.67c-.02-15.01,9.85-30.02,29.67-41.46,39.54-22.8,103.75-22.83,143.39.09,19.79,11.39,29.67,26.37,29.67,41.34h.02v125.13h0c.02,15.01-9.84,29.99-29.67,41.4-39.55,22.87-103.73,22.87-143.37-.03-19.82-11.46-29.72-26.48-29.71-41.45v-125.01Z"/>
            <path class="cls-12" d="M2292.66,1049.97c39.64,22.9,103.82,22.94,143.37.07,19.83-11.42,29.69-26.42,29.65-41.41h.02v125.13h0c.02,15.01-9.84,29.99-29.67,41.4-39.55,22.87-103.73,22.87-143.37-.03-19.82-11.46-29.72-26.48-29.71-41.45v-125.01c.01,14.96,9.92,29.93,29.71,41.31Z"/>
            <path class="cls-13" d="M2364.41,1198.95c-27.21,0-54.41-5.99-75.14-17.96-21.35-12.35-33.1-29.15-33.09-47.33v-124.99c-.03-18.21,11.7-35.02,33.06-47.34,41.43-23.88,108.78-23.84,150.15.08,21.07,12.12,32.79,28.64,33.05,46.57.02.21.03.42.03.63v125.13c.03,18.19-11.71,34.98-33.07,47.27-20.67,11.94-47.83,17.92-74.99,17.92ZM2364.22,956.81c-24.71,0-49.4,5.42-68.2,16.26-16.98,9.8-26.32,22.44-26.29,35.59h0v125.02c-.01,13.13,9.35,25.77,26.33,35.59,37.68,21.77,98.95,21.79,136.59.03,16.98-9.77,26.3-22.38,26.29-35.52v-124.56c-.01-.19-.03-.38-.03-.58,0-13.12-9.33-25.71-26.28-35.47-18.85-10.9-43.63-16.35-68.41-16.35Z"/>
          </g>
          <g>
            <path class="cls-1" d="M2441.22,950.11c-.02-14.98,9.88-29.99,29.67-41.47,39.52-22.8,103.75-22.8,143.38.12,19.8,11.4,29.7,26.4,29.7,41.38v-.03s0,286.56,0,286.56v.04c.03,14.98-9.84,29.96-29.67,41.37-39.54,22.86-103.75,22.86-143.38-.03-19.83-11.48-29.71-26.49-29.7-41.46v-286.48Z"/>
            <path class="cls-5" d="M2470.92,991.46c39.64,22.92,103.84,22.92,143.39.06,19.83-11.42,29.7-26.43,29.66-41.38v-.03s0,286.56,0,286.56v.04c.03,14.98-9.84,29.96-29.67,41.37-39.54,22.86-103.75,22.86-143.38-.03-19.83-11.48-29.71-26.49-29.7-41.46v-286.48c0,14.98,9.91,29.95,29.68,41.34Z"/>
            <path class="cls-13" d="M2542.69,1301.89c-27.21,0-54.42-5.99-75.15-17.96-21.35-12.36-33.1-29.17-33.08-47.34v-286.47s-.01,0-.01,0c-.03-18.15,11.71-34.96,33.04-47.34,41.41-23.89,108.78-23.82,150.17.12,21.17,12.18,32.91,28.8,33.08,46.84,0,.13.01.25.01.38v286.56c0,.12,0,.23-.01.35-.09,18.05-11.82,34.71-33.06,46.93-20.65,11.95-47.83,17.93-74.99,17.93ZM2542.43,898.26c-24.69,0-49.36,5.42-68.16,16.26-16.95,9.84-26.29,22.48-26.28,35.59h0s.01,286.49.01,286.49c-.01,13.13,9.33,25.77,26.33,35.6,37.68,21.78,98.95,21.8,136.59.03,16.98-9.77,26.31-22.37,26.28-35.49,0-.12,0-.24.01-.35v-285.91c-.01-.11-.01-.22-.01-.33,0-13.14-9.35-25.75-26.3-35.5-18.87-10.92-43.68-16.38-68.47-16.38Z"/>
          </g>
          <g>
            <path class="cls-8" d="M2619.48,1133.8c-.03-15.01,9.89-30.02,29.66-41.46,39.57-22.84,103.75-22.8,143.4.07,19.78,11.4,29.71,26.41,29.71,41.39v-.03,205.88c.03,14.96-9.85,29.95-29.65,41.36-39.54,22.87-103.77,22.87-143.4-.03-19.82-11.46-29.69-26.48-29.69-41.45l-.03-205.73Z"/>
            <path class="cls-12" d="M2649.18,1175.09c39.65,22.94,103.85,22.94,143.39.07,19.83-11.41,29.73-26.39,29.68-41.36v-.03,205.88c.03,14.96-9.85,29.95-29.65,41.36-39.54,22.87-103.77,22.87-143.4-.03-19.82-11.46-29.69-26.48-29.69-41.45l-.03-205.73c.03,14.94,9.95,29.92,29.7,41.29Z"/>
            <path class="cls-13" d="M2720.97,1404.81c-27.21,0-54.42-5.99-75.15-17.97-21.35-12.33-33.09-29.13-33.09-47.31l-.03-205.72c-.03-18.17,11.71-34.98,33.05-47.34,41.37-23.87,108.74-23.84,150.18.08,21.31,12.28,33.07,29.05,33.09,47.2h0v205.86c.03,18.21-11.7,34.99-33.03,47.27-20.68,11.96-47.84,17.94-75.02,17.94ZM2720.72,1081.94c-24.71,0-49.41,5.42-68.19,16.26-16.97,9.83-26.3,22.46-26.27,35.59h0s.02,205.75.02,205.75c0,13.14,9.35,25.78,26.32,35.59,37.69,21.78,98.98,21.79,136.61.03,16.97-9.77,26.29-22.37,26.26-35.48v-205.86c0-13.12-9.33-25.74-26.31-35.52-18.88-10.89-43.68-16.34-68.44-16.34Z"/>
          </g>
        </g>
        <g>
          <path class="cls-1" d="M282.78,1931.52c0-39,14.55-72.3,35.11-86.03,6.18-5.46,13.36-10.67,21.67-15.46l1492.33-861.58c64.72-37.4,169.71-37.35,234.53.05l611.01,352.79c8.81,5.1,16.3,10.6,22.71,16.43,19.36,14.62,32.83,46.86,32.83,84.39.03,19.47-3.62,37.48-9.84,52.43-5.92,18.26-21.12,35.73-45.57,49.88l-1492.32,861.56c-64.73,37.36-169.71,37.34-234.51-.07l-611.01-352.75c-8.41-4.87-15.72-10.15-21.93-15.7-20.51-13.76-35-47.02-35-85.94Z"/>
          <path class="cls-5" d="M2700.13,1337.73s-.01-.01-.03-.02c40.79,37.03,33.34,86.67-22.57,118.98l-1492.32,861.56c-64.72,37.37-169.7,37.34-234.5-.09l-611.01-352.73c-56.47-32.59-63.7-82.81-21.85-119.91-20.55,13.74-35.09,47.02-35.08,86,0,38.92,14.48,72.18,35,85.94,6.21,5.55,13.52,10.82,21.93,15.7l611.01,352.75c64.8,37.41,169.78,37.43,234.51.07l1492.32-861.56c24.46-14.16,39.65-31.62,45.57-49.88,6.22-14.94,9.87-32.96,9.84-52.43,0-37.54-13.47-69.78-32.83-84.39Z"/>
          <path class="cls-13" d="M1068.08,2420.62c-43.73,0-87.44-9.62-120.75-28.84l-611.02-352.75c-8.5-4.92-16.14-10.37-22.72-16.21-22.86-15.64-37.59-51.4-37.59-91.3h0c0-39.98,14.79-75.79,37.73-91.39,6.64-5.83,14.19-11.2,22.43-15.96l1492.34-861.58c66.44-38.4,174.69-38.37,241.28.05l611.02,352.79c8.85,5.12,16.8,10.87,23.64,17.08,21.78,16.61,35.27,50.91,35.27,89.61.03,19.53-3.5,38.47-10.25,54.77-6.72,20.44-23.5,38.91-48.52,53.4l-1492.33,861.56c-33.23,19.18-76.89,28.76-120.54,28.77ZM1949.02,947.16c-41.22,0-82.41,9.05-113.75,27.16L342.94,1835.9c-7.6,4.38-14.53,9.32-20.55,14.67-.24.2-.49.39-.74.56-19.21,12.83-32.11,45.14-32.09,80.4h0c-.01,35.19,12.85,67.47,31.99,80.32.25.17.51.36.74.57,5.97,5.35,12.98,10.35,20.81,14.89l611.01,352.75c62.82,36.27,164.99,36.3,227.74.06l1492.33-861.56c22.18-12.85,36.89-28.79,42.5-46.11.05-.17.12-.35.19-.51,6.12-14.72,9.35-31.94,9.33-49.81,0-34.19-11.85-65.19-30.15-79-.17-.13-.33-.26-.49-.4-6.19-5.65-13.44-10.89-21.53-15.58l-611.01-352.78c-31.46-18.14-72.74-27.22-114-27.22Z"/>
          <g>
            <path class="cls-12" d="M2665.81,1434.96l-1492.3,861.59c-58.17,33.58-152.81,33.58-211.08-.06l-611.04-352.77c-58.15-33.59-58.23-88.25-.08-121.82l1492.33-861.63c58.15-33.57,152.85-33.51,211.04.07l611.04,352.8c58.23,33.61,58.26,88.26.1,121.83Z"/>
            <path class="cls-13" d="M1068.07,2328.39c-39.48,0-78.96-8.68-109.03-26.04l-611.04-352.77c-30.33-17.53-47.04-41.26-47.04-66.83,0-25.55,16.68-49.24,46.96-66.72l1492.33-861.62c59.99-34.65,157.7-34.62,217.81.06l611.04,352.79c30.37,17.53,47.08,41.27,47.08,66.84s-16.69,49.24-46.98,66.72l-1492.31,861.6c-29.99,17.31-69.4,25.97-108.82,25.97ZM1949.02,941.79c-36.96,0-73.9,8.11-102,24.34L354.69,1827.75c-25.91,14.96-40.18,34.5-40.18,55s14.3,40.1,40.27,55.1l611.04,352.77c56.35,32.54,148.01,32.58,204.31.07l1492.3-861.6h0c25.94-14.96,40.21-34.49,40.21-54.99s-14.32-40.1-40.32-55.11l-611.04-352.8c-28.21-16.28-65.24-24.41-102.25-24.41Z"/>
          </g>
          <path class="cls-8" d="M2025.36,977.28l611.08,352.76c41.98,24.26,42.04,63.75.06,87.99l-1492.33,861.6c-41.98,24.27-110.39,24.23-152.42-.07l-611.01-352.71c-42.04-24.27-42.09-63.75-.12-88.03l1492.33-861.6c42.04-24.21,110.39-24.23,152.42.06Z"/>
          <path class="cls-12" d="M2329.78,1179.89c-3.94,2.28-10.3,2.24-14.21-.01l-98.28-56.72c-3.87-2.25-3.83-5.93,0-8.19h0c3.95-2.26,10.3-2.24,14.22.01l98.21,56.71c3.92,2.26,3.95,5.95.06,8.2h0ZM2367.41,1193.45c-3.94-2.28-10.26-2.29-14.21.01-3.92,2.24-3.89,5.92.03,8.15,3.89,2.26,10.29,2.28,14.18,0,3.94-2.24,3.92-5.92,0-8.16ZM2393.37,1208.41c-3.97-2.28-10.3-2.28-14.22-.01-3.93,2.27-3.93,5.93,0,8.2,3.92,2.28,10.28,2.25,14.19-.01,3.92-2.26,3.94-5.92.03-8.17Z"/>
          <g>
            <path class="cls-12" d="M2564.64,1554.96l11.51,6.62c2.83,1.66,4.62,5.2,4.62,10.25-.03,10.04-7.04,22.23-15.78,27.29l-151.5,87.44c-4.3,2.53-8.28,2.74-11.12,1.12l-11.51-6.67h0s-.24-.15-.24-.15l.03-.03c-2.74-1.67-4.4-5.17-4.4-10.05.03-10.01,7.04-22.24,15.75-27.28l151.44-87.44c4.24-2.45,8.08-2.72,10.9-1.2l.03-.04.21.12s.03.04.06.04Z"/>
            <path class="cls-13" d="M2406.48,1695.49c-2.65,0-5.19-.64-7.46-1.92l-11.56-6.7c-.3-.17-.6-.37-.87-.6-4.52-3.06-7.12-8.67-7.12-15.5.04-12.4,8.44-26.96,19.14-33.14l151.44-87.45c5.8-3.35,11.63-3.96,16.53-1.77.36.12.71.27,1.06.46.11.06.22.13.35.2.01,0,.02.01.03.02l11.51,6.62c5.13,3.01,8.03,8.87,8.03,16.12-.03,12.4-8.44,26.96-19.15,33.16l-151.51,87.45c-3.47,2.03-7.03,3.06-10.4,3.06ZM2394.74,1675.43l11.01,6.39c.41.21,1.89.33,4.33-1.1l151.54-87.47c6.57-3.81,12.36-13.82,12.37-21.44,0-2.5-.67-4.03-1.28-4.4l-11.05-6.35c-.17-.08-.34-.16-.51-.26-.44-.24-1.9-.3-4.32,1.1l-151.44,87.45c-6.56,3.8-12.33,13.82-12.36,21.44,0,2.58.71,3.98,1.15,4.26.19.11.38.24.56.37Z"/>
          </g>
          <g>
            <path class="cls-12" d="M721.18,2232.67c0-11.46-8.06-25.39-17.97-31.13l-114.72-66.22c-9.92-5.73-17.96-1.08-17.96,10.37h0c-.01,11.45,8.04,25.37,17.96,31.09l114.73,66.24c9.91,5.73,17.96,1.1,17.96-10.35h0Z"/>
            <path class="cls-13" d="M711.28,2252.24c-3.67,0-7.6-1.12-11.46-3.35l-114.73-66.23c-11.97-6.92-21.35-23.16-21.33-36.96,0-7.94,3.15-14.32,8.64-17.49,5.5-3.16,12.6-2.71,19.47,1.26l114.72,66.22c11.99,6.94,21.35,23.19,21.35,37,0,7.94-3.15,14.32-8.64,17.48-2.42,1.4-5.14,2.08-8.03,2.08ZM580.46,2139.65c-.51,0-.94.1-1.28.29-.86.49-1.88,2.31-1.88,5.76-.01,8.96,6.8,20.74,14.57,25.23l114.73,66.24c3,1.74,5.06,1.76,5.93,1.27,1.14-.66,1.88-2.92,1.88-5.76,0-8.96-6.82-20.77-14.6-25.28l-114.71-66.2c-1.74-1.01-3.4-1.55-4.64-1.55Z"/>
          </g>
          <path class="cls-5" d="M749.97,2235.73c.01-5.6,3.95-7.86,8.81-5.05,4.87,2.81,8.8,9.62,8.8,15.21s-3.95,7.87-8.8,5.06c-4.86-2.81-8.8-9.61-8.81-15.22ZM785.76,2266.54c4.85,2.8,8.8.54,8.8-5.07s-3.95-12.42-8.8-15.22c-4.86-2.81-8.8-.55-8.8,5.07s3.94,12.42,8.8,15.22ZM812.73,2282.11c4.87,2.81,8.82.56,8.82-5.05s-3.95-12.42-8.8-15.23c-4.86-2.8-8.8-.53-8.8,5.07,0,5.62,3.94,12.41,8.79,15.21ZM839.73,2297.7c4.86,2.81,8.8.53,8.79-5.07,0-5.6-3.93-12.41-8.79-15.21-4.86-2.81-8.79-.54-8.8,5.05,0,5.62,3.94,12.43,8.8,15.23ZM866.71,2313.27c4.87,2.81,8.8.55,8.8-5.06s-3.94-12.42-8.8-15.23c-4.86-2.8-8.8-.54-8.8,5.07s3.94,12.42,8.8,15.22ZM893.68,2328.85c4.87,2.81,8.8.55,8.8-5.06,0-5.6-3.94-12.41-8.79-15.21-4.86-2.81-8.79-.54-8.8,5.05,0,5.6,3.94,12.42,8.79,15.22ZM389.22,2027.44c.01-5.59,3.97-7.85,8.82-5.05,4.85,2.81,8.79,9.62,8.8,15.21-.01,5.61-3.95,7.87-8.8,5.07-4.87-2.81-8.8-9.62-8.82-15.23ZM425.01,2058.26c4.85,2.81,8.78.54,8.78-5.07s-3.93-12.42-8.79-15.23c-4.85-2.81-8.79-.54-8.79,5.07s3.94,12.42,8.8,15.23ZM451.99,2073.83c4.86,2.81,8.8.56,8.8-5.05s-3.94-12.42-8.8-15.22c-4.85-2.81-8.79-.54-8.79,5.07s3.94,12.41,8.79,15.21ZM478.97,2089.41c4.86,2.81,8.8.55,8.79-5.06.01-5.6-3.93-12.41-8.78-15.21-4.87-2.81-8.8-.54-8.82,5.05,0,5.6,3.94,12.42,8.8,15.22ZM505.96,2105c4.87,2.81,8.8.53,8.8-5.07s-3.94-12.42-8.78-15.23c-4.87-2.81-8.81-.54-8.81,5.06s3.94,12.43,8.79,15.24ZM532.94,2120.57c4.86,2.81,8.79.54,8.79-5.07s-3.93-12.41-8.78-15.21c-4.85-2.8-8.79-.54-8.79,5.06,0,5.62,3.94,12.42,8.78,15.23Z"/>
        </g>
        <g>
          <g>
            <path class="cls-8" d="M2577.41,1769.19c19.37-11.17,35.06-2.12,35.06,20.21l.03,134.72c-.03,22.33-15.75,49.52-35.07,60.68l-745.16,430.18v-215.6l745.14-430.19Z"/>
            <path class="cls-13" d="M1832.27,2421.76c-1.17,0-2.34-.3-3.39-.91-2.09-1.21-3.38-3.44-3.38-5.87v-215.6c0-2.42,1.29-4.65,3.38-5.86l745.15-430.19h0c11.55-6.67,22.76-7.55,31.57-2.46,8.8,5.08,13.64,15.21,13.64,28.53l.03,134.72c-.03,24.89-16.92,54.11-38.45,66.54l-745.16,430.19c-1.04.6-2.21.91-3.38.91ZM1839.05,2203.3v199.95l735-424.33c17.15-9.89,31.66-35,31.68-54.81l-.03-134.72c0-8.16-2.5-14.28-6.86-16.8-4.39-2.53-10.96-1.63-18.04,2.46l-741.75,428.24Z"/>
          </g>
          <g>
            <path class="cls-8" d="M1542.93,2366.47l289.34-167.08v215.6l-289.33,167.08c-19.39,11.16-35.05,2.15-35.08-20.19l.03-134.72c-.03-22.33,15.67-49.5,35.04-60.68Z"/>
            <path class="cls-13" d="M1527.24,2593.65c-4.5,0-8.72-1.08-12.5-3.27-8.78-5.07-13.62-15.19-13.64-28.5v-134.74c-.01-24.86,16.87-54.09,38.44-66.54l289.34-167.08c2.09-1.22,4.69-1.22,6.77,0,2.1,1.21,3.39,3.44,3.39,5.86v215.6c0,2.42-1.29,4.66-3.39,5.87l-289.32,167.08c-6.61,3.8-13.1,5.72-19.1,5.72ZM1825.5,2211.12l-279.18,161.22h0c-17.18,9.91-31.67,35-31.65,54.79l-.03,134.73c.01,8.15,2.51,14.27,6.87,16.78,4.37,2.52,10.94,1.62,18.05-2.47l285.93-165.11v-199.95ZM1542.93,2366.47h.04-.04Z"/>
          </g>
          <path class="cls-9" d="M1904.48,2270.07c0-16.07,11.29-35.57,25.19-43.6,13.93-8.01,25.16-1.55,25.19,14.51,0,16.05-11.26,35.55-25.18,43.57-13.9,8.04-25.19,1.55-25.19-14.48ZM2048.33,2216.04c13.92-8.04,25.19-27.53,25.16-43.58.01-16.03-11.25-22.54-25.16-14.53-13.93,8.08-25.18,27.57-25.19,43.62,0,16.01,11.25,22.53,25.19,14.48ZM2167,2147.54c13.86-8.02,25.14-27.55,25.16-43.57.03-16.07-11.26-22.55-25.16-14.51-13.94,8.03-25.21,27.53-25.2,43.59,0,16.03,11.28,22.52,25.2,14.48ZM2285.6,2079.07c13.96-8.04,25.21-27.59,25.21-43.61s-11.25-22.56-25.16-14.51c-13.89,8.03-25.18,27.55-25.21,43.62-.02,16,11.28,22.5,25.17,14.5ZM2404.27,2010.54c13.92-8.01,25.23-27.53,25.19-43.58.04-16.04-11.26-22.57-25.15-14.52-13.94,8.03-25.19,27.54-25.22,43.61.03,16.03,11.28,22.54,25.19,14.49ZM2522.91,1942.03c13.92-8.03,25.21-27.54,25.21-43.58s-11.26-22.57-25.19-14.54c-13.91,8.04-25.17,27.57-25.16,43.64-.06,16.03,11.25,22.54,25.13,14.48ZM1597.22,2427.65l112.89-65.15c5.62-13.17,15.28-25.37,26.34-31.74,17.39-10.05,31.45-1.92,31.49,18.14-.01,20.06-14.11,44.43-31.49,54.47-11.06,6.38-20.76,5.4-26.34-1.28l-27.41,15.8c0-6.97-4.93-9.8-10.97-6.3-6.05,3.48-10.95,11.99-10.94,18.96l-21.91,12.63c-.01-7-4.9-9.82-10.96-6.33-6.06,3.49-10.94,12.01-10.97,18.97l-19.73,11.39c-.76.42-1.46.73-2.23,1.03-.09-6.77-4.92-9.53-10.89-6.1-.94.56-1.8,1.4-2.65,2.16-.87-1.87-1.38-4.21-1.37-6.98,0-10.89,7.68-24.25,17.13-29.69ZM1736.45,2380.38c6.34-3.7,11.55-12.6,11.52-19.95,0-7.35-5.18-10.35-11.53-6.66-6.37,3.67-11.53,12.61-11.51,19.96-.01,7.36,5.14,10.32,11.52,6.65Z"/>
        </g>
        <g>
          <g>
            <path class="cls-8" d="M368.29,2437.88c0,21.59,15.2,47.91,33.96,58.75l388.59,224.35c18.75,10.79,33.91,2.06,33.91-19.57v-168.19c0-21.62-15.15-47.94-33.94-58.8l-388.56-224.31c-18.73-10.83-33.98-2.05-33.96,19.6v168.16Z"/>
            <path class="cls-13" d="M806,2732.41c-5.82,0-12.13-1.86-18.55-5.56l-388.59-224.35c-20.94-12.12-37.34-40.5-37.34-64.62v-168.16c-.01-12.97,4.72-22.87,13.32-27.84,8.6-4.97,19.55-4.13,30.8,2.37l388.56,224.3c20.93,12.11,37.34,40.52,37.34,64.67v168.19c0,12.97-4.74,22.84-13.3,27.8-3.69,2.13-7.83,3.19-12.23,3.19ZM387.08,2252.27c-2.06,0-3.91.44-5.47,1.35-4.17,2.41-6.56,8.28-6.55,16.1v168.17c0,19.08,14.01,43.3,30.57,52.89l388.59,224.35c6.78,3.91,13.07,4.78,17.23,2.37,4.15-2.4,6.52-8.26,6.52-16.07v-168.19c0-19.11-14-43.36-30.55-52.94l-388.56-224.31c-4.25-2.46-8.31-3.72-11.78-3.72Z"/>
          </g>
          <path class="cls-12" d="M758.63,2541.56c0,5.19-3.65,7.3-8.15,4.7l-307.94-177.81c-4.49-2.62-8.12-8.83-8.12-14.06h0c-.01-5.21,3.68-7.33,8.14-4.71l307.92,177.73c4.46,2.61,8.15,8.96,8.15,14.14h0ZM702.02,2584.01c.02,5.26-3.66,7.26-8.15,4.73l-251.31-145.09c-4.5-2.63-8.12-8.92-8.14-14.11h0c.01-5.12,3.64-7.29,8.14-4.66l251.34,145.1c4.49,2.57,8.15,8.88,8.12,14.03h0ZM645.46,2513.8c-.03-5.21-3.68-11.51-8.12-14.05l-194.75-112.43c-4.53-2.68-8.17-.53-8.16,4.65h0c-.01,5.21,3.63,11.48,8.16,14.12l194.72,112.43c4.49,2.56,8.17.51,8.15-4.71h0Z"/>
        </g>
        <g>
          <path class="cls-12" d="M984.84,2139.21c-21.8,12.6-57.18,12.59-79.01-.02l-281.91-162.75c-21.85-12.62-21.85-33.04-.04-45.62l19.74-11.39c21.78-12.57,57.15-12.57,78.99.02l281.91,162.76c21.85,12.61,21.85,33.03.07,45.61l-19.74,11.38Z"/>
          <path class="cls-12" d="M2239.56,1579.48c-19.4,11.22-50.91,11.19-70.34-.03l-575.81-332.42c-19.44-11.22-19.46-29.41-.04-40.63l219.3-126.6c19.4-11.21,50.9-11.19,70.34,0l575.79,332.46c19.44,11.21,19.45,29.41.06,40.61l-219.29,126.61Z"/>
          <path class="cls-3" d="M1741.5,1218.61c2.82-13.21,12.89-26.03,30.51-36.18,41.89-24.19,109.91-24.16,151.89.07,41.98,24.22,41.98,63.49.07,87.69-17.57,10.16-39.74,15.99-62.65,17.61,11.92-15.01,10.9-32.6-3.18-47.19,12.85,1.17,26.41-1.02,36.29-6.72,16.42-9.49,16.38-24.87-.05-34.36-16.43-9.5-43.07-9.5-59.48,0-9.88,5.69-13.68,13.53-11.67,20.95-25.24-8.16-55.73-8.73-81.73-1.86Z"/>
          <path class="cls-8" d="M1772.09,1270.13c24.36,14.07,57.49,19.91,89.23,17.67,11.92-15.01,10.9-32.6-3.18-47.19,12.85,1.17,26.41-1.02,36.29-6.72,16.42-9.49,16.38-24.87-.05-34.36-16.43-9.5-43.07-9.5-59.48,0-9.88,5.69-13.68,13.53-11.67,20.95-25.24-8.16-55.73-8.73-81.73-1.86-3.9,18.32,6.22,37.45,30.6,51.52ZM2314.82,1456.86c-4.67,2.71-12.24,2.71-16.9,0l-271.63-156.81c-4.66-2.7-4.67-7.07-.01-9.76h0c4.66-2.69,12.21-2.69,16.89.01l271.61,156.83c4.67,2.69,4.69,7.05.04,9.73h0ZM2319.64,1420.7c4.62-2.67,4.62-7.04-.04-9.73l-242.7-140.13c-4.69-2.7-12.22-2.7-16.87-.03h0c-4.68,2.71-4.68,7.06,0,9.76l242.7,140.13c4.68,2.71,12.25,2.71,16.92.01h0ZM2198.96,1428.93c-4.69,2.7-12.24,2.7-16.89,0l-189.5-109.42c-4.68-2.68-4.7-7.03-.01-9.75h0c4.64-2.67,12.2-2.67,16.89.03l189.5,109.41c4.65,2.7,4.67,7.06.02,9.74h0ZM2084.56,1440.79c-4.66,2.7-12.25,2.7-16.9-.01l-142.58-82.31c-4.67-2.69-4.67-7.05-.01-9.75h0c4.65-2.67,12.23-2.69,16.89.03l142.57,82.3c4.68,2.7,4.69,7.08.04,9.75h0ZM2211.83,1475.31c4.64-2.67,4.65-7.05-.03-9.75l-236.09-136.31c-4.69-2.7-12.26-2.69-16.89-.02h0c-4.67,2.7-4.67,7.07,0,9.77l236.1,136.31c4.67,2.69,12.23,2.69,16.9,0h0Z"/>
          <path class="cls-12" d="M1773.98,1848.28c-19.41,11.2-50.88,11.2-70.33-.03l-575.83-332.44c-19.42-11.21-19.44-29.4-.03-40.61l336.68-194.38c19.42-11.22,50.91-11.19,70.33.03l575.84,332.42c19.46,11.23,19.46,29.41.04,40.63l-336.69,194.38Z"/>
          <path class="cls-8" d="M1907.96,1624.03c-4.66,2.69-12.21,2.69-16.86,0l-98.28-56.74c-4.68-2.71-4.67-7.08-.01-9.76h0c4.66-2.69,12.2-2.69,16.89.01l98.25,56.75c4.66,2.69,4.66,7.06.01,9.74h0ZM1883.03,1570.69c4.66-2.69,4.65-7.05,0-9.73l-39.61-22.89c-4.67-2.69-12.24-2.69-16.89-.03h0c-4.67,2.72-4.65,7.06.01,9.76l39.61,22.89c4.65,2.7,12.22,2.69,16.88,0h0ZM1932.89,1677.39c-4.67,2.68-12.23,2.68-16.87,0l-156.94-90.62c-4.67-2.69-4.69-7.06-.01-9.76h0c4.65-2.67,12.21-2.67,16.87.03l156.95,90.62c4.63,2.69,4.66,7.04,0,9.74h0ZM1806.76,1682.47c-4.67,2.69-12.22,2.69-16.87.01l-98.27-56.77c-4.68-2.7-4.69-7.06-.01-9.76h0c4.64-2.67,12.21-2.67,16.87.03l98.28,56.75c4.64,2.68,4.65,7.05,0,9.74h0ZM1781.83,1629.11c4.64-2.69,4.64-7.03-.01-9.72l-39.61-22.89c-4.68-2.69-12.22-2.71-16.87,0h0c-4.65,2.69-4.67,7.05.01,9.74l39.61,22.87c4.65,2.69,12.2,2.7,16.87,0h0ZM1814.82,1745.54c-4.68,2.69-12.23,2.7-16.88.01l-492.21-284.17c-4.67-2.69-4.67-7.08,0-9.76h0c4.65-2.69,12.21-2.69,16.88,0l492.19,284.17c4.65,2.68,4.65,7.05.01,9.74h0ZM1688.7,1750.62c-4.68,2.71-12.24,2.71-16.88.02l-433.54-250.3c-4.66-2.69-4.66-7.06,0-9.76h0c4.63-2.69,12.21-2.69,16.87,0l433.55,250.3c4.65,2.69,4.65,7.05,0,9.73h0ZM1663.77,1697.28c4.63-2.67,4.63-7.04-.01-9.72l-374.88-216.43c-4.67-2.7-12.22-2.7-16.87-.02h0c-4.67,2.69-4.67,7.05,0,9.76l374.88,216.43c4.66,2.68,12.22,2.68,16.89-.01h0ZM1792.74,1508.82l-284.6-164.29c-4.67-2.71-12.22-2.71-16.87-.02l-134.94,77.92h0c-4.65,2.7-4.67,7.04,0,9.74l284.6,164.3c4.66,2.68,12.19,2.69,16.87,0h0l134.95-77.92c4.65-2.68,4.65-7.04-.01-9.73Z"/>
          <path class="cls-12" d="M1323.9,2108.14c-19.44,11.21-50.9,11.2-70.35-.03l-575.8-332.44c-19.44-11.22-19.48-29.39-.06-40.6l321.19-185.43c19.43-11.21,50.93-11.21,70.35.01l575.82,332.44c19.44,11.23,19.44,29.4.03,40.6l-321.19,185.45Z"/>
          <path class="cls-8" d="M1320.23,2028.62c-23.68-13.67-14.46-32.05-5.57-49.85,8.26-16.53,16.07-32.12-2.35-42.74-17.26-9.98-34.76-12.66-53.32-15.48-19.22-2.94-39.09-5.98-58.5-17.19-24.25-14-1.29-40.18,20.85-65.47,20.16-23.02,41.04-46.81,23.23-57.1-17.86-10.29-59.06,1.74-98.92,13.36-43.86,12.83-89.18,26.07-113.42,12.07-23.03-13.33-21.21-28.09-19.56-41.13,1.56-12.61,3.07-24.53-15.94-35.5-18.12-10.45-50.06-3.15-83.93,4.61-36.11,8.24-73.46,16.8-97.4,2.98l8.83-5.1c18.12,10.44,50.12,3.13,83.95-4.6,36.12-8.26,73.47-16.8,97.39-2.99,23.07,13.3,21.21,28.12,19.57,41.13-1.58,12.64-3.09,24.55,15.92,35.52,17.82,10.29,59.05-1.75,98.91-13.39,43.86-12.8,89.17-26.05,113.45-12.05,24.21,13.98,1.28,40.16-20.9,65.46-20.15,23.02-41.02,46.83-23.21,57.12,17.03,9.83,34.43,12.46,52.84,15.29,19.33,2.94,39.32,6.02,58.97,17.36,23.64,13.65,14.46,32.04,5.54,49.85-8.24,16.53-16.01,32.12,2.39,42.77l-8.83,5.08Z"/>
          <path class="cls-3" d="M1025.85,1758.86l133-76.78,8.83,5.1-143.01,82.57c.17-1.39.32-2.76.47-4.15.29-2.2.55-4.47.7-6.75ZM989.22,1718.64l116.46-67.25-8.83-5.1-122.82,70.92c5.32.06,10.37.53,15.19,1.44ZM1097.15,1799.49l132.52-76.51-8.85-5.12-149.69,86.42c7.97-.89,16.75-2.58,26.02-4.79ZM1253.43,1775.69c1.53.9,2.87,1.83,4.03,2.85l34.23-19.77-8.84-5.11-34.19,19.73c1.65.67,3.24,1.44,4.77,2.3ZM815.41,1737.18l-33.79,19.52,8.84,5.1,35.12-20.28c-3.57-1.1-7.01-2.51-10.17-4.34ZM1335.65,1948.14l142.03-81.98-8.85-5.11-137.06,79.12c1.88,2.57,3.26,5.21,3.87,7.97ZM1262.16,1913.56c2.46.38,4.94.74,7.41,1.13l146.1-84.33-8.85-5.1-151.2,87.28c2.15.35,4.36.7,6.53,1.03ZM1203.78,1881.12l149.9-86.55-8.87-5.12-132.86,76.71c-3.76,5.3-6.69,10.37-8.18,14.96ZM1043.69,1615.6l-8.85-5.1-210.59,121.58c3.21,1.84,6.84,3.12,10.86,3.95l208.58-120.43ZM1321.96,1945.83l-106.35,61.42,8.83,5.1,99.05-57.19c.29-3.28-.22-6.35-1.53-9.33ZM1277.58,2043.03l8.84,5.12,33.81-19.53c-3.19-1.84-5.68-3.75-7.74-5.74l-34.91,20.14ZM1259,1920.56c-4.46-.69-8.96-1.37-13.48-2.19l-91.91,53.08,8.83,5.1,96.91-55.95c-.11-.03-.23-.05-.35-.05ZM960.31,1725.1l-116.68,67.38,8.84,5.1,126.31-72.93c-5.68-.44-11.85-.23-18.46.44ZM1530.81,1896.83l-208.93,120.61c1.76,2.13,3.94,4.24,7.18,6.1l210.61-121.61-8.87-5.11ZM1012.54,1766.55l-106.9,61.73,8.83,5.11,97.46-56.29c-.13-3.58.15-7.1.61-10.55ZM1057.57,1812.13l-89.96,51.94,8.84,5.12,101.07-58.36c-7.01.96-13.74,1.45-19.94,1.3ZM1244.58,1780.8c-1.56-.86-3.26-1.53-5.1-2.1l-209.87,121.18,8.83,5.1,209.84-121.15c-1-1.1-2.15-2.14-3.71-3.03ZM1192.46,1877.41l-100.88,58.25,8.87,5.1,89.83-51.87c-.26-3.59.51-7.42,2.18-11.48Z"/>
        </g>
        <g>
          <path class="cls-7" d="M1910.07,1584.2c-.92-1.94-3.53-3.44-6.83-3.93-3.33-.55-6.9,0-9.35,1.42l-125.39,72.4-80.03-12.42-21.53-46.23,125.37-72.39c2.44-1.4,3.37-3.48,2.49-5.39-.89-1.92-3.47-3.42-6.81-3.96l-107.71-16.69c-3.32-.51-6.89.04-9.3,1.47l-145.29,83.85c-1.64.97-2.3,2.25-2.49,3.57-.07.6-.26,1.19,0,1.79l25.76,55.36-437.1,252.32-95.86-14.84c-3.28-.51-6.85.02-9.3,1.42l-145.27,83.88c-1.63.97-2.31,2.27-2.48,3.6-.06.58-.27,1.19,0,1.79l28.91,62.18c.89,1.91,3.51,3.38,6.86,3.94,3.32.51,6.88-.05,9.29-1.42l125.43-72.42,80.05,12.44,21.53,46.23-125.41,72.39c-1.78,1.03-2.42,2.38-2.49,3.78-.03.53-.25,1.08.01,1.58.84,1.94,3.48,3.44,6.8,3.94l107.7,16.69c3.33.51,6.93-.02,9.34-1.43l145.24-83.87c1.85-1.03,2.49-2.45,2.47-3.91,0-.51.24-.98,0-1.46l-25.72-55.33,437.07-252.36,95.86,14.87c3.33.5,6.89-.06,9.33-1.46l145.24-83.83c1.81-1.08,2.47-2.51,2.47-3.94,0-.53.23-.99,0-1.46l-28.89-62.18Z"/>
          <path class="cls-1" d="M1939.31,1366.28h-.36c0-.47.23-.95,0-1.42l-28.89-62.2c-.92-1.92-3.53-3.42-6.83-3.92-3.33-.53-6.9,0-9.35,1.43l-125.39,72.39-52.44-8.15,76.25-44c1.85-1.07,2.49-2.49,2.49-3.96h.33v-78.91h-.33c0-.47.22-.94,0-1.4-.89-1.92-3.47-3.42-6.81-3.96l-107.71-16.69c-3.32-.51-6.89.06-9.3,1.47l-145.29,83.83c-1.64.99-2.3,2.26-2.49,3.58h-.31v78.87h.31c-.04.62-.26,1.22,0,1.82l53.33,114.64c.47.97,1.36,1.81,2.51,2.5,1.15.69,2.67,1.17,4.32,1.44l198.55,30.8c3.33.49,6.89-.06,9.33-1.47l145.24-83.83c1.94-1.15,2.63-2.68,2.47-4.27h.36v-78.58Z"/>
          <path class="cls-5" d="M1939.31,1366.28v78.58h-.36c.16,1.59-.53,3.12-2.47,4.27l-145.24,83.83c-2.44,1.42-6,1.96-9.33,1.47l-198.55-30.8c-1.65-.27-3.17-.76-4.32-1.44-1.15-.69-2.04-1.53-2.51-2.5l-53.33-114.64c-.26-.6-.04-1.19,0-1.82h-.31v-78.87h.31c-.07.61-.26,1.2,0,1.81l53.33,114.64c.47.97,1.36,1.83,2.51,2.51s2.67,1.17,4.32,1.43l198.55,30.79c3.33.51,6.89-.04,9.33-1.45l145.24-83.84c1.81-1.08,2.47-2.49,2.47-3.97h.36ZM1792.31,1241.53l-125.37,72.39,21.53,46.23,80.03,12.42-52.44-8.15,76.25-44c1.85-1.07,2.49-2.49,2.49-3.96h.33v-78.91h-.33c0-.47.22-.94,0-1.4.88,1.9-.06,3.98-2.49,5.38Z"/>
          <path class="cls-13" d="M1784.31,1541.39c-1.13,0-2.26-.08-3.38-.25l-198.61-30.8c-2.57-.42-4.9-1.22-6.75-2.32-2.37-1.42-4.11-3.23-5.15-5.38l-53.36-114.71c-.51-1.19-.7-2.26-.75-3.16-.12-.49-.18-1-.18-1.52v-78.87c0-1.38.42-2.67,1.12-3.74.96-2.32,2.66-4.27,4.97-5.65l145.38-83.88c3.72-2.18,8.87-3.05,13.73-2.3l107.71,16.68c5.71.93,10.04,3.78,11.92,7.82.42.86.61,1.7.69,2.44.17.58.26,1.19.26,1.81v78.91c0,1.15-.28,2.23-.78,3.18-.82,2.72-2.69,5.05-5.4,6.63l-59.62,34.41,31.08,4.83,123.32-71.2c3.74-2.18,8.9-3.03,13.79-2.25,5.53.81,9.99,3.69,11.9,7.7l28.91,62.26c.4.83.59,1.62.67,2.35.21.6.31,1.25.31,1.92v78.58c0,.99-.2,1.94-.58,2.78-.67,2.96-2.63,5.58-5.56,7.32l-145.3,83.87c-2.87,1.66-6.57,2.56-10.33,2.56ZM1582.42,1496.31c.47.26,1.09.49,2.02.65l198.52,30.79c2.06.31,4-.12,4.9-.64l144.42-83.37c.07-.35.15-.69.26-1.04v-74.24c-.22-.66-.35-1.36-.36-2.09l-28.02-60.33c-.31-.17-.94-.44-1.92-.59-2.07-.33-4.03.05-4.93.58l-125.42,72.41c-1.33.77-2.89,1.08-4.42.83l-52.44-8.15c-2.85-.44-5.1-2.63-5.62-5.45-.53-2.83.78-5.68,3.26-7.11l75.52-43.58c.06-.21.1-.41.17-.61v-74.81c-.03-.11-.08-.23-.1-.35-.35-.13-.81-.25-1.36-.34l-107.66-16.67c-1.95-.31-3.93.08-4.85.62l-144.7,83.5s0,.04-.02.06v75.06c.22.69.33,1.41.29,2.13l52.45,112.75Z"/>
          <polygon class="cls-6" points="1689.35 1245.75 1575.61 1311.44 1617.38 1401.16 1772.84 1425.28 1886.57 1359.61 1880.81 1347.2 1782.96 1403.67 1649.06 1382.88 1613.08 1305.56 1710.88 1249.08 1689.35 1245.75"/>
          <path class="cls-8" d="M1686.05,1456.45l-102.69-15.9c-1.65-.26-3.17-.78-4.32-1.47-1.15-.67-2.04-1.53-2.51-2.48l-27.57-59.32-437.1,252.37v47.32l102.7,15.9c1.67.27,3.14.77,4.33,1.46,1.17.69,2.05,1.53,2.51,2.51l27.59,59.29,437.07-252.37v-47.32Z"/>
          <path class="cls-12" d="M1248.99,1708.8l-27.59-59.31c-.45-.95-1.34-1.83-2.51-2.49-1.19-.69-2.67-1.22-4.33-1.45l-102.7-15.91v47.32l102.7,15.9c1.67.27,3.14.77,4.33,1.46,1.17.69,2.05,1.53,2.51,2.51l27.59,59.29,437.07-252.37v-47.32l-437.07,252.35Z"/>
          <path class="cls-12" d="M1583.36,1440.55c-1.65-.26-3.17-.78-4.32-1.47-1.15-.67-2.04-1.53-2.51-2.48l-18.89-40.66-413.45,238.71,21.54,3.34h.01l48.81,7.57c1.67.24,3.14.76,4.33,1.45,1.17.66,2.05,1.54,2.51,2.49l18.91,40.66,391.9-226.26,21.53-12.44-70.38-10.9Z"/>
          <path class="cls-7" d="M1557.64,1411.71l18.89,40.68c.47.93,1.36,1.8,2.51,2.49,1.15.67,2.67,1.18,4.32,1.43l48.85,7.58,21.53-12.44-70.38-10.9c-1.65-.26-3.17-.78-4.32-1.47-1.15-.67-2.04-1.53-2.51-2.48l-18.89-40.66-413.45,238.71,21.54,3.34,391.91-226.29Z"/>
          <path class="cls-13" d="M1248.99,1762.91c-.68,0-1.38-.1-2.04-.31-1.82-.57-3.31-1.88-4.1-3.6l-27.34-58.79c-.44-.24-1.06-.49-2.01-.64l-102.67-15.9c-3.31-.51-5.74-3.35-5.74-6.69v-47.32c0-2.42,1.29-4.66,3.39-5.87l437.1-252.38c1.64-.94,3.61-1.16,5.43-.59,1.81.57,3.31,1.88,4.1,3.61l27.32,58.77c.53.31,1.17.53,2.02.67l102.65,15.89c3.3.51,5.74,3.35,5.74,6.69v47.32c0,2.42-1.29,4.65-3.39,5.87l-437.07,252.37c-1.03.6-2.2.9-3.38.9ZM1118.62,1671.17l96.98,15.01c2.49.4,4.73,1.16,6.67,2.28,2.45,1.43,4.26,3.34,5.28,5.54l24.46,52.56,427.27-246.71v-37.6l-96.96-15.01c-2.54-.41-4.86-1.22-6.75-2.35-2.29-1.34-4.08-3.2-5.12-5.33l-24.51-52.72-427.31,246.72v37.61ZM1215.26,1699.7s0,.01,0,.01h0Z"/>
          <path class="cls-1" d="M1275.07,1749.79h-.36c0-.48.24-.96,0-1.43l-53.31-114.64c-.45-.95-1.34-1.8-2.51-2.49-1.19-.7-2.67-1.19-4.33-1.45l-198.56-30.79c-3.28-.49-6.85.04-9.3,1.44l-145.27,83.84c-1.63.99-2.31,2.31-2.48,3.63h-.22v78.65h.22c-.13.66-.32,1.33,0,1.99l28.91,62.2c.89,1.93,3.51,3.44,6.86,3.94,3.32.53,6.88-.03,9.29-1.42l125.43-72.4,52.44,8.12-76.26,44c-1.78,1.03-2.42,2.41-2.49,3.8h-.32v79.17h.32c.01.42-.2.87.01,1.32.84,1.91,3.48,3.42,6.8,3.92l107.7,16.69c3.33.53,6.93,0,9.34-1.42l145.24-83.85c1.71-1.01,2.37-2.33,2.47-3.7h.36v-79.14Z"/>
          <path class="cls-5" d="M1029.44,1760.88l-125.43,72.4c-2.41,1.4-5.97,1.95-9.29,1.42-3.35-.5-5.97-2.01-6.86-3.94l-28.91-62.2c-.32-.66-.13-1.33,0-1.99h-.22v-78.65h.22c-.06.58-.27,1.19,0,1.76l28.91,62.2c.89,1.91,3.51,3.42,6.86,3.94,3.32.51,6.88-.05,9.29-1.43l125.43-72.41,80.05,12.4,21.53,46.22-125.41,72.4,76.26-44-52.44-8.12ZM1274.71,1749.79c.02,1.45-.62,2.91-2.47,3.94l-145.24,83.87c-2.41,1.41-6.01,1.96-9.34,1.43l-107.7-16.67c-3.33-.56-5.96-2.06-6.8-3.96-.26-.53-.05-1.06-.01-1.61v.02h-.32v79.17h.32c.01.42-.2.87.01,1.32.84,1.91,3.48,3.42,6.8,3.92l107.7,16.69c3.33.53,6.93,0,9.34-1.42l145.24-83.85c1.71-1.01,2.37-2.33,2.47-3.7h.36v-79.14h-.36Z"/>
          <path class="cls-13" d="M1120.24,1924.88c-1.22,0-2.44-.09-3.66-.28l-107.66-16.69c-5.67-.86-10.16-3.8-11.96-7.85-.36-.78-.54-1.54-.63-2.21-.19-.59-.28-1.22-.28-1.87v-79.17c0-1.21.31-2.34.87-3.32.85-2.62,2.67-4.82,5.3-6.35l59.63-34.4-31.08-4.81-123.36,71.2c-3.73,2.18-8.87,3.03-13.74,2.25-5.6-.84-10.09-3.76-11.95-7.8l-28.91-62.17c-.71-1.49-.84-2.9-.79-4.03-.03-.26-.05-.53-.05-.81v-78.65c0-1.2.31-2.33.85-3.31.9-2.52,2.67-4.65,5.13-6.12l145.37-83.9c3.73-2.14,8.85-2.99,13.68-2.28l198.61,30.8c2.55.41,4.81,1.19,6.73,2.31,2.37,1.39,4.17,3.27,5.19,5.43l53.32,114.68c.42.83.61,1.65.69,2.38.19.6.29,1.24.29,1.9v79.14c0,1.34-.38,2.58-1.06,3.64-.9,2.42-2.65,4.46-5.1,5.9l-145.3,83.87c-2.77,1.65-6.4,2.54-10.13,2.54ZM1009.65,1894.2c.34.12.78.24,1.32.32l107.73,16.7c1.98.31,3.96-.06,4.83-.56l144.64-83.49c.04-.14.08-.28.13-.41v-74.78c-.23-.67-.35-1.38-.37-2.11l-52.41-112.74c-.43-.24-1.01-.49-2.03-.65l-198.52-30.78c-1.97-.29-3.96.09-4.87.62l-144.6,83.44v75.31c.17.63.24,1.29.21,1.95l28.07,60.39c.31.18.97.45,1.95.6,2.02.33,3.97-.05,4.87-.58l125.45-72.4c1.34-.77,2.91-1.06,4.42-.83l52.45,8.12c2.84.44,5.1,2.62,5.62,5.45.53,2.82-.78,5.67-3.27,7.11l-75.57,43.59c-.03.14-.07.27-.13.4v75.13c.03.07.06.14.07.21ZM893.99,1827.88h.01s-.01,0-.01,0ZM858.95,1767.19l6.56,1.12s.04-.24.04-.54l-6.6-.59h0Z"/>
          <polygon class="cls-6" points="1108.6 1808.8 1222.29 1743.12 1180.55 1653.36 1025.1 1629.28 911.38 1694.92 917.17 1707.37 1014.99 1650.9 1148.89 1671.66 1184.87 1748.99 1087.04 1805.46 1108.6 1808.8"/>
          <path class="cls-4" d="M1179.08,1752.33l5.78-3.33v15.74l-40.51,23.39-35.77,20.67-21.54-3.33,92.04-53.13ZM1180.55,1653.36l-155.44-24.09-113.73,65.64,5.79,12.43,107.93-62.29,155.44,24.09,35.98,77.34,5.76-3.37-41.74-89.76Z"/>
          <path class="cls-4" d="M1886.57,1359.61l-86.65,50.01-16.96,9.79-133.9-20.73-35.98-77.33v-15.8l5.78,12.45,30.21,64.88,133.9,20.79,97.85-56.47,5.76,12.41ZM1710.88,1249.08l-21.53-3.33-113.74,65.69,5.78,12.43,107.96-62.32,21.53-12.46Z"/>
        </g>
        <g>
          <g>
            <path class="cls-8" d="M1436.12,510.29c0-22.44-15.74-31.49-35.18-20.28l-719.85,415.62c-19.46,11.22-35.23,38.44-35.21,60.9l-.02.02v441.31c0,22.43,15.74,31.5,35.18,20.25l719.89-415.59c19.4-11.21,35.18-38.49,35.18-60.9v-441.32h0Z"/>
            <path class="cls-13" d="M665.29,1439.72c-4.51,0-8.74-1.08-12.53-3.27-8.82-5.08-13.66-15.25-13.66-28.61v-441.31c0-.2,0-.4.03-.61.24-24.82,17.1-53.78,38.59-66.17l719.83-415.61c11.6-6.69,22.84-7.57,31.68-2.47,8.8,5.09,13.66,15.25,13.67,28.62h0v441.32c0,24.95-16.94,54.28-38.58,66.77l-719.88,415.59c-6.63,3.83-13.14,5.76-19.15,5.76ZM652.64,967.1v440.75c0,8.19,2.51,14.35,6.9,16.88,4.4,2.53,11,1.62,18.12-2.49l719.89-415.59c17.24-9.96,31.8-35.16,31.8-55.04v-441.32c0-8.19-2.51-14.35-6.89-16.89-4.39-2.53-11.01-1.64-18.14,2.48l-719.84,415.6c-17.26,9.96-31.83,35.16-31.82,55.04,0,.19,0,.39-.02.58Z"/>
          </g>
          <path class="cls-1" d="M842.95,938.06c0,5.4-3.78,11.93-8.42,14.6l-69.64,40.21c-4.67,2.71-8.48.54-8.46-4.86h0c.01-5.36,3.79-11.9,8.46-14.62l69.64-40.18c4.62-2.73,8.43-.51,8.42,4.84h0ZM1149.47,800.08c-.01,5.42-3.79,11.96-8.42,14.66l-46.2,26.61c-4.67,2.74-8.47.55-8.44-4.85h0c0-5.36,3.77-11.89,8.43-14.58l46.18-26.66c4.67-2.69,8.46-.51,8.46,4.83h0ZM901.64,982.15c-.01,5.37-3.81,11.92-8.44,14.62l-22.73,13.1c-4.65,2.69-8.44.51-8.42-4.86h0c-.01-5.37,3.77-11.9,8.44-14.61l22.69-13.09c4.68-2.72,8.45-.56,8.46,4.84h0ZM999.88,964.43c0,5.37-3.78,11.92-8.43,14.6l-104.82,60.52c-4.69,2.7-8.44.52-8.48-4.84h0c.01-5.37,3.78-11.92,8.49-14.62l104.82-60.54c4.66-2.69,8.43-.52,8.43,4.88h0ZM1367.56,790.84c.03,5.38-3.76,11.94-8.4,14.63l-91.26,52.68c-4.67,2.72-8.46.52-8.45-4.9h0c-.01-5.37,3.8-11.89,8.45-14.61l91.24-52.68c4.67-2.65,8.43-.49,8.42,4.87h0ZM854.71,1125.94c-.03,5.4-3.78,11.93-8.45,14.62l-46.17,26.65c-4.66,2.71-8.44.53-8.46-4.87h0c0-5.36,3.79-11.88,8.48-14.61l46.16-26.66c4.65-2.68,8.44-.49,8.45,4.87h0ZM1051.21,1129.09c-.01,5.39-3.8,11.93-8.42,14.62l-93.1,53.72c-4.69,2.71-8.47.55-8.47-4.84h0c.03-5.35,3.79-11.92,8.47-14.6l93.09-53.79c4.65-2.65,8.42-.48,8.44,4.89h0ZM1074.67,1037.91c0,5.35-3.78,11.94-8.44,14.64l-57.9,33.41c-4.67,2.69-8.46.53-8.46-4.87h0c0-5.34,3.78-11.91,8.44-14.62l57.93-33.41c4.65-2.7,8.44-.49,8.42,4.85h0ZM1247.7,976.98c.03,5.4-3.76,11.96-8.4,14.64l-57.91,33.42c-4.7,2.71-8.48.53-8.46-4.86h0c-.02-5.37,3.76-11.9,8.46-14.59l57.88-33.43c4.65-2.71,8.46-.51,8.43,4.83h0Z"/>
          <path class="cls-12" d="M1051.21,817.81c-.01,5.42-3.78,11.96-8.44,14.62l-93.09,53.77c-4.68,2.69-8.47.53-8.47-4.86h0c0-5.35,3.79-11.94,8.46-14.63l93.1-53.72c4.67-2.69,8.44-.53,8.44,4.82h0ZM1161.18,754.32c0,5.41-3.77,11.94-8.44,14.63l-69.61,40.18c-4.71,2.71-8.46.5-8.46-4.86h0c.02-5.33,3.78-11.89,8.46-14.58l69.61-40.22c4.67-2.69,8.44-.5,8.44,4.85h0ZM1367.59,635.16c-.01,5.4-3.77,11.96-8.44,14.62l-91.24,52.68c-4.67,2.72-8.45.54-8.46-4.83h0c.01-5.39,3.78-11.92,8.46-14.64l91.26-52.69c4.64-2.67,8.44-.48,8.43,4.87h0ZM712.8,1013.24c-.01,6.42,4.51,9.01,10.07,5.79,5.61-3.22,10.12-11.03,10.15-17.47-.03-6.45-4.55-9.05-10.15-5.77-5.55,3.19-10.06,10.98-10.06,17.45ZM854.68,970.27c.01,5.37-3.77,11.96-8.42,14.61l-46.18,26.71c-4.67,2.68-8.46.46-8.43-4.91h0c-.03-5.35,3.76-11.9,8.43-14.6l46.16-26.65c4.67-2.69,8.43-.51,8.44,4.83h0ZM999.88,886.45c0,5.4-3.8,11.94-8.43,14.63l-104.82,60.52c-4.69,2.71-8.49.53-8.46-4.86h0c-.01-5.38,3.75-11.93,8.42-14.6l104.85-60.54c4.63-2.68,8.43-.5,8.43,4.85h0ZM1247.7,743.36c.03,5.39-3.76,11.96-8.4,14.63l-57.91,33.42c-4.7,2.71-8.48.54-8.46-4.86h0c-.02-5.37,3.76-11.9,8.46-14.58l57.88-33.43c4.65-2.71,8.46-.51,8.43,4.83h0ZM1074.67,882.25c0,5.37-3.78,11.92-8.44,14.62l-57.91,33.41c-4.66,2.72-8.44.51-8.43-4.85h0c-.01-5.37,3.77-11.91,8.44-14.61l57.9-33.45c4.65-2.66,8.42-.47,8.44,4.88h0ZM1137.73,845.84c0,5.37-3.79,11.92-8.43,14.62l-22.73,13.1c-4.65,2.72-8.44.51-8.44-4.85h0c0-5.38,3.78-11.91,8.46-14.62l22.69-13.09c4.67-2.71,8.44-.53,8.44,4.85h0ZM1308.9,746.99c.03,5.39-3.75,11.94-8.42,14.64l-56.05,32.34c-4.67,2.71-8.44.51-8.44-4.85h0c0-5.38,3.78-11.92,8.46-14.62l56.04-32.34c4.66-2.69,8.44-.51,8.41,4.83h0ZM854.7,1048.22c-.01,5.42-3.78,11.92-8.44,14.64l-46.17,26.66c-4.67,2.67-8.44.52-8.46-4.88h0c.01-5.35,3.79-11.91,8.46-14.61l46.17-26.64c4.64-2.67,8.45-.51,8.44,4.84h0ZM1062.93,928.01c-.01,5.39-3.77,11.92-8.43,14.61l-22.69,13.1c-4.68,2.69-8.48.53-8.46-4.85h0c0-5.37,3.78-11.91,8.45-14.62l22.72-13.11c4.62-2.69,8.42-.49,8.42,4.87h0ZM1247.7,821.35c.03,5.36-3.75,11.91-8.4,14.58l-57.9,33.44c-4.69,2.71-8.45.52-8.48-4.85h0c.02-5.38,3.79-11.93,8.48-14.63l57.91-33.41c4.63-2.69,8.43-.51,8.4,4.87h0ZM842.97,1093.73c-.01,5.39-3.8,11.92-8.42,14.63l-69.65,40.2c-4.69,2.7-8.46.51-8.45-4.91h0c-.01-5.36,3.78-11.88,8.45-14.61l69.64-40.17c4.65-2.69,8.43-.54,8.43,4.85h0ZM1051.21,973.49c0,5.37-3.78,11.97-8.42,14.63l-93.1,53.77c-4.68,2.67-8.47.51-8.47-4.89h0c0-5.39,3.78-11.9,8.47-14.62l93.1-53.75c4.64-2.69,8.44-.51,8.42,4.85h0ZM1161.19,909.99c0,5.39-3.78,11.96-8.44,14.62l-69.6,40.22c-4.71,2.68-8.48.5-8.49-4.87h0c.01-5.38,3.81-11.92,8.48-14.61l69.63-40.21c4.65-2.69,8.43-.51,8.43,4.85h0ZM999.88,1042.13c0,5.37-3.8,11.92-8.43,14.6l-104.82,60.53c-4.69,2.69-8.44.52-8.48-4.84h0c.01-5.37,3.81-11.92,8.49-14.62l104.82-60.53c4.66-2.69,8.43-.52,8.43,4.87h0ZM1149.47,955.76c-.01,5.4-3.79,11.93-8.44,14.63l-46.18,26.64c-4.67,2.69-8.44.52-8.44-4.85h0c0-5.4,3.77-11.93,8.44-14.63l46.18-26.65c4.65-2.69,8.44-.51,8.44,4.85h0ZM1247.72,899.04c0,5.4-3.81,11.92-8.43,14.6l-57.9,33.44c-4.69,2.68-8.46.52-8.48-4.85h0c0-5.36,3.8-11.93,8.48-14.61l57.91-33.44c4.65-2.68,8.43-.51,8.42,4.86h0ZM1161.22,1065.59c-.03,5.4-3.82,11.92-8.47,14.6l-69.62,40.23c-4.69,2.67-8.44.52-8.46-4.89h0c0-5.35,3.76-11.9,8.46-14.62l69.61-40.2c4.67-2.69,8.44-.5,8.47,4.87h0ZM1326.53,970.15c0,5.39-3.79,11.92-8.43,14.62l-91.25,52.68c-4.68,2.69-8.47.53-8.47-4.87h0c-.01-5.37,3.79-11.92,8.46-14.6l91.24-52.68c4.66-2.69,8.44-.51,8.45,4.85h0ZM901.61,1137.83c0,5.4-3.76,11.93-8.41,14.6l-22.72,13.12c-4.67,2.69-8.46.53-8.45-4.88h0c0-5.33,3.77-11.88,8.44-14.61l22.73-13.08c4.62-2.7,8.42-.5,8.41,4.85h0ZM1137.73,1001.48c0,5.42-3.78,11.94-8.42,14.64l-22.71,13.1c-4.68,2.7-8.46.55-8.46-4.87h0c0-5.33,3.78-11.9,8.44-14.6l22.73-13.11c4.64-2.68,8.42-.48,8.42,4.85h0ZM1308.93,902.67c-.01,5.42-3.8,11.91-8.44,14.61l-56.04,32.37c-4.69,2.69-8.46.54-8.46-4.89h0c0-5.33,3.78-11.89,8.44-14.6l56.07-32.37c4.63-2.65,8.44-.49,8.43,4.87h0ZM854.68,1203.89c.01,5.37-3.77,11.96-8.42,14.61l-46.18,26.68c-4.67,2.72-8.46.5-8.43-4.87h0c-.03-5.35,3.76-11.9,8.43-14.6l46.16-26.65c4.67-2.69,8.43-.52,8.44,4.83h0ZM1062.93,1083.67c0,5.4-3.77,11.94-8.44,14.63l-22.69,13.12c-4.68,2.69-8.45.51-8.45-4.89h0c-.02-5.35,3.76-11.88,8.45-14.61l22.69-13.09c4.65-2.67,8.42-.52,8.44,4.84h0ZM999.88,1120.08c0,5.4-3.8,11.94-8.43,14.63l-104.82,60.52c-4.69,2.72-8.49.53-8.46-4.86h0c-.01-5.37,3.75-11.92,8.42-14.6l104.85-60.54c4.63-2.68,8.46-.51,8.43,4.85h0ZM712.8,1052.21c0,6.46,4.49,9.04,10.09,5.82,5.58-3.22,10.1-11.02,10.1-17.47s-4.51-9.04-10.1-5.82c-5.58,3.24-10.09,11.03-10.09,17.47ZM712.78,1130.2c0,6.44,4.51,9.01,10.09,5.81,5.6-3.23,10.08-11.01,10.1-17.46.03-6.44-4.51-9.05-10.08-5.84-5.62,3.23-10.11,11.06-10.11,17.49ZM712.78,1207.9c0,6.44,4.53,9.02,10.08,5.81,5.58-3.23,10.1-11.03,10.1-17.46.05-6.44-4.53-9.05-10.08-5.84-5.62,3.22-10.11,11.06-10.11,17.49ZM712.8,1285.84c0,6.46,4.49,9.03,10.09,5.81,5.56-3.22,10.1-11.01,10.1-17.46s-4.51-9.04-10.1-5.82c-5.58,3.24-10.09,11.03-10.09,17.47ZM712.78,1324.48c0,6.44,4.52,9.04,10.08,5.85,5.58-3.26,10.1-11.05,10.12-17.51-.01-6.45-4.55-9.03-10.13-5.81-5.58,3.22-10.06,11.02-10.08,17.46ZM712.78,1168.91c0,6.44,4.51,9.01,10.09,5.81,5.6-3.24,10.08-11.02,10.1-17.46.03-6.44-4.51-9.04-10.1-5.81-5.6,3.2-10.09,11.04-10.09,17.47ZM712.8,1246.87c-.01,6.41,4.51,9.01,10.07,5.78,5.61-3.21,10.12-11.03,10.15-17.46-.03-6.45-4.55-9.05-10.15-5.78-5.55,3.19-10.06,10.98-10.06,17.46ZM712.76,1091.22c.01,6.42,4.52,9.02,10.1,5.77,5.6-3.2,10.09-11.01,10.1-17.45,0-6.43-4.51-9.04-10.08-5.83-5.62,3.21-10.11,11.05-10.12,17.51Z"/>
        </g>
        <g>
          <polygon class="cls-8" points="3018.33 1539.87 3166.68 1625.53 3166.69 1716.41 3032.56 1793.86 2884.2 1708.18 2884.2 1617.3 3018.33 1539.87"/>
          <g class="cls-10">
            <polygon class="cls-12" points="3032.56 1793.86 2884.2 1708.18 2884.2 1617.3 3032.55 1702.97 3032.56 1793.86"/>
          </g>
          <polygon class="cls-12" points="3166.69 1716.41 3032.56 1793.86 3032.55 1702.97 3166.68 1625.53 3166.69 1716.41"/>
          <path class="cls-13" d="M3032.56,1800.63c-1.17,0-2.33-.3-3.39-.91l-148.36-85.67c-2.1-1.22-3.39-3.45-3.39-5.87v-90.87c0-2.42,1.29-4.65,3.39-5.87l134.13-77.43c2.08-1.2,4.67-1.2,6.77,0l148.36,85.66c2.09,1.21,3.37,3.44,3.37,5.87l.03,90.87c0,2.42-1.29,4.66-3.39,5.87l-134.13,77.44c-1.04.6-2.22.91-3.39.91ZM2890.98,1704.27l141.58,81.76,127.35-73.54v-83.06s-141.58-81.74-141.58-81.74l-127.35,73.51v83.06Z"/>
        </g>
        <g>
          <polygon class="cls-8" points="200.82 1407.62 349.16 1493.28 349.18 1584.16 215.06 1661.6 66.7 1575.93 66.7 1485.05 200.82 1407.62"/>
          <g class="cls-10">
            <polygon class="cls-12" points="215.06 1661.6 66.7 1575.93 66.7 1485.05 215.05 1570.72 215.06 1661.6"/>
          </g>
          <polygon class="cls-12" points="349.18 1584.16 215.06 1661.6 215.05 1570.72 349.16 1493.28 349.18 1584.16"/>
          <path class="cls-13" d="M215.06,1668.38c-1.17,0-2.35-.31-3.39-.91l-148.36-85.67c-2.1-1.22-3.39-3.45-3.39-5.87v-90.88c0-2.42,1.28-4.65,3.39-5.87l134.11-77.43c2.1-1.21,4.68-1.21,6.78,0l148.35,85.66c2.1,1.22,3.39,3.45,3.39,5.87v90.88c.01,2.42-1.28,4.65-3.37,5.87l-134.11,77.44c-1.06.6-2.22.91-3.39.91ZM73.47,1572.02l141.59,81.76,127.35-73.53-.02-83.06-141.58-81.74-127.34,73.51v83.06Z"/>
        </g>
        <g>
          <path class="cls-8" d="M24.33,1978.84c23.39-23.44,61.34-23.41,84.74,0,23.4,23.39,23.4,61.31,0,84.69-23.39,23.41-61.35,23.41-84.74,0-23.4-23.39-23.4-61.31,0-84.69Z"/>
          <path class="cls-12" d="M89.37,2043.84c20.02-19.96,22.77-50.5,8.55-73.6,3.94,2.4,7.73,5.17,11.15,8.6,23.4,23.39,23.4,61.31,0,84.69-23.39,23.41-61.35,23.41-84.74,0-3.4-3.39-6.17-7.17-8.61-11.12,23.1,14.19,53.65,11.43,73.65-8.58Z"/>
          <path class="cls-13" d="M66.7,2087.87c-17.83,0-34.57-6.94-47.17-19.54-12.6-12.6-19.53-29.33-19.53-47.13s6.94-34.55,19.53-47.13h0c12.58-12.61,29.32-19.56,47.14-19.56h.01c17.82,0,34.57,6.94,47.16,19.56,12.6,12.58,19.54,29.32,19.54,47.13s-6.94,34.54-19.54,47.13c-12.59,12.6-29.34,19.54-47.15,19.54ZM66.69,1968.05h-.01c-14.19,0-27.53,5.53-37.55,15.58h-.01c-10.03,10.04-15.55,23.37-15.55,37.57s5.53,27.52,15.55,37.56c10.05,10.04,23.39,15.57,37.59,15.57s27.54-5.53,37.57-15.57c10.04-10.04,15.57-23.37,15.57-37.56s-5.53-27.53-15.56-37.56c-10.05-10.05-23.39-15.59-37.59-15.59ZM24.33,1978.84h.04-.04Z"/>
        </g>
        <g>
          <path class="cls-8" d="M2082.86,671.14c23.39-23.44,61.34-23.41,84.73,0,23.41,23.39,23.41,61.31,0,84.69-23.39,23.42-61.34,23.42-84.73,0-23.41-23.39-23.41-61.3,0-84.69Z"/>
          <path class="cls-12" d="M2147.9,736.15c20.01-19.97,22.75-50.5,8.55-73.6,3.94,2.41,7.73,5.17,11.14,8.6,23.41,23.39,23.41,61.31,0,84.69-23.39,23.42-61.34,23.42-84.73,0-3.4-3.39-6.17-7.17-8.6-11.11,23.07,14.18,53.63,11.43,73.64-8.58Z"/>
          <path class="cls-13" d="M2125.22,780.17c-17.81,0-34.56-6.94-47.16-19.55-12.6-12.59-19.53-29.33-19.53-47.13s6.94-34.55,19.53-47.13h0c12.59-12.61,29.34-19.55,47.16-19.55,17.81,0,34.57,6.94,47.16,19.55,12.61,12.58,19.54,29.33,19.54,47.13s-6.93,34.55-19.54,47.14c-12.6,12.6-29.34,19.54-47.16,19.54ZM2125.21,660.34c-14.19,0-27.54,5.54-37.58,15.59h0c-10.03,10.03-15.57,23.37-15.57,37.56s5.53,27.52,15.57,37.56c10.05,10.04,23.39,15.57,37.59,15.57s27.55-5.53,37.57-15.57c10.04-10.04,15.58-23.37,15.58-37.56s-5.54-27.53-15.58-37.55c-10.04-10.05-23.39-15.6-37.58-15.6ZM2082.86,671.14h.04-.04Z"/>
        </g>
        <g>
          <path class="cls-8" d="M1119.03,2716.44c23.4-23.44,61.36-23.41,84.74,0,23.4,23.39,23.4,61.31,0,84.69-23.39,23.42-61.34,23.42-84.74,0-23.39-23.39-23.39-61.31,0-84.69Z"/>
          <path class="cls-12" d="M1184.06,2781.44c20.03-19.97,22.78-50.51,8.56-73.6,3.95,2.41,7.74,5.17,11.15,8.6,23.4,23.39,23.4,61.31,0,84.69-23.39,23.42-61.34,23.42-84.74,0-3.4-3.38-6.17-7.17-8.6-11.11,23.08,14.18,53.64,11.43,73.63-8.58Z"/>
          <path class="cls-13" d="M1161.4,2825.47c-17.82,0-34.57-6.94-47.16-19.55-12.6-12.59-19.53-29.33-19.53-47.13s6.93-34.55,19.53-47.13c12.59-12.61,29.32-19.55,47.13-19.55h.01c17.82,0,34.58,6.94,47.18,19.55,12.6,12.59,19.54,29.32,19.54,47.13s-6.94,34.55-19.55,47.14c-12.58,12.6-29.32,19.54-47.14,19.54h-.01ZM1161.38,2705.64h0c-14.2,0-27.54,5.54-37.55,15.59,0,0-.01,0-.01,0-10.03,10.03-15.55,23.37-15.55,37.55s5.52,27.52,15.55,37.56c10.04,10.04,23.39,15.57,37.58,15.57h.01c14.19,0,27.53-5.53,37.57-15.57,10.04-10.04,15.57-23.37,15.57-37.56s-5.53-27.53-15.57-37.55c-10.04-10.05-23.39-15.6-37.59-15.6ZM1119.03,2716.44h.04-.04Z"/>
        </g>
        <g>
          <path class="cls-1" d="M1807.7,465.87c0-7.78-5.17-15.56-15.46-21.51-10.32-5.96-23.82-8.94-37.32-8.94h-.01c-13.49,0-26.99,2.99-37.29,8.94-10.32,5.95-15.47,13.73-15.47,21.51h-.03v22.43c0,31.93,12.42,86.44,12.42,129.25s-12.42,101.92-12.42,133.22v18.45c0,7.8,5.17,15.58,15.49,21.53,10.3,5.96,23.82,8.92,37.31,8.92h.01c13.53,0,27.03-2.96,37.34-8.92,10.33-5.95,15.48-13.73,15.48-21.53v-18.45c0-31.3-12.43-90.4-12.43-133.22s12.43-97.31,12.43-129.25v-22.43h-.04Z"/>
          <path class="cls-5" d="M1807.73,465.87c0,7.8-5.14,15.63-15.46,21.59-10.31,5.95-23.81,8.92-37.34,8.92v303.29h0c13.53,0,27.03-2.96,37.34-8.92,10.33-5.95,15.48-13.73,15.48-21.53v-18.45c0-31.3-12.43-90.4-12.43-133.22s12.43-97.31,12.43-129.25v-22.43h-.01Z"/>
          <path class="cls-2" d="M1717.58,444.3c20.58-11.88,54.02-11.88,74.66.06,20.62,11.88,20.64,31.22.02,43.1-20.6,11.91-54.02,11.91-74.66-.03-20.64-11.91-20.64-31.22-.02-43.13Z"/>
          <path class="cls-13" d="M1754.93,806.44c-15.3,0-29.75-3.49-40.72-9.83-12.15-7.01-18.86-16.74-18.86-27.39v-18.45c0-14.86,2.69-35.59,5.53-57.55,3.23-24.86,6.88-53.02,6.88-75.67s-3.46-48.08-6.83-72.81c-2.87-21.18-5.59-41.18-5.59-56.44v-22.41c0-.24.01-.49.04-.73.28-10.36,6.96-19.81,18.85-26.67,10.98-6.35,25.44-9.85,40.67-9.85s29.7,3.49,40.71,9.85c11.78,6.81,18.44,16.16,18.83,26.41.05.32.07.64.07.97v22.43c0,15.26-2.72,35.26-5.6,56.45-3.36,24.72-6.84,50.29-6.84,72.8s3.66,50.81,6.89,75.66c2.85,21.96,5.55,42.7,5.55,57.56v18.45c0,10.65-6.69,20.38-18.87,27.4-10.98,6.33-25.44,9.83-40.73,9.83ZM1708.9,466.5v21.8c0,14.34,2.66,33.91,5.46,54.62,3.42,25.17,6.94,51.2,6.94,74.63s-3.71,52.15-6.99,77.4c-2.79,21.51-5.42,41.83-5.42,55.81v18.45c0,5.6,4.3,11.17,12.09,15.67,8.94,5.17,20.98,8.01,33.93,8.01s25.03-2.85,33.96-8.01c7.8-4.5,12.1-10.06,12.1-15.67v-18.45c0-13.98-2.64-34.3-5.44-55.81-3.28-25.26-7-53.89-7-77.41s3.54-49.45,6.96-74.63c2.82-20.71,5.49-40.28,5.49-54.62v-21.62c-.04-.26-.06-.53-.06-.81,0-5.51-4.39-11.21-12.07-15.65-8.99-5.18-21.03-8.03-33.93-8.03s-24.94,2.85-33.91,8.03c-7.69,4.44-12.1,10.14-12.1,15.65,0,.21,0,.42-.03.63ZM1814.47,465.87h.04-.04Z"/>
          <path class="cls-1" d="M1751.82,334.77c-8.36-4.83-16.48-10.59-24.34-17.05v148.17c0,4.08,2.67,8.1,8.05,11.19,5.36,3.1,12.37,4.66,19.39,4.66h.01c7.03,0,14.06-1.56,19.4-4.66,5.37-3.1,8.04-7.12,8.04-11.19v-118.27c-9.74-2.57-19.97-6.74-30.55-12.85Z"/>
          <path class="cls-5" d="M1754.91,336.43v145.31h.01c7.03,0,14.06-1.56,19.4-4.66,5.37-3.1,8.04-7.12,8.04-11.19v-118.27c-8.78-2.3-17.95-6.01-27.46-11.19Z"/>
          <path class="cls-13" d="M1754.93,488.51c-8.49,0-16.57-1.97-22.79-5.56-7.37-4.24-11.44-10.3-11.44-17.06v-148.17c0-2.62,1.51-5.01,3.88-6.12,2.37-1.12,5.17-.78,7.19.88,7.87,6.47,15.76,11.99,23.42,16.41h0c9.64,5.57,19.35,9.67,28.91,12.18,2.97.78,5.04,3.47,5.04,6.55v118.27c0,6.76-4.06,12.82-11.43,17.06-6.19,3.58-14.28,5.56-22.79,5.56ZM1734.25,331.46v134.43c0,1.66,1.74,3.65,4.65,5.33,4.15,2.38,9.98,3.75,16.02,3.75s11.92-1.36,16.03-3.74c2.92-1.69,4.67-3.67,4.67-5.33v-113.17c-9.06-2.84-18.18-6.89-27.17-12.08h0c-4.69-2.7-9.44-5.77-14.19-9.17Z"/>
          <path class="cls-8" d="M1764.94,26.44c-39.61-22.94-75.49-25.03-101.41-9.98v.03l-46.78,26.99s-.01,0-.03.01l-.06.03h.01c-25.9,15.01-41.9,47.13-41.87,92.78-.05,91.52,64.12,202.68,143.17,248.37,39.59,22.83,75.45,24.96,101.39,9.92h0l46.86-27.04c25.93-15.01,41.97-47.12,41.97-92.82.04-91.54-64.12-202.7-143.25-248.31Z"/>
          <path class="cls-12" d="M1616.69,43.54c25.93-15.03,61.76-12.92,101.34,10,79.12,45.61,143.29,156.76,143.25,248.31,0,45.64-16.04,77.74-41.91,92.73v.03l46.86-27.04c25.93-15.01,41.97-47.12,41.97-92.82.04-91.54-64.12-202.7-143.25-248.31-39.61-22.94-75.49-25.03-101.41-9.98v.03l-46.86,27.04h.03Z"/>
          <path class="cls-13" d="M1781.93,411.04c-20.8,0-43.72-6.87-67.33-20.48-80.87-46.75-146.61-160.79-146.56-254.24-.04-46.52,15.92-81.46,44.93-98.46.11-.07.22-.14.33-.2h0s.1-.06.14-.08l46.22-26.67c.15-.1.3-.2.46-.29,29.3-17.01,67.74-13.47,108.21,9.97,80.9,46.64,146.67,160.66,146.62,254.18,0,46.71-16.1,81.76-45.34,98.67l-46.86,27.05c-12.19,7.06-25.97,10.57-40.83,10.57ZM1620.31,49.24c-.07.06-.15.1-.24.15-24.86,14.4-38.52,45.27-38.5,86.92-.05,89.14,62.65,197.93,139.79,242.51,36.1,20.82,69.7,24.34,94.59,9.92l46.87-27.04c24.87-14.39,38.59-45.27,38.59-86.95.04-89.21-62.7-197.96-139.86-242.44,0,0-.01,0-.01,0-35.89-20.78-69.31-24.39-94.17-10.24-.15.1-.31.2-.47.29l-46.6,26.89Z"/>
          <path class="cls-12" d="M1764.91,334.31c-67.95-39.26-123.09-134.8-123.03-213.44-.03-25.37,5.76-45.82,15.85-60.64-37.46,2.78-62.84,34.5-62.79,87.74-.06,78.66,55.09,174.18,123.03,213.44,46.04,26.57,86.16,20.46,107.29-10.58-17.85,1.3-38.42-3.86-60.35-16.51Z"/>
          <path class="cls-13" d="M1663.09,73.48h0c14.53,0,31.19,5.19,48.18,15.01,64.19,37.05,116.38,127.53,116.32,201.71,0,46.61-20.43,74.44-54.65,74.44-14.53,0-31.21-5.18-48.18-14.98-64.15-37.07-116.31-127.55-116.26-201.72-.02-23.82,5.49-43.35,15.94-56.46,9.53-11.94,22.53-18.01,38.66-18.01h0ZM1663.09,59.94c-40.43,0-68.2,32.28-68.15,88.02-.06,78.66,55.09,174.18,123.03,213.44,19.76,11.4,38.41,16.8,54.96,16.8,40.43,0,68.21-32.24,68.21-87.99.06-78.67-55.12-174.21-123.11-213.45-19.74-11.42-38.4-16.82-54.94-16.82h0Z"/>
        </g>
      </g>
    </g>
  </g>
</svg>