<?xml version="1.0" encoding="UTF-8"?>
<svg xmlns="http://www.w3.org/2000/svg" viewBox="0 0 652.18 748.69">
  <defs>
    <style>
      .cls-1 {
        fill: #bed3bb;
      }

      .cls-2 {
        fill: #a5ce9f;
      }

      .cls-3, .cls-4 {
        fill: #fff;
      }

      .cls-3, .cls-5, .cls-6, .cls-7 {
        mix-blend-mode: overlay;
      }

      .cls-3, .cls-6 {
        opacity: .2;
      }

      .cls-8 {
        fill: #00ad00;
      }

      .cls-9 {
        fill: #007a00;
      }

      .cls-10 {
        isolation: isolate;
      }

      .cls-11 {
        fill: #00a700;
      }

      .cls-12 {
        opacity: .5;
      }

      .cls-5 {
        opacity: .3;
      }

      .cls-7 {
        opacity: .7;
      }
    </style>
  </defs>
  <g class="cls-10">
    <g id="Layer_2" data-name="Layer 2">
      <g id="_1" data-name="1">
        <g>
          <g>
            <polygon class="cls-4" points="255.26 698.47 283.83 714.97 283.84 732.47 258 747.39 229.42 730.89 229.42 713.38 255.26 698.47"/>
            <g class="cls-12">
              <polygon class="cls-2" points="258 747.39 229.42 730.89 229.42 713.38 258 729.88 258 747.39"/>
            </g>
            <polygon class="cls-2" points="283.84 732.47 258 747.39 258 729.88 283.83 714.97 283.84 732.47"/>
            <path class="cls-9" d="M258,748.69c-.23,0-.45-.06-.65-.17l-28.58-16.5c-.4-.23-.65-.66-.65-1.13v-17.51c0-.47.25-.9.65-1.13l25.83-14.91c.4-.23.9-.23,1.3,0l28.58,16.5c.4.23.65.66.65,1.13v17.5c0,.47-.25.9-.65,1.13l-25.83,14.92c-.2.12-.43.17-.65.17ZM230.73,730.13l27.28,15.75,24.53-14.16v-16s-27.27-15.74-27.27-15.74l-24.53,14.16v16Z"/>
          </g>
          <g>
            <path class="cls-4" d="M24.59,563.13c4.5-4.51,11.82-4.51,16.32,0,4.51,4.51,4.51,11.81,0,16.32-4.5,4.51-11.82,4.51-16.32,0-4.51-4.5-4.51-11.81,0-16.32Z"/>
            <path class="cls-2" d="M37.12,575.66c3.86-3.85,4.39-9.73,1.65-14.18.76.46,1.49.99,2.14,1.65,4.51,4.51,4.51,11.81,0,16.32-4.5,4.51-11.82,4.51-16.32,0-.65-.65-1.19-1.38-1.66-2.14,4.45,2.73,10.33,2.2,14.18-1.65Z"/>
            <path class="cls-9" d="M32.75,584.14h0c-3.43,0-6.66-1.34-9.08-3.76-2.42-2.42-3.76-5.65-3.76-9.08s1.33-6.66,3.76-9.08h0c2.42-2.43,5.65-3.76,9.08-3.76h0c3.43,0,6.66,1.34,9.08,3.76,2.43,2.43,3.76,5.65,3.76,9.08s-1.34,6.65-3.76,9.08c-2.42,2.43-5.65,3.76-9.08,3.76ZM32.75,561.06c-2.74,0-5.3,1.07-7.24,3h0c-1.93,1.93-3,4.5-3,7.24s1.06,5.3,3,7.23c1.93,1.94,4.5,3,7.24,3h0c2.74,0,5.31-1.07,7.24-3,1.93-1.93,3-4.5,3-7.24s-1.06-5.3-3-7.24c-1.93-1.93-4.5-3-7.24-3h0ZM24.59,563.13h0,0Z"/>
          </g>
          <g>
            <path class="cls-4" d="M335.65,688.41c4.5-4.51,11.82-4.51,16.32,0,4.5,4.51,4.5,11.81,0,16.32-4.5,4.51-11.82,4.51-16.32,0-4.5-4.5-4.5-11.81,0-16.32Z"/>
            <path class="cls-2" d="M348.18,700.93c3.86-3.85,4.39-9.73,1.65-14.18.76.46,1.49.99,2.15,1.65,4.5,4.51,4.5,11.81,0,16.32-4.5,4.51-11.82,4.51-16.32,0-.65-.65-1.19-1.38-1.66-2.14,4.45,2.73,10.33,2.2,14.18-1.65Z"/>
            <path class="cls-9" d="M343.81,709.41c-3.43,0-6.66-1.34-9.08-3.77-5-5-5-13.15,0-18.16h0c2.42-2.43,5.65-3.76,9.08-3.76h0c3.43,0,6.66,1.34,9.08,3.76,5,5.01,5,13.16,0,18.16-2.42,2.43-5.65,3.76-9.08,3.76ZM343.81,686.33c-2.74,0-5.3,1.06-7.24,3h0c-3.99,3.99-3.99,10.48,0,14.47,1.93,1.94,4.5,3,7.24,3s5.31-1.07,7.24-3c3.99-3.99,3.99-10.48,0-14.47-1.93-1.93-4.5-3-7.24-3h0ZM335.65,688.41h0,0Z"/>
          </g>
          <g>
            <path class="cls-4" d="M468.74,246.55c4.51-4.51,11.82-4.51,16.32,0,4.51,4.51,4.51,11.81,0,16.32-4.51,4.51-11.82,4.51-16.32,0-4.5-4.5-4.5-11.81,0-16.32Z"/>
            <path class="cls-2" d="M481.27,259.08c3.86-3.85,4.39-9.73,1.65-14.18.76.46,1.49.99,2.15,1.65,4.51,4.51,4.51,11.81,0,16.32-4.51,4.51-11.82,4.51-16.32,0-.65-.65-1.19-1.38-1.66-2.14,4.45,2.73,10.34,2.2,14.19-1.65Z"/>
            <path class="cls-9" d="M476.9,267.56c-3.43,0-6.66-1.34-9.09-3.77-5-5-5-13.15,0-18.16,2.42-2.43,5.65-3.77,9.08-3.77h0c3.43,0,6.66,1.34,9.08,3.77,2.43,2.43,3.76,5.65,3.76,9.08s-1.34,6.65-3.76,9.08c-2.42,2.43-5.65,3.76-9.08,3.76ZM476.9,244.47c-2.73,0-5.3,1.07-7.24,3h0c-3.99,3.99-3.99,10.48,0,14.47,1.93,1.93,4.5,3,7.24,3s5.31-1.07,7.24-3c1.93-1.93,3-4.5,3-7.24s-1.06-5.3-3-7.24c-1.93-1.93-4.5-3-7.24-3h0ZM468.74,246.55h0,0Z"/>
          </g>
          <g>
            <path class="cls-2" d="M631.83,501.25h.03v-.15h0c0-3.03-2.01-6.06-6.01-8.37l-289.21-166.98c-8-4.62-20.98-4.62-28.98,0l-206.79,116.96c-4,2.31-6,5.34-5.99,8.36h0v.21h.03c.1,2.96,2.07,5.91,5.97,8.16l289.22,166.97c8.01,4.63,20.98,4.63,28.97,0l206.8-116.96c3.94-2.27,5.91-5.23,5.97-8.21Z"/>
            <path class="cls-8" d="M415.16,628.54l-11.59,6.69h0s-.18.11-.18.11l-.02-.03c-2.61,1.4-6.15,1.16-10.05-1.09L104.11,467.24c-8.01-4.62-14.5-15.85-14.49-25.08V18.33c0-4.54,1.57-7.73,4.12-9.28v-.02s.11-.07.11-.07h0s11.51-6.65,11.51-6.65h0c2.63-1.55,6.28-1.36,10.32.97l289.22,166.98c8,4.62,14.49,15.85,14.49,25.08v423.82c0,4.6-1.61,7.82-4.2,9.34h0s-.04.04-.04.04h0Z"/>
            <path class="cls-5" d="M167.58,260.01c3.75,2.16,6.78.42,6.77-3.91v-127.37c0-4.32-3.03-9.57-6.78-11.73l-77.58-44.79c-.13-.08-.25-.11-.39-.18v142.91c.13.08.26.19.39.27l77.58,44.79Z"/>
            <polygon class="cls-5" points="391.36 195.27 118.38 37.67 118.39 441.27 391.36 598.88 391.36 195.27"/>
            <path class="cls-8" d="M315.34,177.93l-5.76,3.32h0l-.04.03h0c-1.05.57-2.48.48-4.06-.43l-125.14-72.25c-3.2-1.85-5.8-6.34-5.8-10.03v-21.55c0-1.88.67-3.18,1.75-3.77l5.7-3.29c1.05-.64,2.52-.57,4.15.37l125.14,72.25c3.2,1.85,5.79,6.34,5.79,10.04v21.55c0,1.87-.67,3.17-1.74,3.77h0Z"/>
            <path class="cls-5" d="M315.34,177.93l-5.76,3.32h0l-.04.03h0c-1.05.57-2.48.48-4.06-.43l-125.14-72.25c-3.2-1.85-5.8-6.34-5.8-10.03v-21.55c0-1.88.67-3.18,1.75-3.77l5.7-3.29c1.05-.64,2.52-.57,4.15.37l125.14,72.25c3.2,1.85,5.79,6.34,5.79,10.04v21.55c0,1.87-.67,3.17-1.74,3.77h0Z"/>
            <path class="cls-9" d="M308.07,182.94c-1.02,0-2.13-.32-3.24-.97l-125.14-72.25c-3.62-2.08-6.45-6.99-6.45-11.16v-21.55c0-2.28.88-4.06,2.43-4.91l5.68-3.28c1.48-.9,3.48-.77,5.45.37l125.14,72.25c3.62,2.09,6.45,6.99,6.45,11.16v21.55c0,2.19-.82,3.93-2.26,4.82-.04.03-.08.06-.13.09l-5.76,3.32s-.07.04-.11.06c-.63.34-1.32.5-2.06.5ZM183.56,70.85c-.34,0-.64.07-.89.23l-5.72,3.31c-.71.39-1.1,1.34-1.1,2.64v21.55c0,3.21,2.35,7.29,5.15,8.89l125.14,72.25c1.1.63,2.11.78,2.78.42.02-.01.04-.02.07-.04l5.58-3.22s.09-.06.14-.09c.68-.38,1.07-1.33,1.07-2.62v-21.55c0-3.22-2.36-7.29-5.14-8.9l-125.14-72.25c-.7-.4-1.37-.61-1.93-.61Z"/>
            <path class="cls-5" d="M407.81,625.86V202.05c0-9.23-6.49-20.47-14.49-25.09L104.1,9.98c-4-2.31-7.62-2.53-10.25-1.03h0l11.51-6.64h0c2.63-1.55,6.28-1.36,10.32.97l289.22,166.98c8,4.62,14.49,15.85,14.49,25.08v423.82c0,4.6-1.61,7.82-4.2,9.34h0s-.04.04-.04.04h0l-11.59,6.69h0c2.62-1.51,4.24-4.75,4.24-9.37Z"/>
            <path class="cls-9" d="M399.75,637.49c-2.21,0-4.63-.72-7.09-2.14L103.45,468.37c-8.36-4.82-15.15-16.58-15.15-26.21V18.33c0-4.73,1.6-8.35,4.53-10.25.08-.07.16-.13.25-.19l.04-.02s.05-.03.07-.04l11.51-6.64c.06-.04.12-.07.19-.09,3.14-1.76,7.2-1.39,11.45,1.06l289.22,166.98c8.35,4.83,15.14,16.59,15.14,26.21v423.82c0,4.85-1.67,8.54-4.72,10.39,0,0-.02.01-.03.02-.05.03-.1.06-.15.09h0s-11.54,6.66-11.54,6.66c-.02.01-.03.02-.05.03l-.18.1c-.11.06-.22.11-.34.14-1.21.59-2.54.88-3.95.88ZM94.6,10.03c-.06.05-.12.1-.19.14-2.26,1.37-3.5,4.26-3.5,8.16v423.82c0,8.8,6.21,19.55,13.85,23.95l289.21,166.99c3.35,1.93,6.47,2.31,8.79,1.07.07-.04.15-.07.22-.09l11.45-6.61s.07-.05.11-.07c2.29-1.34,3.55-4.26,3.56-8.21V195.35c0-8.8-6.21-19.54-13.84-23.95L115.04,4.42c-3.48-2.01-6.68-2.35-9-.97-.07.04-.13.07-.2.1l-11.24,6.48Z"/>
            <polygon class="cls-4" points="379.4 606.05 106.43 448.45 106.42 44.84 112.22 41.49 385.19 199.09 385.2 602.71 379.4 606.05"/>
            <path class="cls-2" d="M348.93,243.35c3.74,2.15,6.77,7.41,6.77,11.73v76.45c0,4.32-3.03,6.07-6.77,3.9l-132.41-76.44c-3.74-2.16-6.77-7.41-6.77-11.73v-76.45c0-4.32,3.03-6.06,6.78-3.9l132.41,76.45Z"/>
            <path class="cls-2" d="M166.52,261.32v-127.37c0-4.32-3.03-9.57-6.78-11.73l-53.32-30.78v143s53.33,30.79,53.33,30.79c3.75,2.16,6.78.42,6.77-3.91Z"/>
            <polygon class="cls-2" points="147.84 428.97 147.84 472.36 343.81 585.5 343.81 428.97 147.84 428.97"/>
            <polygon class="cls-2" points="385.2 602.71 385.19 199.09 112.22 41.49 106.42 44.84 379.4 202.44 379.4 606.05 385.2 602.71"/>
            <path class="cls-9" d="M379.4,607.35c-.23,0-.45-.06-.65-.17L105.77,449.58c-.4-.23-.65-.66-.65-1.13V44.84c0-.47.25-.9.65-1.13l5.8-3.35c.4-.23.9-.23,1.3,0l272.97,157.6c.4.23.65.66.65,1.13v403.61c0,.47-.24.9-.65,1.13l-5.8,3.34c-.2.12-.43.17-.65.17ZM107.73,447.7l271.67,156.85,4.49-2.59V199.85S112.22,43,112.22,43l-4.5,2.59v402.1Z"/>
            <path class="cls-8" d="M309.54,181.28l-5.76,3.32s0,0,0,0l-.04.03h0c-1.05.57-2.48.48-4.05-.43l-125.15-72.26c-3.2-1.85-5.79-6.34-5.79-10.02v-21.55c0-1.88.67-3.17,1.75-3.77l5.71-3.3c1.05-.63,2.52-.57,4.14.38l125.14,72.25c3.21,1.85,5.8,6.34,5.8,10.03v21.56c0,1.87-.67,3.17-1.74,3.76h0Z"/>
            <path class="cls-5" d="M311.28,155.96c0-3.69-2.59-8.18-5.8-10.03l-125.14-72.25c-1.62-.94-3.09-1.01-4.14-.38l-5.7,3.29c1.05-.57,2.47-.48,4.04.43l125.15,72.26c3.2,1.84,5.79,6.34,5.79,10.03v21.55c0,1.84-.65,3.13-1.69,3.74l5.75-3.31h0c1.07-.6,1.74-1.9,1.74-3.77v-21.56Z"/>
            <path class="cls-9" d="M302.26,186.29c-1.02,0-2.12-.32-3.23-.97l-125.15-72.25c-3.61-2.09-6.44-6.99-6.45-11.15v-21.55c0-2.27.88-4.06,2.42-4.91l5.68-3.28c1.5-.9,3.49-.76,5.45.38l125.14,72.25c3.62,2.09,6.45,6.99,6.45,11.16v21.56c0,2.21-.84,3.97-2.3,4.84-.03.02-.06.04-.09.05l-5.67,3.27c-.08.05-.16.1-.24.13,0,0,0,0,0,0-.62.32-1.29.48-2.01.48ZM177.76,74.19c-.34,0-.64.08-.89.23l-5.72,3.31c-.71.39-1.1,1.34-1.09,2.63v21.56c0,3.21,2.35,7.28,5.14,8.89l125.15,72.25c1.09.63,2.1.78,2.77.41.03-.02.06-.03.09-.05l5.6-3.23s.07-.05.11-.07c.68-.38,1.07-1.33,1.07-2.62v-21.56c0-3.21-2.36-7.29-5.15-8.9l-125.14-72.25c-.7-.41-1.36-.61-1.93-.61ZM309.54,181.28h0,0Z"/>
            <path class="cls-4" d="M272.6,151.24h0c-1.05.59-2.49.49-4.08-.42l-74.41-42.97c-3.21-1.85-5.8-6.34-5.8-10.03v-14.13c0-1.85.65-3.14,1.7-3.75h0l5.62-3.24.02.03c1.05-.72,2.57-.7,4.26.28l74.41,42.96c3.2,1.85,5.8,6.34,5.8,10.03v14.12c0,1.86-.66,3.16-1.72,3.76h0l-5.8,3.35Z"/>
            <path class="cls-2" d="M272.6,151.23s-.11.04-.16.06c1.15-.57,1.87-1.88,1.88-3.82v-14.12c0-3.69-2.6-8.18-5.8-10.03l-74.41-42.97c-1.6-.92-3.05-1.01-4.1-.41h0l5.62-3.24.02.03c1.05-.72,2.57-.7,4.26.28l74.41,42.96c3.2,1.85,5.8,6.34,5.8,10.03v14.12c0,1.86-.66,3.16-1.72,3.76h0l-5.8,3.35h0Z"/>
            <path class="cls-9" d="M271.11,152.91c-1.02,0-2.12-.32-3.24-.96l-74.41-42.97c-3.62-2.09-6.46-7-6.45-11.17v-14.12c0-2.24.86-4.02,2.36-4.88l5.61-3.24c.08-.05.16-.08.25-.11,1.5-.84,3.42-.69,5.33.42l74.41,42.96c3.62,2.09,6.45,6.99,6.45,11.17v14.12c0,2.25-.82,3.96-2.3,4.84-.02.02-.05.03-.07.04l-5.8,3.35s-.1.05-.14.07c-.61.32-1.29.48-2,.48ZM196.02,77.98l-5.35,3.09c-.67.38-1.05,1.33-1.05,2.61v14.13c0,3.21,2.35,7.29,5.14,8.9l74.41,42.97c1.1.63,2.12.78,2.78.41.03-.02.07-.04.1-.05l5.62-3.25s.05-.03.08-.05c.67-.38,1.06-1.34,1.06-2.63v-14.12c0-3.21-2.36-7.29-5.15-8.9l-74.41-42.96c-1.15-.67-2.2-.78-2.87-.33-.11.08-.24.13-.36.17Z"/>
          </g>
          <g>
            <g>
              <path class="cls-4" d="M322.84,259.01c3.74,2.15,6.77,7.41,6.77,11.73v76.45c0,4.32-3.03,6.07-6.77,3.9l-132.41-76.44c-3.74-2.16-6.77-7.41-6.77-11.73v-76.45c0-4.32,3.03-6.06,6.78-3.9l132.41,76.45Z"/>
              <path class="cls-9" d="M325.87,353.33c-1.16,0-2.41-.37-3.69-1.11l-132.4-76.44c-4.16-2.41-7.43-8.06-7.43-12.86v-76.46c0-2.57.93-4.53,2.63-5.51,1.7-.98,3.87-.81,6.11.48l132.41,76.45c4.17,2.4,7.43,8.05,7.42,12.86v76.45c0,2.57-.93,4.53-2.63,5.51-.73.42-1.54.63-2.41.63ZM187.39,182.94c-.42,0-.79.09-1.11.27-.85.49-1.33,1.67-1.33,3.25v76.46c0,3.83,2.81,8.68,6.13,10.6l132.4,76.44c1.37.79,2.64.97,3.49.48.85-.49,1.33-1.67,1.33-3.25v-76.45c0-3.83-2.8-8.68-6.12-10.6h0l-132.41-76.45c-.86-.5-1.68-.75-2.38-.75Z"/>
            </g>
            <path class="cls-2" d="M208.43,236.05l-9.95-5.74c-.9-.52-1.63-.1-1.64.93v30.02h.01c0,1.04.73,2.3,1.63,2.82l9.95,5.74c.89.52,1.62.1,1.62-.95h0v-30.01c0-1.03-.73-2.29-1.63-2.81ZM226.16,233.25l-9.95-5.75c-.89-.52-1.63-.1-1.63.94v43.05h0c0,1.04.73,2.29,1.63,2.81l9.95,5.75c.9.53,1.63.1,1.62-.94h0v-43.04c0-1.03-.73-2.3-1.62-2.81ZM243.88,269.55l-9.95-5.75c-.9-.52-1.63-.09-1.63.94v16.98h0c0,1.04.73,2.3,1.63,2.81l9.95,5.75c.9.52,1.62.1,1.62-.94h0v-16.98c0-1.04-.73-2.3-1.62-2.82ZM261.61,238.81l-9.95-5.75c-.9-.52-1.63-.1-1.62.93v57.95h0c0,1.04.72,2.3,1.62,2.81l9.95,5.75c.9.52,1.63.1,1.62-.94h0v-57.95c0-1.03-.72-2.29-1.62-2.81ZM279.34,276.98l-9.96-5.75c-.9-.51-1.63-.1-1.62.94v30.02h0c0,1.04.72,2.3,1.63,2.82l9.95,5.75c.89.52,1.63.09,1.62-.94h0v-30.01c0-1.04-.73-2.3-1.62-2.82ZM314.77,297.45l-9.95-5.75c-.9-.52-1.63-.09-1.63.94v30.01h0c0,1.04.73,2.29,1.63,2.81l9.95,5.75c.89.52,1.62.1,1.62-.94h0v-30.01c0-1.04-.73-2.29-1.63-2.82ZM297.06,274.18l-9.96-5.75c-.9-.52-1.63-.09-1.62.94v43.04h0c0,1.05.72,2.3,1.63,2.82l9.95,5.74c.9.52,1.63.1,1.62-.94h0v-43.05c0-1.03-.73-2.29-1.62-2.81Z"/>
            <path class="cls-11" d="M325.87,353.33c-1.16,0-2.41-.37-3.69-1.11l-132.4-76.44c-4.16-2.41-7.43-8.06-7.43-12.86v-76.46c0-2.57.93-4.53,2.63-5.51,1.7-.98,3.87-.81,6.11.48l132.41,76.45c4.17,2.4,7.43,8.05,7.42,12.86v76.45c0,2.57-.93,4.53-2.63,5.51-.73.42-1.54.63-2.41.63ZM187.39,182.94c-.42,0-.79.09-1.11.27-.85.49-1.33,1.67-1.33,3.25v76.46c0,3.83,2.81,8.68,6.13,10.6l132.4,76.44c1.37.79,2.64.97,3.49.48.85-.49,1.33-1.67,1.33-3.25v-76.45c0-3.83-2.8-8.68-6.12-10.6h0l-132.41-76.45c-.86-.5-1.68-.75-2.38-.75Z"/>
          </g>
          <g>
            <path class="cls-8" d="M338.29,435.07h0c-1.11.64-2.63.54-4.32-.43l-182.38-105.27c-3.37-1.94-6.1-6.68-6.1-10.56,0-1.94.69-3.31,1.79-3.95l3.69-2.13h0c1.11-.65,2.64-.57,4.35.42l182.38,105.27c3.37,1.95,6.1,6.67,6.1,10.55h0c0,1.99-.71,3.36-1.85,3.97v.02s-3.66,2.11-3.66,2.11Z"/>
            <path class="cls-5" d="M337.12,433.03c-.29.16-.97.15-1.98-.43l-182.38-105.27c-1.26-.73-2.53-2.08-3.46-3.7s-1.47-3.37-1.47-4.82c0-1.15.33-1.76.61-1.92.28-.16.97-.15,1.97.43l182.39,105.27c2.52,1.44,4.93,5.61,4.93,8.51,0,1.15-.34,1.75-.62,1.91Z"/>
            <path class="cls-5" d="M337.43,429.23l-180.6-104.25c-1.26-.73-2.52-2.07-3.46-3.69-.56-.97-.96-1.97-1.2-2.94l180.62,104.25c2,1.15,3.92,4.03,4.63,6.62Z"/>
            <path class="cls-9" d="M336.71,436.78c-1.06,0-2.22-.34-3.39-1.01l-182.39-105.27c-3.79-2.19-6.76-7.32-6.75-11.69,0-2.36.87-4.16,2.44-5.08l3.69-2.13s.08-.05.13-.07c1.56-.85,3.52-.68,5.53.48l182.38,105.27c3.79,2.19,6.75,7.32,6.75,11.68,0,2.28-.85,4.09-2.34,5.01-.05.04-.1.08-.16.11l-3.66,2.11c-.67.39-1.43.58-2.23.58ZM151.51,313.93l-3.58,2.06c-.72.42-1.13,1.45-1.13,2.82,0,3.41,2.49,7.72,5.45,9.43l182.39,105.27c1.2.69,2.29.85,3.01.43,0,0,0,0,0,0l3.5-2.02c.06-.05.12-.09.19-.12.75-.4,1.17-1.43,1.17-2.82,0-3.41-2.5-7.72-5.45-9.43l-182.38-105.27c-1.2-.69-2.31-.85-3.04-.42-.04.02-.08.05-.13.07Z"/>
            <path class="cls-4" d="M89.61,542.28c0-15.32,10.8-34.01,24.07-41.67l22.67,13.08v-149.49c0-14.61,9.84-32.28,22.27-40.53l173.73,100.3c-12.28,7.38-22.2,24.7-22.2,38.93v151.09c0,15.31-10.8,34-24.08,41.67-6.59,3.81-12.58,4.18-16.93,1.73h0l-.08-.04s0,0,0,0l-172.3-99.46h0c-4.41-2.5-7.15-7.89-7.14-15.59Z"/>
            <path class="cls-2" d="M158.62,323.67l173.73,100.3c-1.37.83-2.71,1.79-4.02,2.85l-173.56-100.21c1.25-1.07,2.53-2.07,3.85-2.95Z"/>
            <path class="cls-2" d="M286.07,655.66c-6.59,3.81-12.58,4.18-16.93,1.73h0l-.08-.04s0,0,0,0l-172.3-99.46h0c-4.41-2.5-7.15-7.89-7.14-15.59,0-15.32,10.8-34.01,24.07-41.67l22.67,13.08v-10.57l173.8,100.35v10.53c0,15.31-10.8,34-24.08,41.67Z"/>
            <path class="cls-9" d="M275.33,660.26c-2.45,0-4.73-.56-6.77-1.69-.02,0-.04-.02-.06-.03-.04-.02-.08-.04-.11-.07l-172.29-99.46s-.09-.05-.13-.08c-4.95-2.87-7.67-8.78-7.67-16.64,0-15.72,11.09-34.93,24.73-42.8.4-.23.9-.23,1.3,0l20.71,11.95v-147.23c0-14.83,10.03-33.11,22.85-41.61.41-.27.94-.29,1.37-.04l173.73,100.3c.4.23.65.66.65,1.12,0,.46-.24.89-.63,1.13-11.89,7.15-21.57,24.11-21.57,37.81v151.09c0,15.73-11.1,34.93-24.73,42.8-3.98,2.3-7.86,3.47-11.39,3.47ZM267.75,657.35c0,.39.18.76.48,1.01h0c-.29-.27-.49-.64-.49-1.01ZM269.76,656.25s0,0,.01,0c4.13,2.33,9.68,1.72,15.63-1.72,12.91-7.45,23.42-25.64,23.43-40.54v-151.09c0-14.05,9.08-30.67,21-38.87l-171.17-98.82c-11.84,8.25-21.03,25.2-21.02,38.99v149.49c0,.47-.25.9-.65,1.13-.4.23-.9.23-1.3,0l-22-12.7c-12.62,7.68-22.78,25.51-22.78,40.16h0c0,6.96,2.3,12.09,6.48,14.45.05.03.1.06.14.09l172.16,99.39s.04.03.07.04Z"/>
            <path class="cls-4" d="M261.99,641.8c0,7.65,2.7,13.04,7.06,15.54l-172.3-99.46h0c-4.41-2.5-7.15-7.89-7.14-15.59,0-15.32,10.8-34.01,24.07-41.67l172.39,99.53c-13.27,7.66-24.08,26.35-24.08,41.66Z"/>
            <path class="cls-2" d="M269.05,657.33l-172.3-99.46h0c-4.41-2.5-7.15-7.89-7.14-15.59,0-1.13.07-2.28.18-3.43l172.39,99.52c-.11,1.15-.19,2.3-.19,3.43,0,7.65,2.7,13.04,7.06,15.54Z"/>
            <path class="cls-9" d="M269.05,658.64c-.22,0-.44-.06-.65-.17-.02-.01-.04-.02-.06-.04l-172.24-99.43s-.09-.05-.13-.08c-4.95-2.87-7.67-8.78-7.67-16.64,0-15.72,11.09-34.93,24.73-42.8.4-.23.9-.23,1.3,0l172.39,99.53c.4.23.65.66.65,1.13s-.25.9-.65,1.13c-12.92,7.46-23.43,25.64-23.43,40.53,0,6.89,2.26,12,6.35,14.38l.05.03c.62.36.84,1.16.48,1.78-.24.42-.68.65-1.13.65ZM97.53,556.82l165.22,95.38c-1.36-2.86-2.07-6.37-2.07-10.4,0-14.99,10.09-33.14,22.85-41.62l-169.84-98.06c-12.62,7.68-22.78,25.51-22.78,40.16,0,6.96,2.3,12.09,6.48,14.45.05.03.1.06.14.09Z"/>
            <path class="cls-2" d="M155.81,386.4c.28-.1.62-.08,1,.14l15.23,8.79c.42.24.8.67,1.09,1.14l-2.88,1.66-11.5-6.64-2.94-5.09ZM170.31,403.46v8.29l-11.77-6.8v-8.47s-3.32-5.75-3.32-5.75v14.29c0,1.02.71,2.25,1.59,2.76l15.23,8.79c.88.51,1.59.1,1.59-.92v-14.11l-3.32,1.92ZM155.81,419.6c.28-.1.62-.08,1,.14l15.23,8.79c.42.24.8.66,1.09,1.14l-2.88,1.66-11.5-6.64-2.94-5.09ZM170.31,436.65v8.29l-11.78-6.8v-8.47s-3.32-5.75-3.32-5.75v14.29c0,1.02.71,2.26,1.59,2.76l15.23,8.79c.88.51,1.59.09,1.59-.92v-14.12l-3.32,1.91ZM155.81,452.8c.28-.1.61-.08,1,.14l15.23,8.79c.42.24.8.66,1.09,1.14l-2.88,1.66-11.5-6.64-2.94-5.09ZM170.31,469.85v8.29s-11.78-6.8-11.78-6.8v-8.47s-3.32-5.75-3.32-5.75v14.29c0,1.02.71,2.25,1.59,2.76l15.23,8.79c.88.51,1.59.1,1.59-.92v-14.12l-3.32,1.91ZM172.04,494.92l-15.23-8.79c-.88-.51-1.59-.1-1.59.92v17.57c0,1.02.71,2.25,1.59,2.75l15.23,8.8c.88.5,1.59.1,1.59-.92v-17.57c0-1.01-.71-2.25-1.59-2.76ZM170.31,511.34l-11.77-6.8v-13.58s11.77,6.8,11.77,6.8v13.58Z"/>
            <path class="cls-2" d="M289.1,469.86c0,1.02-.72,1.42-1.6.92l-99.96-57.71c-.88-.51-1.6-1.75-1.6-2.76h0c0-1.01.71-1.43,1.6-.92l99.96,57.72c.88.51,1.6,1.74,1.6,2.76h0ZM277.58,470.57c0-1.01-.71-2.25-1.59-2.76l-88.45-51.06c-.88-.51-1.6-.1-1.6.91h0c0,1.02.71,2.25,1.6,2.76l88.45,51.06c.88.5,1.59.1,1.59-.92h0ZM289.1,503.06c0,1.01-.72,1.42-1.6.92l-99.96-57.72c-.88-.51-1.6-1.74-1.6-2.76h0c0-1.01.71-1.43,1.6-.92l99.96,57.72c.88.5,1.6,1.74,1.6,2.76h0ZM277.58,503.76c0-1.01-.71-2.25-1.59-2.76l-88.45-51.06c-.88-.51-1.6-.1-1.6.91h0c0,1.02.71,2.25,1.6,2.76l88.45,51.07c.88.51,1.59.1,1.59-.92h0ZM289.1,536.26c0,1.02-.72,1.43-1.6.92l-99.96-57.71c-.88-.51-1.6-1.74-1.6-2.76h0c0-1.02.71-1.43,1.6-.92l99.96,57.72c.88.51,1.6,1.74,1.6,2.76h0ZM277.58,536.96c0-1.01-.72-2.25-1.59-2.75l-88.45-51.07c-.88-.51-1.6-.1-1.6.91h0c0,1.02.71,2.25,1.6,2.76l88.45,51.07c.88.5,1.59.09,1.59-.92h0ZM289.1,569.45c0,1.02-.72,1.43-1.6.92l-99.96-57.72c-.88-.51-1.6-1.74-1.6-2.76h0c0-1.01.71-1.42,1.6-.91l99.96,57.71c.88.51,1.6,1.74,1.6,2.75h0ZM277.58,570.16c0-1.02-.71-2.25-1.59-2.76l-88.45-51.07c-.88-.51-1.6-.1-1.6.91h0c0,1.01.71,2.25,1.6,2.76l88.45,51.06c.88.51,1.59.1,1.59-.92h0Z"/>
            <path class="cls-8" d="M164.5,406.8l-11.68-20.21,2.32-1.34,9.35,16.18,11.96-6.89,2.32,4.02-14.28,8.23ZM178.78,431.77l-2.32-4.02-11.96,6.88-9.35-16.18-2.33,1.34,11.68,20.21,14.28-8.23ZM178.78,464.97l-2.32-4.02-11.96,6.88-9.35-16.18-2.32,1.33,11.68,20.2,14.28-8.23Z"/>
          </g>
          <g>
            <path class="cls-2" d="M104.06,663.61c-2.42,1.4-6.36,1.4-8.79,0l-21.17-12.23c-2.43-1.4-2.43-3.67,0-5.08l54.88-31.68c2.43-1.4,6.36-1.4,8.8,0l21.17,12.22c2.43,1.4,2.43,3.67,0,5.08l-54.88,31.68ZM206.51,647.54c2.43-1.4,2.43-3.67,0-5.07l-21.18-12.22c-2.43-1.41-6.36-1.41-8.79,0l-65.14,37.61c-2.43,1.4-2.42,3.67,0,5.08l21.17,12.22c2.43,1.41,6.37,1.41,8.79,0l65.14-37.61ZM218.89,683.47c2.42-1.4,2.42-3.67-.01-5.08l-21.17-12.22c-2.43-1.4-6.36-1.4-8.79,0l-40.21,23.21c-2.43,1.4-2.43,3.67,0,5.08l21.17,12.22c2.43,1.4,6.37,1.4,8.79,0l40.21-23.21Z"/>
            <g>
              <path class="cls-4" d="M103.2,628.66h0c0-.92-.61-1.84-1.83-2.54l-21.17-12.23c-2.43-1.4-6.37-1.4-8.79,0l-21.15,12.21c-1.22.71-1.82,1.64-1.81,2.56h0v33.84h0c0,.93.61,1.84,1.82,2.55l21.17,12.23c2.43,1.4,6.37,1.4,8.79,0l21.15-12.21c1.22-.7,1.82-1.62,1.82-2.55h0v-33.85Z"/>
              <path class="cls-2" d="M103.18,628.51c.07.97-.52,1.95-1.8,2.68l-21.15,12.21c-1.22.7-2.81,1.05-4.41,1.05v33.85c1.6,0,3.19-.34,4.41-1.04l21.15-12.21c1.22-.7,1.82-1.62,1.82-2.55h0v-33.85c0-.05-.02-.1-.02-.15Z"/>
              <g class="cls-12">
                <path class="cls-2" d="M71.44,643.4l-21.17-12.23c-1.21-.7-1.81-1.61-1.82-2.52h0v33.84h0c0,.93.61,1.84,1.82,2.55l21.17,12.23c1.21.69,2.79,1.04,4.38,1.04v-33.85c-1.59,0-3.17-.36-4.38-1.05Z"/>
              </g>
              <path class="cls-9" d="M75.84,679.62c-1.82,0-3.63-.41-5.05-1.23l-21.17-12.23c-1.59-.92-2.47-2.22-2.47-3.66v-33.85c-.02-1.42.88-2.77,2.47-3.69l21.15-12.21c2.83-1.63,7.26-1.63,10.09,0l21.17,12.23c1.58.91,2.48,2.25,2.48,3.67v33.85c0,1.43-.9,2.77-2.47,3.68l-21.15,12.21c-1.41.82-3.23,1.23-5.05,1.23ZM75.81,614.14c-1.36,0-2.73.29-3.74.88l-21.15,12.21c-.73.42-1.17.95-1.16,1.41v33.85c0,.48.43.99,1.17,1.42l21.17,12.23c2.03,1.17,5.46,1.17,7.49,0l21.15-12.21c.74-.43,1.17-.94,1.17-1.42v-33.85c0-.46-.44-.99-1.18-1.41l-21.17-12.23c-1.02-.58-2.38-.88-3.75-.88Z"/>
            </g>
            <g>
              <path class="cls-8" d="M140.51,626.49h0c0-.92-.61-1.83-1.83-2.54l-21.17-12.23c-2.43-1.4-6.37-1.41-8.79,0l-21.15,12.21c-1.22.7-1.82,1.63-1.82,2.55h0v57.54h0v.02h0c0,.92.61,1.83,1.83,2.53l21.17,12.22c2.43,1.41,6.37,1.41,8.79,0l21.15-12.22c1.21-.7,1.82-1.62,1.81-2.55h0v-57.56Z"/>
              <path class="cls-5" d="M140.48,626.34c.07.97-.52,1.95-1.79,2.69l-21.15,12.21c-1.21.7-2.81,1.05-4.4,1.05v57.56c1.59,0,3.19-.34,4.4-1.04l21.15-12.22c1.21-.7,1.82-1.62,1.81-2.55h0v-57.56s-.02-.09-.03-.15Z"/>
              <path class="cls-6" d="M108.74,641.24l-21.17-12.23c-1.21-.7-1.81-1.61-1.83-2.52h0v57.54h0v.02c0,.92.61,1.83,1.83,2.53l21.17,12.22c1.21.7,2.8,1.05,4.39,1.05v-57.56c-1.59,0-3.17-.36-4.39-1.05Z"/>
              <path class="cls-9" d="M113.15,701.16c-1.82,0-3.64-.41-5.06-1.23l-21.17-12.22c-1.59-.92-2.47-2.21-2.48-3.65v-57.57c0-1.43.89-2.77,2.47-3.68l21.15-12.21c2.82-1.63,7.25-1.63,10.09,0l21.18,12.23c1.58.91,2.48,2.25,2.48,3.67v57.56c0,.05,0,.1,0,.15-.06,1.37-.95,2.65-2.46,3.52l-21.16,12.22c-1.41.82-3.23,1.22-5.04,1.22ZM113.1,611.98c-1.36,0-2.72.29-3.73.88l-21.16,12.21c-.74.43-1.17.94-1.16,1.42v57.55c0,.47.43.99,1.17,1.42l21.17,12.22c2.03,1.17,5.46,1.18,7.49,0l21.15-12.22c.73-.42,1.17-.95,1.16-1.41,0-.04,0-.09,0-.13v-57.43c0-.46-.44-.98-1.17-1.41l-21.17-12.23c-1.02-.59-2.39-.88-3.75-.88Z"/>
            </g>
            <g>
              <path class="cls-4" d="M177.81,678.5h0c0-.92-.61-1.84-1.82-2.54l-21.18-12.23c-2.43-1.4-6.37-1.4-8.79,0l-21.15,12.21c-1.22.71-1.83,1.64-1.82,2.56h0v27.07h0v.02h0c0,.91.61,1.83,1.82,2.52l21.18,12.23c2.43,1.4,6.36,1.4,8.79,0l21.15-12.21c1.22-.71,1.83-1.63,1.82-2.55h0v-27.08Z"/>
              <path class="cls-2" d="M177.78,678.35c.07.97-.51,1.94-1.79,2.68l-21.15,12.22c-1.22.7-2.81,1.04-4.41,1.04v27.09c1.59,0,3.19-.34,4.41-1.05l21.15-12.21c1.22-.71,1.83-1.63,1.82-2.55h0v-27.08s-.02-.09-.03-.15Z"/>
              <g class="cls-12">
                <path class="cls-2" d="M146.05,693.25l-21.18-12.22c-1.21-.7-1.81-1.61-1.82-2.52h0v27.07h0v.02c0,.91.61,1.83,1.82,2.52l21.18,12.23c1.21.7,2.8,1.05,4.38,1.05v-27.09c-1.58,0-3.17-.35-4.38-1.05Z"/>
              </g>
              <path class="cls-9" d="M150.44,722.69c-1.82,0-3.63-.41-5.05-1.22l-21.18-12.23c-1.56-.89-2.47-2.22-2.48-3.65v-27.09s0-.09,0-.13c.04-1.4.91-2.66,2.46-3.56l21.15-12.21c2.82-1.63,7.26-1.63,10.09,0l21.18,12.23c1.6.92,2.48,2.22,2.48,3.67v27.08c0,1.42-.89,2.76-2.47,3.67l-21.15,12.21c-1.42.82-3.23,1.22-5.05,1.22ZM124.35,678.61v26.96c0,.47.44.99,1.17,1.41l21.18,12.23c2.03,1.17,5.46,1.17,7.49,0l21.15-12.21c.73-.43,1.17-.95,1.17-1.41v-27.09c0-.46-.43-.98-1.17-1.4l-21.18-12.23c-2.03-1.17-5.46-1.17-7.49,0l-21.15,12.21c-.74.43-1.17.95-1.16,1.42,0,.04,0,.08,0,.13Z"/>
            </g>
          </g>
          <g>
            <g>
              <path class="cls-4" d="M49.3,224.36c0,4.32,3.03,9.58,6.78,11.74l77.58,44.79c3.75,2.16,6.78.42,6.77-3.91v-127.37c.01-4.32-3.03-9.56-6.78-11.73l-77.58-44.79c-3.75-2.17-6.78-.42-6.78,3.9v127.37Z"/>
              <path class="cls-9" d="M136.69,283.13c-1.16,0-2.41-.37-3.69-1.11l-77.58-44.79c-4.17-2.4-7.44-8.05-7.44-12.87v-127.37c0-2.57.94-4.53,2.63-5.51,1.7-.98,3.87-.81,6.1.48l77.57,44.79c4.18,2.41,7.45,8.06,7.44,12.86v127.37c0,2.57-.94,4.53-2.63,5.51-.73.42-1.54.63-2.41.63ZM53.04,93.47c-.42,0-.79.09-1.11.27-.84.49-1.33,1.67-1.33,3.25v127.37c0,3.84,2.81,8.69,6.13,10.61l77.58,44.79c1.37.79,2.64.96,3.49.48.84-.49,1.33-1.67,1.32-3.25v-127.37c0-3.82-2.8-8.68-6.13-10.6l-77.58-44.79c-.86-.5-1.68-.75-2.38-.75Z"/>
            </g>
            <path class="cls-8" d="M127.22,245.06c.01,1.05-.72,1.47-1.62.95l-61.48-35.5c-.9-.52-1.63-1.77-1.63-2.82h0c0-1.03.73-1.45,1.63-.93l61.48,35.48c.9.51,1.63,1.78,1.62,2.81h0ZM115.93,253.55c0,1.05-.72,1.46-1.63.94l-50.18-28.96c-.9-.53-1.63-1.78-1.62-2.82h0c0-1.03.72-1.46,1.63-.93l50.17,28.96c.9.52,1.63,1.78,1.63,2.81h0ZM104.63,239.52c0-1.04-.73-2.29-1.62-2.81l-38.88-22.45c-.89-.52-1.62-.09-1.63.93h0c0,1.04.73,2.3,1.63,2.82l38.88,22.46c.9.52,1.62.09,1.62-.95h0ZM127.23,218.81c0,1.03-.72,1.46-1.62.94l-61.48-35.5c-.9-.51-1.63-1.77-1.63-2.81h0c0-1.03.73-1.45,1.63-.93l61.48,35.5c.89.51,1.63,1.78,1.62,2.81h0ZM115.93,227.29c-.01,1.03-.73,1.45-1.63.95l-50.18-28.98c-.9-.51-1.62-1.77-1.62-2.81h0c0-1.04.71-1.47,1.62-.94l50.18,28.97c.89.51,1.62,1.77,1.63,2.81h0ZM104.63,213.25c.01-1.02-.72-2.28-1.62-2.8l-38.88-22.46c-.9-.51-1.63-.1-1.63.94h0c0,1.03.72,2.29,1.63,2.82l38.87,22.44c.91.52,1.63.1,1.63-.94h0ZM94.87,135.42c-11.39-6.58-20.63-1.26-20.63,11.88s9.23,29.14,20.62,35.71c11.4,6.59,20.64,1.26,20.63-11.88l-20.63-11.91v-23.8Z"/>
            <path class="cls-2" d="M99.38,132.81v23.8s20.63,11.91,20.63,11.91c0-13.14-9.23-29.13-20.63-35.71Z"/>
          </g>
          <g>
            <polygon class="cls-1" points="31.61 459.34 7.7 463.02 1.31 476.84 18.82 486.96 42.74 483.26 49.14 469.46 31.61 459.34"/>
            <polygon class="cls-4" points="1.31 476.84 1.31 497.45 18.82 507.57 42.75 503.87 49.14 490.06 49.14 469.46 42.74 483.26 18.82 486.96 1.31 476.84"/>
            <g class="cls-12">
              <polygon class="cls-2" points="42.75 503.87 42.74 483.26 18.82 486.96 18.82 507.57 42.75 503.87"/>
            </g>
            <polygon class="cls-2" points="49.14 490.06 49.14 469.46 42.74 483.26 42.75 503.87 49.14 490.06"/>
            <path class="cls-9" d="M18.82,508.87c-.23,0-.45-.06-.65-.17l-17.52-10.12c-.4-.23-.65-.66-.65-1.13v-20.61c0-.47.25-.9.65-1.13.4-.23.9-.23,1.3,0l17.12,9.89,22.78-3.52,6.1-13.17c.26-.55.86-.86,1.46-.73.6.13,1.02.66,1.02,1.27v20.61c0,.19-.04.38-.12.55l-6.39,13.81c-.18.4-.55.67-.98.74l-23.92,3.7c-.07.01-.13.02-.2.02ZM2.61,496.7l16.47,9.51,22.78-3.52,5.98-12.91v-14.4s-3.91,8.44-3.91,8.44c-.18.4-.55.67-.98.74l-23.92,3.7c-.29.05-.59,0-.85-.16l-15.56-8.99v17.6Z"/>
            <polygon class="cls-1" points="31.61 459.34 7.7 463.02 1.31 476.84 18.82 486.96 42.74 483.26 49.14 469.46 31.61 459.34"/>
            <polygon class="cls-8" points="1.31 333.57 1.31 476.84 18.82 486.96 42.74 483.26 49.14 469.46 49.14 326.18 42.75 339.99 18.83 343.68 1.31 333.57"/>
            <polygon class="cls-6" points="42.75 339.99 42.74 483.26 18.82 486.96 18.83 343.68 42.75 339.99"/>
            <polygon class="cls-5" points="49.14 326.18 49.14 469.46 42.74 483.26 42.75 339.99 49.14 326.18"/>
            <path class="cls-9" d="M18.82,488.26c-.23,0-.45-.06-.65-.17l-17.51-10.12c-.4-.23-.65-.66-.65-1.13v-143.27c0-.47.25-.9.65-1.13.4-.23.9-.23,1.3,0l17.13,9.88,22.77-3.52,6.09-13.18c.26-.56.87-.86,1.46-.73.6.13,1.02.66,1.02,1.27v143.28c0,.19-.04.38-.12.55l-6.4,13.8c-.18.4-.55.67-.98.74l-23.92,3.7c-.07.01-.13.02-.2.02ZM2.61,476.09l16.46,9.51,22.78-3.52,5.98-12.91v-137.07s-3.9,8.43-3.9,8.43c-.18.4-.55.67-.99.74l-23.92,3.69c-.29.05-.59,0-.85-.16l-15.57-8.98v140.26Z"/>
            <polygon class="cls-1" points="27.25 291.83 19.71 292.99 17.69 297.35 23.21 300.53 30.74 299.36 32.75 295.02 27.25 291.83"/>
            <polygon class="cls-4" points="17.69 297.35 1.31 333.57 18.83 343.68 42.75 339.99 49.14 326.18 32.75 295.02 30.74 299.36 23.21 300.53 17.69 297.35"/>
            <g class="cls-12">
              <polygon class="cls-2" points="30.74 299.36 42.75 339.99 18.83 343.68 23.21 300.53 30.74 299.36"/>
            </g>
            <polygon class="cls-2" points="32.75 295.02 49.14 326.18 42.75 339.99 30.74 299.36 32.75 295.02"/>
            <path class="cls-9" d="M18.83,344.98c-.23,0-.45-.06-.65-.17l-17.52-10.11c-.58-.33-.81-1.06-.54-1.67l16.39-36.22c.15-.33.44-.59.79-.7.35-.11.73-.07,1.05.11l5.12,2.95,6.39-.99,1.71-3.71c.21-.45.65-.74,1.15-.76.53-.01.96.26,1.19.7l16.39,31.16c.19.36.2.79.03,1.16l-6.39,13.81c-.18.4-.55.67-.99.74l-23.92,3.69c-.07.01-.13.02-.2.02ZM2.98,333.03l16.1,9.29,22.77-3.52,5.82-12.59-14.86-28.25-.9,1.95c-.18.4-.55.68-.99.74l-7.54,1.16c-.29.05-.59-.01-.85-.16l-4.27-2.46-15.31,33.83Z"/>
            <polygon class="cls-8" points="22.7 281.2 23.37 279.74 25.9 279.36 27.75 280.43 32.75 295.02 30.74 299.36 23.21 300.53 17.69 297.35 22.7 281.2"/>
            <polygon class="cls-6" points="27.07 281.87 24.55 282.27 23.21 300.53 30.74 299.36 27.07 281.87"/>
            <polygon class="cls-5" points="27.75 280.43 27.07 281.87 30.74 299.36 32.75 295.02 27.75 280.43"/>
            <path class="cls-9" d="M23.21,301.83c-.23,0-.45-.06-.65-.17l-5.52-3.18c-.53-.3-.78-.93-.59-1.52l5.01-16.15c.02-.05.04-.11.06-.16l.67-1.46c.18-.4.55-.68.99-.74l2.53-.39c.29-.04.59.01.85.16l1.85,1.07c.27.16.48.41.58.71l5,14.59c.11.32.09.67-.05.97l-2.01,4.35c-.18.4-.55.68-.99.74l-7.54,1.16c-.07.01-.13.02-.2.02ZM19.25,296.74l4.22,2.43,6.39-.99,1.49-3.24-4.67-13.63-1.03-.6-1.38.21-.34.74-4.67,15.07Z"/>
          </g>
          <g>
            <path class="cls-4" d="M522.93,381v-56.66c-13.55-7.82-25.81-8.58-34.7-3.49l-11.33,6.54c-8.9,5.12-14.4,16.1-14.4,31.75,0,31.3,21.99,69.36,49.12,85.02,13.55,7.82,25.81,8.58,34.7,3.48h0l.04-.02s0,0,0,0l11.3-6.52c8.89-5.13,14.39-16.11,14.39-31.75l-49.13-28.36Z"/>
            <path class="cls-2" d="M522.93,381v-56.66c-13.55-7.82-25.81-8.58-34.7-3.49h0l-11.34,6.55c8.89-5.12,21.17-4.37,34.74,3.46v56.66l49.13,28.36c0,15.67-5.53,26.67-14.44,31.78h0s11.34-6.54,11.34-6.54c8.89-5.13,14.39-16.11,14.39-31.75l-49.13-28.36Z"/>
            <path class="cls-9" d="M533.61,452.22c-6.96,0-14.67-2.32-22.63-6.92-27.45-15.85-49.78-54.5-49.78-86.15,0-15.62,5.35-27.3,15.05-32.89l11.33-6.54c9.7-5.56,22.48-4.32,36,3.49.4.23.65.66.65,1.13v55.91s48.47,27.98,48.47,27.98c.4.23.65.66.65,1.13,0,15.61-5.34,27.29-15.04,32.88l-11.22,6.48c-.05.04-.11.07-.17.1h0c-3.97,2.27-8.46,3.4-13.32,3.4ZM500.98,318.91c-4.43,0-8.51,1.02-12.09,3.08l-11.32,6.54c-8.87,5.1-13.75,15.98-13.75,30.62,0,30.83,21.74,68.46,48.47,83.89,12.67,7.32,24.54,8.56,33.39,3.48,0,0,0,0,0,0,.01,0,.02-.01.03-.02l11.3-6.52c8.71-5.02,13.57-15.62,13.74-29.87l-48.47-27.98c-.4-.23-.65-.66-.65-1.13v-55.9c-7.31-4.11-14.33-6.19-20.65-6.19Z"/>
            <polygon class="cls-7" points="511.63 330.86 522.94 324.34 522.93 381 511.63 387.52 511.63 330.86"/>
            <polygon class="cls-3" points="572.06 409.35 560.77 415.87 511.63 387.52 522.93 381 572.06 409.35"/>
            <path class="cls-8" d="M531.97,319.13l-11.3,6.52v56.65l49.13,28.36,11.3-6.52c0-31.29-22-69.35-49.13-85.02Z"/>
            <path class="cls-5" d="M531.97,319.13l-11.3,6.52c27.14,15.67,49.12,53.73,49.13,85.02l11.3-6.52c0-31.29-22-69.35-49.13-85.02Z"/>
            <path class="cls-9" d="M569.8,411.97c-.23,0-.45-.06-.65-.17l-49.13-28.36c-.4-.23-.65-.66-.65-1.13v-56.65c0-.47.25-.9.65-1.13l11.3-6.52c.4-.23.9-.23,1.3,0,27.44,15.85,49.78,54.49,49.78,86.15,0,.47-.25.9-.65,1.13l-11.3,6.52c-.2.12-.43.17-.65.17ZM521.97,381.55l47.82,27.61,9.99-5.76c-.35-30.43-21.61-67.22-47.82-82.76l-9.99,5.76v55.15Z"/>
          </g>
          <g>
            <path class="cls-2" d="M447.6,686.82l115.55-67.8c20.35-11.76,53.37-11.74,73.74.03,20.37,11.76,20.39,30.82.04,42.57-.02.01-.05.02-.07.04h0l-115.47,67.76c-20.35,11.74-53.36,11.73-73.73-.03-20.37-11.77-20.4-30.82-.06-42.57Z"/>
            <path class="cls-8" d="M432.36,691.57h0c-.02-7.66,5.04-15.33,15.15-21.17,20.21-11.66,53.01-11.66,73.26.05,10.11,5.82,15.18,13.47,15.19,21.12h0v16.71h0c.02,7.67-5.03,15.34-15.17,21.18-20.21,11.68-53.01,11.68-73.26-.03-10.12-5.85-15.18-13.5-15.18-21.16v-16.7Z"/>
            <path class="cls-5" d="M447.54,712.7c20.25,11.71,53.05,11.71,73.26.03,10.13-5.83,15.18-13.5,15.17-21.15h0v16.71h0c.02,7.67-5.03,15.34-15.17,21.18-20.21,11.68-53.01,11.68-73.26-.03-10.12-5.85-15.18-13.5-15.18-21.16v-16.7h0c0,7.64,5.07,15.29,15.18,21.13Z"/>
            <path class="cls-9" d="M484.21,739.49c-13.51,0-27.03-2.98-37.32-8.93-10.21-5.9-15.83-13.81-15.83-22.29v-16.7c-.02-8.49,5.59-16.41,15.8-22.31,20.56-11.86,54.01-11.83,74.57.05,10.2,5.88,15.83,13.78,15.84,22.25v16.71c.02,8.5-5.6,16.42-15.82,22.31-10.26,5.93-23.75,8.9-37.24,8.9ZM484.08,662.96c-13.01,0-26.01,2.85-35.92,8.57-9.36,5.41-14.51,12.53-14.5,20.04h0v16.7c0,7.51,5.16,14.63,14.52,20.04,19.85,11.48,52.13,11.49,71.95.03,9.38-5.41,14.54-12.53,14.51-20.05v-16.71c-.02-7.5-5.18-14.6-14.54-19.99-9.93-5.75-22.99-8.62-36.04-8.62Z"/>
            <path class="cls-8" d="M462.98,656.9c6.37-2.52,13.78-3.75,21.18-3.75,7.4,0,14.81,1.23,21.18,3.75,21.77,8.07,35.19,27.67,20.07,45.49-2.19,2.79-5.22,5.4-9.19,7.69-8.85,5.12-20.46,7.67-32.07,7.66-11.61.01-23.22-2.55-32.07-7.66-3.97-2.29-7-4.9-9.19-7.69-15.12-17.82-1.69-37.42,20.07-45.49Z"/>
            <path class="cls-5" d="M505.35,656.9c21.77,8.07,35.19,27.67,20.07,45.49-2.19,2.79-5.22,5.4-9.19,7.69-8.85,5.12-20.46,7.67-32.07,7.66-11.61.01-23.22-2.55-32.07-7.66-.17-.1-.31-.2-.48-.3,13.21,7.96,51.17,6.73,35.04-19.12-7.27-11.66-11.83-25.72-12.28-36.73,3.21-.49,6.49-.78,9.79-.78,7.4,0,14.81,1.23,21.18,3.75Z"/>
            <path class="cls-9" d="M484.24,719.05h-.15c-12.31,0-23.9-2.78-32.65-7.84-3.97-2.29-7.18-4.98-9.56-8.01-5.92-6.97-8-14.77-5.97-22.51,2.75-10.49,12.69-19.84,26.61-25,6.33-2.5,13.82-3.83,21.65-3.84,7.84,0,15.33,1.33,21.66,3.84,13.89,5.15,23.85,14.5,26.59,25,2.03,7.74-.05,15.54-6,22.55-2.35,2.99-5.56,5.69-9.53,7.98-8.75,5.06-20.34,7.84-32.64,7.84ZM484.17,716.44h.07c11.86,0,22.99-2.66,31.34-7.49,3.68-2.12,6.64-4.6,8.82-7.36,5.41-6.38,7.3-13.36,5.5-20.24-2.49-9.53-12.07-18.42-25-23.22-6.06-2.4-13.22-3.66-20.73-3.67-7.51,0-14.67,1.27-20.7,3.66,0,0-.02,0-.03.01-12.93,4.79-22.51,13.69-25,23.22-1.8,6.88.09,13.86,5.47,20.2,2.2,2.81,5.17,5.29,8.84,7.4,8.36,4.83,19.49,7.49,31.34,7.49h.07ZM462.98,656.9h0,0Z"/>
            <path class="cls-4" d="M446.53,668.16c-.02-5.58,3.65-11.16,11.01-15.41,14.68-8.46,38.51-8.46,53.22.04,7.34,4.24,11.03,9.79,11.04,15.35h0v6.7h0c0,5.57-3.66,11.13-11.02,15.37-14.68,8.49-38.51,8.49-53.22-.02-7.37-4.26-11.05-9.84-11.03-15.41v-6.62Z"/>
            <path class="cls-2" d="M457.56,683.49c14.71,8.5,38.54,8.5,53.22.02,7.36-4.23,11.02-9.79,11.02-15.36v6.69c0,5.57-3.66,11.13-11.02,15.37-14.68,8.49-38.51,8.49-53.22-.02-7.37-4.26-11.05-9.84-11.03-15.41v-6.62c.02,5.55,3.7,11.09,11.03,15.33Z"/>
            <path class="cls-9" d="M484.11,646.41c9.64,0,19.29,2.13,26.66,6.38,7.34,4.24,11.03,9.79,11.04,15.35v6.7c0,5.57-3.66,11.13-11.02,15.37-7.33,4.24-16.96,6.36-26.59,6.36s-19.28-2.12-26.63-6.38c-7.37-4.26-11.05-9.84-11.03-15.41v-6.62c-.02-5.58,3.65-11.16,11.01-15.41,7.33-4.23,16.95-6.34,26.57-6.34h0ZM484.11,643.8h0c-10.49,0-20.38,2.38-27.87,6.69-7.96,4.6-12.34,10.88-12.32,17.68v6.61c-.02,6.79,4.36,13.06,12.34,17.67,7.5,4.34,17.43,6.73,27.94,6.73s20.4-2.38,27.89-6.71c7.96-4.58,12.34-10.84,12.33-17.63v-6.69c-.01-6.77-4.4-13.03-12.34-17.61-7.51-4.34-17.44-6.73-27.96-6.73h0Z"/>
            <path class="cls-4" d="M466.83,568.27c-.01-2.57,1.68-5.14,5.07-7.1,6.77-3.9,17.75-3.9,24.52.02,3.38,1.95,5.08,4.51,5.09,7.07h0c0,99.8,16.3,85.49,16.32,99.86h0v.03h0c0,4.98-3.28,9.95-9.86,13.73-13.13,7.59-34.44,7.59-47.6-.02-6.56-3.79-9.85-8.75-9.86-13.72,0-14.42,16.32-.01,16.32-99.88Z"/>
            <path class="cls-2" d="M492.58,668.16h0v-.03c0-14.38-4.08-.06-4.08-99.86h0c0-.79-.04-4.64-.12-9.68,2.94.43,5.74,1.26,8.04,2.6,3.38,1.95,5.08,4.51,5.09,7.07h0c0,99.8,16.3,85.49,16.32,99.86h0v.03h0c0,4.98-3.28,9.95-9.86,13.73-4.93,2.85-11.02,4.63-17.4,5.34,1.34-4.66,2.02-14.57,2.02-19.07Z"/>
            <path class="cls-9" d="M484.19,688.85c-8.86,0-17.73-1.95-24.48-5.85-6.76-3.91-10.5-9.18-10.51-14.84,0-4.38,1.44-6.46,3.26-9.09,4.56-6.58,13.06-18.84,13.06-90.79-.01-3.16,2.02-6.09,5.72-8.23,7.13-4.11,18.72-4.1,25.83.02,3.69,2.12,5.73,5.03,5.74,8.2,0,71.96,8.49,84.22,13.06,90.8,1.82,2.62,3.26,4.7,3.26,9.06,0,5.71-3.73,10.99-10.51,14.89-6.73,3.89-15.58,5.83-24.42,5.83ZM484.13,559.54c-4.2,0-8.39.92-11.59,2.76-2.85,1.65-4.42,3.77-4.41,5.96h0c0,72.78-8.8,85.47-13.52,92.29-1.75,2.52-2.8,4.04-2.8,7.6.01,4.69,3.29,9.16,9.21,12.59,12.77,7.38,33.54,7.39,46.29.02,5.94-3.42,9.21-7.89,9.21-12.6,0-3.57-1.06-5.09-2.8-7.6-4.73-6.82-13.52-19.51-13.52-92.28,0-2.2-1.58-4.31-4.43-5.95-3.21-1.85-7.42-2.78-11.63-2.78Z"/>
            <path class="cls-4" d="M464.59,561.58c0-2.9,1.9-5.79,5.73-8.01,7.63-4.4,20.03-4.4,27.68.02,3.82,2.2,5.73,5.09,5.74,7.99h0v6.7h0c0,2.89-1.91,5.79-5.73,7.99-7.63,4.41-20.03,4.41-27.68,0-3.81-2.2-5.72-5.09-5.73-7.98v-6.7h0Z"/>
            <path class="cls-2" d="M470.33,569.55c7.65,4.42,20.05,4.42,27.68,0,3.83-2.2,5.73-5.1,5.73-7.99v6.69h0c0,2.89-1.91,5.79-5.73,7.99-7.63,4.41-20.03,4.41-27.68,0-3.81-2.2-5.72-5.09-5.73-7.98v-6.7c0,2.89,1.92,5.77,5.73,7.98Z"/>
            <path class="cls-9" d="M484.14,550.27c5.01,0,10.03,1.1,13.86,3.32,3.82,2.2,5.73,5.09,5.74,7.99h0v6.7h0c0,2.89-1.91,5.79-5.73,7.99-3.81,2.21-8.82,3.31-13.82,3.31s-10.03-1.11-13.85-3.32c-3.81-2.2-5.72-5.09-5.73-7.98v-6.7c0-2.9,1.9-5.79,5.73-8.01,3.81-2.2,8.82-3.3,13.82-3.3h0ZM484.14,547.66h0c-5.67,0-11.04,1.3-15.12,3.65-4.54,2.62-7.04,6.27-7.03,10.27v6.69c.01,3.99,2.51,7.62,7.04,10.24,4.09,2.37,9.47,3.67,15.16,3.67s11.05-1.3,15.13-3.66c4.54-2.62,7.04-6.25,7.04-10.24v-6.7c-.01-4-2.52-7.64-7.04-10.25-4.09-2.36-9.48-3.66-15.16-3.66h0Z"/>
            <path class="cls-8" d="M470.99,562.96s-.01-.03-.02-.04c-2.08-3.12-13.99-24.7-13.99-34.93-.02-4.03,2.64-8.06,7.95-11.13,10.61-6.12,27.82-6.12,38.46.02,5.3,3.06,7.95,7.08,7.96,11.09h0v.02h0c0,10.16-11.75,31.5-13.94,34.85-.69,1.03-1.74,2-3.18,2.83-5.55,3.2-14.57,3.2-20.12,0-1.37-.79-2.39-1.7-3.08-2.67-.01,0-.02-.01-.03-.03h0Z"/>
            <path class="cls-5" d="M503.39,539.08c-10.6,6.12-27.82,6.12-38.45-.01-5.3-3.06-7.95-7.07-7.96-11.08,0,10.23,11.91,31.81,13.99,34.93,0,.02,0,.03.02.04h0s.02.02.03.03c.69.97,1.72,1.88,3.08,2.67,5.55,3.21,14.57,3.21,20.12,0,1.44-.83,2.49-1.8,3.18-2.83,2.2-3.34,13.94-24.69,13.94-34.85,0,4.01-2.64,8.03-7.96,11.09Z"/>
            <path class="cls-9" d="M484.17,569.36c-3.88,0-7.76-.85-10.72-2.56-1.46-.84-2.61-1.84-3.44-2.97-.04-.04-.07-.08-.1-.12-.01-.02-.02-.03-.03-.05-.01-.02-.03-.05-.04-.08-2.51-3.82-14.17-25.21-14.17-35.58-.02-4.68,3.04-9.04,8.6-12.26,10.96-6.32,28.8-6.31,39.76.02,5.54,3.2,8.6,7.54,8.62,12.22,0,10.39-11.66,31.78-14.16,35.59-.83,1.25-2.05,2.34-3.62,3.24-2.95,1.7-6.83,2.56-10.71,2.56ZM472.06,562.2s.02.02.02.03c.61.85,1.51,1.63,2.68,2.3,5.19,3,13.63,3,18.81,0,1.22-.7,2.14-1.52,2.75-2.42,2.32-3.54,13.72-24.49,13.72-34.12-.01-3.72-2.61-7.26-7.31-9.98-10.25-5.92-26.91-5.93-37.15-.02-4.72,2.73-7.31,6.28-7.3,10,0,9.82,11.73,31.15,13.77,34.21,0,0,0,0,0,0Z"/>
            <path class="cls-4" d="M473.97,493.15c5.62-5.63,14.74-5.62,20.35,0,5.63,5.62,5.63,14.74,0,20.36-5.62,5.63-14.74,5.62-20.36,0-5.63-5.62-5.63-14.74,0-20.36Z"/>
            <path class="cls-2" d="M489.6,508.78c4.8-4.81,5.47-12.14,2.06-17.69.95.58,1.86,1.24,2.67,2.06,5.63,5.62,5.63,14.74,0,20.36-5.62,5.63-14.74,5.62-20.36,0-.82-.82-1.49-1.73-2.06-2.67,5.55,3.41,12.88,2.75,17.69-2.06Z"/>
            <path class="cls-9" d="M484.16,519.03h0c-4.19,0-8.14-1.63-11.1-4.6-2.97-2.97-4.6-6.91-4.6-11.1s1.63-8.14,4.6-11.1c2.96-2.97,6.91-4.6,11.1-4.6h0c4.19,0,8.13,1.63,11.1,4.6,2.97,2.96,4.6,6.91,4.6,11.1,0,4.2-1.63,8.14-4.6,11.1-2.96,2.97-6.91,4.6-11.1,4.6ZM484.15,490.24c-3.5,0-6.78,1.36-9.25,3.83,0,0,0,0,0,0-2.47,2.47-3.84,5.76-3.84,9.26s1.36,6.79,3.84,9.26c2.47,2.47,5.76,3.83,9.26,3.84h0c3.5,0,6.78-1.36,9.25-3.84,2.47-2.47,3.83-5.76,3.83-9.26,0-3.5-1.36-6.79-3.84-9.26-2.47-2.47-5.76-3.84-9.25-3.84h0ZM473.97,493.15h0,0Z"/>
          </g>
        </g>
      </g>
    </g>
  </g>
</svg>